%FSLAX33Y33*%
%MOMM*%
G04 EasyPC Gerber Version 17.0 Build 3379 *
%ADD114R,0.50000X0.80000*%
%ADD107R,2.20000X4.40000*%
%ADD109R,2.20000X5.00000*%
%ADD88C,0.20000*%
%ADD103C,0.40000*%
%ADD73C,0.60000*%
%ADD115C,0.70000*%
%ADD106C,1.20000*%
%ADD112C,1.30000*%
%ADD26C,1.60000*%
%ADD28C,1.90000*%
%ADD27C,2.00000*%
%ADD111C,2.20000*%
%ADD104C,2.40000*%
%ADD110R,4.40000X2.20000*%
X0Y0D02*
D02*
D26*
X7180Y169740D03*
Y172280D03*
Y174820D03*
Y177360D03*
Y179900D03*
Y182440D03*
X9720Y169740D03*
Y172280D03*
Y174820D03*
Y177360D03*
Y179900D03*
Y182440D03*
X12260Y169740D03*
Y172280D03*
Y174820D03*
Y177360D03*
Y179900D03*
Y182440D03*
X14165Y64330D03*
Y66870D03*
Y69410D03*
Y71950D03*
Y74490D03*
Y77030D03*
Y79570D03*
X14800Y169740D03*
Y172280D03*
Y174820D03*
Y177360D03*
Y179900D03*
Y182440D03*
X16705Y64330D03*
Y66870D03*
Y69410D03*
Y71950D03*
Y74490D03*
Y77030D03*
Y79570D03*
X17340Y169740D03*
Y172280D03*
Y174820D03*
Y177360D03*
Y179900D03*
Y182440D03*
Y184980D03*
X19880Y169740D03*
Y172280D03*
Y174820D03*
Y177360D03*
Y179900D03*
Y182440D03*
Y184980D03*
Y187520D03*
X22420Y169740D03*
Y172280D03*
Y174820D03*
Y177360D03*
Y179900D03*
Y182440D03*
Y184980D03*
Y187520D03*
Y190060D03*
Y192600D03*
Y195140D03*
Y197680D03*
X24960Y169740D03*
Y172280D03*
Y174820D03*
Y177360D03*
Y179900D03*
Y182440D03*
Y184980D03*
Y187520D03*
Y190060D03*
Y192600D03*
Y195140D03*
Y197680D03*
X26905Y45915D03*
X27500Y169740D03*
Y172280D03*
Y174820D03*
Y177360D03*
Y179900D03*
Y182440D03*
Y184980D03*
Y187520D03*
Y190060D03*
Y192600D03*
Y195140D03*
Y197680D03*
X28100Y88350D03*
Y91350D03*
Y94600D03*
X29405Y48415D03*
X30040Y169740D03*
Y172280D03*
Y174820D03*
Y177360D03*
Y179900D03*
Y182440D03*
Y184980D03*
Y187520D03*
Y190060D03*
Y192600D03*
Y195140D03*
Y197680D03*
X31905Y45915D03*
X32580Y169740D03*
Y172280D03*
Y174820D03*
Y177360D03*
Y179900D03*
Y182440D03*
Y184980D03*
Y187520D03*
Y190060D03*
Y192600D03*
Y195140D03*
Y197680D03*
X35120Y169740D03*
Y172280D03*
Y174820D03*
Y177360D03*
Y179900D03*
Y182440D03*
Y184980D03*
Y187520D03*
Y190060D03*
Y192600D03*
Y195140D03*
Y197680D03*
X37660Y169740D03*
Y172280D03*
Y174820D03*
Y177360D03*
Y179900D03*
Y182440D03*
Y184980D03*
Y187520D03*
Y190060D03*
Y192600D03*
Y195140D03*
Y197680D03*
X38100Y78600D03*
Y81850D03*
Y85100D03*
Y88350D03*
Y91350D03*
Y94600D03*
X40200Y169740D03*
Y172280D03*
Y174820D03*
Y177360D03*
Y179900D03*
Y182440D03*
Y184980D03*
Y187520D03*
Y190060D03*
Y192600D03*
Y195140D03*
Y197680D03*
X42740Y169740D03*
Y172280D03*
Y174820D03*
Y177360D03*
Y179900D03*
Y182440D03*
Y184980D03*
Y187520D03*
Y190060D03*
Y192600D03*
Y195140D03*
Y197680D03*
X45280Y169740D03*
Y172280D03*
Y174820D03*
Y177360D03*
Y179900D03*
Y182440D03*
Y184980D03*
Y187520D03*
Y190060D03*
Y192600D03*
Y195140D03*
Y197680D03*
X45600Y97600D03*
X47820Y169740D03*
Y172280D03*
Y174820D03*
Y177360D03*
Y179900D03*
Y182440D03*
Y184980D03*
Y187520D03*
Y190060D03*
Y192600D03*
Y195140D03*
Y197680D03*
X48100Y78600D03*
Y81850D03*
Y85100D03*
X50360Y169740D03*
Y172280D03*
Y174820D03*
Y177360D03*
Y179900D03*
Y182440D03*
Y184980D03*
Y187520D03*
Y190060D03*
Y192600D03*
Y195140D03*
Y197680D03*
X52900Y172280D03*
Y174820D03*
Y177360D03*
Y179900D03*
Y182440D03*
Y184980D03*
Y187520D03*
Y190060D03*
Y192600D03*
Y195140D03*
Y197680D03*
X55440Y174820D03*
Y177360D03*
Y179900D03*
Y182440D03*
Y184980D03*
Y187520D03*
Y190060D03*
Y192600D03*
Y195140D03*
Y197680D03*
X57980Y98620D03*
Y101160D03*
Y121480D03*
Y124020D03*
Y177360D03*
Y179900D03*
Y182440D03*
Y184980D03*
Y187520D03*
Y190060D03*
Y192600D03*
Y195140D03*
Y197680D03*
X60520Y98620D03*
Y101160D03*
Y121480D03*
Y124020D03*
Y179900D03*
Y182440D03*
Y184980D03*
Y187520D03*
Y190060D03*
Y192600D03*
Y195140D03*
Y197680D03*
X63060Y98620D03*
Y101160D03*
Y121480D03*
Y124020D03*
Y182440D03*
Y184980D03*
Y187520D03*
Y190060D03*
Y192600D03*
Y195140D03*
Y197680D03*
X65600Y98620D03*
Y101160D03*
Y121480D03*
Y124020D03*
Y184980D03*
Y187520D03*
Y190060D03*
Y192600D03*
Y195140D03*
Y197680D03*
X68140Y98620D03*
Y101160D03*
Y121480D03*
Y124020D03*
Y184980D03*
Y187520D03*
Y190060D03*
Y192600D03*
Y195140D03*
Y197680D03*
X70100Y164100D03*
Y174100D03*
X70680Y98620D03*
Y101160D03*
Y121480D03*
Y124020D03*
Y184980D03*
Y187520D03*
Y190060D03*
Y192600D03*
Y195140D03*
Y197680D03*
X72100Y164100D03*
Y174100D03*
X73220Y98620D03*
Y101160D03*
Y121480D03*
Y124020D03*
X74100Y164100D03*
Y174100D03*
X75760Y98620D03*
Y101160D03*
Y121480D03*
Y124020D03*
X76100Y164100D03*
Y174100D03*
X77350Y190350D03*
Y193350D03*
X78300Y98620D03*
Y101160D03*
Y121480D03*
Y124020D03*
X79890Y190350D03*
Y193350D03*
X80205Y43375D03*
X80840Y98620D03*
Y101160D03*
Y121480D03*
Y124020D03*
X81475Y45280D03*
X81804Y83054D03*
X82745Y43375D03*
X83380Y98620D03*
Y101160D03*
Y121480D03*
Y124020D03*
X83554Y73804D03*
X85100Y164100D03*
Y174100D03*
Y184100D03*
Y194100D03*
X85920Y98620D03*
Y101160D03*
Y121480D03*
Y124020D03*
X87100Y164100D03*
Y174100D03*
Y184100D03*
Y194100D03*
X88460Y98620D03*
Y101160D03*
Y121480D03*
Y124020D03*
X88988Y75870D03*
X89100Y164100D03*
Y174100D03*
Y184100D03*
Y194100D03*
X90738Y66620D03*
X91000Y98620D03*
Y101160D03*
Y121480D03*
Y124020D03*
X91100Y164100D03*
Y174100D03*
Y184100D03*
Y194100D03*
X93540Y98620D03*
Y101160D03*
Y121480D03*
Y124020D03*
X96080Y98620D03*
Y101160D03*
Y121480D03*
Y124020D03*
X98620Y98620D03*
Y101160D03*
Y121480D03*
Y124020D03*
X100100Y164100D03*
Y174100D03*
X101160Y98620D03*
Y101160D03*
Y121480D03*
Y124020D03*
X102100Y164100D03*
Y174100D03*
X103700Y98620D03*
Y101160D03*
Y121480D03*
Y124020D03*
X104100Y164100D03*
Y174100D03*
X106100Y164100D03*
Y174100D03*
X106240Y98620D03*
Y101160D03*
Y121480D03*
Y124020D03*
X108780Y98620D03*
Y101160D03*
Y121480D03*
Y124020D03*
X111320Y98620D03*
Y101160D03*
Y121480D03*
Y124020D03*
X113860Y98620D03*
Y101160D03*
Y121480D03*
Y124020D03*
X115100Y164100D03*
Y174100D03*
Y184100D03*
Y194100D03*
X116400Y98620D03*
Y101160D03*
Y121480D03*
Y124020D03*
X117100Y164100D03*
Y174100D03*
Y184100D03*
Y194100D03*
X118940Y98620D03*
Y101160D03*
Y121480D03*
Y124020D03*
X119100Y164100D03*
Y174100D03*
Y184100D03*
Y194100D03*
X121100Y164100D03*
Y174100D03*
Y184100D03*
Y194100D03*
X121480Y98620D03*
Y101160D03*
Y121480D03*
Y124020D03*
X124020Y98620D03*
Y101160D03*
Y121480D03*
Y124020D03*
X126560Y98620D03*
Y101160D03*
Y121480D03*
Y124020D03*
X129100Y98620D03*
Y101160D03*
Y121480D03*
Y124020D03*
X131640Y98620D03*
Y101160D03*
Y121480D03*
Y124020D03*
D02*
D27*
X5275Y167200D03*
X5910Y5910D03*
X6600Y197600D03*
X7860Y87220D03*
X8600Y67600D03*
X9600Y51100D03*
X10350Y106600D03*
X10673Y25913D03*
X17350Y119600D03*
X17975Y189425D03*
X24350Y97350D03*
X27060Y136100D03*
X27100Y161350D03*
X27600Y55350D03*
X29405Y12895D03*
X29600Y136100D03*
X33100Y132850D03*
X33215Y66235D03*
X33850Y57663D03*
X34485Y41470D03*
X35120Y106875D03*
X38350Y119600D03*
X41470Y75760D03*
X46260Y58420D03*
X47185Y67505D03*
X48455Y102430D03*
X49350Y166350D03*
X55440Y66870D03*
X58310Y170100D03*
X59060Y52660D03*
X60850Y170100D03*
X63390D03*
X65100Y157600D03*
X66350Y181100D03*
X68140Y134180D03*
X68775Y13530D03*
X71850Y144600D03*
X71950Y116400D03*
X73855Y198315D03*
X75850Y85600D03*
X77665Y27818D03*
X78850Y75600D03*
X79570Y108780D03*
X81850Y160100D03*
X82600Y190100D03*
X85850Y29600D03*
X88350Y136600D03*
X90365Y116400D03*
X90850Y198850D03*
X92100Y52850D03*
X92350Y80850D03*
X92600Y169600D03*
X95100Y66600D03*
X100600Y192350D03*
X101350Y29850D03*
Y35600D03*
Y45600D03*
X103700Y107510D03*
X105100Y44100D03*
X106240Y116400D03*
X107100Y199100D03*
X109600Y168350D03*
X110100Y184100D03*
X112590Y85285D03*
X114100Y156600D03*
X114177Y61155D03*
X114495Y117670D03*
X115448Y30358D03*
X116400Y46233D03*
X122100Y198850D03*
X125600Y112350D03*
X126521Y70024D03*
X128783Y32263D03*
X131350Y173850D03*
X132275Y46550D03*
X133545Y84333D03*
Y129100D03*
X134180Y157040D03*
X134498Y59885D03*
X137355Y99573D03*
X137673Y5910D03*
X137990Y25278D03*
Y115765D03*
Y136720D03*
X138100Y182100D03*
Y198600D03*
D02*
D28*
X38930Y148150D03*
Y153230D03*
X41470Y148150D03*
Y153230D03*
X44010Y148150D03*
Y153230D03*
X46550Y148150D03*
Y153230D03*
X49090Y148150D03*
Y153230D03*
X51630Y148150D03*
Y153230D03*
X54170Y148150D03*
Y153230D03*
X56710Y148150D03*
Y153230D03*
X59250Y148150D03*
Y153230D03*
X61790Y148150D03*
Y153230D03*
X64330Y148150D03*
Y153230D03*
X66870Y148150D03*
Y153230D03*
X69410Y148150D03*
Y153230D03*
X73855Y148150D03*
Y153230D03*
X76395Y148150D03*
Y153230D03*
X78935Y148150D03*
Y153230D03*
X81475Y148150D03*
Y153230D03*
X84015Y148150D03*
Y153230D03*
X86555Y148150D03*
Y153230D03*
X89095Y148150D03*
Y153230D03*
X91635Y148150D03*
Y153230D03*
X94175Y148150D03*
Y153230D03*
X96715Y148150D03*
Y153230D03*
X99255Y148150D03*
Y153230D03*
X101795Y148150D03*
Y153230D03*
X104335Y148150D03*
Y153230D03*
X106875Y148150D03*
Y153230D03*
X109415Y148150D03*
Y153230D03*
X111955Y148150D03*
Y153230D03*
X114495Y148150D03*
Y153230D03*
X117035Y148150D03*
Y153230D03*
X119575Y148150D03*
Y153230D03*
X122115Y148150D03*
Y153230D03*
X124655Y148150D03*
Y153230D03*
X127195Y148150D03*
Y153230D03*
X129735Y148150D03*
Y153230D03*
X132275Y148150D03*
Y153230D03*
X134815Y148150D03*
Y153230D03*
X137355Y148150D03*
Y153230D03*
D02*
D73*
X17970Y66374D03*
X18287Y76530D03*
X18293Y71950D03*
Y74490D03*
Y78300D03*
X18927Y69410D03*
X31310Y199585D03*
X45350Y162100D03*
X45600Y156100D03*
X49090Y199585D03*
X50850Y156100D03*
X57100Y161850D03*
X59850Y165350D03*
X60520Y78935D03*
X65100Y173850D03*
X67100Y163100D03*
X69410Y120210D03*
X70850Y171350D03*
X71100Y161100D03*
Y165100D03*
X72850Y157350D03*
Y172850D03*
X79570Y97350D03*
Y120210D03*
X79850Y195100D03*
X82110Y97350D03*
X82600Y194350D03*
X84650Y97350D03*
X86100Y163100D03*
Y165100D03*
Y173100D03*
Y175100D03*
Y183100D03*
Y185100D03*
Y193100D03*
X87190Y97350D03*
X87850Y165350D03*
Y172850D03*
Y175350D03*
Y182850D03*
Y185350D03*
Y192850D03*
X89730Y97350D03*
X92270D03*
X94810D03*
X97350Y120210D03*
X100100Y156100D03*
X102850Y155850D03*
X105350Y156100D03*
X116100Y175100D03*
Y185100D03*
X116350Y165350D03*
X117850Y172850D03*
Y182850D03*
Y192850D03*
D02*
D88*
X3763Y5437D02*
X5437Y3763D01*
X138764*
X140437Y5437*
Y198764*
X138764Y200437*
X5437*
X3763Y198764*
Y5437*
X6096Y169554D02*
X5910Y169740D01*
Y182440*
X6096Y182626*
G75*
G02X6994Y183524I1084J-186*
G01*
X7000Y183530*
X7032*
G75*
G02X7328I148J-1090*
G01*
X9572*
G75*
G02X9868I148J-1090*
G01*
X12112*
G75*
G02X12408I148J-1090*
G01*
X14620*
X16256Y185166*
G75*
G02X17154Y186064I1084J-186*
G01*
X18796Y187706*
G75*
G02X19694Y188604I1084J-186*
G01*
X21150Y190060*
Y197680*
X21336Y197866*
G75*
G02X22234Y198764I1084J-186*
G01*
X22420Y198950*
X70680*
X70866Y198764*
G75*
G02X71764Y197866I-186J-1084*
G01*
X71950Y197680*
Y184980*
X71764Y184794*
G75*
G02X70866Y183896I-1084J186*
G01*
X70680Y183710*
X65600*
X64144Y182254*
G75*
G02X63246Y181356I-1084J186*
G01*
X61604Y179714*
G75*
G02X60706Y178816I-1084J186*
G01*
X59064Y177174*
G75*
G02X58166Y176276I-1084J186*
G01*
X56524Y174634*
G75*
G02X55626Y173736I-1084J186*
G01*
X53984Y172094*
G75*
G02X53086Y171196I-1084J186*
G01*
X51444Y169554*
G75*
G02X50546Y168656I-1084J186*
G01*
X50360Y168470*
X7180*
X6994Y168656*
G75*
G02X6096Y169554I186J1084*
G01*
X7950Y140600D02*
G75*
G02X10750I1400D01*
G01*
G75*
G02X7950I-1400*
G01*
X8300Y127250D02*
Y132450D01*
X11300*
Y127250*
X8300*
X9350Y145500D02*
G75*
G02Y143700J-900D01*
G01*
G75*
G02Y145500J900*
G01*
X10523Y148401D02*
G75*
G02X9310Y147700I-1213J699D01*
G01*
G75*
G02Y150500J1400*
G01*
G75*
G02X10523Y149799J-1400*
G01*
G75*
G02X13177I1327J-699*
G01*
G75*
G02X14390Y150500I1213J-699*
G01*
G75*
G02X15340Y148072J-1400*
G01*
Y146300*
X18831*
G75*
G02X19800Y145350I20J-950*
G01*
G75*
G02X18831Y144400I-950*
G01*
X15300*
Y141628*
G75*
G02X15750Y140600I-950J-1028*
G01*
G75*
G02X12950I-1400*
G01*
G75*
G02X13400Y141628I1400*
G01*
Y144947*
G75*
G02X13360Y145641I950J403*
G01*
Y148152*
G75*
G02X13177Y148401I1030J948*
G01*
G75*
G02X10523I-1327J699*
G01*
X11100Y14600D02*
G75*
G02Y7600J-3500D01*
G01*
G75*
G02Y14600J3500*
G01*
Y196600D02*
G75*
G02Y189600J-3500D01*
G01*
G75*
G02Y196600J3500*
G01*
X11850Y145600D02*
G75*
G02Y143600J-1000D01*
G01*
G75*
G02Y145600J1000*
G01*
X13185Y80070D02*
G75*
G02X15063Y80205I980J-500D01*
G01*
X15807*
G75*
G02X16705Y80670I898J-635*
G01*
G75*
G02X17340Y78672J-1100*
G01*
Y77928*
G75*
G02X17441Y77847I-635J-898*
G01*
X20625*
X37050Y94272*
G75*
G02X38428Y95650I1050J328*
G01*
X38576Y95799*
G75*
G02X38930Y95945I353J-354*
G01*
X78728*
X80340Y97557*
Y97640*
G75*
G02Y99600I500J980*
G01*
Y100180*
G75*
G02X79740Y101160I500J980*
G01*
G75*
G02X81940I1100*
G01*
G75*
G02X81340Y100180I-1100*
G01*
Y99600*
G75*
G02Y97640I-500J-980*
G01*
Y97350*
G75*
G02X81194Y96996I-500J0*
G01*
X79289Y95091*
G75*
G02X78935Y94945I-353J354*
G01*
X39145*
G75*
G02X37750Y93557I-1045J-345*
G01*
X21186Y76994*
G75*
G02X20833Y76847I-353J354*
G01*
X17790*
G75*
G02X17491Y76260I-1085J183*
G01*
X22213*
X37034Y91081*
G75*
G02X38369Y92417I1067J269*
G01*
X40481Y94529*
G75*
G02X40835Y94675I353J-354*
G01*
X80633*
X82880Y96922*
Y97640*
G75*
G02Y99600I500J980*
G01*
Y100180*
G75*
G02X82280Y101160I500J980*
G01*
G75*
G02X84480I1100*
G01*
G75*
G02X83880Y100180I-1100*
G01*
Y99600*
G75*
G02Y97640I-500J-980*
G01*
Y96715*
G75*
G02X83734Y96361I-500J0*
G01*
X81194Y93821*
G75*
G02X80840Y93675I-353J354*
G01*
X41042*
X39123Y91755*
G75*
G02X37695Y90327I-1023J-405*
G01*
X22774Y75406*
G75*
G02X22420Y75260I-353J354*
G01*
X17491*
G75*
G02Y73720I-786J-770*
G01*
X22848*
X37076Y87948*
G75*
G02X38502Y89374I1024J402*
G01*
X42386Y93259*
G75*
G02X42740Y93405I353J-354*
G01*
X81903*
X85420Y96922*
Y97640*
G75*
G02Y99600I500J980*
G01*
Y100180*
G75*
G02X84820Y101160I500J980*
G01*
G75*
G02X87020I1100*
G01*
G75*
G02X86420Y100180I-1100*
G01*
Y99600*
G75*
G02Y97640I-500J-980*
G01*
Y96715*
G75*
G02X86274Y96361I-500J0*
G01*
X82464Y92551*
G75*
G02X82110Y92405I-353J354*
G01*
X42947*
X39166Y88623*
G75*
G02X37827Y87284I-1066J-273*
G01*
X23409Y72866*
G75*
G02X23055Y72720I-353J354*
G01*
X17491*
G75*
G02Y71180I-786J-770*
G01*
X23483*
X37056Y84753*
G75*
G02X38447Y86144I1044J347*
G01*
X44291Y91989*
G75*
G02X44645Y92135I353J-354*
G01*
X83173*
X87960Y96922*
Y97640*
G75*
G02Y99600I500J980*
G01*
Y100180*
G75*
G02X87360Y101160I500J980*
G01*
G75*
G02X89560I1100*
G01*
G75*
G02X88960Y100180I-1100*
G01*
Y99600*
G75*
G02Y97640I-500J-980*
G01*
Y96715*
G75*
G02X88814Y96361I-500J0*
G01*
X83734Y91281*
G75*
G02X83380Y91135I-353J354*
G01*
X44852*
X39149Y85432*
G75*
G02X37768Y84051I-1049J-332*
G01*
X24044Y70326*
G75*
G02X23690Y70180I-353J354*
G01*
X18293*
Y68640*
X24118*
X37039Y81561*
G75*
G02X38389Y82911I1061J289*
G01*
X46196Y90719*
G75*
G02X46550Y90865I353J-354*
G01*
X84443*
X90500Y96922*
Y97640*
G75*
G02Y99600I500J980*
G01*
Y100180*
G75*
G02X89900Y101160I500J980*
G01*
G75*
G02X92100I1100*
G01*
G75*
G02X91500Y100180I-1100*
G01*
Y99600*
G75*
G02Y97640I-500J-980*
G01*
Y96715*
G75*
G02X91354Y96361I-500J0*
G01*
X85004Y90011*
G75*
G02X84650Y89865I-353J354*
G01*
X46757*
X39130Y82237*
G75*
G02X37713Y80821I-1030J-387*
G01*
X24679Y67786*
G75*
G02X24325Y67640I-353J354*
G01*
X17491*
G75*
G02Y66100I-786J-770*
G01*
X24753*
X37024Y78371*
G75*
G02X38329Y79676I1076J229*
G01*
X48101Y89449*
G75*
G02X48455Y89595I353J-354*
G01*
X85713*
X93040Y96922*
Y97640*
G75*
G02Y99600I500J980*
G01*
Y100180*
G75*
G02X92440Y101160I500J980*
G01*
G75*
G02X94640I1100*
G01*
G75*
G02X94040Y100180I-1100*
G01*
Y99600*
G75*
G02Y97640I-500J-980*
G01*
Y96715*
G75*
G02X93894Y96361I-500J0*
G01*
X86274Y88741*
G75*
G02X85920Y88595I-353J354*
G01*
X48662*
X39108Y79041*
G75*
G02X37659Y77592I-1008J-441*
G01*
X25314Y65246*
G75*
G02X24960Y65100I-353J354*
G01*
X18475*
X18610Y64965*
Y63695*
X17340Y62425*
X16070*
X14943Y63552*
G75*
G02X14165Y63230I-778J778*
G01*
G75*
G02X13530Y65228J1100*
G01*
Y65972*
G75*
G02Y67768I635J898*
G01*
Y68512*
G75*
G02X13397Y70198I635J898*
G01*
G75*
G02X13176Y70326I133J482*
G01*
X10636Y72866*
G75*
G02X10490Y73220I354J353*
G01*
Y77665*
G75*
G02X10636Y78019I500J0*
G01*
X12541Y79924*
G75*
G02X12895Y80070I353J-354*
G01*
X13185*
X14400Y127050D02*
Y132650D01*
X17200*
Y127050*
X14400*
X15350Y123550D02*
X10350D01*
Y126350*
X15350*
Y123550*
X15420Y48173D02*
Y48455D01*
G75*
G02X15610Y48915I650*
G01*
X27675Y60980*
G75*
G02X28135Y61170I460J-460*
G01*
X34216*
X52440Y79395*
G75*
G02X52900Y79585I460J-460*
G01*
X60183*
G75*
G02X60857I337J-650*
G01*
X82793*
X95303Y92095*
G75*
G02X95763Y92285I460J-460*
G01*
X115496*
X120830Y97619*
Y97733*
G75*
G02X120530Y99174I650J887*
G01*
Y100606*
G75*
G02Y101715I950J555*
G01*
Y105586*
G75*
G02X121480Y106555I950J20*
G01*
G75*
G02X122430Y105586J-950*
G01*
Y101715*
G75*
G02Y100606I-950J-555*
G01*
Y99570*
X123466*
G75*
G02X125120Y98620I555J-950*
G01*
G75*
G02X123466Y97670I-1100*
G01*
X122130*
Y97350*
G75*
G02X121940Y96890I-650*
G01*
X116225Y91175*
G75*
G02X115765Y90985I-460J460*
G01*
X96032*
X83522Y78475*
G75*
G02X83063Y78285I-460J460*
G01*
X60857*
G75*
G02X60183I-337J650*
G01*
X53169*
X34945Y60060*
G75*
G02X34485Y59870I-460J460*
G01*
X28404*
X16720Y48186*
Y48173*
G75*
G02X16970Y47550I-650J-623*
G01*
G75*
G02X15170I-900*
G01*
G75*
G02X15420Y48173I900*
G01*
X15700Y61000D02*
G75*
G02Y54000J-3500D01*
G01*
G75*
G02Y61000J3500*
G01*
Y89900D02*
G75*
G02Y82900J-3500D01*
G01*
G75*
G02Y89900J3500*
G01*
X17070Y45550D02*
G75*
G02X15070I-1000D01*
G01*
G75*
G02X17070I1000*
G01*
X19850Y143350D02*
G75*
G02X17850I-1000D01*
G01*
G75*
G02X19850I1000*
G01*
X19865Y49103D02*
G75*
G02X20515Y50625I650J623D01*
G01*
G75*
G02X21165Y49103J-900*
G01*
Y48089*
X25229Y44025*
X29096*
X30818Y45747*
G75*
G02X31905Y47015I1087J168*
G01*
G75*
G02Y44815J-1100*
G01*
G75*
G02X31737Y44828I0J1100*
G01*
X29825Y42915*
G75*
G02X29365Y42725I-460J460*
G01*
X24960*
G75*
G02X24500Y42915J650*
G01*
X20055Y47360*
G75*
G02X19865Y47820I460J460*
G01*
Y49103*
X21850Y50350D02*
X22600Y51100D01*
X23600*
X24350Y50350*
Y48350*
X25350Y47350*
X27850*
X28600Y46600*
Y45350*
X27850Y44350*
X25350*
X21850Y47850*
Y50350*
X22750Y129850D02*
G75*
G02X20950I-900D01*
G01*
G75*
G02X22750I900*
G01*
X22850Y127850D02*
G75*
G02X20850I-1000D01*
G01*
G75*
G02X22850I1000*
G01*
X23200Y140600D02*
G75*
G02X26000I1400D01*
G01*
G75*
G02X23200I-1400*
G01*
X24600Y145500D02*
G75*
G02Y143700J-900D01*
G01*
G75*
G02Y145500J900*
G01*
X25773Y148401D02*
G75*
G02X24560Y147700I-1213J699D01*
G01*
G75*
G02Y150500J1400*
G01*
G75*
G02X25773Y149799J-1400*
G01*
G75*
G02X28427I1327J-699*
G01*
G75*
G02X29640Y150500I1213J-699*
G01*
G75*
G02X30550Y148036J-1400*
G01*
Y146300*
X34081*
G75*
G02X35050Y145350I20J-950*
G01*
G75*
G02X34081Y144400I-950*
G01*
X30550*
Y141628*
G75*
G02X31000Y140600I-950J-1028*
G01*
G75*
G02X28200I-1400*
G01*
G75*
G02X28650Y141628I1400*
G01*
Y144947*
G75*
G02Y145753I950J403*
G01*
Y148110*
G75*
G02X28427Y148401I990J990*
G01*
G75*
G02X25773I-1327J699*
G01*
X27000Y88350D02*
G75*
G02X29200I1100D01*
G01*
G75*
G02X27000I-1100*
G01*
Y91350D02*
G75*
G02X29200I1100D01*
G01*
G75*
G02X27000I-1100*
G01*
Y94600D02*
G75*
G02X29200I1100D01*
G01*
G75*
G02X27000I-1100*
G01*
X27100Y145600D02*
G75*
G02Y143600J-1000D01*
G01*
G75*
G02Y145600J1000*
G01*
X28330Y135822D02*
G75*
G02X25760Y136100I-1270J278D01*
G01*
G75*
G02X28330Y136378I1300*
G01*
G75*
G02X30900Y136100I1270J-278*
G01*
G75*
G02X28330Y135822I-1300*
G01*
X29405Y49515D02*
G75*
G02Y47315J-1100D01*
G01*
G75*
G02Y49515J1100*
G01*
X30099Y23999D02*
G75*
G02X32362Y26262I1131J1131D01*
G01*
G75*
G02X30099Y23999I-1131J-1131*
G01*
X33387Y30115D02*
G75*
G02X35085Y31813I849J849D01*
G01*
G75*
G02X33387Y30115I-849J-849*
G01*
X34620Y23088D02*
Y24325D01*
G75*
G02X34766Y24679I500J0*
G01*
X39211Y29124*
G75*
G02X39565Y29270I353J-354*
G01*
X41898*
X42308Y29680*
G75*
G02X44666Y31495I1297J754*
G01*
G75*
G02X44909Y31175I-1061J-1061*
G01*
X49518*
X56991Y38649*
G75*
G02X57345Y38795I353J-354*
G01*
X64965*
G75*
G02X65319Y38649I0J-500*
G01*
X66442Y37525*
X86983*
X91135Y41677*
Y44010*
G75*
G02X91281Y44364I500J0*
G01*
X101930Y55012*
Y57345*
G75*
G02X102076Y57699I500J0*
G01*
X103029Y58651*
G75*
G02X103382Y58798I353J-354*
G01*
X105715*
X105740Y58822*
Y59137*
G75*
G02X105340Y59885I500J748*
G01*
G75*
G02X107140I900*
G01*
G75*
G02X106740Y59137I-900*
G01*
Y58615*
G75*
G02X106594Y58261I-500J0*
G01*
X106276Y57944*
G75*
G02X105923Y57798I-353J354*
G01*
X103590*
X102930Y57138*
Y54805*
G75*
G02X102784Y54451I-500J0*
G01*
X92135Y43803*
Y41470*
G75*
G02X91989Y41116I-500J0*
G01*
X87544Y36671*
G75*
G02X87190Y36525I-353J354*
G01*
X66235*
G75*
G02X65881Y36671I0J500*
G01*
X64758Y37795*
X57552*
X50079Y30321*
G75*
G02X49725Y30175I-353J354*
G01*
X45083*
G75*
G02X43073Y29031I-1478J259*
G01*
X42459Y28416*
G75*
G02X42105Y28270I-353J354*
G01*
X39772*
X35620Y24118*
Y22829*
G75*
G02X35827Y22656I-854J-1233*
G01*
G75*
G02X33706Y20535I-1061J-1061*
G01*
G75*
G02X34620Y23088I1061J1061*
G01*
X35100Y143350D02*
G75*
G02X33100I-1000D01*
G01*
G75*
G02X35100I1000*
G01*
X38938Y32838D02*
G75*
G02X41201Y35101I1131J1131D01*
G01*
G75*
G02X38938Y32838I-1131J-1131*
G01*
X39751Y23751D02*
G75*
G02X41449Y25449I849J849D01*
G01*
G75*
G02X39751Y23751I-849J-849*
G01*
X40251Y147873D02*
G75*
G02X37580Y148150I-1321J278D01*
G01*
G75*
G02X40251Y148428I1350*
G01*
G75*
G02X42720Y148150I1219J-278*
G01*
G75*
G02X40251Y147873I-1250*
G01*
Y152952D02*
G75*
G02X37580Y153230I-1321J278D01*
G01*
G75*
G02X40251Y153507I1350*
G01*
G75*
G02X41106Y154426I1219J-278*
G01*
G75*
G02X41246Y154704I494J-76*
G01*
X54746Y168204*
G75*
G02X55100Y168350I353J-354*
G01*
X64893*
X69600Y173057*
Y173120*
G75*
G02X69000Y174100I500J980*
G01*
G75*
G02X71100Y174558I1100*
G01*
G75*
G02X73100I1000J-458*
G01*
G75*
G02X75043Y174667I1000J-458*
G01*
G75*
G02X77300Y174100I1058J-567*
G01*
G75*
G02X75043Y173533I-1200*
G01*
G75*
G02X73100Y173642I-943J567*
G01*
G75*
G02X71100I-1000J458*
G01*
G75*
G02X70600Y173120I-1000J458*
G01*
Y172850*
G75*
G02X70454Y172496I-500J0*
G01*
X65454Y167496*
G75*
G02X65100Y167350I-353J354*
G01*
X55307*
X42201Y154244*
G75*
G02X42720Y153230I-731J-1014*
G01*
G75*
G02X40251Y152952I-1250*
G01*
X41599Y35499D02*
G75*
G02X43862Y37762I1131J1131D01*
G01*
G75*
G02X41599Y35499I-1131J-1131*
G01*
X42760Y148150D02*
G75*
G02X45260I1250D01*
G01*
G75*
G02X42760I-1250*
G01*
Y153230D02*
G75*
G02X45260I1250D01*
G01*
G75*
G02X42760I-1250*
G01*
X44088Y12990D02*
G75*
G02X41670Y12569I-1357J640D01*
G01*
G75*
G02X43792Y14691I1061J1061*
G01*
G75*
G02X44165Y14070I-1061J-1061*
G01*
X45691*
X51090Y19469*
Y21048*
G75*
G02X51130Y23903I480J1421*
G01*
Y30040*
G75*
G02X51276Y30394I500J0*
G01*
X58261Y37379*
G75*
G02X58615Y37525I353J-354*
G01*
X64330*
G75*
G02X64684Y37379I0J-500*
G01*
X65807Y36255*
X87618*
X92405Y41042*
Y43375*
G75*
G02X92551Y43729I500J0*
G01*
X103835Y55012*
Y55644*
G75*
G02X103435Y56393I500J748*
G01*
G75*
G02X105235I900*
G01*
G75*
G02X104835Y55644I-900*
G01*
Y54805*
G75*
G02X104689Y54451I-500J0*
G01*
X93405Y43168*
Y40835*
G75*
G02X93259Y40481I-500J0*
G01*
X88179Y35401*
G75*
G02X87825Y35255I-353J354*
G01*
X65600*
G75*
G02X65246Y35401I0J500*
G01*
X64123Y36525*
X58822*
X52130Y29833*
Y23860*
G75*
G02X52170Y21094I-560J-1391*
G01*
Y19245*
G75*
G02X52012Y18863I-540J0*
G01*
X46297Y13148*
G75*
G02X45915Y12990I-382J382*
G01*
X44088*
X44650Y98154D02*
Y104100D01*
G75*
G02X44928Y104772I950J0*
G01*
X57030Y116874*
Y120926*
G75*
G02Y122035I950J555*
G01*
Y123466*
G75*
G02X56880Y124020I950J555*
G01*
G75*
G02X59080I1100*
G01*
G75*
G02X58930Y123466I-1100*
G01*
Y122035*
G75*
G02Y120926I-950J-555*
G01*
Y116803*
G75*
G02X58247Y115403I-950J-403*
G01*
X46550Y103707*
Y98154*
G75*
G02X46700Y97600I-950J-555*
G01*
G75*
G02X44500I-1100*
G01*
G75*
G02X44650Y98154I1100*
G01*
X44887Y41615D02*
G75*
G02X46585Y43313I849J849D01*
G01*
G75*
G02X44887Y41615I-849J-849*
G01*
X45300Y148150D02*
G75*
G02X47800I1250D01*
G01*
G75*
G02X45300I-1250*
G01*
X46010Y34573D02*
Y35438D01*
G75*
G02X46168Y35819I540J0*
G01*
X52518Y42169*
G75*
G02X52900Y42328I382J-382*
G01*
X53658*
G75*
G02X56605Y41970I1448J-394*
G01*
X58615*
G75*
G02X58969Y41824I0J-500*
G01*
X60727Y40065*
X65600*
G75*
G02X65954Y39919I0J-500*
G01*
X67077Y38795*
X86348*
X89865Y42312*
Y44645*
G75*
G02X90011Y44999I500J0*
G01*
X100660Y55647*
Y59137*
G75*
G02X100260Y59885I500J748*
G01*
G75*
G02X102060I900*
G01*
G75*
G02X101660Y59137I-900*
G01*
Y55440*
G75*
G02X101514Y55086I-500J0*
G01*
X90865Y44438*
Y42105*
G75*
G02X90719Y41751I-500J0*
G01*
X86909Y37941*
G75*
G02X86555Y37795I-353J354*
G01*
X66870*
G75*
G02X66516Y37941I0J500*
G01*
X65393Y39065*
X60520*
G75*
G02X60166Y39211I0J500*
G01*
X58408Y40970*
X56254*
G75*
G02X53771Y41248I-1149J964*
G01*
X53124*
X47090Y35214*
Y34349*
G75*
G02X47327Y34156I-824J-1254*
G01*
G75*
G02X45206Y32035I-1061J-1061*
G01*
G75*
G02X46010Y34573I1061J1061*
G01*
X46102Y154397D02*
G75*
G02X46246Y154704I498J-47D01*
G01*
X55996Y164454*
G75*
G02X56350Y164600I353J-354*
G01*
X69120*
G75*
G02X71100Y164558I980J-500*
G01*
G75*
G02X73100I1000J-458*
G01*
G75*
G02X75043Y164667I1000J-458*
G01*
G75*
G02X77300Y164100I1058J-567*
G01*
G75*
G02X75043Y163533I-1200*
G01*
G75*
G02X73100Y163642I-943J567*
G01*
G75*
G02X71761Y163054I-1000J458*
G01*
X70454Y161746*
G75*
G02X70100Y161600I-353J354*
G01*
X59557*
X52350Y154393*
Y154252*
G75*
G02X52880Y153230I-720J-1022*
G01*
G75*
G02X50380I-1250*
G01*
G75*
G02X51350Y154448I1250*
G01*
Y154600*
G75*
G02X51496Y154954I500J0*
G01*
X58996Y162454*
G75*
G02X59350Y162600I353J-354*
G01*
X69893*
X70314Y163021*
G75*
G02X69120Y163600I-214J1079*
G01*
X56557*
X47234Y154276*
G75*
G02X47800Y153230I-684J-1047*
G01*
G75*
G02X45300I-1250*
G01*
G75*
G02X46102Y154397I1250*
G01*
X46585Y20313D02*
G75*
G02X44887Y18615I-849J-849D01*
G01*
G75*
G02X46585Y20313I849J849*
G01*
X47398Y11226D02*
G75*
G02X45135Y8963I-1131J-1131D01*
G01*
G75*
G02X47398Y11226I1131J1131*
G01*
X47840Y148150D02*
G75*
G02X50340I1250D01*
G01*
G75*
G02X47840I-1250*
G01*
Y153230D02*
G75*
G02X50340I1250D01*
G01*
G75*
G02X47840I-1250*
G01*
X49200Y78600D02*
G75*
G02X47000I-1100D01*
G01*
G75*
G02X49200I1100*
G01*
Y81850D02*
G75*
G02X47000I-1100D01*
G01*
G75*
G02X49200I1100*
G01*
Y85100D02*
G75*
G02X47000I-1100D01*
G01*
G75*
G02X49200I1100*
G01*
X50380Y148150D02*
G75*
G02X52880I1250D01*
G01*
G75*
G02X50380I-1250*
G01*
X50438Y44338D02*
G75*
G02X52701Y46601I1131J1131D01*
G01*
G75*
G02X50438Y44338I-1131J-1131*
G01*
X51251Y35252D02*
G75*
G02X52949Y36949I849J849D01*
G01*
G75*
G02X51251Y35252I-849J-849*
G01*
X52920Y148150D02*
G75*
G02X55420I1250D01*
G01*
G75*
G02X52920I-1250*
G01*
Y153230D02*
G75*
G02X55420I1250D01*
G01*
G75*
G02X52920I-1250*
G01*
X52949Y13949D02*
G75*
G02X51251Y12251I-849J-849D01*
G01*
G75*
G02X52949Y13949I849J849*
G01*
X55460Y148150D02*
G75*
G02X57960I1250D01*
G01*
G75*
G02X55460I-1250*
G01*
Y153230D02*
G75*
G02X57960I1250D01*
G01*
G75*
G02X55460I-1250*
G01*
X55552Y24420D02*
G75*
G02X53170Y24069I-1321J710D01*
G01*
G75*
G02X55292Y26191I1061J1061*
G01*
G75*
G02X55685Y25500I-1061J-1061*
G01*
X55851*
X62520Y32169*
Y32573*
G75*
G02X62009Y32908I550J1396*
G01*
G75*
G02X64130Y35030I1061J1061*
G01*
G75*
G02X64497Y34430I-1061J-1061*
G01*
X64725*
X65190Y34895*
G75*
G02X65600Y35065I410J-410*
G01*
X88220*
X93595Y40440*
Y42740*
G75*
G02X93765Y43150I580*
G01*
X104560Y53945*
G75*
G02X104970Y54115I410J-410*
G01*
X106635*
X108200Y55680*
Y55704*
G75*
G02X107880Y56393I580J688*
G01*
G75*
G02X109680I900*
G01*
G75*
G02X109360Y55704I-900*
G01*
Y55440*
G75*
G02X109190Y55030I-580*
G01*
X107285Y53125*
G75*
G02X106875Y52955I-410J410*
G01*
X105210*
X94755Y42500*
Y40200*
G75*
G02X94585Y39790I-580*
G01*
X88870Y34075*
G75*
G02X88460Y33905I-410J410*
G01*
X65840*
X65375Y33440*
G75*
G02X64965Y33270I-410J410*
G01*
X64397*
G75*
G02X63600Y32566I-1327J699*
G01*
Y31945*
G75*
G02X63442Y31563I-540J0*
G01*
X56457Y24578*
G75*
G02X56075Y24420I-382J382*
G01*
X55552*
X56237Y20065D02*
G75*
G02X53974Y17802I-1131J-1131D01*
G01*
G75*
G02X56237Y20065I1131J1131*
G01*
X56780Y98620D02*
G75*
G02X59180I1200D01*
G01*
G75*
G02X56780I-1200*
G01*
Y101160D02*
G75*
G02X59180I1200D01*
G01*
G75*
G02X56780I-1200*
G01*
X58000Y148150D02*
G75*
G02X60500I1250D01*
G01*
G75*
G02X58000I-1250*
G01*
X58085Y31813D02*
G75*
G02X56387Y30115I-849J-849D01*
G01*
G75*
G02X58085Y31813I849J849*
G01*
X58850Y154414D02*
Y154850D01*
G75*
G02X58996Y155204I500J0*
G01*
X64246Y160454*
G75*
G02X64600Y160600I353J-354*
G01*
X74393*
X85996Y172204*
G75*
G02X86350Y172350I353J-354*
G01*
X91393*
X113496Y194454*
G75*
G02X113850Y194600I353J-354*
G01*
X114120*
G75*
G02X116100Y194558I980J-500*
G01*
G75*
G02X118100I1000J-458*
G01*
G75*
G02X120043Y194667I1000J-458*
G01*
G75*
G02X122300Y194100I1058J-567*
G01*
G75*
G02X120043Y193533I-1200*
G01*
G75*
G02X118100Y193642I-943J567*
G01*
G75*
G02X116100I-1000J458*
G01*
G75*
G02X114120Y193600I-1000J458*
G01*
X114057*
X91954Y171496*
G75*
G02X91600Y171350I-353J354*
G01*
X86557*
X74954Y159746*
G75*
G02X74600Y159600I-353J354*
G01*
X64807*
X59850Y154643*
Y154327*
G75*
G02X60500Y153230I-600J-1097*
G01*
G75*
G02X58000I-1250*
G01*
G75*
G02X58850Y154414I1250*
G01*
X58898Y22726D02*
G75*
G02X56635Y20463I-1131J-1131D01*
G01*
G75*
G02X58898Y22726I1131J1131*
G01*
X59320Y121480D02*
G75*
G02X61720I1200D01*
G01*
G75*
G02X59320I-1200*
G01*
Y124020D02*
G75*
G02X61720I1200D01*
G01*
G75*
G02X59320I-1200*
G01*
X59580Y169822D02*
G75*
G02X57010Y170100I-1270J278D01*
G01*
G75*
G02X59580Y170378I1300*
G01*
G75*
G02X62120I1270J-278*
G01*
G75*
G02X64690Y170100I1270J-278*
G01*
G75*
G02X62120Y169822I-1300*
G01*
G75*
G02X59580I-1270J278*
G01*
X60020Y99600D02*
Y100180D01*
G75*
G02X59420Y101160I500J980*
G01*
G75*
G02X61620I1100*
G01*
G75*
G02X61020Y100180I-1100*
G01*
Y99600*
G75*
G02X61620Y98620I-500J-980*
G01*
G75*
G02X59420I-1100*
G01*
G75*
G02X60020Y99600I1100*
G01*
X60480Y117450D02*
G75*
G02Y115350J-1050D01*
G01*
G75*
G02Y117450J1050*
G01*
X60540Y148150D02*
G75*
G02X63040I1250D01*
G01*
G75*
G02X60540I-1250*
G01*
X60750Y159850D02*
G75*
G02X58950I-900D01*
G01*
G75*
G02X60750I900*
G01*
X60850Y157850D02*
G75*
G02X58850I-1000D01*
G01*
G75*
G02X60850I1000*
G01*
X61350Y154400D02*
Y154850D01*
G75*
G02X61496Y155204I500J0*
G01*
X62496Y156204*
G75*
G02X62850Y156350I353J-354*
G01*
X73643*
X83746Y166454*
G75*
G02X84100Y166600I353J-354*
G01*
X92143*
X94600Y169057*
Y171600*
G75*
G02X94746Y171954I500J0*
G01*
X99246Y176454*
G75*
G02X99600Y176600I353J-354*
G01*
X105643*
X113496Y184454*
G75*
G02X113850Y184600I353J-354*
G01*
X114120*
G75*
G02X116100Y184558I980J-500*
G01*
G75*
G02X118100I1000J-458*
G01*
G75*
G02X120043Y184667I1000J-458*
G01*
G75*
G02X122300Y184100I1058J-567*
G01*
G75*
G02X120043Y183533I-1200*
G01*
G75*
G02X118100Y183642I-943J567*
G01*
G75*
G02X116100I-1000J458*
G01*
G75*
G02X114120Y183600I-1000J458*
G01*
X114057*
X106204Y175746*
G75*
G02X105850Y175600I-353J354*
G01*
X99807*
X95600Y171393*
Y168850*
G75*
G02X95454Y168496I-500J0*
G01*
X92704Y165746*
G75*
G02X92350Y165600I-353J354*
G01*
X84307*
X74204Y155496*
G75*
G02X73850Y155350I-353J354*
G01*
X63057*
X62350Y154643*
Y154348*
G75*
G02X63040Y153230I-560J-1117*
G01*
G75*
G02X60540I-1250*
G01*
G75*
G02X61350Y154400I1250*
G01*
X62560Y99600D02*
Y100180D01*
G75*
G02X61960Y101160I500J980*
G01*
G75*
G02X64160I1100*
G01*
G75*
G02X63560Y100180I-1100*
G01*
Y99600*
G75*
G02X64160Y98620I-500J-980*
G01*
G75*
G02X61960I-1100*
G01*
G75*
G02X62560Y99600I1100*
G01*
Y122460D02*
Y123040D01*
G75*
G02X61960Y124020I500J980*
G01*
G75*
G02X64160I1100*
G01*
G75*
G02X63560Y123040I-1100*
G01*
Y122460*
G75*
G02X64160Y121480I-500J-980*
G01*
G75*
G02X61960I-1100*
G01*
G75*
G02X62560Y122460I1100*
G01*
X64449Y25449D02*
G75*
G02X62751Y23751I-849J-849D01*
G01*
G75*
G02X64449Y25449I849J849*
G01*
X65100Y99600D02*
Y100180D01*
G75*
G02X64500Y101160I500J980*
G01*
G75*
G02X66700I1100*
G01*
G75*
G02X66100Y100180I-1100*
G01*
Y99600*
G75*
G02X66700Y98620I-500J-980*
G01*
G75*
G02X64500I-1100*
G01*
G75*
G02X65100Y99600I1100*
G01*
Y122460D02*
Y123040D01*
G75*
G02X64500Y124020I500J980*
G01*
G75*
G02X66700I1100*
G01*
G75*
G02X66100Y123040I-1100*
G01*
Y122460*
G75*
G02X66700Y121480I-500J-980*
G01*
G75*
G02X64500I-1100*
G01*
G75*
G02X65100Y122460I1100*
G01*
X65549Y147873D02*
G75*
G02X63080Y148150I-1219J278D01*
G01*
G75*
G02X65549Y148428I1250*
G01*
G75*
G02X68191I1321J-278*
G01*
G75*
G02X70660Y148150I1219J-278*
G01*
G75*
G02X68191Y147873I-1250*
G01*
G75*
G02X65549I-1321J278*
G01*
Y152952D02*
G75*
G02X63080Y153230I-1219J278D01*
G01*
G75*
G02X65549Y153507I1250*
G01*
G75*
G02X68191I1321J-278*
G01*
G75*
G02X70660Y153230I1219J-278*
G01*
G75*
G02X68191Y152952I-1250*
G01*
G75*
G02X65549I-1321J278*
G01*
X67640Y99600D02*
Y100180D01*
G75*
G02X67040Y101160I500J980*
G01*
G75*
G02X69240I1100*
G01*
G75*
G02X68640Y100180I-1100*
G01*
Y99600*
G75*
G02X69240Y98620I-500J-980*
G01*
G75*
G02X67040I-1100*
G01*
G75*
G02X67640Y99600I1100*
G01*
Y122460D02*
Y123040D01*
G75*
G02X67040Y124020I500J980*
G01*
G75*
G02X69240I1100*
G01*
G75*
G02X68640Y123040I-1100*
G01*
Y122460*
G75*
G02X69240Y121480I-500J-980*
G01*
G75*
G02X67040I-1100*
G01*
G75*
G02X67640Y122460I1100*
G01*
X67737Y31565D02*
G75*
G02X65474Y29302I-1131J-1131D01*
G01*
G75*
G02X67737Y31565I1131J1131*
G01*
X68580Y45818D02*
G75*
G02X68752Y46966I830J463D01*
G01*
X69008Y47222*
G75*
G02X69680Y47500I672J-672*
G01*
X74087*
G75*
G02X74893I403J-950*
G01*
X76395*
G75*
G02X77067Y47222I0J-950*
G01*
X79009Y45280*
X80375*
G75*
G02X82575I1100*
G01*
X83380*
X84333Y44328*
Y42105*
X81475Y39248*
X77030*
X73538Y42740*
X69093*
X68140Y43693*
Y45598*
X68580Y45818*
X70180Y99600D02*
Y100180D01*
G75*
G02X69580Y101160I500J980*
G01*
G75*
G02X71780I1100*
G01*
G75*
G02X71180Y100180I-1100*
G01*
Y99600*
G75*
G02X71780Y98620I-500J-980*
G01*
G75*
G02X69580I-1100*
G01*
G75*
G02X70180Y99600I1100*
G01*
Y122460D02*
Y123040D01*
G75*
G02X69580Y124020I500J980*
G01*
G75*
G02X71780I1100*
G01*
G75*
G02X71180Y123040I-1100*
G01*
Y122460*
G75*
G02X71780Y121480I-500J-980*
G01*
G75*
G02X69580I-1100*
G01*
G75*
G02X70180Y122460I1100*
G01*
X72720Y99600D02*
Y100180D01*
G75*
G02X72120Y101160I500J980*
G01*
G75*
G02X74320I1100*
G01*
G75*
G02X73720Y100180I-1100*
G01*
Y99600*
G75*
G02X74320Y98620I-500J-980*
G01*
G75*
G02X72120I-1100*
G01*
G75*
G02X72720Y99600I1100*
G01*
Y122460D02*
Y123040D01*
G75*
G02X72120Y124020I500J980*
G01*
G75*
G02X74320I1100*
G01*
G75*
G02X73720Y123040I-1100*
G01*
Y122460*
G75*
G02X74320Y121480I-500J-980*
G01*
G75*
G02X72120I-1100*
G01*
G75*
G02X72720Y122460I1100*
G01*
X75074Y147873D02*
G75*
G02X72605Y148150I-1219J278D01*
G01*
G75*
G02X75074Y148428I1250*
G01*
G75*
G02X77716I1321J-278*
G01*
G75*
G02X80185Y148150I1219J-278*
G01*
G75*
G02X77716Y147873I-1250*
G01*
G75*
G02X75074I-1321J278*
G01*
Y152952D02*
G75*
G02X72605Y153230I-1219J278D01*
G01*
G75*
G02X75074Y153507I1250*
G01*
G75*
G02X77716I1321J-278*
G01*
G75*
G02X80185Y153230I1219J-278*
G01*
G75*
G02X77716Y152952I-1250*
G01*
G75*
G02X75074I-1321J278*
G01*
X75260Y99600D02*
Y100180D01*
G75*
G02X74660Y101160I500J980*
G01*
G75*
G02X76860I1100*
G01*
G75*
G02X76260Y100180I-1100*
G01*
Y99600*
G75*
G02X76860Y98620I-500J-980*
G01*
G75*
G02X74660I-1100*
G01*
G75*
G02X75260Y99600I1100*
G01*
Y122460D02*
Y123040D01*
G75*
G02X74660Y124020I500J980*
G01*
G75*
G02X76860I1100*
G01*
G75*
G02X76260Y123040I-1100*
G01*
Y122460*
G75*
G02X76860Y121480I-500J-980*
G01*
G75*
G02X74660I-1100*
G01*
G75*
G02X75260Y122460I1100*
G01*
X75350Y184500D02*
G75*
G02Y182700J-900D01*
G01*
G75*
G02Y184500J900*
G01*
X77350Y184600D02*
G75*
G02Y182600J-1000D01*
G01*
G75*
G02Y184600J1000*
G01*
Y191450D02*
G75*
G02Y189250J-1100D01*
G01*
G75*
G02Y191450J1100*
G01*
Y194450D02*
G75*
G02Y192250J-1100D01*
G01*
G75*
G02Y194450J1100*
G01*
X77800Y99600D02*
Y100180D01*
G75*
G02X77200Y101160I500J980*
G01*
G75*
G02X79400I1100*
G01*
G75*
G02X78800Y100180I-1100*
G01*
Y99600*
G75*
G02X79400Y98620I-500J-980*
G01*
G75*
G02X77200I-1100*
G01*
G75*
G02X77800Y99600I1100*
G01*
Y122460D02*
Y123040D01*
G75*
G02X77200Y124020I500J980*
G01*
G75*
G02X79400I1100*
G01*
G75*
G02X78800Y123040I-1100*
G01*
Y122460*
G75*
G02X79400Y121480I-500J-980*
G01*
G75*
G02X77200I-1100*
G01*
G75*
G02X77800Y122460I1100*
G01*
X79890Y191450D02*
G75*
G02Y189250J-1100D01*
G01*
G75*
G02Y191450J1100*
G01*
Y194450D02*
G75*
G02Y192250J-1100D01*
G01*
G75*
G02Y194450J1100*
G01*
X80225Y148150D02*
G75*
G02X82725I1250D01*
G01*
G75*
G02X80225I-1250*
G01*
Y153230D02*
G75*
G02X82725I1250D01*
G01*
G75*
G02X80225I-1250*
G01*
X80340Y122460D02*
Y123040D01*
G75*
G02X79740Y124020I500J980*
G01*
G75*
G02X81940I1100*
G01*
G75*
G02X81340Y123040I-1100*
G01*
Y122460*
G75*
G02X81940Y121480I-500J-980*
G01*
G75*
G02X79740I-1100*
G01*
G75*
G02X80340Y122460I1100*
G01*
X82582Y83832D02*
G75*
G02X81026Y82276I-778J-778D01*
G01*
G75*
G02X82582Y83832I778J778*
G01*
X82765Y148150D02*
G75*
G02X85265I1250D01*
G01*
G75*
G02X82765I-1250*
G01*
Y153230D02*
G75*
G02X85265I1250D01*
G01*
G75*
G02X82765I-1250*
G01*
X82880Y122460D02*
Y123040D01*
G75*
G02X82280Y124020I500J980*
G01*
G75*
G02X84480I1100*
G01*
G75*
G02X83880Y123040I-1100*
G01*
Y122460*
G75*
G02X84480Y121480I-500J-980*
G01*
G75*
G02X82280I-1100*
G01*
G75*
G02X82880Y122460I1100*
G01*
X84332Y74582D02*
G75*
G02X82776Y73026I-778J-778D01*
G01*
G75*
G02X84332Y74582I778J778*
G01*
X85420Y122460D02*
Y123040D01*
G75*
G02X84820Y124020I500J980*
G01*
G75*
G02X87020I1100*
G01*
G75*
G02X86420Y123040I-1100*
G01*
Y122460*
G75*
G02X87020Y121480I-500J-980*
G01*
G75*
G02X84820I-1100*
G01*
G75*
G02X85420Y122460I1100*
G01*
X86064Y20650D02*
G75*
G02X83150Y21150I-1414J500D01*
G01*
G75*
G02X86064Y21650I1500*
G01*
X86555*
G75*
G02X86909Y21504I0J-500*
G01*
X88032Y20380*
X93968*
X95091Y21504*
G75*
G02X95445Y21650I353J-354*
G01*
X95736*
G75*
G02X98521Y21758I1414J-500*
G01*
X111455Y34692*
Y56503*
X95726Y72231*
G75*
G02X95580Y72585I354J353*
G01*
Y73742*
G75*
G02X95180Y74490I500J748*
G01*
G75*
G02X96980I900*
G01*
G75*
G02X96580Y73742I-900*
G01*
Y72792*
X112309Y57064*
G75*
G02X112455Y56710I-354J-353*
G01*
Y34485*
G75*
G02X112309Y34131I-500J0*
G01*
X98974Y20796*
G75*
G02X98620Y20650I-353J354*
G01*
X98564*
G75*
G02X95736I-1414J500*
G01*
X95652*
X94529Y19526*
G75*
G02X94175Y19380I-353J354*
G01*
X87825*
G75*
G02X87471Y19526I0J500*
G01*
X86348Y20650*
X86064*
X86100Y163642D02*
G75*
G02X84000Y164100I-1000J458D01*
G01*
G75*
G02X86100Y164558I1100*
G01*
G75*
G02X88100I1000J-458*
G01*
G75*
G02X90043Y164667I1000J-458*
G01*
G75*
G02X92300Y164100I1058J-567*
G01*
G75*
G02X90043Y163533I-1200*
G01*
G75*
G02X88100Y163642I-943J567*
G01*
G75*
G02X86100I-1000J458*
G01*
Y173642D02*
G75*
G02X84000Y174100I-1000J458D01*
G01*
G75*
G02X86100Y174558I1100*
G01*
G75*
G02X88100I1000J-458*
G01*
G75*
G02X90043Y174667I1000J-458*
G01*
G75*
G02X92300Y174100I1058J-567*
G01*
G75*
G02X90043Y173533I-1200*
G01*
G75*
G02X88100Y173642I-943J567*
G01*
G75*
G02X86100I-1000J458*
G01*
Y183642D02*
G75*
G02X84000Y184100I-1000J458D01*
G01*
G75*
G02X86100Y184558I1100*
G01*
G75*
G02X88100I1000J-458*
G01*
G75*
G02X90043Y184667I1000J-458*
G01*
G75*
G02X92300Y184100I1058J-567*
G01*
G75*
G02X90043Y183533I-1200*
G01*
G75*
G02X88100Y183642I-943J567*
G01*
G75*
G02X86100I-1000J458*
G01*
Y193642D02*
G75*
G02X84000Y194100I-1000J458D01*
G01*
G75*
G02X86100Y194558I1100*
G01*
G75*
G02X88100I1000J-458*
G01*
G75*
G02X90043Y194667I1000J-458*
G01*
G75*
G02X92300Y194100I1058J-567*
G01*
G75*
G02X90043Y193533I-1200*
G01*
G75*
G02X88100Y193642I-943J567*
G01*
G75*
G02X86100I-1000J458*
G01*
X86250Y16150D02*
G75*
G02X83050I-1600D01*
G01*
G75*
G02X86250I1600*
G01*
X87774Y147873D02*
G75*
G02X85305Y148150I-1219J278D01*
G01*
G75*
G02X87774Y148428I1250*
G01*
G75*
G02X90416I1321J-278*
G01*
G75*
G02X92854I1219J-278*
G01*
G75*
G02X95445Y148608I1321J-278*
G01*
G75*
G02X98036Y148428I1270J-458*
G01*
G75*
G02X100505Y148150I1219J-278*
G01*
G75*
G02X98036Y147873I-1250*
G01*
G75*
G02X95445Y147692I-1321J278*
G01*
G75*
G02X92854Y147873I-1270J458*
G01*
G75*
G02X90416I-1219J278*
G01*
G75*
G02X87774I-1321J278*
G01*
Y152952D02*
G75*
G02X85305Y153230I-1219J278D01*
G01*
G75*
G02X87774Y153507I1250*
G01*
G75*
G02X90416I1321J-278*
G01*
G75*
G02X92854I1219J-278*
G01*
G75*
G02X95445Y153688I1321J-278*
G01*
G75*
G02X98036Y153507I1270J-458*
G01*
G75*
G02X100505Y153230I1219J-278*
G01*
G75*
G02X98036Y152952I-1250*
G01*
G75*
G02X95445Y152772I-1321J278*
G01*
G75*
G02X92854Y152952I-1270J458*
G01*
G75*
G02X90416I-1219J278*
G01*
G75*
G02X87774I-1321J278*
G01*
X87960Y122460D02*
Y123040D01*
G75*
G02X87360Y124020I500J980*
G01*
G75*
G02X89560I1100*
G01*
G75*
G02X88960Y123040I-1100*
G01*
Y122460*
G75*
G02X89560Y121480I-500J-980*
G01*
G75*
G02X87360I-1100*
G01*
G75*
G02X87960Y122460I1100*
G01*
X89766Y76647D02*
G75*
G02X88210Y75092I-778J-778D01*
G01*
G75*
G02X89766Y76647I778J778*
G01*
X90500Y122460D02*
Y123040D01*
G75*
G02X89900Y124020I500J980*
G01*
G75*
G02X92100I1100*
G01*
G75*
G02X91500Y123040I-1100*
G01*
Y122460*
G75*
G02X92100Y121480I-500J-980*
G01*
G75*
G02X89900I-1100*
G01*
G75*
G02X90500Y122460I1100*
G01*
X92100Y67350D02*
Y65850D01*
X91350Y65100*
X90100*
X89350Y65850*
Y67350*
X90100Y68100*
X91350*
X92100Y67350*
X92101Y14150D02*
G75*
G02X89700I-1200D01*
G01*
G75*
G02X92101I1200*
G01*
Y23150D02*
G75*
G02X89700I-1200D01*
G01*
G75*
G02X92101I1200*
G01*
X93040Y122460D02*
Y123040D01*
G75*
G02X92440Y124020I500J980*
G01*
G75*
G02X94640I1100*
G01*
G75*
G02X94040Y123040I-1100*
G01*
Y122460*
G75*
G02X94640Y121480I-500J-980*
G01*
G75*
G02X92440I-1100*
G01*
G75*
G02X93040Y122460I1100*
G01*
X95580Y99600D02*
Y100180D01*
G75*
G02X94980Y101160I500J980*
G01*
G75*
G02X97180I1100*
G01*
G75*
G02X96580Y100180I-1100*
G01*
Y99600*
G75*
G02X97180Y98620I-500J-980*
G01*
G75*
G02X94980I-1100*
G01*
G75*
G02X95580Y99600I1100*
G01*
Y122460D02*
Y123040D01*
G75*
G02X94980Y124020I500J980*
G01*
G75*
G02X97180I1100*
G01*
G75*
G02X96580Y123040I-1100*
G01*
Y122460*
G75*
G02X97180Y121480I-500J-980*
G01*
G75*
G02X94980I-1100*
G01*
G75*
G02X95580Y122460I1100*
G01*
X98120Y72154D02*
G75*
G02X97720Y72903I500J748D01*
G01*
G75*
G02X99520I900*
G01*
G75*
G02X99122Y72155I-900J0*
G01*
X121834Y49444*
G75*
G02X121980Y49090I-354J-353*
G01*
Y23055*
G75*
G02X121834Y22701I-500J0*
G01*
X119929Y20796*
G75*
G02X119575Y20650I-353J354*
G01*
X119519*
G75*
G02X116691I-1414J500*
G01*
X115972*
X114849Y19526*
G75*
G02X114495Y19380I-353J354*
G01*
X108780*
G75*
G02X108426Y19526I0J500*
G01*
X107303Y20650*
X107019*
G75*
G02X104105Y21150I-1414J500*
G01*
G75*
G02X107019Y21650I1500*
G01*
X107510*
G75*
G02X107864Y21504I0J-500*
G01*
X108987Y20380*
X114288*
X115411Y21504*
G75*
G02X115765Y21650I353J-354*
G01*
X116691*
G75*
G02X119476Y21758I1414J-500*
G01*
X120980Y23262*
Y48883*
X98266Y71596*
G75*
G02X98120Y71950I354J353*
G01*
Y72154*
Y99600D02*
Y100180D01*
G75*
G02X97520Y101160I500J980*
G01*
G75*
G02X99720I1100*
G01*
G75*
G02X99120Y100180I-1100*
G01*
Y99600*
G75*
G02X99720Y98620I-500J-980*
G01*
G75*
G02X97520I-1100*
G01*
G75*
G02X98120Y99600I1100*
G01*
Y122460D02*
Y123040D01*
G75*
G02X97520Y124020I500J980*
G01*
G75*
G02X99720I1100*
G01*
G75*
G02X99120Y123040I-1100*
G01*
Y122460*
G75*
G02X99720Y121480I-500J-980*
G01*
G75*
G02X97520I-1100*
G01*
G75*
G02X98120Y122460I1100*
G01*
X98750Y16150D02*
G75*
G02X95550I-1600D01*
G01*
G75*
G02X98750I1600*
G01*
X99600Y173120D02*
G75*
G02X99000Y174100I500J980D01*
G01*
G75*
G02X101100Y174558I1100*
G01*
G75*
G02X103100I1000J-458*
G01*
G75*
G02X105043Y174667I1000J-458*
G01*
G75*
G02X107300Y174100I1058J-567*
G01*
G75*
G02X105043Y173533I-1200*
G01*
G75*
G02X103100Y173642I-943J567*
G01*
G75*
G02X102600Y173120I-1000J458*
G01*
Y171307*
X103057Y170850*
X110850*
G75*
G02X111204Y170704I0J-500*
G01*
X112204Y169704*
G75*
G02X112350Y169350I-354J-353*
G01*
Y154416*
G75*
G02X113205Y153230I-395J-1186*
G01*
G75*
G02X110705I-1250*
G01*
G75*
G02X111350Y154324I1250*
G01*
Y169143*
X110643Y169850*
X102850*
G75*
G02X102496Y169996I0J500*
G01*
X101746Y170746*
G75*
G02X101600Y171100I354J353*
G01*
Y173120*
G75*
G02X101100Y173642I500J980*
G01*
G75*
G02X100600Y173120I-1000J458*
G01*
Y171307*
X102807Y169100*
X106100*
G75*
G02X106454Y168954I0J-500*
G01*
X109704Y165704*
G75*
G02X109850Y165350I-354J-353*
G01*
Y154402*
G75*
G02X110665Y153230I-435J-1172*
G01*
G75*
G02X108165I-1250*
G01*
G75*
G02X108850Y154345I1250*
G01*
Y165143*
X105893Y168100*
X102600*
G75*
G02X102246Y168246I0J500*
G01*
X99746Y170746*
G75*
G02X99600Y171100I354J353*
G01*
Y173120*
X100545Y148150D02*
G75*
G02X103045I1250D01*
G01*
G75*
G02X100545I-1250*
G01*
Y153230D02*
G75*
G02X103045I1250D01*
G01*
G75*
G02X100545I-1250*
G01*
X100660Y99600D02*
Y100180D01*
G75*
G02X100060Y101160I500J980*
G01*
G75*
G02X102260I1100*
G01*
G75*
G02X101660Y100180I-1100*
G01*
Y99600*
G75*
G02X102260Y98620I-500J-980*
G01*
G75*
G02X100060I-1100*
G01*
G75*
G02X100660Y99600I1100*
G01*
Y122460D02*
Y123040D01*
G75*
G02X100060Y124020I500J980*
G01*
G75*
G02X102260I1100*
G01*
G75*
G02X101660Y123040I-1100*
G01*
Y122460*
G75*
G02X102260Y121480I-500J-980*
G01*
G75*
G02X100060I-1100*
G01*
G75*
G02X100660Y122460I1100*
G01*
X101100Y163642D02*
G75*
G02X99000Y164100I-1000J458D01*
G01*
G75*
G02X101100Y164558I1100*
G01*
G75*
G02X103100I1000J-458*
G01*
G75*
G02X105043Y164667I1000J-458*
G01*
G75*
G02X107300Y164100I1058J-567*
G01*
G75*
G02X105043Y163533I-1200*
G01*
G75*
G02X103100Y163642I-943J567*
G01*
G75*
G02X101100I-1000J458*
G01*
X101350Y44300D02*
G75*
G02Y46900J1300D01*
G01*
G75*
G02Y44300J-1300*
G01*
X103085Y148150D02*
G75*
G02X105585I1250D01*
G01*
G75*
G02X103085I-1250*
G01*
Y153230D02*
G75*
G02X105585I1250D01*
G01*
G75*
G02X103085I-1250*
G01*
X103100Y34850D02*
X102350Y34100D01*
Y31600*
X102100Y31350*
X100600*
X100350Y31600*
Y34100*
X99600Y34850*
Y36350*
X100600Y37350*
X102100*
X103100Y36350*
Y34850*
X103200Y99600D02*
Y100180D01*
G75*
G02X102600Y101160I500J980*
G01*
G75*
G02X104800I1100*
G01*
G75*
G02X104200Y100180I-1100*
G01*
Y99600*
G75*
G02X104800Y98620I-500J-980*
G01*
G75*
G02X102600I-1100*
G01*
G75*
G02X103200Y99600I1100*
G01*
Y122460D02*
Y123040D01*
G75*
G02X102600Y124020I500J980*
G01*
G75*
G02X104800I1100*
G01*
G75*
G02X104200Y123040I-1100*
G01*
Y122460*
G75*
G02X104800Y121480I-500J-980*
G01*
G75*
G02X102600I-1100*
G01*
G75*
G02X103200Y122460I1100*
G01*
X105625Y148150D02*
G75*
G02X108125I1250D01*
G01*
G75*
G02X105625I-1250*
G01*
Y153230D02*
G75*
G02X108125I1250D01*
G01*
G75*
G02X105625I-1250*
G01*
X105740Y99600D02*
Y100180D01*
G75*
G02X105140Y101160I500J980*
G01*
G75*
G02X107340I1100*
G01*
G75*
G02X106740Y100180I-1100*
G01*
Y99600*
G75*
G02X107340Y98620I-500J-980*
G01*
G75*
G02X105140I-1100*
G01*
G75*
G02X105740Y99600I1100*
G01*
Y122460D02*
Y123040D01*
G75*
G02X105140Y124020I500J980*
G01*
G75*
G02X107340I1100*
G01*
G75*
G02X106740Y123040I-1100*
G01*
Y122460*
G75*
G02X107340Y121480I-500J-980*
G01*
G75*
G02X105140I-1100*
G01*
G75*
G02X105740Y122460I1100*
G01*
X107205Y16150D02*
G75*
G02X104005I-1600D01*
G01*
G75*
G02X107205I1600*
G01*
X108165Y148150D02*
G75*
G02X110665I1250D01*
G01*
G75*
G02X108165I-1250*
G01*
X108280Y99600D02*
Y100180D01*
G75*
G02X107680Y101160I500J980*
G01*
G75*
G02X109880I1100*
G01*
G75*
G02X109280Y100180I-1100*
G01*
Y99600*
G75*
G02X109880Y98620I-500J-980*
G01*
G75*
G02X107680I-1100*
G01*
G75*
G02X108280Y99600I1100*
G01*
Y122460D02*
Y123040D01*
G75*
G02X107680Y124020I500J980*
G01*
G75*
G02X109880I1100*
G01*
G75*
G02X109280Y123040I-1100*
G01*
Y122460*
G75*
G02X109880Y121480I-500J-980*
G01*
G75*
G02X107680I-1100*
G01*
G75*
G02X108280Y122460I1100*
G01*
X110705Y148150D02*
G75*
G02X113205I1250D01*
G01*
G75*
G02X110705I-1250*
G01*
X110820Y99600D02*
Y100180D01*
G75*
G02X110220Y101160I500J980*
G01*
G75*
G02X112420I1100*
G01*
G75*
G02X111820Y100180I-1100*
G01*
Y99600*
G75*
G02X112420Y98620I-500J-980*
G01*
G75*
G02X110220I-1100*
G01*
G75*
G02X110820Y99600I1100*
G01*
Y122460D02*
Y123040D01*
G75*
G02X110220Y124020I500J980*
G01*
G75*
G02X112420I1100*
G01*
G75*
G02X111820Y123040I-1100*
G01*
Y122460*
G75*
G02X112420Y121480I-500J-980*
G01*
G75*
G02X110220I-1100*
G01*
G75*
G02X110820Y122460I1100*
G01*
X113056Y14150D02*
G75*
G02X110655I-1200D01*
G01*
G75*
G02X113056I1200*
G01*
Y23150D02*
G75*
G02X110655I-1200D01*
G01*
G75*
G02X113056I1200*
G01*
X113245Y148150D02*
G75*
G02X115745I1250D01*
G01*
G75*
G02X113245I-1250*
G01*
Y153230D02*
G75*
G02X115745I1250D01*
G01*
G75*
G02X113245I-1250*
G01*
X113360Y99600D02*
Y100180D01*
G75*
G02X112760Y101160I500J980*
G01*
G75*
G02X114960I1100*
G01*
G75*
G02X114360Y100180I-1100*
G01*
Y99600*
G75*
G02X114960Y98620I-500J-980*
G01*
G75*
G02X112760I-1100*
G01*
G75*
G02X113360Y99600I1100*
G01*
Y122460D02*
Y123040D01*
G75*
G02X112760Y124020I500J980*
G01*
G75*
G02X114960I1100*
G01*
G75*
G02X114360Y123040I-1100*
G01*
Y122460*
G75*
G02X114960Y121480I-500J-980*
G01*
G75*
G02X112760I-1100*
G01*
G75*
G02X113360Y122460I1100*
G01*
X114600Y173120D02*
G75*
G02X114000Y174100I500J980D01*
G01*
G75*
G02X116100Y174558I1100*
G01*
G75*
G02X118100I1000J-458*
G01*
G75*
G02X120043Y174667I1000J-458*
G01*
G75*
G02X122300Y174100I1058J-567*
G01*
G75*
G02X120043Y173533I-1200*
G01*
G75*
G02X118100Y173642I-943J567*
G01*
G75*
G02X116100I-1000J458*
G01*
G75*
G02X115600Y173120I-1000J458*
G01*
Y171057*
X116557Y170100*
X124100*
G75*
G02X124454Y169954I0J-500*
G01*
X129954Y164454*
G75*
G02X130100Y164100I-354J-353*
G01*
Y154426*
G75*
G02X130985Y153230I-365J-1196*
G01*
G75*
G02X128485I-1250*
G01*
G75*
G02X129100Y154307I1250*
G01*
Y163893*
X123893Y169100*
X116350*
G75*
G02X115996Y169246I0J500*
G01*
X114746Y170496*
G75*
G02X114600Y170850I354J353*
G01*
Y173120*
X115785Y148150D02*
G75*
G02X118285I1250D01*
G01*
G75*
G02X115785I-1250*
G01*
Y153230D02*
G75*
G02X118285I1250D01*
G01*
G75*
G02X115785I-1250*
G01*
X115900Y99600D02*
Y100180D01*
G75*
G02X115300Y101160I500J980*
G01*
G75*
G02X117500I1100*
G01*
G75*
G02X116900Y100180I-1100*
G01*
Y99600*
G75*
G02X117500Y98620I-500J-980*
G01*
G75*
G02X115300I-1100*
G01*
G75*
G02X115900Y99600I1100*
G01*
Y122460D02*
Y123040D01*
G75*
G02X115300Y124020I500J980*
G01*
G75*
G02X117500I1100*
G01*
G75*
G02X116900Y123040I-1100*
G01*
Y122460*
G75*
G02X117500Y121480I-500J-980*
G01*
G75*
G02X115300I-1100*
G01*
G75*
G02X115900Y122460I1100*
G01*
X116100Y163642D02*
G75*
G02X114000Y164100I-1000J458D01*
G01*
G75*
G02X116100Y164558I1100*
G01*
G75*
G02X118100I1000J-458*
G01*
G75*
G02X120043Y164667I1000J-458*
G01*
G75*
G02X122300Y164100I1058J-567*
G01*
G75*
G02X120043Y163533I-1200*
G01*
G75*
G02X118100Y163642I-943J567*
G01*
G75*
G02X117600Y163120I-1000J458*
G01*
Y161557*
X118307Y160850*
X120600*
G75*
G02X120954Y160704I0J-500*
G01*
X124954Y156704*
G75*
G02X125100Y156350I-354J-353*
G01*
Y154398*
G75*
G02X125905Y153230I-445J-1168*
G01*
G75*
G02X123405I-1250*
G01*
G75*
G02X124100Y154350I1250*
G01*
Y156143*
X120393Y159850*
X118100*
G75*
G02X117746Y159996I0J500*
G01*
X116746Y160996*
G75*
G02X116600Y161350I354J353*
G01*
Y163120*
G75*
G02X116100Y163642I500J980*
G01*
X117740Y98620D02*
G75*
G02X120140I1200D01*
G01*
G75*
G02X117740I-1200*
G01*
Y101160D02*
G75*
G02X120140I1200D01*
G01*
G75*
G02X117740I-1200*
G01*
X118325Y148150D02*
G75*
G02X120825I1250D01*
G01*
G75*
G02X118325I-1250*
G01*
Y153230D02*
G75*
G02X120825I1250D01*
G01*
G75*
G02X118325I-1250*
G01*
X118440Y122460D02*
Y123040D01*
G75*
G02X117840Y124020I500J980*
G01*
G75*
G02X120040I1100*
G01*
G75*
G02X119440Y123040I-1100*
G01*
Y122460*
G75*
G02X120040Y121480I-500J-980*
G01*
G75*
G02X117840I-1100*
G01*
G75*
G02X118440Y122460I1100*
G01*
X118980Y104605D02*
G75*
G02Y106605J1000D01*
G01*
G75*
G02Y104605J-1000*
G01*
X119705Y16150D02*
G75*
G02X116505I-1600D01*
G01*
G75*
G02X119705I1600*
G01*
X120865Y148150D02*
G75*
G02X123365I1250D01*
G01*
G75*
G02X120865I-1250*
G01*
Y153230D02*
G75*
G02X123365I1250D01*
G01*
G75*
G02X120865I-1250*
G01*
X122460Y120980D02*
G75*
G02X120380Y121480I-980J500D01*
G01*
G75*
G02X122460Y121980I1100*
G01*
X123040*
G75*
G02X125120Y121480I980J-500*
G01*
G75*
G02X123040Y120980I-1100*
G01*
X122460*
Y123520D02*
G75*
G02X120380Y124020I-980J500D01*
G01*
G75*
G02X122460Y124520I1100*
G01*
X123040*
G75*
G02X125120Y124020I980J-500*
G01*
G75*
G02X123040Y123520I-1100*
G01*
X122460*
X122920Y101160D02*
G75*
G02X125120I1100D01*
G01*
G75*
G02X122920I-1100*
G01*
X123405Y148150D02*
G75*
G02X125905I1250D01*
G01*
G75*
G02X123405I-1250*
G01*
X123700Y60900D02*
G75*
G02Y53900J-3500D01*
G01*
G75*
G02Y60900J3500*
G01*
Y89900D02*
G75*
G02Y82900J-3500D01*
G01*
G75*
G02Y89900J3500*
G01*
X125945Y148150D02*
G75*
G02X128445I1250D01*
G01*
G75*
G02X125945I-1250*
G01*
Y153230D02*
G75*
G02X128445I1250D01*
G01*
G75*
G02X125945I-1250*
G01*
X126060Y99600D02*
Y100180D01*
G75*
G02X125460Y101160I500J980*
G01*
G75*
G02X127660I1100*
G01*
G75*
G02X127060Y100180I-1100*
G01*
Y99600*
G75*
G02X127540Y99120I-500J-980*
G01*
X128120*
G75*
G02X130200Y98620I980J-500*
G01*
G75*
G02X128120Y98120I-1100*
G01*
X127540*
G75*
G02X125460Y98620I-980J500*
G01*
G75*
G02X126060Y99600I1100*
G01*
Y122460D02*
Y123040D01*
G75*
G02X125460Y124020I500J980*
G01*
G75*
G02X127660I1100*
G01*
G75*
G02X127060Y123040I-1100*
G01*
Y122460*
G75*
G02X127540Y121980I-500J-980*
G01*
X128120*
G75*
G02X130200Y121480I980J-500*
G01*
G75*
G02X128120Y120980I-1100*
G01*
X127540*
G75*
G02X125460Y121480I-980J500*
G01*
G75*
G02X126060Y122460I1100*
G01*
X127900Y101160D02*
G75*
G02X130300I1200D01*
G01*
G75*
G02X127900I-1200*
G01*
X128485Y148150D02*
G75*
G02X130985I1250D01*
G01*
G75*
G02X128485I-1250*
G01*
X130080Y123520D02*
G75*
G02X128000Y124020I-980J500D01*
G01*
G75*
G02X130080Y124520I1100*
G01*
X130660*
G75*
G02X132740Y124020I980J-500*
G01*
G75*
G02X132140Y123040I-1100*
G01*
Y122460*
G75*
G02X132740Y121480I-500J-980*
G01*
G75*
G02X130540I-1100*
G01*
G75*
G02X131140Y122460I1100*
G01*
Y123040*
G75*
G02X130660Y123520I500J980*
G01*
X130080*
X130440Y98620D02*
G75*
G02X132840I1200D01*
G01*
G75*
G02X130440I-1200*
G01*
Y101160D02*
G75*
G02X132840I1200D01*
G01*
G75*
G02X130440I-1200*
G01*
X131025Y148150D02*
G75*
G02X133525I1250D01*
G01*
G75*
G02X131025I-1250*
G01*
Y153230D02*
G75*
G02X133525I1250D01*
G01*
G75*
G02X131025I-1250*
G01*
X133100Y14600D02*
G75*
G02Y7600J-3500D01*
G01*
G75*
G02Y14600J3500*
G01*
Y196600D02*
G75*
G02Y189600J-3500D01*
G01*
G75*
G02Y196600J3500*
G01*
X133565Y148150D02*
G75*
G02X136065I1250D01*
G01*
G75*
G02X133565I-1250*
G01*
Y153230D02*
G75*
G02X136065I1250D01*
G01*
G75*
G02X133565I-1250*
G01*
X136105Y148150D02*
G75*
G02X138605I1250D01*
G01*
G75*
G02X136105I-1250*
G01*
Y153230D02*
G75*
G02X138605I1250D01*
G01*
G75*
G02X136105I-1250*
G01*
X3763Y183710D02*
G36*
Y174100D01*
X5910*
Y182440*
X6096Y182626*
G75*
G02X6994Y183524I1084J-186*
G01*
X7000Y183530*
X7032*
G75*
G02X7328I148J-1090*
G01*
X9572*
G75*
G02X9868I148J-1090*
G01*
X12112*
G75*
G02X12408I148J-1090*
G01*
X14620*
X14800Y183710*
X3763*
G37*
X14800D02*
G36*
X16256Y185166D01*
G75*
G02X17154Y186064I1084J-186*
G01*
X18796Y187706*
G75*
G02X19694Y188604I1084J-186*
G01*
X21150Y190060*
Y190350*
X13265*
G75*
G02X11100Y189600I-2165J2750*
G01*
G75*
G02X8935Y190350J3500*
G01*
X3763*
Y183710*
X14800*
G37*
X70680D02*
G36*
X65600D01*
X64144Y182254*
G75*
G02X63246Y181356I-1084J186*
G01*
X61604Y179714*
G75*
G02X60706Y178816I-1084J186*
G01*
X59064Y177174*
G75*
G02X58166Y176276I-1084J186*
G01*
X56524Y174634*
G75*
G02X56272Y174100I-1084J186*
G01*
X69000*
G75*
G02X71100Y174558I1100*
G01*
G75*
G02X73100I1000J-458*
G01*
G75*
G02X75043Y174667I1000J-458*
G01*
G75*
G02X77300Y174100I1058J-567*
G01*
X84000*
G75*
G02X86100Y174558I1100*
G01*
G75*
G02X88100I1000J-458*
G01*
G75*
G02X90043Y174667I1000J-458*
G01*
G75*
G02X92300Y174100I1058J-567*
G01*
X93143*
X102753Y183710*
X92235*
G75*
G02X90043Y183533I-1135J390*
G01*
G75*
G02X88100Y183642I-943J567*
G01*
G75*
G02X86100I-1000J458*
G01*
G75*
G02X84071Y183710I-1000J458*
G01*
X78344*
G75*
G02X77350Y182600I-994J-110*
G01*
G75*
G02X76356Y183710J1000*
G01*
X76243*
G75*
G02X75350Y182700I-893J-110*
G01*
G75*
G02X74457Y183710J900*
G01*
X70680*
G37*
X74457D02*
G36*
G75*
G02X75350Y184500I893J-110D01*
G01*
G75*
G02X76243Y183710J-900*
G01*
X76356*
G75*
G02X77350Y184600I994J-110*
G01*
G75*
G02X78344Y183710J-1000*
G01*
X84071*
G75*
G02X84000Y184100I1029J390*
G01*
G75*
G02X86100Y184558I1100*
G01*
G75*
G02X88100I1000J-458*
G01*
G75*
G02X90043Y184667I1000J-458*
G01*
G75*
G02X92300Y184100I1058J-567*
G01*
G75*
G02X92235Y183710I-1200J0*
G01*
X102753*
X109393Y190350*
X80990*
G75*
G02X79890Y189250I-1100*
G01*
G75*
G02X78790Y190350J1100*
G01*
X78450*
G75*
G02X77350Y189250I-1100*
G01*
G75*
G02X76250Y190350J1100*
G01*
X71950*
Y184980*
X71764Y184794*
G75*
G02X70866Y183896I-1084J186*
G01*
X70680Y183710*
X74457*
G37*
X104167D02*
G36*
X94557Y174100D01*
X96893*
X99246Y176454*
G75*
G02X99600Y176600I353J-354*
G01*
X105643*
X112753Y183710*
X104167*
G37*
X112753D02*
G36*
X113496Y184454D01*
G75*
G02X113850Y184600I353J-354*
G01*
X114120*
G75*
G02X116100Y184558I980J-500*
G01*
G75*
G02X118100I1000J-458*
G01*
G75*
G02X120043Y184667I1000J-458*
G01*
G75*
G02X122300Y184100I1058J-567*
G01*
G75*
G02X122235Y183710I-1200J0*
G01*
X140437*
Y190350*
X135265*
G75*
G02X133100Y189600I-2165J2750*
G01*
G75*
G02X130935Y190350J3500*
G01*
X110807*
X104167Y183710*
X112753*
G37*
X122235D02*
G36*
G75*
G02X120043Y183533I-1135J390D01*
G01*
G75*
G02X118100Y183642I-943J567*
G01*
G75*
G02X116100I-1000J458*
G01*
G75*
G02X114120Y183600I-1000J458*
G01*
X114057*
X106204Y175746*
G75*
G02X105850Y175600I-353J354*
G01*
X99807*
X98307Y174100*
X99000*
G75*
G02X101100Y174558I1100*
G01*
G75*
G02X103100I1000J-458*
G01*
G75*
G02X105043Y174667I1000J-458*
G01*
G75*
G02X107300Y174100I1058J-567*
G01*
X114000*
G75*
G02X116100Y174558I1100*
G01*
G75*
G02X118100I1000J-458*
G01*
G75*
G02X120043Y174667I1000J-458*
G01*
G75*
G02X122300Y174100I1058J-567*
G01*
X140437*
Y183710*
X122235*
G37*
X3763Y140600D02*
G36*
Y136100D01*
X25760*
G75*
G02X28330Y136378I1300*
G01*
G75*
G02X30900Y136100I1270J-278*
G01*
X140437*
Y140600*
X31000*
G75*
G02X28200I-1400*
G01*
X26000*
G75*
G02X23200I-1400*
G01*
X15750*
G75*
G02X12950I-1400*
G01*
X10750*
G75*
G02X7950I-1400*
G01*
X3763*
G37*
X7950D02*
G36*
G75*
G02X10750I1400D01*
G01*
X12950*
G75*
G02X13400Y141628I1400*
G01*
Y143350*
X3763*
Y140600*
X7950*
G37*
X23200D02*
G36*
G75*
G02X26000I1400D01*
G01*
X28200*
G75*
G02X28650Y141628I1400*
G01*
Y143350*
X19850*
G75*
G02X17850I-1000*
G01*
X15300*
Y141628*
G75*
G02X15750Y140600I-950J-1028*
G01*
X23200*
G37*
X140437D02*
G36*
Y143350D01*
X35100*
G75*
G02X33100I-1000*
G01*
X30550*
Y141628*
G75*
G02X31000Y140600I-950J-1028*
G01*
X140437*
G37*
X3763Y129850D02*
G36*
Y127850D01*
X8300*
Y129850*
X3763*
G37*
X8300D02*
G36*
Y132450D01*
X11300*
Y129850*
X14400*
Y132650*
X17200*
Y129850*
X20950*
G75*
G02X22750I900*
G01*
X140437*
Y136100*
X30900*
G75*
G02X28330Y135822I-1300*
G01*
G75*
G02X25760Y136100I-1270J278*
G01*
X3763*
Y129850*
X8300*
G37*
X11300D02*
G36*
Y127850D01*
X14400*
Y129850*
X11300*
G37*
X17200D02*
G36*
Y127850D01*
X20850*
G75*
G02X22850I1000*
G01*
X140437*
Y129850*
X22750*
G75*
G02X20950I-900*
G01*
X17200*
G37*
X3763Y144600D02*
G36*
Y143350D01*
X13400*
Y144600*
X12850*
G75*
G02X11850Y143600I-1000*
G01*
G75*
G02X10850Y144600J1000*
G01*
X10250*
G75*
G02X9350Y143700I-900*
G01*
G75*
G02X8450Y144600J900*
G01*
X3763*
G37*
X8450D02*
G36*
G75*
G02X9350Y145500I900D01*
G01*
G75*
G02X10250Y144600J-900*
G01*
X10850*
G75*
G02X11850Y145600I1000*
G01*
G75*
G02X12850Y144600J-1000*
G01*
X13400*
Y144947*
G75*
G02X13360Y145641I950J403*
G01*
Y148152*
G75*
G02X13177Y148401I1030J948*
G01*
G75*
G02X10523I-1327J699*
G01*
G75*
G02X9310Y147700I-1213J699*
G01*
G75*
G02X8282Y148150J1400*
G01*
X3763*
Y144600*
X8450*
G37*
X19433D02*
G36*
G75*
G02X18831Y144400I-583J750D01*
G01*
X15300*
Y143350*
X17850*
G75*
G02X19850I1000*
G01*
X28650*
Y144600*
X28100*
G75*
G02X27100Y143600I-1000*
G01*
G75*
G02X26100Y144600J1000*
G01*
X25500*
G75*
G02X24600Y143700I-900*
G01*
G75*
G02X23700Y144600J900*
G01*
X19433*
G37*
X23700D02*
G36*
G75*
G02X24600Y145500I900D01*
G01*
G75*
G02X25500Y144600J-900*
G01*
X26100*
G75*
G02X27100Y145600I1000*
G01*
G75*
G02X28100Y144600J-1000*
G01*
X28650*
Y144947*
G75*
G02Y145753I950J403*
G01*
Y148110*
G75*
G02X28427Y148401I990J990*
G01*
G75*
G02X25773I-1327J699*
G01*
G75*
G02X24560Y147700I-1213J699*
G01*
G75*
G02X23532Y148150J1400*
G01*
X15418*
G75*
G02X15340Y148072I-1028J950*
G01*
Y146300*
X18831*
G75*
G02X19800Y145350I20J-950*
G01*
G75*
G02X19433Y144600I-950*
G01*
X23700*
G37*
X34683D02*
G36*
G75*
G02X34081Y144400I-583J750D01*
G01*
X30550*
Y143350*
X33100*
G75*
G02X35100I1000*
G01*
X140437*
Y144600*
X34683*
G37*
X140437D02*
G36*
Y148150D01*
X138605*
G75*
G02X136105I-1250*
G01*
X136065*
G75*
G02X133565I-1250*
G01*
X133525*
G75*
G02X131025I-1250*
G01*
X130985*
G75*
G02X128485I-1250*
G01*
X128445*
G75*
G02X125945I-1250*
G01*
X125905*
G75*
G02X123405I-1250*
G01*
X123365*
G75*
G02X120865I-1250*
G01*
X120825*
G75*
G02X118325I-1250*
G01*
X118285*
G75*
G02X115785I-1250*
G01*
X115745*
G75*
G02X113245I-1250*
G01*
X113205*
G75*
G02X110705I-1250*
G01*
X110665*
G75*
G02X108165I-1250*
G01*
X108125*
G75*
G02X105625I-1250*
G01*
X105585*
G75*
G02X103085I-1250*
G01*
X103045*
G75*
G02X100545I-1250*
G01*
X100505*
G75*
G02X98036Y147873I-1250*
G01*
G75*
G02X95445Y147692I-1321J278*
G01*
G75*
G02X92854Y147873I-1270J458*
G01*
G75*
G02X90416I-1219J278*
G01*
G75*
G02X87774I-1321J278*
G01*
G75*
G02X85305Y148150I-1219J278*
G01*
X85265*
G75*
G02X82765I-1250*
G01*
X82725*
G75*
G02X80225I-1250*
G01*
X80185*
G75*
G02X77716Y147873I-1250*
G01*
G75*
G02X75074I-1321J278*
G01*
G75*
G02X72605Y148150I-1219J278*
G01*
X70660*
G75*
G02X68191Y147873I-1250*
G01*
G75*
G02X65549I-1321J278*
G01*
G75*
G02X63080Y148150I-1219J278*
G01*
X63040*
G75*
G02X60540I-1250*
G01*
X60500*
G75*
G02X58000I-1250*
G01*
X57960*
G75*
G02X55460I-1250*
G01*
X55420*
G75*
G02X52920I-1250*
G01*
X52880*
G75*
G02X50380I-1250*
G01*
X50340*
G75*
G02X47840I-1250*
G01*
X47800*
G75*
G02X45300I-1250*
G01*
X45260*
G75*
G02X42760I-1250*
G01*
X42720*
G75*
G02X40251Y147873I-1250*
G01*
G75*
G02X37580Y148150I-1321J278*
G01*
X30668*
G75*
G02X30550Y148036I-1028J950*
G01*
Y146300*
X34081*
G75*
G02X35050Y145350I20J-950*
G01*
G75*
G02X34683Y144600I-950*
G01*
X140437*
G37*
X3763Y11100D02*
G36*
Y5437D01*
X5437Y3763*
X138764*
X140437Y5437*
Y11100*
X136600*
G75*
G02X133100Y7600I-3500*
G01*
G75*
G02X129600Y11100J3500*
G01*
X47511*
G75*
G02X45135Y8963I-1245J-1006*
G01*
G75*
G02X45022Y11100I1131J1131*
G01*
X14600*
G75*
G02X11100Y7600I-3500*
G01*
G75*
G02X7600Y11100J3500*
G01*
X3763*
G37*
X7600D02*
G36*
G75*
G02X8227Y13100I3500D01*
G01*
X3763*
Y11100*
X7600*
G37*
X45022D02*
G36*
G75*
G02X47398Y11226I1245J-1006D01*
G01*
G75*
G02X47511Y11100I-1132J-1131*
G01*
X129600*
G75*
G02X130227Y13100I3500*
G01*
X112436*
G75*
G02X111274I-581J1050*
G01*
X91481*
G75*
G02X90319I-581J1050*
G01*
X53301*
G75*
G02X51251Y12251I-1200*
G01*
G75*
G02X50900Y13100I849J849*
G01*
X46241*
G75*
G02X45915Y12990I-326J430*
G01*
X44088*
G75*
G02X41670Y12569I-1357J640*
G01*
G75*
G02X41328Y13100I1061J1061*
G01*
X13973*
G75*
G02X14600Y11100I-2873J-2000*
G01*
X45022*
G37*
X140437D02*
G36*
Y13100D01*
X135973*
G75*
G02X136600Y11100I-2873J-2000*
G01*
X140437*
G37*
X3763Y193100D02*
G36*
Y190350D01*
X8935*
G75*
G02X7600Y193100I2165J2750*
G01*
X3763*
G37*
X7600D02*
G36*
G75*
G02X11100Y196600I3500D01*
G01*
G75*
G02X14600Y193100J-3500*
G01*
X21150*
Y197680*
X21336Y197866*
G75*
G02X22234Y198764I1084J-186*
G01*
X22420Y198950*
X70680*
X70866Y198764*
G75*
G02X71764Y197866I-186J-1084*
G01*
X71950Y197680*
Y193100*
X76279*
G75*
G02X77350Y194450I1071J250*
G01*
G75*
G02X78421Y193100J-1100*
G01*
X78819*
G75*
G02X79890Y194450I1071J250*
G01*
G75*
G02X80961Y193100J-1100*
G01*
X84642*
G75*
G02X84000Y194100I458J1000*
G01*
G75*
G02X86100Y194558I1100*
G01*
G75*
G02X88100I1000J-458*
G01*
G75*
G02X90043Y194667I1000J-458*
G01*
G75*
G02X92300Y194100I1058J-567*
G01*
G75*
G02X91763Y193100I-1200*
G01*
X112143*
X113496Y194454*
G75*
G02X113850Y194600I353J-354*
G01*
X114120*
G75*
G02X116100Y194558I980J-500*
G01*
G75*
G02X118100I1000J-458*
G01*
G75*
G02X120043Y194667I1000J-458*
G01*
G75*
G02X122300Y194100I1058J-567*
G01*
G75*
G02X121763Y193100I-1200*
G01*
X129600*
G75*
G02X133100Y196600I3500*
G01*
G75*
G02X136600Y193100J-3500*
G01*
X140437*
Y198764*
X138764Y200437*
X5437*
X3763Y198764*
Y193100*
X7600*
G37*
X14600D02*
G36*
G75*
G02X13265Y190350I-3500D01*
G01*
X21150*
Y193100*
X14600*
G37*
X71950D02*
G36*
Y190350D01*
X76250*
G75*
G02X77350Y191450I1100*
G01*
G75*
G02X78450Y190350J-1100*
G01*
X78790*
G75*
G02X79890Y191450I1100*
G01*
G75*
G02X80990Y190350J-1100*
G01*
X109393*
X112143Y193100*
X91763*
G75*
G02X90043Y193533I-663J1000*
G01*
G75*
G02X88100Y193642I-943J567*
G01*
G75*
G02X86100I-1000J458*
G01*
G75*
G02X84642Y193100I-1000J458*
G01*
X80961*
G75*
G02X79890Y192250I-1071J250*
G01*
G75*
G02X78819Y193100J1100*
G01*
X78421*
G75*
G02X77350Y192250I-1071J250*
G01*
G75*
G02X76279Y193100J1100*
G01*
X71950*
G37*
X121763D02*
G36*
G75*
G02X120043Y193533I-663J1000D01*
G01*
G75*
G02X118100Y193642I-943J567*
G01*
G75*
G02X116100I-1000J458*
G01*
G75*
G02X114120Y193600I-1000J458*
G01*
X114057*
X110807Y190350*
X130935*
G75*
G02X129600Y193100I2165J2750*
G01*
X121763*
G37*
X136600D02*
G36*
G75*
G02X135265Y190350I-3500D01*
G01*
X140437*
Y193100*
X136600*
G37*
X3763Y82343D02*
G36*
Y78600D01*
X11218*
X12541Y79924*
G75*
G02X12895Y80070I353J-354*
G01*
X13185*
G75*
G02X15063Y80205I980J-500*
G01*
X15807*
G75*
G02X16705Y80670I898J-635*
G01*
G75*
G02X17340Y78672J-1100*
G01*
Y77928*
G75*
G02X17441Y77847I-635J-898*
G01*
X20625*
X25120Y82343*
X3763*
G37*
X25120D02*
G36*
X27878Y85100D01*
X18950*
G75*
G02X15700Y82900I-3250J1300*
G01*
G75*
G02X12450Y85100J3500*
G01*
X3763*
Y82343*
X25120*
G37*
X42410D02*
G36*
X39108Y79041D01*
G75*
G02X39200Y78600I-1008J-441*
G01*
X47000*
G75*
G02X49200I1100*
G01*
X51646*
X52440Y79395*
G75*
G02X52900Y79585I460J-460*
G01*
X60183*
G75*
G02X60857I337J-650*
G01*
X82793*
X85551Y82343*
X82643*
G75*
G02X81026Y82276I-839J711*
G01*
G75*
G02X80965Y82343I778J778*
G01*
X49084*
G75*
G02X49200Y81850I-984J-493*
G01*
G75*
G02X47000I-1100*
G01*
G75*
G02X47116Y82343I1100*
G01*
X42410*
G37*
X47116D02*
G36*
G75*
G02X49084I984J-493D01*
G01*
X80965*
G75*
G02X82582Y83832I839J711*
G01*
G75*
G02X82643Y82343I-778J-778*
G01*
X85551*
X88308Y85100*
X49200*
G75*
G02X47000I-1100*
G01*
X45167*
X42410Y82343*
X47116*
G37*
X87389D02*
G36*
X83647Y78600D01*
X140437*
Y82343*
X87389*
G37*
X140437D02*
G36*
Y85100D01*
X126950*
G75*
G02X123700Y82900I-3250J1300*
G01*
G75*
G02X120450Y85100J3500*
G01*
X90147*
X87389Y82343*
X140437*
G37*
X3763Y124950D02*
G36*
Y121480D01*
X56880*
G75*
G02X57030Y122035I1100*
G01*
Y123466*
G75*
G02X56880Y124020I950J555*
G01*
G75*
G02X57393Y124950I1100*
G01*
X15350*
Y123550*
X10350*
Y124950*
X3763*
G37*
X10350D02*
G36*
Y126350D01*
X15350*
Y124950*
X57393*
G75*
G02X58568I588J-930*
G01*
X59762*
G75*
G02X61278I758J-930*
G01*
X62472*
G75*
G02X63648I588J-930*
G01*
X65013*
G75*
G02X66188I588J-930*
G01*
X67553*
G75*
G02X68728I588J-930*
G01*
X70093*
G75*
G02X71268I588J-930*
G01*
X72632*
G75*
G02X73808I588J-930*
G01*
X75173*
G75*
G02X76347I588J-930*
G01*
X77713*
G75*
G02X78888I588J-930*
G01*
X80253*
G75*
G02X81428I588J-930*
G01*
X82793*
G75*
G02X83968I588J-930*
G01*
X85333*
G75*
G02X86508I588J-930*
G01*
X87873*
G75*
G02X89048I588J-930*
G01*
X90413*
G75*
G02X91588I588J-930*
G01*
X92953*
G75*
G02X94128I588J-930*
G01*
X95493*
G75*
G02X96668I588J-930*
G01*
X98033*
G75*
G02X99208I588J-930*
G01*
X100573*
G75*
G02X101748I588J-930*
G01*
X103113*
G75*
G02X104288I588J-930*
G01*
X105653*
G75*
G02X106828I588J-930*
G01*
X108193*
G75*
G02X109368I588J-930*
G01*
X110733*
G75*
G02X111908I588J-930*
G01*
X113273*
G75*
G02X114448I588J-930*
G01*
X115813*
G75*
G02X116988I588J-930*
G01*
X118353*
G75*
G02X119528I588J-930*
G01*
X120893*
G75*
G02X122460Y124520I588J-930*
G01*
X123040*
G75*
G02X124608Y124950I980J-500*
G01*
X125973*
G75*
G02X127148I588J-930*
G01*
X128513*
G75*
G02X130080Y124520I588J-930*
G01*
X130660*
G75*
G02X132227Y124950I980J-500*
G01*
X140437*
Y127850*
X22850*
G75*
G02X20850I-1000*
G01*
X17200*
Y127050*
X14400*
Y127850*
X11300*
Y127250*
X8300*
Y127850*
X3763*
Y124950*
X10350*
G37*
X58568D02*
G36*
G75*
G02X59080Y124020I-588J-930D01*
G01*
G75*
G02X58930Y123466I-1100*
G01*
Y122035*
G75*
G02X59080Y121480I-950J-555*
G01*
X59320*
G75*
G02X61720I1200*
G01*
X61960*
G75*
G02X62560Y122460I1100*
G01*
Y123040*
G75*
G02X61960Y124020I500J980*
G01*
G75*
G02X62472Y124950I1100*
G01*
X61278*
G75*
G02X61720Y124020I-758J-930*
G01*
G75*
G02X59320I-1200*
G01*
G75*
G02X59762Y124950I1200*
G01*
X58568*
G37*
X63648D02*
G36*
G75*
G02X64160Y124020I-588J-930D01*
G01*
G75*
G02X63560Y123040I-1100*
G01*
Y122460*
G75*
G02X64160Y121480I-500J-980*
G01*
X64500*
G75*
G02X65100Y122460I1100*
G01*
Y123040*
G75*
G02X64500Y124020I500J980*
G01*
G75*
G02X65013Y124950I1100*
G01*
X63648*
G37*
X66188D02*
G36*
G75*
G02X66700Y124020I-588J-930D01*
G01*
G75*
G02X66100Y123040I-1100*
G01*
Y122460*
G75*
G02X66700Y121480I-500J-980*
G01*
X67040*
G75*
G02X67640Y122460I1100*
G01*
Y123040*
G75*
G02X67040Y124020I500J980*
G01*
G75*
G02X67553Y124950I1100*
G01*
X66188*
G37*
X68728D02*
G36*
G75*
G02X69240Y124020I-588J-930D01*
G01*
G75*
G02X68640Y123040I-1100*
G01*
Y122460*
G75*
G02X69240Y121480I-500J-980*
G01*
X69580*
G75*
G02X70180Y122460I1100*
G01*
Y123040*
G75*
G02X69580Y124020I500J980*
G01*
G75*
G02X70093Y124950I1100*
G01*
X68728*
G37*
X71268D02*
G36*
G75*
G02X71780Y124020I-588J-930D01*
G01*
G75*
G02X71180Y123040I-1100*
G01*
Y122460*
G75*
G02X71780Y121480I-500J-980*
G01*
X72120*
G75*
G02X72720Y122460I1100*
G01*
Y123040*
G75*
G02X72120Y124020I500J980*
G01*
G75*
G02X72632Y124950I1100*
G01*
X71268*
G37*
X73808D02*
G36*
G75*
G02X74320Y124020I-588J-930D01*
G01*
G75*
G02X73720Y123040I-1100*
G01*
Y122460*
G75*
G02X74320Y121480I-500J-980*
G01*
X74660*
G75*
G02X75260Y122460I1100*
G01*
Y123040*
G75*
G02X74660Y124020I500J980*
G01*
G75*
G02X75173Y124950I1100*
G01*
X73808*
G37*
X76347D02*
G36*
G75*
G02X76860Y124020I-588J-930D01*
G01*
G75*
G02X76260Y123040I-1100*
G01*
Y122460*
G75*
G02X76860Y121480I-500J-980*
G01*
X77200*
G75*
G02X77800Y122460I1100*
G01*
Y123040*
G75*
G02X77200Y124020I500J980*
G01*
G75*
G02X77713Y124950I1100*
G01*
X76347*
G37*
X78888D02*
G36*
G75*
G02X79400Y124020I-588J-930D01*
G01*
G75*
G02X78800Y123040I-1100*
G01*
Y122460*
G75*
G02X79400Y121480I-500J-980*
G01*
X79740*
G75*
G02X80340Y122460I1100*
G01*
Y123040*
G75*
G02X79740Y124020I500J980*
G01*
G75*
G02X80253Y124950I1100*
G01*
X78888*
G37*
X81428D02*
G36*
G75*
G02X81940Y124020I-588J-930D01*
G01*
G75*
G02X81340Y123040I-1100*
G01*
Y122460*
G75*
G02X81940Y121480I-500J-980*
G01*
X82280*
G75*
G02X82880Y122460I1100*
G01*
Y123040*
G75*
G02X82280Y124020I500J980*
G01*
G75*
G02X82793Y124950I1100*
G01*
X81428*
G37*
X83968D02*
G36*
G75*
G02X84480Y124020I-588J-930D01*
G01*
G75*
G02X83880Y123040I-1100*
G01*
Y122460*
G75*
G02X84480Y121480I-500J-980*
G01*
X84820*
G75*
G02X85420Y122460I1100*
G01*
Y123040*
G75*
G02X84820Y124020I500J980*
G01*
G75*
G02X85333Y124950I1100*
G01*
X83968*
G37*
X86508D02*
G36*
G75*
G02X87020Y124020I-588J-930D01*
G01*
G75*
G02X86420Y123040I-1100*
G01*
Y122460*
G75*
G02X87020Y121480I-500J-980*
G01*
X87360*
G75*
G02X87960Y122460I1100*
G01*
Y123040*
G75*
G02X87360Y124020I500J980*
G01*
G75*
G02X87873Y124950I1100*
G01*
X86508*
G37*
X89048D02*
G36*
G75*
G02X89560Y124020I-588J-930D01*
G01*
G75*
G02X88960Y123040I-1100*
G01*
Y122460*
G75*
G02X89560Y121480I-500J-980*
G01*
X89900*
G75*
G02X90500Y122460I1100*
G01*
Y123040*
G75*
G02X89900Y124020I500J980*
G01*
G75*
G02X90413Y124950I1100*
G01*
X89048*
G37*
X91588D02*
G36*
G75*
G02X92100Y124020I-588J-930D01*
G01*
G75*
G02X91500Y123040I-1100*
G01*
Y122460*
G75*
G02X92100Y121480I-500J-980*
G01*
X92440*
G75*
G02X93040Y122460I1100*
G01*
Y123040*
G75*
G02X92440Y124020I500J980*
G01*
G75*
G02X92953Y124950I1100*
G01*
X91588*
G37*
X94128D02*
G36*
G75*
G02X94640Y124020I-588J-930D01*
G01*
G75*
G02X94040Y123040I-1100*
G01*
Y122460*
G75*
G02X94640Y121480I-500J-980*
G01*
X94980*
G75*
G02X95580Y122460I1100*
G01*
Y123040*
G75*
G02X94980Y124020I500J980*
G01*
G75*
G02X95493Y124950I1100*
G01*
X94128*
G37*
X96668D02*
G36*
G75*
G02X97180Y124020I-588J-930D01*
G01*
G75*
G02X96580Y123040I-1100*
G01*
Y122460*
G75*
G02X97180Y121480I-500J-980*
G01*
X97520*
G75*
G02X98120Y122460I1100*
G01*
Y123040*
G75*
G02X97520Y124020I500J980*
G01*
G75*
G02X98033Y124950I1100*
G01*
X96668*
G37*
X99208D02*
G36*
G75*
G02X99720Y124020I-588J-930D01*
G01*
G75*
G02X99120Y123040I-1100*
G01*
Y122460*
G75*
G02X99720Y121480I-500J-980*
G01*
X100060*
G75*
G02X100660Y122460I1100*
G01*
Y123040*
G75*
G02X100060Y124020I500J980*
G01*
G75*
G02X100573Y124950I1100*
G01*
X99208*
G37*
X101748D02*
G36*
G75*
G02X102260Y124020I-588J-930D01*
G01*
G75*
G02X101660Y123040I-1100*
G01*
Y122460*
G75*
G02X102260Y121480I-500J-980*
G01*
X102600*
G75*
G02X103200Y122460I1100*
G01*
Y123040*
G75*
G02X102600Y124020I500J980*
G01*
G75*
G02X103113Y124950I1100*
G01*
X101748*
G37*
X104288D02*
G36*
G75*
G02X104800Y124020I-588J-930D01*
G01*
G75*
G02X104200Y123040I-1100*
G01*
Y122460*
G75*
G02X104800Y121480I-500J-980*
G01*
X105140*
G75*
G02X105740Y122460I1100*
G01*
Y123040*
G75*
G02X105140Y124020I500J980*
G01*
G75*
G02X105653Y124950I1100*
G01*
X104288*
G37*
X106828D02*
G36*
G75*
G02X107340Y124020I-588J-930D01*
G01*
G75*
G02X106740Y123040I-1100*
G01*
Y122460*
G75*
G02X107340Y121480I-500J-980*
G01*
X107680*
G75*
G02X108280Y122460I1100*
G01*
Y123040*
G75*
G02X107680Y124020I500J980*
G01*
G75*
G02X108193Y124950I1100*
G01*
X106828*
G37*
X109368D02*
G36*
G75*
G02X109880Y124020I-588J-930D01*
G01*
G75*
G02X109280Y123040I-1100*
G01*
Y122460*
G75*
G02X109880Y121480I-500J-980*
G01*
X110220*
G75*
G02X110820Y122460I1100*
G01*
Y123040*
G75*
G02X110220Y124020I500J980*
G01*
G75*
G02X110733Y124950I1100*
G01*
X109368*
G37*
X111908D02*
G36*
G75*
G02X112420Y124020I-588J-930D01*
G01*
G75*
G02X111820Y123040I-1100*
G01*
Y122460*
G75*
G02X112420Y121480I-500J-980*
G01*
X112760*
G75*
G02X113360Y122460I1100*
G01*
Y123040*
G75*
G02X112760Y124020I500J980*
G01*
G75*
G02X113273Y124950I1100*
G01*
X111908*
G37*
X114448D02*
G36*
G75*
G02X114960Y124020I-588J-930D01*
G01*
G75*
G02X114360Y123040I-1100*
G01*
Y122460*
G75*
G02X114960Y121480I-500J-980*
G01*
X115300*
G75*
G02X115900Y122460I1100*
G01*
Y123040*
G75*
G02X115300Y124020I500J980*
G01*
G75*
G02X115813Y124950I1100*
G01*
X114448*
G37*
X116988D02*
G36*
G75*
G02X117500Y124020I-588J-930D01*
G01*
G75*
G02X116900Y123040I-1100*
G01*
Y122460*
G75*
G02X117500Y121480I-500J-980*
G01*
X117840*
G75*
G02X118440Y122460I1100*
G01*
Y123040*
G75*
G02X117840Y124020I500J980*
G01*
G75*
G02X118353Y124950I1100*
G01*
X116988*
G37*
X119528D02*
G36*
G75*
G02X120040Y124020I-588J-930D01*
G01*
G75*
G02X119440Y123040I-1100*
G01*
Y122460*
G75*
G02X120040Y121480I-500J-980*
G01*
X120380*
G75*
G02X122460Y121980I1100*
G01*
X123040*
G75*
G02X125120Y121480I980J-500*
G01*
X125460*
G75*
G02X126060Y122460I1100*
G01*
Y123040*
G75*
G02X125460Y124020I500J980*
G01*
G75*
G02X125973Y124950I1100*
G01*
X124608*
G75*
G02X125120Y124020I-588J-930*
G01*
G75*
G02X123040Y123520I-1100*
G01*
X122460*
G75*
G02X120380Y124020I-980J500*
G01*
G75*
G02X120893Y124950I1100*
G01*
X119528*
G37*
X127148D02*
G36*
G75*
G02X127660Y124020I-588J-930D01*
G01*
G75*
G02X127060Y123040I-1100*
G01*
Y122460*
G75*
G02X127540Y121980I-500J-980*
G01*
X128120*
G75*
G02X130200Y121480I980J-500*
G01*
X130540*
G75*
G02X131140Y122460I1100*
G01*
Y123040*
G75*
G02X130660Y123520I500J980*
G01*
X130080*
G75*
G02X128000Y124020I-980J500*
G01*
G75*
G02X128513Y124950I1100*
G01*
X127148*
G37*
X132227D02*
G36*
G75*
G02X132740Y124020I-588J-930D01*
G01*
G75*
G02X132140Y123040I-1100*
G01*
Y122460*
G75*
G02X132740Y121480I-500J-980*
G01*
X140437*
Y124950*
X132227*
G37*
X3763Y57500D02*
G36*
Y48415D01*
X15420*
Y48455*
G75*
G02X15610Y48915I650*
G01*
X24196Y57500*
X19200*
G75*
G02X15700Y54000I-3500*
G01*
G75*
G02X12200Y57500J3500*
G01*
X3763*
G37*
X12200D02*
G36*
G75*
G02X15700Y61000I3500D01*
G01*
G75*
G02X19200Y57500J-3500*
G01*
X24196*
X27675Y60980*
G75*
G02X28135Y61170I460J-460*
G01*
X34216*
X39646Y66600*
X26667*
X25314Y65246*
G75*
G02X24960Y65100I-353J354*
G01*
X18475*
X18610Y64965*
Y63695*
X17340Y62425*
X16070*
X14943Y63552*
G75*
G02X14165Y63230I-778J778*
G01*
G75*
G02X13530Y65228J1100*
G01*
Y65972*
G75*
G02X13099Y66600I635J898*
G01*
X3763*
Y57500*
X12200*
G37*
X26034D02*
G36*
X16949Y48415D01*
X19865*
Y49103*
G75*
G02X20515Y50625I650J623*
G01*
G75*
G02X21165Y49103J-900*
G01*
Y48415*
X21850*
Y50350*
X22600Y51100*
X23600*
X24350Y50350*
Y48415*
X28305*
G75*
G02X29405Y49515I1100*
G01*
G75*
G02X30505Y48415J-1100*
G01*
X93428*
X100660Y55647*
Y57500*
X26034*
G37*
X100660D02*
G36*
Y59137D01*
G75*
G02X100260Y59885I500J748*
G01*
G75*
G02X102060I900*
G01*
G75*
G02X101660Y59137I-900*
G01*
Y57500*
X101955*
G75*
G02X102076Y57699I475J-155*
G01*
X103029Y58651*
G75*
G02X103382Y58798I353J-354*
G01*
X105715*
X105740Y58822*
Y59137*
G75*
G02X105340Y59885I500J748*
G01*
G75*
G02X107140I900*
G01*
G75*
G02X106740Y59137I-900*
G01*
Y58615*
G75*
G02X106594Y58261I-500J0*
G01*
X106276Y57944*
G75*
G02X105923Y57798I-353J354*
G01*
X103590*
X103292Y57500*
X110458*
X101358Y66600*
X92100*
Y65850*
X91350Y65100*
X90100*
X89350Y65850*
Y66600*
X41484*
X34945Y60060*
G75*
G02X34485Y59870I-460J460*
G01*
X28404*
X26034Y57500*
X100660*
G37*
X101660D02*
G36*
Y55440D01*
G75*
G02X101514Y55086I-500J0*
G01*
X94842Y48415*
X95333*
X101930Y55012*
Y57345*
G75*
G02X101955Y57500I500J0*
G01*
X101660*
G37*
X103292D02*
G36*
X102930Y57138D01*
Y54805*
G75*
G02X102784Y54451I-500J0*
G01*
X96747Y48415*
X97238*
X103835Y55012*
Y55644*
G75*
G02X103435Y56393I500J748*
G01*
G75*
G02X105235I900*
G01*
G75*
G02X104835Y55644I-900*
G01*
Y54805*
G75*
G02X104689Y54451I-500J0*
G01*
X98652Y48415*
X99030*
X104560Y53945*
G75*
G02X104970Y54115I410J-410*
G01*
X106635*
X108200Y55680*
Y55704*
G75*
G02X107880Y56393I580J688*
G01*
G75*
G02X109680I900*
G01*
G75*
G02X109360Y55704I-900*
G01*
Y55440*
G75*
G02X109190Y55030I-580*
G01*
X107285Y53125*
G75*
G02X106875Y52955I-410J410*
G01*
X105210*
X100670Y48415*
X111455*
Y56503*
X110458Y57500*
X103292*
G37*
X111872D02*
G36*
X112309Y57064D01*
G75*
G02X112455Y56710I-354J-353*
G01*
Y48415*
X120980*
Y48883*
X112363Y57500*
X111872*
G37*
X112363D02*
G36*
X103263Y66600D01*
X102772*
X111872Y57500*
X112363*
G37*
X113777D02*
G36*
X121834Y49444D01*
G75*
G02X121980Y49090I-354J-353*
G01*
Y48415*
X140437*
Y57500*
X127199*
G75*
G02X123700Y53900I-3499J-100*
G01*
G75*
G02X120201Y57500J3500*
G01*
X113777*
G37*
X120201D02*
G36*
G75*
G02X123700Y60900I3499J-100D01*
G01*
G75*
G02X127199Y57500J-3500*
G01*
X140437*
Y66600*
X104677*
X113777Y57500*
X120201*
G37*
X3763Y86400D02*
G36*
Y85100D01*
X12450*
G75*
G02X12200Y86400I3250J1300*
G01*
X3763*
G37*
X12200D02*
G36*
G75*
G02X12794Y88350I3500J0D01*
G01*
X3763*
Y86400*
X12200*
G37*
X19200D02*
G36*
G75*
G02X18950Y85100I-3500J0D01*
G01*
X27878*
X29178Y86400*
X19200*
G37*
X29178D02*
G36*
X31128Y88350D01*
X29200*
G75*
G02X27000I-1100*
G01*
X18607*
G75*
G02X19200Y86400I-2907J-1950*
G01*
X29178*
G37*
X46467D02*
G36*
X45167Y85100D01*
X47000*
G75*
G02X49200I1100*
G01*
X88308*
X89608Y86400*
X46467*
G37*
X89608D02*
G36*
X91558Y88350D01*
X48417*
X46467Y86400*
X89608*
G37*
X91447D02*
G36*
X90147Y85100D01*
X120450*
G75*
G02X120200Y86400I3250J1300*
G01*
X91447*
G37*
X120200D02*
G36*
G75*
G02X120793Y88350I3500J0D01*
G01*
X93397*
X91447Y86400*
X120200*
G37*
X127200D02*
G36*
G75*
G02X126950Y85100I-3500J0D01*
G01*
X140437*
Y86400*
X127200*
G37*
X140437D02*
G36*
Y88350D01*
X126607*
G75*
G02X127200Y86400I-2907J-1950*
G01*
X140437*
G37*
X3763Y45550D02*
G36*
Y42464D01*
X44535*
G75*
G02X46585Y43313I1200*
G01*
G75*
G02X46936Y42464I-849J-849*
G01*
X53702*
G75*
G02X56508I1403J-530*
G01*
X73813*
X73538Y42740*
X69093*
X68140Y43693*
Y45550*
X53168*
G75*
G02X50438Y44338I-1598J-81*
G01*
G75*
G02X49972Y45550I1131J1131*
G01*
X32943*
G75*
G02X31905Y44815I-1038J365*
G01*
G75*
G02X31737Y44828I0J1100*
G01*
X29825Y42915*
G75*
G02X29365Y42725I-460J460*
G01*
X24960*
G75*
G02X24500Y42915J650*
G01*
X21866Y45550*
X17070*
G75*
G02X15070I-1000*
G01*
X3763*
G37*
X15070D02*
G36*
G75*
G02X17070I1000D01*
G01*
X21866*
X20055Y47360*
G75*
G02X19865Y47820I460J460*
G01*
Y48415*
X16949*
X16720Y48186*
Y48173*
G75*
G02X16970Y47550I-650J-623*
G01*
G75*
G02X15170I-900*
G01*
G75*
G02X15420Y48173I900*
G01*
Y48415*
X3763*
Y45550*
X15070*
G37*
X23704D02*
G36*
X25229Y44025D01*
X29096*
X30621Y45550*
X28600*
Y45350*
X27850Y44350*
X25350*
X24150Y45550*
X23704*
G37*
X24150D02*
G36*
X21850Y47850D01*
Y48415*
X21165*
Y48089*
X23704Y45550*
X24150*
G37*
X30621D02*
G36*
X30818Y45747D01*
G75*
G02X31905Y47015I1087J168*
G01*
G75*
G02X32943Y45550J-1100*
G01*
X49972*
G75*
G02X52701Y46601I1598J-81*
G01*
G75*
G02X53168Y45550I-1131J-1131*
G01*
X68140*
Y45598*
X68580Y45818*
G75*
G02X68752Y46966I830J463*
G01*
X69008Y47222*
G75*
G02X69680Y47500I672J-672*
G01*
X74087*
G75*
G02X74893I403J-950*
G01*
X76395*
G75*
G02X77067Y47222I0J-950*
G01*
X79009Y45280*
X80375*
G75*
G02X82541Y45550I1100*
G01*
X90563*
X93428Y48415*
X30505*
G75*
G02X29405Y47315I-1100*
G01*
G75*
G02X28305Y48415J1100*
G01*
X24350*
Y48350*
X25350Y47350*
X27850*
X28600Y46600*
Y45550*
X30621*
G37*
X82541D02*
G36*
G75*
G02X82575Y45280I-1066J-270D01*
G01*
X83380*
X84333Y44328*
Y42464*
X89865*
Y44645*
G75*
G02X90011Y44999I500J0*
G01*
X90563Y45550*
X82541*
G37*
X91977D02*
G36*
X90865Y44438D01*
Y42464*
X91135*
Y44010*
G75*
G02X91281Y44364I500J0*
G01*
X92468Y45550*
X91977*
G37*
X92468D02*
G36*
X95333Y48415D01*
X94842*
X91977Y45550*
X92468*
G37*
X93882D02*
G36*
X92135Y43803D01*
Y42464*
X92405*
Y43375*
G75*
G02X92551Y43729I500J0*
G01*
X94373Y45550*
X93882*
G37*
X94373D02*
G36*
X97238Y48415D01*
X96747*
X93882Y45550*
X94373*
G37*
X95787D02*
G36*
X93405Y43168D01*
Y42464*
X93595*
Y42740*
G75*
G02X93765Y43150I580*
G01*
X96165Y45550*
X95787*
G37*
X96165D02*
G36*
X99030Y48415D01*
X98652*
X95787Y45550*
X96165*
G37*
X97805D02*
G36*
X94755Y42500D01*
Y42464*
X111455*
Y45550*
X102649*
G75*
G02X101350Y44300I-1299J50*
G01*
G75*
G02X100051Y45550J1300*
G01*
X97805*
G37*
X100051D02*
G36*
G75*
G02X101350Y46900I1299J50D01*
G01*
G75*
G02X102649Y45550J-1300*
G01*
X111455*
Y48415*
X100670*
X97805Y45550*
X100051*
G37*
X112455D02*
G36*
Y42464D01*
X120980*
Y45550*
X112455*
G37*
X120980D02*
G36*
Y48415D01*
X112455*
Y45550*
X120980*
G37*
X121980D02*
G36*
Y42464D01*
X140437*
Y45550*
X121980*
G37*
X140437D02*
G36*
Y48415D01*
X121980*
Y45550*
X140437*
G37*
X12794Y88350D02*
G36*
G75*
G02X15700Y89900I2907J-1950D01*
G01*
G75*
G02X18607Y88350J-3500*
G01*
X27000*
G75*
G02X29200I1100*
G01*
X31128*
X34128Y91350*
X29200*
G75*
G02X27000I-1100*
G01*
X3763*
Y88350*
X12794*
G37*
X91558D02*
G36*
X94558Y91350D01*
X88882*
X86274Y88741*
G75*
G02X85920Y88595I-353J354*
G01*
X48662*
X48417Y88350*
X91558*
G37*
X120793D02*
G36*
G75*
G02X123700Y89900I2907J-1950D01*
G01*
G75*
G02X126607Y88350J-3500*
G01*
X140437*
Y91350*
X116399*
X116225Y91175*
G75*
G02X115765Y90985I-460J460*
G01*
X96032*
X93397Y88350*
X120793*
G37*
X27000Y91350D02*
G36*
G75*
G02X29200I1100D01*
G01*
X34128*
X37050Y94272*
G75*
G02X37000Y94600I1050J328*
G01*
X29200*
G75*
G02X27000I-1100*
G01*
X3763*
Y91350*
X27000*
G37*
X94558D02*
G36*
X95303Y92095D01*
G75*
G02X95763Y92285I460J-460*
G01*
X115496*
X117811Y94600*
X92132*
X88882Y91350*
X94558*
G37*
X140437D02*
G36*
Y94600D01*
X119649*
X116399Y91350*
X140437*
G37*
X27000Y94600D02*
G36*
G75*
G02X29200I1100D01*
G01*
X37000*
G75*
G02X38428Y95650I1100*
G01*
X38576Y95799*
G75*
G02X38930Y95945I353J-354*
G01*
X78728*
X80340Y97557*
Y97640*
G75*
G02X79740Y98620I500J980*
G01*
X79400*
G75*
G02X77200I-1100*
G01*
X76860*
G75*
G02X74660I-1100*
G01*
X74320*
G75*
G02X72120I-1100*
G01*
X71780*
G75*
G02X69580I-1100*
G01*
X69240*
G75*
G02X67040I-1100*
G01*
X66700*
G75*
G02X64500I-1100*
G01*
X64160*
G75*
G02X61960I-1100*
G01*
X61620*
G75*
G02X59420I-1100*
G01*
X59180*
G75*
G02X56780I-1200*
G01*
X46550*
Y98154*
G75*
G02X46700Y97600I-950J-555*
G01*
G75*
G02X44500I-1100*
G01*
G75*
G02X44650Y98154I1100*
G01*
Y98620*
X3763*
Y94600*
X27000*
G37*
X117811D02*
G36*
X120830Y97619D01*
Y97733*
G75*
G02X120380Y98620I650J887*
G01*
X120140*
G75*
G02X117740I-1200*
G01*
X117500*
G75*
G02X115300I-1100*
G01*
X114960*
G75*
G02X112760I-1100*
G01*
X112420*
G75*
G02X110220I-1100*
G01*
X109880*
G75*
G02X107680I-1100*
G01*
X107340*
G75*
G02X105140I-1100*
G01*
X104800*
G75*
G02X102600I-1100*
G01*
X102260*
G75*
G02X100060I-1100*
G01*
X99720*
G75*
G02X97520I-1100*
G01*
X97180*
G75*
G02X94980I-1100*
G01*
X94640*
G75*
G02X94040Y97640I-1100*
G01*
Y96715*
G75*
G02X93894Y96361I-500J0*
G01*
X92132Y94600*
X117811*
G37*
X140437D02*
G36*
Y98620D01*
X132840*
G75*
G02X130440I-1200*
G01*
X130200*
G75*
G02X128120Y98120I-1100*
G01*
X127540*
G75*
G02X125460Y98620I-980J500*
G01*
X125120*
G75*
G02X123466Y97670I-1100*
G01*
X122130*
Y97350*
G75*
G02X121940Y96890I-650*
G01*
X119649Y94600*
X140437*
G37*
X3763Y25131D02*
G36*
Y23150D01*
X34620*
Y24325*
G75*
G02X34766Y24679I500J0*
G01*
X35219Y25131*
X32831*
G75*
G02X30099Y23999I-1600*
G01*
G75*
G02X29631Y25131I1131J1131*
G01*
X3763*
G37*
X29631D02*
G36*
G75*
G02X32362Y26262I1600D01*
G01*
G75*
G02X32831Y25131I-1131J-1131*
G01*
X35219*
X39211Y29124*
G75*
G02X39565Y29270I353J-354*
G01*
X41898*
X42308Y29680*
G75*
G02X42202Y30964I1297J754*
G01*
X35436*
G75*
G02X33387Y30115I-1200*
G01*
G75*
G02X33035Y30964I849J849*
G01*
X3763*
Y25131*
X29631*
G37*
X36633D02*
G36*
X35620Y24118D01*
Y23150*
X50233*
G75*
G02X51130Y23903I1336J-681*
G01*
Y25131*
X41677*
G75*
G02X39751Y23751I-1077J-530*
G01*
G75*
G02X39523Y25131I849J849*
G01*
X36633*
G37*
X39523D02*
G36*
G75*
G02X41449Y25449I1077J-530D01*
G01*
G75*
G02X41677Y25131I-849J-849*
G01*
X51130*
Y30040*
G75*
G02X51276Y30394I500J0*
G01*
X51847Y30964*
X50722*
X50079Y30321*
G75*
G02X49725Y30175I-353J354*
G01*
X45083*
G75*
G02X43073Y29031I-1478J259*
G01*
X42459Y28416*
G75*
G02X42105Y28270I-353J354*
G01*
X39772*
X36633Y25131*
X39523*
G37*
X52130D02*
G36*
Y23860D01*
G75*
G02X52906Y23150I-560J-1391*
G01*
X57392*
G75*
G02X58141I375J-1556*
G01*
X89700*
G75*
G02X92101I1200*
G01*
X99913*
X101894Y25131*
X64677*
G75*
G02X62751Y23751I-1077J-531*
G01*
G75*
G02X62524Y25131I849J849*
G01*
X57009*
X56457Y24578*
G75*
G02X56075Y24420I-382J382*
G01*
X55552*
G75*
G02X53170Y24069I-1321J710*
G01*
G75*
G02X52731Y25131I1061J1061*
G01*
X52130*
G37*
X52731D02*
G36*
G75*
G02X55292Y26191I1500J-1D01*
G01*
G75*
G02X55685Y25500I-1061J-1061*
G01*
X55851*
X61316Y30964*
X58437*
G75*
G02X56387Y30115I-1200J-1*
G01*
G75*
G02X56036Y30964I849J849*
G01*
X53261*
X52130Y29833*
Y25131*
X52731*
G37*
X62524D02*
G36*
G75*
G02X64449Y25449I1077J-531D01*
G01*
G75*
G02X64677Y25131I-849J-849*
G01*
X101894*
X107727Y30964*
X68115*
G75*
G02X65474Y29302I-1509J-531*
G01*
G75*
G02X65096Y30964I1131J1131*
G01*
X62843*
X57009Y25131*
X62524*
G37*
X103308D02*
G36*
X101327Y23150D01*
X110655*
G75*
G02X113056I1200*
G01*
X120868*
X120980Y23262*
Y25131*
X103308*
G37*
X120980D02*
G36*
Y30964D01*
X109142*
X103308Y25131*
X120980*
G37*
X121980D02*
G36*
Y23150D01*
X140437*
Y25131*
X121980*
G37*
X140437D02*
G36*
Y30964D01*
X121980*
Y25131*
X140437*
G37*
X33035Y30964D02*
G36*
G75*
G02X35085Y31813I1200D01*
G01*
G75*
G02X35436Y30964I-849J-849*
G01*
X42202*
G75*
G02X44666Y31495I1403J-530*
G01*
G75*
G02X44909Y31175I-1061J-1061*
G01*
X49518*
X52312Y33969*
X47485*
G75*
G02X45206Y32035I-1219J-874*
G01*
G75*
G02X45047Y33969I1061J1061*
G01*
X41670*
G75*
G02X38938Y32838I-1600*
G01*
G75*
G02X38469Y33969I1131J1131*
G01*
X3763*
Y30964*
X33035*
G37*
X51847D02*
G36*
X54852Y33969D01*
X53727*
X50722Y30964*
X51847*
G37*
X56036D02*
G36*
G75*
G02X58085Y31813I1200J-1D01*
G01*
G75*
G02X58437Y30964I-849J-849*
G01*
X61316*
X62520Y32169*
Y32573*
G75*
G02X62009Y32908I550J1396*
G01*
G75*
G02X61570Y33969I1061J1061*
G01*
X56267*
X53261Y30964*
X56036*
G37*
X65096D02*
G36*
G75*
G02X67737Y31565I1509J-531D01*
G01*
G75*
G02X68115Y30964I-1131J-1131*
G01*
X107727*
X110732Y33969*
X102350*
Y31600*
X102100Y31350*
X100600*
X100350Y31600*
Y33969*
X88726*
G75*
G02X88460Y33905I-266J516*
G01*
X65840*
X65375Y33440*
G75*
G02X64965Y33270I-410J410*
G01*
X64397*
G75*
G02X63600Y32566I-1327J699*
G01*
Y31945*
G75*
G02X63442Y31563I-540J0*
G01*
X62843Y30964*
X65096*
G37*
X120980D02*
G36*
Y33969D01*
X112147*
X109142Y30964*
X120980*
G37*
X140437D02*
G36*
Y33969D01*
X121980*
Y30964*
X140437*
G37*
X38469Y33969D02*
G36*
G75*
G02X41201Y35101I1600D01*
G01*
G75*
G02X41670Y33969I-1131J-1131*
G01*
X45047*
G75*
G02X46010Y34573I1219J-874*
G01*
Y35438*
G75*
G02X46168Y35819I540J0*
G01*
X46980Y36631*
X44331*
G75*
G02X41599Y35499I-1600*
G01*
G75*
G02X41131Y36631I1131J1131*
G01*
X3763*
Y33969*
X38469*
G37*
X52312D02*
G36*
X54974Y36631D01*
X53177*
G75*
G02X51251Y35252I-1077J-530*
G01*
G75*
G02X51023Y36631I849J849*
G01*
X48507*
X47090Y35214*
Y34349*
G75*
G02X47327Y34156I-824J-1254*
G01*
G75*
G02X47485Y33969I-1061J-1061*
G01*
X52312*
G37*
X54852D02*
G36*
X57514Y36631D01*
X56388*
X53727Y33969*
X54852*
G37*
X61570D02*
G36*
G75*
G02X64130Y35030I1500J-1D01*
G01*
G75*
G02X64497Y34430I-1061J-1061*
G01*
X64725*
X65190Y34895*
G75*
G02X65600Y35065I410J-410*
G01*
X88220*
X89786Y36631*
X89408*
X88179Y35401*
G75*
G02X87825Y35255I-353J354*
G01*
X65600*
G75*
G02X65246Y35401I0J500*
G01*
X64123Y36525*
X58822*
X56267Y33969*
X61570*
G37*
X100350D02*
G36*
Y34100D01*
X99600Y34850*
Y36350*
X99881Y36631*
X91426*
X88870Y34075*
G75*
G02X88726Y33969I-410J410*
G01*
X100350*
G37*
X110732D02*
G36*
X111455Y34692D01*
Y36631*
X102819*
X103100Y36350*
Y34850*
X102350Y34100*
Y33969*
X110732*
G37*
X120980D02*
G36*
Y36631D01*
X112455*
Y34485*
G75*
G02X112309Y34131I-500J0*
G01*
X112147Y33969*
X120980*
G37*
X140437D02*
G36*
Y36631D01*
X121980*
Y33969*
X140437*
G37*
X8282Y148150D02*
G36*
G75*
G02X9310Y150500I1028J950D01*
G01*
G75*
G02X10523Y149799J-1400*
G01*
G75*
G02X13177I1327J-699*
G01*
G75*
G02X14390Y150500I1213J-699*
G01*
G75*
G02X15418Y148150J-1400*
G01*
X23532*
G75*
G02X24560Y150500I1028J950*
G01*
G75*
G02X25773Y149799J-1400*
G01*
G75*
G02X28427I1327J-699*
G01*
G75*
G02X29640Y150500I1213J-699*
G01*
G75*
G02X30668Y148150J-1400*
G01*
X37580*
G75*
G02X40251Y148428I1350*
G01*
G75*
G02X42720Y148150I1219J-278*
G01*
X42760*
G75*
G02X45260I1250*
G01*
X45300*
G75*
G02X47800I1250*
G01*
X47840*
G75*
G02X50340I1250*
G01*
X50380*
G75*
G02X52880I1250*
G01*
X52920*
G75*
G02X55420I1250*
G01*
X55460*
G75*
G02X57960I1250*
G01*
X58000*
G75*
G02X60500I1250*
G01*
X60540*
G75*
G02X63040I1250*
G01*
X63080*
G75*
G02X65549Y148428I1250*
G01*
G75*
G02X68191I1321J-278*
G01*
G75*
G02X70660Y148150I1219J-278*
G01*
X72605*
G75*
G02X75074Y148428I1250*
G01*
G75*
G02X77716I1321J-278*
G01*
G75*
G02X80185Y148150I1219J-278*
G01*
X80225*
G75*
G02X82725I1250*
G01*
X82765*
G75*
G02X85265I1250*
G01*
X85305*
G75*
G02X87774Y148428I1250*
G01*
G75*
G02X90416I1321J-278*
G01*
G75*
G02X92854I1219J-278*
G01*
G75*
G02X95445Y148608I1321J-278*
G01*
G75*
G02X98036Y148428I1270J-458*
G01*
G75*
G02X100505Y148150I1219J-278*
G01*
X100545*
G75*
G02X103045I1250*
G01*
X103085*
G75*
G02X105585I1250*
G01*
X105625*
G75*
G02X108125I1250*
G01*
X108165*
G75*
G02X110665I1250*
G01*
X110705*
G75*
G02X113205I1250*
G01*
X113245*
G75*
G02X115745I1250*
G01*
X115785*
G75*
G02X118285I1250*
G01*
X118325*
G75*
G02X120825I1250*
G01*
X120865*
G75*
G02X123365I1250*
G01*
X123405*
G75*
G02X125905I1250*
G01*
X125945*
G75*
G02X128445I1250*
G01*
X128485*
G75*
G02X130985I1250*
G01*
X131025*
G75*
G02X133525I1250*
G01*
X133565*
G75*
G02X136065I1250*
G01*
X136105*
G75*
G02X138605I1250*
G01*
X140437*
Y153230*
X138605*
G75*
G02X136105I-1250*
G01*
X136065*
G75*
G02X133565I-1250*
G01*
X133525*
G75*
G02X131025I-1250*
G01*
X130985*
G75*
G02X128485I-1250*
G01*
X128445*
G75*
G02X125945I-1250*
G01*
X125905*
G75*
G02X123405I-1250*
G01*
X123365*
G75*
G02X120865I-1250*
G01*
X120825*
G75*
G02X118325I-1250*
G01*
X118285*
G75*
G02X115785I-1250*
G01*
X115745*
G75*
G02X113245I-1250*
G01*
X113205*
G75*
G02X110705I-1250*
G01*
G75*
G02X111350Y154324I1250*
G01*
Y169143*
X110643Y169850*
X102850*
G75*
G02X102496Y169996I0J500*
G01*
X101746Y170746*
G75*
G02X101600Y171100I354J353*
G01*
Y173120*
G75*
G02X101100Y173642I500J980*
G01*
G75*
G02X100600Y173120I-1000J458*
G01*
Y171307*
X102807Y169100*
X106100*
G75*
G02X106454Y168954I0J-500*
G01*
X109704Y165704*
G75*
G02X109850Y165350I-354J-353*
G01*
Y154402*
G75*
G02X110665Y153230I-435J-1172*
G01*
G75*
G02X108165I-1250*
G01*
X108125*
G75*
G02X105625I-1250*
G01*
X105585*
G75*
G02X103085I-1250*
G01*
X103045*
G75*
G02X100545I-1250*
G01*
X100505*
G75*
G02X98036Y152952I-1250*
G01*
G75*
G02X95445Y152772I-1321J278*
G01*
G75*
G02X92854Y152952I-1270J458*
G01*
G75*
G02X90416I-1219J278*
G01*
G75*
G02X87774I-1321J278*
G01*
G75*
G02X85305Y153230I-1219J278*
G01*
X85265*
G75*
G02X82765I-1250*
G01*
X82725*
G75*
G02X80225I-1250*
G01*
X80185*
G75*
G02X77716Y152952I-1250*
G01*
G75*
G02X75074I-1321J278*
G01*
G75*
G02X72605Y153230I-1219J278*
G01*
X70660*
G75*
G02X68191Y152952I-1250*
G01*
G75*
G02X65549I-1321J278*
G01*
G75*
G02X63080Y153230I-1219J278*
G01*
X63040*
G75*
G02X60540I-1250*
G01*
X60500*
G75*
G02X58000I-1250*
G01*
X57960*
G75*
G02X55460I-1250*
G01*
X55420*
G75*
G02X52920I-1250*
G01*
X52880*
G75*
G02X50380I-1250*
G01*
X50340*
G75*
G02X47840I-1250*
G01*
X47800*
G75*
G02X45300I-1250*
G01*
X45260*
G75*
G02X42760I-1250*
G01*
X42720*
G75*
G02X40251Y152952I-1250*
G01*
G75*
G02X37580Y153230I-1321J278*
G01*
X3763*
Y148150*
X8282*
G37*
X3763Y163590D02*
G36*
Y159850D01*
X46393*
X50133Y163590*
X3763*
G37*
X50133D02*
G36*
X54746Y168204D01*
G75*
G02X55100Y168350I353J-354*
G01*
X64893*
X66643Y170100*
X64690*
G75*
G02X62120Y169822I-1300*
G01*
G75*
G02X59580I-1270J278*
G01*
G75*
G02X57010Y170100I-1270J278*
G01*
X51990*
X51444Y169554*
G75*
G02X50546Y168656I-1084J186*
G01*
X50360Y168470*
X7180*
X6994Y168656*
G75*
G02X6096Y169554I186J1084*
G01*
X5910Y169740*
Y170100*
X3763*
Y163590*
X50133*
G37*
X51547D02*
G36*
X47807Y159850D01*
X51393*
X55133Y163590*
X51547*
G37*
X55133D02*
G36*
X55996Y164454D01*
G75*
G02X56350Y164600I353J-354*
G01*
X69120*
G75*
G02X71100Y164558I980J-500*
G01*
G75*
G02X73100I1000J-458*
G01*
G75*
G02X75043Y164667I1000J-458*
G01*
G75*
G02X77300Y164100I1058J-567*
G01*
G75*
G02X77186Y163590I-1200J0*
G01*
X77383*
X83893Y170100*
X68057*
X65454Y167496*
G75*
G02X65100Y167350I-353J354*
G01*
X55307*
X51547Y163590*
X55133*
G37*
X77186D02*
G36*
G75*
G02X75043Y163533I-1086J510D01*
G01*
G75*
G02X73100Y163642I-943J567*
G01*
G75*
G02X71761Y163054I-1000J458*
G01*
X70454Y161746*
G75*
G02X70100Y161600I-353J354*
G01*
X59557*
X57807Y159850*
X58950*
G75*
G02X60750I900*
G01*
X63643*
X64246Y160454*
G75*
G02X64600Y160600I353J-354*
G01*
X74393*
X77383Y163590*
X77186*
G37*
X78797D02*
G36*
X75057Y159850D01*
X77143*
X80883Y163590*
X78797*
G37*
X80883D02*
G36*
X83746Y166454D01*
G75*
G02X84100Y166600I353J-354*
G01*
X92143*
X94600Y169057*
Y170100*
X85307*
X78797Y163590*
X80883*
G37*
X82297D02*
G36*
X78557Y159850D01*
X108850*
Y163590*
X107186*
G75*
G02X105043Y163533I-1086J510*
G01*
G75*
G02X103100Y163642I-943J567*
G01*
G75*
G02X101100I-1000J458*
G01*
G75*
G02X99125Y163590I-1000J458*
G01*
X92186*
G75*
G02X90043Y163533I-1086J510*
G01*
G75*
G02X88100Y163642I-943J567*
G01*
G75*
G02X86100I-1000J458*
G01*
G75*
G02X84125Y163590I-1000J458*
G01*
X82297*
G37*
X84125D02*
G36*
G75*
G02X84000Y164100I975J510D01*
G01*
G75*
G02X86100Y164558I1100*
G01*
G75*
G02X88100I1000J-458*
G01*
G75*
G02X90043Y164667I1000J-458*
G01*
G75*
G02X92300Y164100I1058J-567*
G01*
G75*
G02X92186Y163590I-1200J0*
G01*
X99125*
G75*
G02X99000Y164100I975J510*
G01*
G75*
G02X101100Y164558I1100*
G01*
G75*
G02X103100I1000J-458*
G01*
G75*
G02X105043Y164667I1000J-458*
G01*
G75*
G02X107300Y164100I1058J-567*
G01*
G75*
G02X107186Y163590I-1200J0*
G01*
X108850*
Y165143*
X105893Y168100*
X102600*
G75*
G02X102246Y168246I0J500*
G01*
X100393Y170100*
X95600*
Y168850*
G75*
G02X95454Y168496I-500J0*
G01*
X92704Y165746*
G75*
G02X92350Y165600I-353J354*
G01*
X84307*
X82297Y163590*
X84125*
G37*
X112350D02*
G36*
Y159850D01*
X118100*
G75*
G02X117746Y159996I0J500*
G01*
X116746Y160996*
G75*
G02X116600Y161350I354J353*
G01*
Y163120*
G75*
G02X116100Y163642I500J980*
G01*
G75*
G02X114125Y163590I-1000J458*
G01*
X112350*
G37*
X114125D02*
G36*
G75*
G02X114000Y164100I975J510D01*
G01*
G75*
G02X116100Y164558I1100*
G01*
G75*
G02X118100I1000J-458*
G01*
G75*
G02X120043Y164667I1000J-458*
G01*
G75*
G02X122300Y164100I1058J-567*
G01*
G75*
G02X122186Y163590I-1200J0*
G01*
X129100*
Y163893*
X123893Y169100*
X116350*
G75*
G02X115996Y169246I0J500*
G01*
X115143Y170100*
X111807*
X112204Y169704*
G75*
G02X112350Y169350I-354J-353*
G01*
Y163590*
X114125*
G37*
X122186D02*
G36*
G75*
G02X120043Y163533I-1086J510D01*
G01*
G75*
G02X118100Y163642I-943J567*
G01*
G75*
G02X117600Y163120I-1000J458*
G01*
Y161557*
X118307Y160850*
X120600*
G75*
G02X120954Y160704I0J-500*
G01*
X121807Y159850*
X129100*
Y163590*
X122186*
G37*
X130100D02*
G36*
Y159850D01*
X140437*
Y163590*
X130100*
G37*
X140437D02*
G36*
Y170100D01*
X116557*
X124100*
G75*
G02X124454Y169954I0J-500*
G01*
X129954Y164454*
G75*
G02X130100Y164100I-354J-353*
G01*
Y163590*
X140437*
G37*
X41131Y36631D02*
G36*
G75*
G02X43862Y37762I1600D01*
G01*
G75*
G02X44331Y36631I-1131J-1131*
G01*
X46980*
X52518Y42169*
G75*
G02X52900Y42328I382J-382*
G01*
X53658*
G75*
G02X53702Y42464I1448J-393*
G01*
X46936*
G75*
G02X44887Y41615I-1200*
G01*
G75*
G02X44535Y42464I849J849*
G01*
X3763*
Y36631*
X41131*
G37*
X51023D02*
G36*
G75*
G02X52949Y36949I1077J-530D01*
G01*
G75*
G02X53177Y36631I-849J-849*
G01*
X54974*
X56991Y38649*
G75*
G02X57345Y38795I353J-354*
G01*
X64965*
G75*
G02X65319Y38649I0J-500*
G01*
X66442Y37525*
X86983*
X91135Y41677*
Y42464*
X90865*
Y42105*
G75*
G02X90719Y41751I-500J0*
G01*
X86909Y37941*
G75*
G02X86555Y37795I-353J354*
G01*
X66870*
G75*
G02X66516Y37941I0J500*
G01*
X65393Y39065*
X60520*
G75*
G02X60166Y39211I0J500*
G01*
X58408Y40970*
X56254*
G75*
G02X53771Y41248I-1149J964*
G01*
X53124*
X48507Y36631*
X51023*
G37*
X57514D02*
G36*
X58261Y37379D01*
G75*
G02X58615Y37525I353J-354*
G01*
X64330*
G75*
G02X64684Y37379I0J-500*
G01*
X65431Y36631*
X65927*
G75*
G02X65881Y36671I308J394*
G01*
X64758Y37795*
X57552*
X56388Y36631*
X57514*
G37*
X65431D02*
G36*
X65807Y36255D01*
X87618*
X87994Y36631*
X87498*
G75*
G02X87190Y36525I-308J394*
G01*
X66235*
G75*
G02X65927Y36631I0J500*
G01*
X65431*
G37*
X87994D02*
G36*
X92405Y41042D01*
Y42464*
X92135*
Y41470*
G75*
G02X91989Y41116I-500J0*
G01*
X87544Y36671*
G75*
G02X87498Y36631I-354J353*
G01*
X87994*
G37*
X89786D02*
G36*
X93595Y40440D01*
Y42464*
X93405*
Y40835*
G75*
G02X93259Y40481I-500J0*
G01*
X89408Y36631*
X89786*
G37*
X99881D02*
G36*
X100600Y37350D01*
X102100*
X102819Y36631*
X111455*
Y42464*
X94755*
Y40200*
G75*
G02X94585Y39790I-580*
G01*
X91426Y36631*
X99881*
G37*
X120980D02*
G36*
Y42464D01*
X112455*
Y36631*
X120980*
G37*
X140437D02*
G36*
Y42464D01*
X121980*
Y36631*
X140437*
G37*
X37580Y153230D02*
G36*
G75*
G02X40251Y153507I1350D01*
G01*
G75*
G02X41106Y154426I1219J-278*
G01*
G75*
G02X41246Y154704I494J-76*
G01*
X44393Y157850*
X3763*
Y153230*
X37580*
G37*
X42760D02*
G36*
G75*
G02X45260I1250D01*
G01*
X45300*
G75*
G02X46102Y154397I1250*
G01*
G75*
G02X46246Y154704I498J-47*
G01*
X49393Y157850*
X45807*
X42201Y154244*
G75*
G02X42720Y153230I-731J-1014*
G01*
X42760*
G37*
X47840D02*
G36*
G75*
G02X50340I1250D01*
G01*
X50380*
G75*
G02X51350Y154448I1250*
G01*
Y154600*
G75*
G02X51496Y154954I500J0*
G01*
X58996Y162454*
G75*
G02X59350Y162600I353J-354*
G01*
X69893*
X70314Y163021*
G75*
G02X69120Y163600I-214J1079*
G01*
X56557*
X47234Y154276*
G75*
G02X47800Y153230I-684J-1047*
G01*
X47840*
G37*
X52920D02*
G36*
G75*
G02X55420I1250D01*
G01*
X55460*
G75*
G02X57960I1250*
G01*
X58000*
G75*
G02X58850Y154414I1250*
G01*
Y154850*
G75*
G02X58996Y155204I500J0*
G01*
X61643Y157850*
X60850*
G75*
G02X58850I-1000*
G01*
X55807*
X52350Y154393*
Y154252*
G75*
G02X52880Y153230I-720J-1022*
G01*
X52920*
G37*
X60540D02*
G36*
G75*
G02X61350Y154400I1250D01*
G01*
Y154850*
G75*
G02X61496Y155204I500J0*
G01*
X62496Y156204*
G75*
G02X62850Y156350I353J-354*
G01*
X73643*
X75143Y157850*
X63057*
X59850Y154643*
Y154327*
G75*
G02X60500Y153230I-600J-1097*
G01*
X60540*
G37*
X63080D02*
G36*
G75*
G02X65549Y153507I1250D01*
G01*
G75*
G02X68191I1321J-278*
G01*
G75*
G02X70660Y153230I1219J-278*
G01*
X72605*
G75*
G02X75074Y153507I1250*
G01*
G75*
G02X77716I1321J-278*
G01*
G75*
G02X80185Y153230I1219J-278*
G01*
X80225*
G75*
G02X82725I1250*
G01*
X82765*
G75*
G02X85265I1250*
G01*
X85305*
G75*
G02X87774Y153507I1250*
G01*
G75*
G02X90416I1321J-278*
G01*
G75*
G02X92854I1219J-278*
G01*
G75*
G02X95445Y153688I1321J-278*
G01*
G75*
G02X98036Y153507I1270J-458*
G01*
G75*
G02X100505Y153230I1219J-278*
G01*
X100545*
G75*
G02X103045I1250*
G01*
X103085*
G75*
G02X105585I1250*
G01*
X105625*
G75*
G02X108125I1250*
G01*
X108165*
G75*
G02X108850Y154345I1250*
G01*
Y157850*
X76557*
X74204Y155496*
G75*
G02X73850Y155350I-353J354*
G01*
X63057*
X62350Y154643*
Y154348*
G75*
G02X63040Y153230I-560J-1117*
G01*
X63080*
G37*
X113245D02*
G36*
G75*
G02X115745I1250D01*
G01*
X115785*
G75*
G02X118285I1250*
G01*
X118325*
G75*
G02X120825I1250*
G01*
X120865*
G75*
G02X123365I1250*
G01*
X123405*
G75*
G02X124100Y154350I1250*
G01*
Y156143*
X122393Y157850*
X112350*
Y154416*
G75*
G02X113205Y153230I-395J-1186*
G01*
X113245*
G37*
X125945D02*
G36*
G75*
G02X128445I1250D01*
G01*
X128485*
G75*
G02X129100Y154307I1250*
G01*
Y157850*
X123807*
X124954Y156704*
G75*
G02X125100Y156350I-354J-353*
G01*
Y154398*
G75*
G02X125905Y153230I-445J-1168*
G01*
X125945*
G37*
X131025D02*
G36*
G75*
G02X133525I1250D01*
G01*
X133565*
G75*
G02X136065I1250*
G01*
X136105*
G75*
G02X138605I1250*
G01*
X140437*
Y157850*
X130100*
Y154426*
G75*
G02X130985Y153230I-365J-1196*
G01*
X131025*
G37*
X56508Y42464D02*
G36*
G75*
G02X56605Y41970I-1403J-530D01*
G01*
X58615*
G75*
G02X58969Y41824I0J-500*
G01*
X60727Y40065*
X65600*
G75*
G02X65954Y39919I0J-500*
G01*
X67077Y38795*
X86348*
X89865Y42312*
Y42464*
X84333*
Y42105*
X81475Y39248*
X77030*
X73813Y42464*
X56508*
G37*
X3763Y19464D02*
G36*
Y16150D01*
X47771*
X51085Y19464*
X46937*
G75*
G02X44887Y18615I-1200*
G01*
G75*
G02X44536Y19464I849J849*
G01*
X3763*
G37*
X44536D02*
G36*
G75*
G02X46585Y20313I1200D01*
G01*
G75*
G02X46937Y19464I-849J-849*
G01*
X51085*
X51090Y19469*
Y21048*
G75*
G02X50351Y21595I480J1421*
G01*
X36266*
G75*
G02X33706Y20535I-1500J1*
G01*
G75*
G02X33266Y21595I1061J1061*
G01*
X3763*
Y19464*
X44536*
G37*
X52170D02*
G36*
Y19245D01*
G75*
G02X52012Y18863I-540J0*
G01*
X49299Y16150*
X83050*
G75*
G02X86250I1600*
G01*
X95550*
G75*
G02X98750I1600*
G01*
X104005*
G75*
G02X107205I1600*
G01*
X116505*
G75*
G02X119705I1600*
G01*
X140437*
Y19464*
X114772*
G75*
G02X114495Y19380I-277J416*
G01*
X108780*
G75*
G02X108503Y19464I0J500*
G01*
X94452*
G75*
G02X94175Y19380I-277J416*
G01*
X87825*
G75*
G02X87548Y19464I0J500*
G01*
X56615*
G75*
G02X53974Y17802I-1510J-530*
G01*
G75*
G02X53596Y19464I1131J1131*
G01*
X52170*
G37*
X53596D02*
G36*
G75*
G02X56237Y20065I1510J-530D01*
G01*
G75*
G02X56615Y19464I-1131J-1131*
G01*
X87548*
G75*
G02X87471Y19526I277J416*
G01*
X86348Y20650*
X86064*
G75*
G02X83150Y21150I-1414J500*
G01*
G75*
G02X83217Y21595I1500J0*
G01*
X59367*
G75*
G02X56635Y20463I-1600*
G01*
G75*
G02X56167Y21595I1131J1131*
G01*
X52789*
G75*
G02X52170Y21094I-1219J874*
G01*
Y19464*
X53596*
G37*
X108503D02*
G36*
G75*
G02X108426Y19526I277J416D01*
G01*
X107303Y20650*
X107019*
G75*
G02X104105Y21150I-1414J500*
G01*
G75*
G02X104172Y21595I1500J0*
G01*
X99772*
X98974Y20796*
G75*
G02X98620Y20650I-353J354*
G01*
X98564*
G75*
G02X95736I-1414J500*
G01*
X95652*
X94529Y19526*
G75*
G02X94452Y19464I-353J354*
G01*
X108503*
G37*
X140437D02*
G36*
Y21595D01*
X120727*
X119929Y20796*
G75*
G02X119575Y20650I-353J354*
G01*
X119519*
G75*
G02X116691I-1414J500*
G01*
X115972*
X114849Y19526*
G75*
G02X114772Y19464I-353J354*
G01*
X140437*
G37*
X3763Y78600D02*
G36*
Y75870D01*
X10490*
Y77665*
G75*
G02X10636Y78019I500J0*
G01*
X11218Y78600*
X3763*
G37*
X39200D02*
G36*
G75*
G02X37659Y77592I-1100D01*
G01*
X35937Y75870*
X48916*
X51646Y78600*
X49200*
G75*
G02X47000I-1100*
G01*
X39200*
G37*
X83647D02*
G36*
X83522Y78475D01*
G75*
G02X83063Y78285I-460J460*
G01*
X60857*
G75*
G02X60183I-337J650*
G01*
X53169*
X50754Y75870*
X87888*
G75*
G02X89766Y76647I1100*
G01*
G75*
G02X90088Y75870I-778J-778*
G01*
X140437*
Y78600*
X83647*
G37*
X8227Y13100D02*
G36*
G75*
G02X11100Y14600I2873J-2000D01*
G01*
G75*
G02X13973Y13100J-3500*
G01*
X41328*
G75*
G02X43792Y14691I1403J530*
G01*
G75*
G02X44165Y14070I-1061J-1061*
G01*
X45691*
X47771Y16150*
X3763*
Y13100*
X8227*
G37*
X50900D02*
G36*
G75*
G02X52949Y13949I1200D01*
G01*
G75*
G02X53301Y13100I-849J-849*
G01*
X90319*
G75*
G02X89700Y14150I581J1050*
G01*
G75*
G02X92101I1200*
G01*
G75*
G02X91481Y13100I-1200*
G01*
X111274*
G75*
G02X110655Y14150I581J1050*
G01*
G75*
G02X113056I1200*
G01*
G75*
G02X112436Y13100I-1200*
G01*
X130227*
G75*
G02X133100Y14600I2873J-2000*
G01*
G75*
G02X135973Y13100J-3500*
G01*
X140437*
Y16150*
X119705*
G75*
G02X116505I-1600*
G01*
X107205*
G75*
G02X104005I-1600*
G01*
X98750*
G75*
G02X95550I-1600*
G01*
X86250*
G75*
G02X83050I-1600*
G01*
X49299*
X46297Y13148*
G75*
G02X46241Y13100I-382J382*
G01*
X50900*
G37*
X44650Y98620D02*
G36*
Y101160D01*
X3763*
Y98620*
X44650*
G37*
X56780D02*
G36*
G75*
G02X59180I1200D01*
G01*
X59420*
G75*
G02X60020Y99600I1100*
G01*
Y100180*
G75*
G02X59420Y101160I500J980*
G01*
X59180*
G75*
G02X56780I-1200*
G01*
X46550*
Y98620*
X56780*
G37*
X61960D02*
G36*
G75*
G02X62560Y99600I1100D01*
G01*
Y100180*
G75*
G02X61960Y101160I500J980*
G01*
X61620*
G75*
G02X61020Y100180I-1100*
G01*
Y99600*
G75*
G02X61620Y98620I-500J-980*
G01*
X61960*
G37*
X64500D02*
G36*
G75*
G02X65100Y99600I1100D01*
G01*
Y100180*
G75*
G02X64500Y101160I500J980*
G01*
X64160*
G75*
G02X63560Y100180I-1100*
G01*
Y99600*
G75*
G02X64160Y98620I-500J-980*
G01*
X64500*
G37*
X67040D02*
G36*
G75*
G02X67640Y99600I1100D01*
G01*
Y100180*
G75*
G02X67040Y101160I500J980*
G01*
X66700*
G75*
G02X66100Y100180I-1100*
G01*
Y99600*
G75*
G02X66700Y98620I-500J-980*
G01*
X67040*
G37*
X69580D02*
G36*
G75*
G02X70180Y99600I1100D01*
G01*
Y100180*
G75*
G02X69580Y101160I500J980*
G01*
X69240*
G75*
G02X68640Y100180I-1100*
G01*
Y99600*
G75*
G02X69240Y98620I-500J-980*
G01*
X69580*
G37*
X72120D02*
G36*
G75*
G02X72720Y99600I1100D01*
G01*
Y100180*
G75*
G02X72120Y101160I500J980*
G01*
X71780*
G75*
G02X71180Y100180I-1100*
G01*
Y99600*
G75*
G02X71780Y98620I-500J-980*
G01*
X72120*
G37*
X74660D02*
G36*
G75*
G02X75260Y99600I1100D01*
G01*
Y100180*
G75*
G02X74660Y101160I500J980*
G01*
X74320*
G75*
G02X73720Y100180I-1100*
G01*
Y99600*
G75*
G02X74320Y98620I-500J-980*
G01*
X74660*
G37*
X77200D02*
G36*
G75*
G02X77800Y99600I1100D01*
G01*
Y100180*
G75*
G02X77200Y101160I500J980*
G01*
X76860*
G75*
G02X76260Y100180I-1100*
G01*
Y99600*
G75*
G02X76860Y98620I-500J-980*
G01*
X77200*
G37*
X79740D02*
G36*
G75*
G02X80340Y99600I1100D01*
G01*
Y100180*
G75*
G02X79740Y101160I500J980*
G01*
X79400*
G75*
G02X78800Y100180I-1100*
G01*
Y99600*
G75*
G02X79400Y98620I-500J-980*
G01*
X79740*
G37*
X94980D02*
G36*
G75*
G02X95580Y99600I1100D01*
G01*
Y100180*
G75*
G02X94980Y101160I500J980*
G01*
X94640*
G75*
G02X94040Y100180I-1100*
G01*
Y99600*
G75*
G02X94640Y98620I-500J-980*
G01*
X94980*
G37*
X97520D02*
G36*
G75*
G02X98120Y99600I1100D01*
G01*
Y100180*
G75*
G02X97520Y101160I500J980*
G01*
X97180*
G75*
G02X96580Y100180I-1100*
G01*
Y99600*
G75*
G02X97180Y98620I-500J-980*
G01*
X97520*
G37*
X100060D02*
G36*
G75*
G02X100660Y99600I1100D01*
G01*
Y100180*
G75*
G02X100060Y101160I500J980*
G01*
X99720*
G75*
G02X99120Y100180I-1100*
G01*
Y99600*
G75*
G02X99720Y98620I-500J-980*
G01*
X100060*
G37*
X102600D02*
G36*
G75*
G02X103200Y99600I1100D01*
G01*
Y100180*
G75*
G02X102600Y101160I500J980*
G01*
X102260*
G75*
G02X101660Y100180I-1100*
G01*
Y99600*
G75*
G02X102260Y98620I-500J-980*
G01*
X102600*
G37*
X105140D02*
G36*
G75*
G02X105740Y99600I1100D01*
G01*
Y100180*
G75*
G02X105140Y101160I500J980*
G01*
X104800*
G75*
G02X104200Y100180I-1100*
G01*
Y99600*
G75*
G02X104800Y98620I-500J-980*
G01*
X105140*
G37*
X107680D02*
G36*
G75*
G02X108280Y99600I1100D01*
G01*
Y100180*
G75*
G02X107680Y101160I500J980*
G01*
X107340*
G75*
G02X106740Y100180I-1100*
G01*
Y99600*
G75*
G02X107340Y98620I-500J-980*
G01*
X107680*
G37*
X110220D02*
G36*
G75*
G02X110820Y99600I1100D01*
G01*
Y100180*
G75*
G02X110220Y101160I500J980*
G01*
X109880*
G75*
G02X109280Y100180I-1100*
G01*
Y99600*
G75*
G02X109880Y98620I-500J-980*
G01*
X110220*
G37*
X112760D02*
G36*
G75*
G02X113360Y99600I1100D01*
G01*
Y100180*
G75*
G02X112760Y101160I500J980*
G01*
X112420*
G75*
G02X111820Y100180I-1100*
G01*
Y99600*
G75*
G02X112420Y98620I-500J-980*
G01*
X112760*
G37*
X115300D02*
G36*
G75*
G02X115900Y99600I1100D01*
G01*
Y100180*
G75*
G02X115300Y101160I500J980*
G01*
X114960*
G75*
G02X114360Y100180I-1100*
G01*
Y99600*
G75*
G02X114960Y98620I-500J-980*
G01*
X115300*
G37*
X117740D02*
G36*
G75*
G02X120140I1200D01*
G01*
X120380*
G75*
G02X120530Y99174I1100*
G01*
Y100606*
G75*
G02X120380Y101160I950J555*
G01*
X120140*
G75*
G02X117740I-1200*
G01*
X117500*
G75*
G02X116900Y100180I-1100*
G01*
Y99600*
G75*
G02X117500Y98620I-500J-980*
G01*
X117740*
G37*
X125460D02*
G36*
G75*
G02X126060Y99600I1100D01*
G01*
Y100180*
G75*
G02X125460Y101160I500J980*
G01*
X125120*
G75*
G02X122920I-1100*
G01*
X122580*
G75*
G02X122430Y100606I-1100*
G01*
Y99570*
X123466*
G75*
G02X125120Y98620I555J-950*
G01*
X125460*
G37*
X130440D02*
G36*
G75*
G02X132840I1200D01*
G01*
X140437*
Y101160*
X132840*
G75*
G02X130440I-1200*
G01*
X130300*
G75*
G02X127900I-1200*
G01*
X127660*
G75*
G02X127060Y100180I-1100*
G01*
Y99600*
G75*
G02X127540Y99120I-500J-980*
G01*
X128120*
G75*
G02X130200Y98620I980J-500*
G01*
X130440*
G37*
X44650Y101160D02*
G36*
Y104100D01*
G75*
G02X44928Y104772I950J0*
G01*
X45761Y105605*
X3763*
Y101160*
X44650*
G37*
X56780D02*
G36*
G75*
G02X59180I1200D01*
G01*
X59420*
G75*
G02X61620I1100*
G01*
X61960*
G75*
G02X64160I1100*
G01*
X64500*
G75*
G02X66700I1100*
G01*
X67040*
G75*
G02X69240I1100*
G01*
X69580*
G75*
G02X71780I1100*
G01*
X72120*
G75*
G02X74320I1100*
G01*
X74660*
G75*
G02X76860I1100*
G01*
X77200*
G75*
G02X79400I1100*
G01*
X79740*
G75*
G02X81940I1100*
G01*
G75*
G02X81340Y100180I-1100*
G01*
Y99600*
G75*
G02Y97640I-500J-980*
G01*
Y97350*
G75*
G02X81194Y96996I-500J0*
G01*
X79289Y95091*
G75*
G02X78935Y94945I-353J354*
G01*
X39145*
G75*
G02X37750Y93557I-1045J-345*
G01*
X21186Y76994*
G75*
G02X20833Y76847I-353J354*
G01*
X17790*
G75*
G02X17491Y76260I-1085J183*
G01*
X22213*
X37034Y91081*
G75*
G02X38369Y92417I1067J269*
G01*
X40481Y94529*
G75*
G02X40835Y94675I353J-354*
G01*
X80633*
X82880Y96922*
Y97640*
G75*
G02Y99600I500J980*
G01*
Y100180*
G75*
G02X82280Y101160I500J980*
G01*
G75*
G02X84480I1100*
G01*
G75*
G02X83880Y100180I-1100*
G01*
Y99600*
G75*
G02Y97640I-500J-980*
G01*
Y96715*
G75*
G02X83734Y96361I-500J0*
G01*
X81194Y93821*
G75*
G02X80840Y93675I-353J354*
G01*
X41042*
X39123Y91755*
G75*
G02X37695Y90327I-1023J-405*
G01*
X22774Y75406*
G75*
G02X22420Y75260I-353J354*
G01*
X17491*
G75*
G02Y73720I-786J-770*
G01*
X22848*
X37076Y87948*
G75*
G02X38502Y89374I1024J402*
G01*
X42386Y93259*
G75*
G02X42740Y93405I353J-354*
G01*
X81903*
X85420Y96922*
Y97640*
G75*
G02Y99600I500J980*
G01*
Y100180*
G75*
G02X84820Y101160I500J980*
G01*
G75*
G02X87020I1100*
G01*
G75*
G02X86420Y100180I-1100*
G01*
Y99600*
G75*
G02Y97640I-500J-980*
G01*
Y96715*
G75*
G02X86274Y96361I-500J0*
G01*
X82464Y92551*
G75*
G02X82110Y92405I-353J354*
G01*
X42947*
X39166Y88623*
G75*
G02X37827Y87284I-1066J-273*
G01*
X23409Y72866*
G75*
G02X23055Y72720I-353J354*
G01*
X17491*
G75*
G02Y71180I-786J-770*
G01*
X23483*
X37056Y84753*
G75*
G02X38447Y86144I1044J347*
G01*
X44291Y91989*
G75*
G02X44645Y92135I353J-354*
G01*
X83173*
X87960Y96922*
Y97640*
G75*
G02Y99600I500J980*
G01*
Y100180*
G75*
G02X87360Y101160I500J980*
G01*
G75*
G02X89560I1100*
G01*
G75*
G02X88960Y100180I-1100*
G01*
Y99600*
G75*
G02Y97640I-500J-980*
G01*
Y96715*
G75*
G02X88814Y96361I-500J0*
G01*
X83734Y91281*
G75*
G02X83380Y91135I-353J354*
G01*
X44852*
X39149Y85432*
G75*
G02X37768Y84051I-1049J-332*
G01*
X24044Y70326*
G75*
G02X23690Y70180I-353J354*
G01*
X18293*
Y68640*
X24118*
X37039Y81561*
G75*
G02X38389Y82911I1061J289*
G01*
X46196Y90719*
G75*
G02X46550Y90865I353J-354*
G01*
X84443*
X90500Y96922*
Y97640*
G75*
G02Y99600I500J980*
G01*
Y100180*
G75*
G02X89900Y101160I500J980*
G01*
G75*
G02X92100I1100*
G01*
G75*
G02X91500Y100180I-1100*
G01*
Y99600*
G75*
G02Y97640I-500J-980*
G01*
Y96715*
G75*
G02X91354Y96361I-500J0*
G01*
X85004Y90011*
G75*
G02X84650Y89865I-353J354*
G01*
X46757*
X39130Y82237*
G75*
G02X37713Y80821I-1030J-387*
G01*
X24679Y67786*
G75*
G02X24325Y67640I-353J354*
G01*
X17491*
G75*
G02Y66100I-786J-770*
G01*
X24753*
X37024Y78371*
G75*
G02X38329Y79676I1076J229*
G01*
X48101Y89449*
G75*
G02X48455Y89595I353J-354*
G01*
X85713*
X93040Y96922*
Y97640*
G75*
G02Y99600I500J980*
G01*
Y100180*
G75*
G02X92440Y101160I500J980*
G01*
G75*
G02X94640I1100*
G01*
X94980*
G75*
G02X97180I1100*
G01*
X97520*
G75*
G02X99720I1100*
G01*
X100060*
G75*
G02X102260I1100*
G01*
X102600*
G75*
G02X104800I1100*
G01*
X105140*
G75*
G02X107340I1100*
G01*
X107680*
G75*
G02X109880I1100*
G01*
X110220*
G75*
G02X112420I1100*
G01*
X112760*
G75*
G02X114960I1100*
G01*
X115300*
G75*
G02X117500I1100*
G01*
X117740*
G75*
G02X120140I1200*
G01*
X120380*
G75*
G02X120530Y101715I1100*
G01*
Y105586*
G75*
G02X120530Y105605I950J20*
G01*
X119980*
G75*
G02X118980Y104605I-1000*
G01*
G75*
G02X117980Y105605J1000*
G01*
X48449*
X46550Y103707*
Y101160*
X56780*
G37*
X122920D02*
G36*
G75*
G02X125120I1100D01*
G01*
X125460*
G75*
G02X127660I1100*
G01*
X127900*
G75*
G02X130300I1200*
G01*
X130440*
G75*
G02X132840I1200*
G01*
X140437*
Y105605*
X122430*
G75*
G02X122430Y105586I-951*
G01*
Y101715*
G75*
G02X122580Y101160I-950J-555*
G01*
X122920*
G37*
X33266Y21595D02*
G36*
G75*
G02X34620Y23088I1500J1D01*
G01*
Y23150*
X3763*
Y21595*
X33266*
G37*
X50351D02*
G36*
G75*
G02X50233Y23150I1219J874D01*
G01*
X35620*
Y22829*
G75*
G02X35827Y22656I-854J-1233*
G01*
G75*
G02X36266Y21595I-1061J-1061*
G01*
X50351*
G37*
X56167D02*
G36*
G75*
G02X57392Y23150I1600D01*
G01*
X52906*
G75*
G02X52789Y21595I-1336J-681*
G01*
X56167*
G37*
X83217D02*
G36*
G75*
G02X86064Y21650I1433J-445D01*
G01*
X86555*
G75*
G02X86909Y21504I0J-500*
G01*
X88032Y20380*
X93968*
X95091Y21504*
G75*
G02X95445Y21650I353J-354*
G01*
X95736*
G75*
G02X98521Y21758I1414J-500*
G01*
X99913Y23150*
X92101*
G75*
G02X89700I-1200*
G01*
X58141*
G75*
G02X58898Y22726I-375J-1556*
G01*
G75*
G02X59367Y21595I-1131J-1131*
G01*
X83217*
G37*
X104172D02*
G36*
G75*
G02X107019Y21650I1433J-445D01*
G01*
X107510*
G75*
G02X107864Y21504I0J-500*
G01*
X108987Y20380*
X114288*
X115411Y21504*
G75*
G02X115765Y21650I353J-354*
G01*
X116691*
G75*
G02X119476Y21758I1414J-500*
G01*
X120868Y23150*
X113056*
G75*
G02X110655I-1200*
G01*
X101327*
X99772Y21595*
X104172*
G37*
X140437D02*
G36*
Y23150D01*
X121980*
Y23055*
G75*
G02X121834Y22701I-500J0*
G01*
X120727Y21595*
X140437*
G37*
X3763Y121480D02*
G36*
Y116400D01*
X56557*
X57030Y116874*
Y120926*
G75*
G02X56880Y121480I950J555*
G01*
X3763*
G37*
X59080D02*
G36*
G75*
G02X58930Y120926I-1100D01*
G01*
Y116803*
G75*
G02X59012Y116400I-950J-403*
G01*
X59430*
G75*
G02X60480Y117450I1050*
G01*
G75*
G02X61530Y116400J-1050*
G01*
X140437*
Y121480*
X132740*
G75*
G02X130540I-1100*
G01*
X130200*
G75*
G02X128120Y120980I-1100*
G01*
X127540*
G75*
G02X125460Y121480I-980J500*
G01*
X125120*
G75*
G02X123040Y120980I-1100*
G01*
X122460*
G75*
G02X120380Y121480I-980J500*
G01*
X120040*
G75*
G02X117840I-1100*
G01*
X117500*
G75*
G02X115300I-1100*
G01*
X114960*
G75*
G02X112760I-1100*
G01*
X112420*
G75*
G02X110220I-1100*
G01*
X109880*
G75*
G02X107680I-1100*
G01*
X107340*
G75*
G02X105140I-1100*
G01*
X104800*
G75*
G02X102600I-1100*
G01*
X102260*
G75*
G02X100060I-1100*
G01*
X99720*
G75*
G02X97520I-1100*
G01*
X97180*
G75*
G02X94980I-1100*
G01*
X94640*
G75*
G02X92440I-1100*
G01*
X92100*
G75*
G02X89900I-1100*
G01*
X89560*
G75*
G02X87360I-1100*
G01*
X87020*
G75*
G02X84820I-1100*
G01*
X84480*
G75*
G02X82280I-1100*
G01*
X81940*
G75*
G02X79740I-1100*
G01*
X79400*
G75*
G02X77200I-1100*
G01*
X76860*
G75*
G02X74660I-1100*
G01*
X74320*
G75*
G02X72120I-1100*
G01*
X71780*
G75*
G02X69580I-1100*
G01*
X69240*
G75*
G02X67040I-1100*
G01*
X66700*
G75*
G02X64500I-1100*
G01*
X64160*
G75*
G02X61960I-1100*
G01*
X61720*
G75*
G02X59320I-1200*
G01*
X59080*
G37*
X5910Y170100D02*
G36*
Y174100D01*
X3763*
Y170100*
X5910*
G37*
X57010D02*
G36*
G75*
G02X59580Y170378I1300D01*
G01*
G75*
G02X62120I1270J-278*
G01*
G75*
G02X64690Y170100I1270J-278*
G01*
X66643*
X69600Y173057*
Y173120*
G75*
G02X69000Y174100I500J980*
G01*
X56272*
G75*
G02X55626Y173736I-832J720*
G01*
X53984Y172094*
G75*
G02X53086Y171196I-1084J186*
G01*
X51990Y170100*
X57010*
G37*
X83893D02*
G36*
X85996Y172204D01*
G75*
G02X86350Y172350I353J-354*
G01*
X91393*
X93143Y174100*
X92300*
G75*
G02X90043Y173533I-1200*
G01*
G75*
G02X88100Y173642I-943J567*
G01*
G75*
G02X86100I-1000J458*
G01*
G75*
G02X84000Y174100I-1000J458*
G01*
X77300*
G75*
G02X75043Y173533I-1200*
G01*
G75*
G02X73100Y173642I-943J567*
G01*
G75*
G02X71100I-1000J458*
G01*
G75*
G02X70600Y173120I-1000J458*
G01*
Y172850*
G75*
G02X70454Y172496I-500J0*
G01*
X68057Y170100*
X83893*
G37*
X94600D02*
G36*
Y171600D01*
G75*
G02X94746Y171954I500J0*
G01*
X96893Y174100*
X94557*
X91954Y171496*
G75*
G02X91600Y171350I-353J354*
G01*
X86557*
X85307Y170100*
X94600*
G37*
X100393D02*
G36*
X99746Y170746D01*
G75*
G02X99600Y171100I354J353*
G01*
Y173120*
G75*
G02X99000Y174100I500J980*
G01*
X98307*
X95600Y171393*
Y170100*
X100393*
G37*
X115143D02*
G36*
X114746Y170496D01*
G75*
G02X114600Y170850I354J353*
G01*
Y173120*
G75*
G02X114000Y174100I500J980*
G01*
X107300*
G75*
G02X105043Y173533I-1200*
G01*
G75*
G02X103100Y173642I-943J567*
G01*
G75*
G02X102600Y173120I-1000J458*
G01*
Y171307*
X103057Y170850*
X110850*
G75*
G02X111204Y170704I0J-500*
G01*
X111807Y170100*
X115143*
G37*
X140437D02*
G36*
Y174100D01*
X122300*
G75*
G02X120043Y173533I-1200*
G01*
G75*
G02X118100Y173642I-943J567*
G01*
G75*
G02X116100I-1000J458*
G01*
G75*
G02X115600Y173120I-1000J458*
G01*
Y171057*
X116557Y170100*
X140437*
G37*
X3763Y116400D02*
G36*
Y105605D01*
X45761*
X56557Y116400*
X3763*
G37*
X59012D02*
G36*
G75*
G02X58247Y115403I-1032D01*
G01*
X48449Y105605*
X117980*
G75*
G02X118980Y106605I1000*
G01*
G75*
G02X119980Y105605J-1000*
G01*
X120530*
G75*
G02X121480Y106555I950*
G01*
G75*
G02X122430Y105605J-950*
G01*
X140437*
Y116400*
X61530*
G75*
G02X60480Y115350I-1050*
G01*
G75*
G02X59430Y116400J1050*
G01*
X59012*
G37*
X3763Y159850D02*
G36*
Y157850D01*
X44393*
X46393Y159850*
X3763*
G37*
X47807D02*
G36*
X45807Y157850D01*
X49393*
X51393Y159850*
X47807*
G37*
X57807D02*
G36*
X55807Y157850D01*
X58850*
G75*
G02X60850I1000*
G01*
X61643*
X63643Y159850*
X60750*
G75*
G02X58950I-900*
G01*
X57807*
G37*
X75057D02*
G36*
X74954Y159746D01*
G75*
G02X74600Y159600I-353J354*
G01*
X64807*
X63057Y157850*
X75143*
X77143Y159850*
X75057*
G37*
X78557D02*
G36*
X76557Y157850D01*
X108850*
Y159850*
X78557*
G37*
X112350D02*
G36*
Y157850D01*
X122393*
X120393Y159850*
X118100*
X112350*
G37*
X121807D02*
G36*
X123807Y157850D01*
X129100*
Y159850*
X121807*
G37*
X130100D02*
G36*
Y157850D01*
X140437*
Y159850*
X130100*
G37*
X3763Y73804D02*
G36*
Y66600D01*
X13099*
G75*
G02X13530Y67768I1066J270*
G01*
Y68512*
G75*
G02X13397Y70198I635J898*
G01*
G75*
G02X13176Y70326I133J482*
G01*
X10636Y72866*
G75*
G02X10490Y73220I354J353*
G01*
Y73804*
X3763*
G37*
X10490D02*
G36*
Y75870D01*
X3763*
Y73804*
X10490*
G37*
X33871D02*
G36*
X26667Y66600D01*
X39646*
X46850Y73804*
X33871*
G37*
X46850D02*
G36*
X48916Y75870D01*
X35937*
X33871Y73804*
X46850*
G37*
X48688D02*
G36*
X41484Y66600D01*
X89350*
Y67350*
X90100Y68100*
X91350*
X92100Y67350*
Y66600*
X101358*
X95726Y72231*
G75*
G02X95580Y72585I354J353*
G01*
Y73742*
G75*
G02X95498Y73804I500J748*
G01*
X84654*
G75*
G02X82776Y73026I-1100*
G01*
G75*
G02X82454Y73804I778J778*
G01*
X48688*
G37*
X82454D02*
G36*
G75*
G02X84332Y74582I1100D01*
G01*
G75*
G02X84654Y73804I-778J-778*
G01*
X95498*
G75*
G02X95180Y74490I582J686*
G01*
G75*
G02X96980I900*
G01*
G75*
G02X96662Y73804I-900J0*
G01*
X140437*
Y75870*
X90088*
G75*
G02X88210Y75092I-1100*
G01*
G75*
G02X87888Y75870I778J778*
G01*
X50754*
X48688Y73804*
X82454*
G37*
X96662D02*
G36*
G75*
G02X96580Y73742I-583J686D01*
G01*
Y72792*
X102772Y66600*
X103263*
X98266Y71596*
G75*
G02X98120Y71950I354J353*
G01*
Y72154*
G75*
G02X97720Y72903I500J748*
G01*
G75*
G02X99520I900*
G01*
G75*
G02X99122Y72155I-900J0*
G01*
X104677Y66600*
X140437*
Y73804*
X96662*
G37*
D02*
D103*
X8841Y128891D02*
X8200Y128250D01*
X8841Y130809D02*
X8200Y131450D01*
X10759Y128891D02*
X11400Y128250D01*
X10759Y130809D02*
X11400Y131450D01*
X11214Y148464D02*
X10719Y147969D01*
X11214Y149736D02*
X10719Y150231D01*
X11450Y144600D02*
X10750D01*
X11850Y144200D02*
Y143500D01*
Y145000D02*
Y145700D01*
X12250Y144600D02*
X12950D01*
X12486Y148464D02*
X12981Y147969D01*
X12486Y149736D02*
X12981Y150231D01*
X14165Y66870D02*
X15435Y65600D01*
X24960*
X48455Y89095*
X85920*
X93540Y96715*
Y98620*
X15787Y45267D02*
X15292Y44772D01*
X15787Y45833D02*
X15292Y46328D01*
X16353Y45267D02*
X16848Y44772D01*
X16353Y45833D02*
X16848Y46328D01*
X18567Y143067D02*
X18072Y142572D01*
X18567Y143633D02*
X18072Y144128D01*
X19133Y143067D02*
X19628Y142572D01*
X19133Y143633D02*
X19628Y144128D01*
X21567Y127567D02*
X21072Y127072D01*
X21567Y128133D02*
X21072Y128628D01*
X22133Y127567D02*
X22628Y127072D01*
X22133Y128133D02*
X22628Y128628D01*
X26464Y148464D02*
X25969Y147969D01*
X26464Y149736D02*
X25969Y150231D01*
X26700Y144600D02*
X26000D01*
X27100Y144200D02*
Y143500D01*
Y145000D02*
Y145700D01*
X27500Y144600D02*
X28200D01*
X27736Y148464D02*
X28231Y147969D01*
X27736Y149736D02*
X28231Y150231D01*
X30231Y25131D02*
X29531D01*
X31231Y24131D02*
Y23431D01*
Y26131D02*
Y26831D01*
X32231Y25131D02*
X32931D01*
X33817Y143067D02*
X33322Y142572D01*
X33817Y143633D02*
X33322Y144128D01*
X34383Y143067D02*
X34878Y142572D01*
X34383Y143633D02*
X34878Y144128D01*
X34766Y21595D02*
X35120Y21785D01*
Y24325*
X39565Y28770*
X42105*
X43375Y30040*
X43605Y30434*
X38400Y147620D02*
X37905Y147125D01*
X38400Y148680D02*
X37905Y149175D01*
X38400Y152700D02*
X37905Y152205D01*
X38400Y153760D02*
X37905Y154255D01*
X39070Y33969D02*
X38370D01*
X39460Y147620D02*
X39955Y147125D01*
X39460Y148680D02*
X39955Y149175D01*
X39460Y152700D02*
X39955Y152205D01*
X39460Y153760D02*
X39955Y154255D01*
X40070Y32969D02*
Y32270D01*
Y34969D02*
Y35670D01*
X41070Y33969D02*
X41770D01*
X41731Y36631D02*
X41031D01*
X42731Y35631D02*
Y34931D01*
Y37631D02*
Y38331D01*
X42731Y13630D02*
X42740Y13530D01*
X45915*
X51630Y19245*
Y22420*
X51570Y22469*
X43731Y36631D02*
X44431D01*
X45267Y10095D02*
X44567D01*
X46267Y9095D02*
Y8395D01*
Y11094D02*
Y11794D01*
X47267Y10095D02*
X47967D01*
X50570Y45469D02*
X49870D01*
X51569Y44469D02*
Y43770D01*
Y46469D02*
Y47170D01*
X51570Y22469D02*
X51630Y21468D01*
Y30040*
X58615Y37025*
X64330*
X65600Y35755*
X87825*
X92905Y40835*
Y43375*
X104335Y54805*
Y56393*
X52569Y45469D02*
X53270D01*
X54105Y18933D02*
X53405D01*
X54231Y25130D02*
X54170Y24960D01*
X56075*
X63060Y31945*
Y33850*
X63070Y33969*
X55105Y41934D02*
X55123Y41788D01*
X52900*
X46550Y35438*
Y33215*
X46266Y33095*
X55105Y17933D02*
Y17233D01*
Y19933D02*
Y20633D01*
X56105Y18933D02*
X56805D01*
X56767Y21595D02*
X56067D01*
X57556Y98196D02*
X57061Y97701D01*
X57556Y99044D02*
X57061Y99539D01*
X57556Y100736D02*
X57061Y100241D01*
X57556Y101584D02*
X57061Y102079D01*
X57767Y20595D02*
Y19895D01*
Y22595D02*
Y23295D01*
X58404Y98196D02*
X58899Y97701D01*
X58404Y99044D02*
X58899Y99539D01*
X58404Y100736D02*
X58899Y100241D01*
X58404Y101584D02*
X58899Y102079D01*
X58767Y21595D02*
X59467D01*
X59567Y157567D02*
X59072Y157072D01*
X59567Y158133D02*
X59072Y158628D01*
X60080Y116400D02*
X59330D01*
X60096Y121056D02*
X59601Y120561D01*
X60096Y121904D02*
X59601Y122399D01*
X60096Y123596D02*
X59601Y123101D01*
X60096Y124444D02*
X59601Y124939D01*
X60133Y157567D02*
X60628Y157072D01*
X60133Y158133D02*
X60628Y158628D01*
X60480Y116000D02*
Y115250D01*
Y116800D02*
Y117550D01*
X60520Y98620D02*
Y101160D01*
X60880Y116400D02*
X61630D01*
X60944Y121056D02*
X61439Y120561D01*
X60944Y121904D02*
X61439Y122399D01*
X60944Y123596D02*
X61439Y123101D01*
X60944Y124444D02*
X61439Y124939D01*
X63060Y101160D02*
Y98620D01*
Y124020D02*
Y121480D01*
X65600Y101160D02*
Y98620D01*
Y124020D02*
Y121480D01*
X65605Y30433D02*
X64905D01*
X66340Y147620D02*
X65845Y147125D01*
X66340Y148680D02*
X65845Y149175D01*
X66340Y152700D02*
X65845Y152205D01*
X66340Y153760D02*
X65845Y154255D01*
X66605Y29433D02*
Y28733D01*
Y31433D02*
Y32133D01*
X67400Y147620D02*
X67895Y147125D01*
X67400Y148680D02*
X67895Y149175D01*
X67400Y152700D02*
X67895Y152205D01*
X67400Y153760D02*
X67895Y154255D01*
X67605Y30433D02*
X68305D01*
X68140Y101160D02*
Y98620D01*
Y124020D02*
Y121480D01*
X70100Y164100D02*
X56350D01*
X46600Y154350*
Y153350*
X46550Y153230*
X70100Y174100D02*
Y172850D01*
X65100Y167850*
X55100*
X41600Y154350*
Y153350*
X41470Y153230*
X70680Y101160D02*
Y98620D01*
Y124020D02*
Y121480D01*
X72100Y164100D02*
X70100Y162100D01*
X59350*
X51850Y154600*
Y153350*
X51630Y153230*
X73220Y101160D02*
Y98620D01*
Y124020D02*
Y121480D01*
X74490Y44010D02*
Y44050D01*
X75676Y173676D02*
X75181Y173181D01*
X75676Y174524D02*
X75181Y175019D01*
X75760Y101160D02*
Y98620D01*
Y124020D02*
Y121480D01*
X75865Y147620D02*
X75370Y147125D01*
X75865Y148680D02*
X75370Y149175D01*
X75865Y152700D02*
X75370Y152205D01*
X75865Y153760D02*
X75370Y154255D01*
X76100Y163500D02*
Y162800D01*
Y164700D02*
Y165400D01*
X76524Y173676D02*
X77019Y173181D01*
X76524Y174524D02*
X77019Y175019D01*
X76700Y164100D02*
X77400D01*
X76925Y147620D02*
X77420Y147125D01*
X76925Y148680D02*
X77420Y149175D01*
X76925Y152700D02*
X77420Y152205D01*
X76925Y153760D02*
X77420Y154255D01*
X77067Y183317D02*
X76572Y182822D01*
X77067Y183883D02*
X76572Y184378D01*
X77633Y183317D02*
X78128Y182822D01*
X77633Y183883D02*
X78128Y184378D01*
X78300Y101160D02*
Y98620D01*
Y124020D02*
Y121480D01*
X80840Y98620D02*
Y101160D01*
Y98620D02*
Y97350D01*
X78935Y95445*
X38930*
X20833Y77347*
X17023*
X16705Y77030*
X80840Y121480D02*
Y124020D01*
X83380Y98620D02*
Y101160D01*
Y98620D02*
Y96715D01*
X80840Y94175*
X40835*
X22420Y75760*
X15435*
X14165Y77030*
X83380Y124020D02*
Y121480D01*
X83650Y16150D02*
X82950D01*
X84650Y15150D02*
Y14450D01*
Y17150D02*
Y17850D01*
Y21150D02*
X86555D01*
X87825Y19880*
X94175*
X95445Y21150*
X97150*
X85650Y16150D02*
X86350D01*
X85920Y98620D02*
Y101160D01*
Y98620D02*
Y96715D01*
X82110Y92905*
X42740*
X23055Y73220*
X13530*
X12260Y74490*
Y77030*
X13530Y78300*
X15435*
X16705Y79570*
X85920Y124020D02*
Y121480D01*
X88460Y98620D02*
Y101160D01*
Y98620D02*
Y96715D01*
X83380Y91635*
X44645*
X23690Y70680*
X13530*
X10990Y73220*
Y77665*
X12895Y79570*
X14165*
X88460Y124020D02*
Y121480D01*
X88565Y147620D02*
X88070Y147125D01*
X88565Y148680D02*
X88070Y149175D01*
X88565Y152700D02*
X88070Y152205D01*
X88565Y153760D02*
X88070Y154255D01*
X89625Y147620D02*
X90120Y147125D01*
X89625Y148680D02*
X90120Y149175D01*
X89625Y152700D02*
X90120Y152205D01*
X89625Y153760D02*
X90120Y154255D01*
X90676Y163676D02*
X90181Y163181D01*
X90676Y164524D02*
X90181Y165019D01*
X90676Y173676D02*
X90181Y173181D01*
X90676Y174524D02*
X90181Y175019D01*
X90676Y183676D02*
X90181Y183181D01*
X90676Y184524D02*
X90181Y185019D01*
X90676Y193676D02*
X90181Y193181D01*
X90676Y194524D02*
X90181Y195019D01*
X91000Y98620D02*
Y101160D01*
Y98620D02*
Y96715D01*
X84650Y90365*
X46550*
X24325Y68140*
X15435*
X14165Y69410*
X91000Y124020D02*
Y121480D01*
X91524Y163676D02*
X92019Y163181D01*
X91524Y164524D02*
X92019Y165019D01*
X91524Y173676D02*
X92019Y173181D01*
X91524Y174524D02*
X92019Y175019D01*
X91524Y183676D02*
X92019Y183181D01*
X91524Y184524D02*
X92019Y185019D01*
X91524Y193676D02*
X92019Y193181D01*
X91524Y194524D02*
X92019Y195019D01*
X93540Y98620D02*
Y101160D01*
Y124020D02*
Y121480D01*
X93645Y147620D02*
X93150Y147125D01*
X93645Y148680D02*
X93150Y149175D01*
X93645Y152700D02*
X93150Y152205D01*
X93645Y153760D02*
X93150Y154255D01*
X94705Y147620D02*
X95200Y147125D01*
X94705Y148680D02*
X95200Y149175D01*
X94705Y152700D02*
X95200Y152205D01*
X94705Y153760D02*
X95200Y154255D01*
X96080Y74490D02*
Y72585D01*
X111955Y56710*
Y34485*
X98620Y21150*
X97150*
X96080Y98620D02*
Y101160D01*
Y124020D02*
Y121480D01*
X96150Y16150D02*
X95450D01*
X96185Y147620D02*
X95690Y147125D01*
X96185Y148680D02*
X95690Y149175D01*
X96185Y152700D02*
X95690Y152205D01*
X96185Y153760D02*
X95690Y154255D01*
X97150Y15150D02*
Y14450D01*
Y17150D02*
Y17850D01*
X97245Y147620D02*
X97740Y147125D01*
X97245Y148680D02*
X97740Y149175D01*
X97245Y152700D02*
X97740Y152205D01*
X97245Y153760D02*
X97740Y154255D01*
X98150Y16150D02*
X98850D01*
X98620Y72903D02*
Y71950D01*
X121480Y49090*
Y23055*
X119575Y21150*
X118105*
X98620Y98620D02*
Y101160D01*
Y124020D02*
Y121480D01*
X100100Y174100D02*
Y171100D01*
X102600Y168600*
X106100*
X109350Y165350*
Y153100*
X109415Y153230*
X101160Y59885D02*
Y55440D01*
X90365Y44645*
Y42105*
X86555Y38295*
X66870*
X65600Y39565*
X60520*
X58615Y41470*
X55440*
X55105Y41934*
X101160Y98620D02*
Y101160D01*
Y124020D02*
Y121480D01*
X101350Y32350D02*
Y29850D01*
Y33350D02*
Y32350D01*
Y35600D02*
Y33350D01*
X103700Y98620D02*
Y101160D01*
Y124020D02*
Y121480D01*
X104605Y16150D02*
X103905D01*
X105605Y15150D02*
Y14450D01*
Y17150D02*
Y17850D01*
Y21150D02*
X107510D01*
X108780Y19880*
X114495*
X115765Y21150*
X118105*
X105676Y163676D02*
X105181Y163181D01*
X105676Y164524D02*
X105181Y165019D01*
X105676Y173676D02*
X105181Y173181D01*
X105676Y174524D02*
X105181Y175019D01*
X106240Y59885D02*
Y58615D01*
X105923Y58298*
X103382*
X102430Y57345*
Y54805*
X91635Y44010*
Y41470*
X87190Y37025*
X66235*
X64965Y38295*
X57345*
X49725Y30675*
X44010*
X43605Y30434*
X106240Y98620D02*
Y101160D01*
Y124020D02*
Y121480D01*
X106524Y163676D02*
X107019Y163181D01*
X106524Y164524D02*
X107019Y165019D01*
X106524Y173676D02*
X107019Y173181D01*
X106524Y174524D02*
X107019Y175019D01*
X106605Y16150D02*
X107305D01*
X108780Y56393D02*
Y55440D01*
X106875Y53535*
X104970*
X94175Y42740*
Y40200*
X88460Y34485*
X65600*
X64965Y33850*
X63060*
X63070Y33969*
X108780Y98620D02*
Y101160D01*
Y124020D02*
Y121480D01*
X111320Y101160D02*
Y98620D01*
Y124020D02*
Y121480D01*
X111955Y153230D02*
X111850Y153350D01*
Y169350*
X110850Y170350*
X102850*
X102100Y171100*
Y174100*
X113860Y101160D02*
Y98620D01*
Y124020D02*
Y121480D01*
X115100Y184100D02*
X113850D01*
X105850Y176100*
X99600*
X95100Y171600*
Y168850*
X92350Y166100*
X84100*
X73850Y155850*
X62850*
X61850Y154850*
Y153350*
X61790Y153230*
X115100Y194100D02*
X113850D01*
X91600Y171850*
X86350*
X74600Y160100*
X64600*
X59350Y154850*
Y153100*
X59250Y153230*
X116400Y98620D02*
Y101160D01*
Y124020D02*
Y121480D01*
X117105Y16150D02*
X116405D01*
X118105Y15150D02*
Y14450D01*
Y17150D02*
Y17850D01*
X118516Y98196D02*
X118021Y97701D01*
X118516Y99044D02*
X118021Y99539D01*
X118516Y100736D02*
X118021Y100241D01*
X118516Y101584D02*
X118021Y102079D01*
X118580Y105605D02*
X117880D01*
X118940Y124020D02*
Y121480D01*
X118980Y105205D02*
Y104505D01*
Y106005D02*
Y106705D01*
X119105Y16150D02*
X119805D01*
X119364Y98196D02*
X119859Y97701D01*
X119364Y99044D02*
X119859Y99539D01*
X119364Y100736D02*
X119859Y100241D01*
X119364Y101584D02*
X119859Y102079D01*
X119380Y105605D02*
X120080D01*
X120676Y163676D02*
X120181Y163181D01*
X120676Y164524D02*
X120181Y165019D01*
X120676Y173676D02*
X120181Y173181D01*
X120676Y174524D02*
X120181Y175019D01*
X120676Y183676D02*
X120181Y183181D01*
X120676Y184524D02*
X120181Y185019D01*
X120676Y193676D02*
X120181Y193181D01*
X120676Y194524D02*
X120181Y195019D01*
X121480Y121480D02*
X124020D01*
X121480Y124020D02*
X124020D01*
X121524Y163676D02*
X122019Y163181D01*
X121524Y164524D02*
X122019Y165019D01*
X121524Y173676D02*
X122019Y173181D01*
X121524Y174524D02*
X122019Y175019D01*
X121524Y183676D02*
X122019Y183181D01*
X121524Y184524D02*
X122019Y185019D01*
X121524Y193676D02*
X122019Y193181D01*
X121524Y194524D02*
X122019Y195019D01*
X124655Y153230D02*
X124600Y153600D01*
Y156350*
X120600Y160350*
X118100*
X117100Y161350*
Y164100*
X126560Y98620D02*
X129100D01*
X126560D02*
Y101160D01*
Y121480D02*
Y124020D01*
X128676Y100736D02*
X128181Y100241D01*
X128676Y101584D02*
X128181Y102079D01*
X129100Y121480D02*
X126560D01*
X129524Y100736D02*
X130019Y100241D01*
X129524Y101584D02*
X130019Y102079D01*
X129735Y153230D02*
X129600Y153350D01*
Y164100*
X124100Y169600*
X116350*
X115100Y170850*
Y174100*
X131216Y98196D02*
X130721Y97701D01*
X131216Y99044D02*
X130721Y99539D01*
X131216Y100736D02*
X130721Y100241D01*
X131216Y101584D02*
X130721Y102079D01*
X131640Y124020D02*
Y121480D01*
Y124020D02*
X129100D01*
X132064Y98196D02*
X132559Y97701D01*
X132064Y99044D02*
X132559Y99539D01*
X132064Y100736D02*
X132559Y100241D01*
X132064Y101584D02*
X132559Y102079D01*
D02*
D104*
X31231Y25131D03*
X34766Y21595D03*
X40070Y33969D03*
X42731Y36631D03*
X42731Y13630D03*
X43605Y30434D03*
X46266Y33095D03*
X46267Y10095D03*
X51569Y45469D03*
X51570Y22469D03*
X54231Y25130D03*
X55105Y41934D03*
X55105Y18933D03*
X57767Y21595D03*
X63070Y33969D03*
X66605Y30433D03*
X84650Y16150D03*
Y21150D03*
X97150Y16150D03*
Y21150D03*
X105605Y16150D03*
Y21150D03*
X118105Y16150D03*
Y21150D03*
D02*
D106*
X9350Y144600D03*
X11850D03*
X16070Y45550D03*
Y47550D03*
X18850Y143350D03*
Y145350D03*
X20515Y49725D03*
X21850Y127850D03*
Y129850D03*
X23015Y49725D03*
X24600Y144600D03*
X27100D03*
X34100Y143350D03*
Y145350D03*
X57980Y116400D03*
X59850Y157850D03*
Y159850D03*
X60480Y116400D03*
X69410Y44280D03*
Y46280D03*
X74490Y44050D03*
Y46550D03*
X75350Y183600D03*
X77350D03*
X96080Y74490D03*
X98620Y72903D03*
X101160Y59885D03*
X104335Y56393D03*
X106240Y59885D03*
X108780Y56393D03*
X118980Y105605D03*
X121480D03*
D02*
D107*
X9800Y129850D03*
D02*
D109*
X15800D03*
D02*
D110*
X12850Y124950D03*
D02*
D111*
X9310Y149100D03*
X9350Y140600D03*
X11850Y149100D03*
X14350Y140600D03*
X14390Y149100D03*
X24560D03*
X24600Y140600D03*
X27100Y149100D03*
X29600Y140600D03*
X29640Y149100D03*
D02*
D112*
X14350Y140600D02*
Y145350D01*
Y149100*
X14390*
X18850Y145350D02*
X14350D01*
X29600D02*
Y140600D01*
X29640Y149100D02*
X29600Y148850D01*
Y145350*
X34100D02*
X29600D01*
X57980Y116400D02*
X57850Y116350D01*
X45600Y104100*
Y97600*
X57980Y121480D02*
Y116400D01*
Y124020D02*
Y121480D01*
X60520D02*
Y116400D01*
X60480*
X60520Y124020D02*
Y121480D01*
X69410Y44280D02*
Y44328D01*
X74173*
X74490Y44050*
Y46550D02*
X69680D01*
X69410Y46280*
X74490Y46550D02*
X76395D01*
X79570Y43375*
X80205*
X82745D02*
X80522Y41153D01*
X78300*
X75443Y44010*
X74490*
X118940Y101160D02*
Y98620D01*
X121480D02*
Y101160D01*
Y105605D02*
Y101160D01*
X124020Y98620D02*
X121480D01*
X129100Y101160D02*
X131640D01*
Y98620*
D02*
D114*
X101350Y32350D03*
Y33350D03*
D02*
D115*
X20515Y49725D02*
Y47820D01*
X24960Y43375*
X29365*
X31905Y45915*
X26905D02*
X24960D01*
X23055Y47820*
Y49685*
X23015Y49725*
X60520Y78935D02*
X52900D01*
X34485Y60520*
X28135*
X16070Y48455*
Y47550*
X121480Y98620D02*
Y97350D01*
X115765Y91635*
X95763*
X83063Y78935*
X60520*
X0Y0D02*
M02*
