%FSLAX33Y33*%
%MOMM*%
G04 EasyPC Gerber Version 17.0 Build 3379 *
%ADD107R,2.20000X4.40000*%
%ADD109R,2.20000X5.00000*%
%ADD88C,0.20000*%
%ADD113C,0.25000*%
%ADD103C,0.40000*%
%ADD89C,0.50000*%
%ADD73C,0.60000*%
%ADD115C,0.70000*%
%ADD106C,1.20000*%
%ADD112C,1.30000*%
%ADD26C,1.60000*%
%ADD28C,1.90000*%
%ADD27C,2.00000*%
%ADD111C,2.20000*%
%ADD104C,2.40000*%
%ADD110R,4.40000X2.20000*%
X0Y0D02*
D02*
D26*
X7180Y169740D03*
Y172280D03*
Y174820D03*
Y177360D03*
Y179900D03*
Y182440D03*
X9720Y169740D03*
Y172280D03*
Y174820D03*
Y177360D03*
Y179900D03*
Y182440D03*
X12260Y169740D03*
Y172280D03*
Y174820D03*
Y177360D03*
Y179900D03*
Y182440D03*
X14165Y64330D03*
Y66870D03*
Y69410D03*
Y71950D03*
Y74490D03*
Y77030D03*
Y79570D03*
X14800Y169740D03*
Y172280D03*
Y174820D03*
Y177360D03*
Y179900D03*
Y182440D03*
X16705Y64330D03*
Y66870D03*
Y69410D03*
Y71950D03*
Y74490D03*
Y77030D03*
Y79570D03*
X17340Y169740D03*
Y172280D03*
Y174820D03*
Y177360D03*
Y179900D03*
Y182440D03*
Y184980D03*
X19880Y169740D03*
Y172280D03*
Y174820D03*
Y177360D03*
Y179900D03*
Y182440D03*
Y184980D03*
Y187520D03*
X22420Y169740D03*
Y172280D03*
Y174820D03*
Y177360D03*
Y179900D03*
Y182440D03*
Y184980D03*
Y187520D03*
Y190060D03*
Y192600D03*
Y195140D03*
Y197680D03*
X24960Y169740D03*
Y172280D03*
Y174820D03*
Y177360D03*
Y179900D03*
Y182440D03*
Y184980D03*
Y187520D03*
Y190060D03*
Y192600D03*
Y195140D03*
Y197680D03*
X26905Y45915D03*
X27500Y169740D03*
Y172280D03*
Y174820D03*
Y177360D03*
Y179900D03*
Y182440D03*
Y184980D03*
Y187520D03*
Y190060D03*
Y192600D03*
Y195140D03*
Y197680D03*
X28100Y88350D03*
Y91350D03*
Y94600D03*
X29405Y48415D03*
X30040Y169740D03*
Y172280D03*
Y174820D03*
Y177360D03*
Y179900D03*
Y182440D03*
Y184980D03*
Y187520D03*
Y190060D03*
Y192600D03*
Y195140D03*
Y197680D03*
X31905Y45915D03*
X32580Y169740D03*
Y172280D03*
Y174820D03*
Y177360D03*
Y179900D03*
Y182440D03*
Y184980D03*
Y187520D03*
Y190060D03*
Y192600D03*
Y195140D03*
Y197680D03*
X35120Y169740D03*
Y172280D03*
Y174820D03*
Y177360D03*
Y179900D03*
Y182440D03*
Y184980D03*
Y187520D03*
Y190060D03*
Y192600D03*
Y195140D03*
Y197680D03*
X37660Y169740D03*
Y172280D03*
Y174820D03*
Y177360D03*
Y179900D03*
Y182440D03*
Y184980D03*
Y187520D03*
Y190060D03*
Y192600D03*
Y195140D03*
Y197680D03*
X38100Y78600D03*
Y81850D03*
Y85100D03*
Y88350D03*
Y91350D03*
Y94600D03*
X40200Y169740D03*
Y172280D03*
Y174820D03*
Y177360D03*
Y179900D03*
Y182440D03*
Y184980D03*
Y187520D03*
Y190060D03*
Y192600D03*
Y195140D03*
Y197680D03*
X42740Y169740D03*
Y172280D03*
Y174820D03*
Y177360D03*
Y179900D03*
Y182440D03*
Y184980D03*
Y187520D03*
Y190060D03*
Y192600D03*
Y195140D03*
Y197680D03*
X45280Y169740D03*
Y172280D03*
Y174820D03*
Y177360D03*
Y179900D03*
Y182440D03*
Y184980D03*
Y187520D03*
Y190060D03*
Y192600D03*
Y195140D03*
Y197680D03*
X45600Y97600D03*
X47820Y169740D03*
Y172280D03*
Y174820D03*
Y177360D03*
Y179900D03*
Y182440D03*
Y184980D03*
Y187520D03*
Y190060D03*
Y192600D03*
Y195140D03*
Y197680D03*
X48100Y78600D03*
Y81850D03*
Y85100D03*
X50360Y169740D03*
Y172280D03*
Y174820D03*
Y177360D03*
Y179900D03*
Y182440D03*
Y184980D03*
Y187520D03*
Y190060D03*
Y192600D03*
Y195140D03*
Y197680D03*
X52900Y172280D03*
Y174820D03*
Y177360D03*
Y179900D03*
Y182440D03*
Y184980D03*
Y187520D03*
Y190060D03*
Y192600D03*
Y195140D03*
Y197680D03*
X55440Y174820D03*
Y177360D03*
Y179900D03*
Y182440D03*
Y184980D03*
Y187520D03*
Y190060D03*
Y192600D03*
Y195140D03*
Y197680D03*
X57980Y98620D03*
Y101160D03*
Y121480D03*
Y124020D03*
Y177360D03*
Y179900D03*
Y182440D03*
Y184980D03*
Y187520D03*
Y190060D03*
Y192600D03*
Y195140D03*
Y197680D03*
X60520Y98620D03*
Y101160D03*
Y121480D03*
Y124020D03*
Y179900D03*
Y182440D03*
Y184980D03*
Y187520D03*
Y190060D03*
Y192600D03*
Y195140D03*
Y197680D03*
X63060Y98620D03*
Y101160D03*
Y121480D03*
Y124020D03*
Y182440D03*
Y184980D03*
Y187520D03*
Y190060D03*
Y192600D03*
Y195140D03*
Y197680D03*
X65600Y98620D03*
Y101160D03*
Y121480D03*
Y124020D03*
Y184980D03*
Y187520D03*
Y190060D03*
Y192600D03*
Y195140D03*
Y197680D03*
X68140Y98620D03*
Y101160D03*
Y121480D03*
Y124020D03*
Y184980D03*
Y187520D03*
Y190060D03*
Y192600D03*
Y195140D03*
Y197680D03*
X70100Y164100D03*
Y174100D03*
X70680Y98620D03*
Y101160D03*
Y121480D03*
Y124020D03*
Y184980D03*
Y187520D03*
Y190060D03*
Y192600D03*
Y195140D03*
Y197680D03*
X72100Y164100D03*
Y174100D03*
X73220Y98620D03*
Y101160D03*
Y121480D03*
Y124020D03*
X74100Y164100D03*
Y174100D03*
X75760Y98620D03*
Y101160D03*
Y121480D03*
Y124020D03*
X76100Y164100D03*
Y174100D03*
X77350Y190350D03*
Y193350D03*
X78300Y98620D03*
Y101160D03*
Y121480D03*
Y124020D03*
X79890Y190350D03*
Y193350D03*
X80205Y43375D03*
X80840Y98620D03*
Y101160D03*
Y121480D03*
Y124020D03*
X81475Y45280D03*
X81804Y83054D03*
X82745Y43375D03*
X83380Y98620D03*
Y101160D03*
Y121480D03*
Y124020D03*
X83554Y73804D03*
X85100Y164100D03*
Y174100D03*
Y184100D03*
Y194100D03*
X85920Y98620D03*
Y101160D03*
Y121480D03*
Y124020D03*
X87100Y164100D03*
Y174100D03*
Y184100D03*
Y194100D03*
X88460Y98620D03*
Y101160D03*
Y121480D03*
Y124020D03*
X88988Y75870D03*
X89100Y164100D03*
Y174100D03*
Y184100D03*
Y194100D03*
X90738Y66620D03*
X91000Y98620D03*
Y101160D03*
Y121480D03*
Y124020D03*
X91100Y164100D03*
Y174100D03*
Y184100D03*
Y194100D03*
X93540Y98620D03*
Y101160D03*
Y121480D03*
Y124020D03*
X96080Y98620D03*
Y101160D03*
Y121480D03*
Y124020D03*
X98620Y98620D03*
Y101160D03*
Y121480D03*
Y124020D03*
X100100Y164100D03*
Y174100D03*
X101160Y98620D03*
Y101160D03*
Y121480D03*
Y124020D03*
X102100Y164100D03*
Y174100D03*
X103700Y98620D03*
Y101160D03*
Y121480D03*
Y124020D03*
X104100Y164100D03*
Y174100D03*
X106100Y164100D03*
Y174100D03*
X106240Y98620D03*
Y101160D03*
Y121480D03*
Y124020D03*
X108780Y98620D03*
Y101160D03*
Y121480D03*
Y124020D03*
X111320Y98620D03*
Y101160D03*
Y121480D03*
Y124020D03*
X113860Y98620D03*
Y101160D03*
Y121480D03*
Y124020D03*
X115100Y164100D03*
Y174100D03*
Y184100D03*
Y194100D03*
X116400Y98620D03*
Y101160D03*
Y121480D03*
Y124020D03*
X117100Y164100D03*
Y174100D03*
Y184100D03*
Y194100D03*
X118940Y98620D03*
Y101160D03*
Y121480D03*
Y124020D03*
X119100Y164100D03*
Y174100D03*
Y184100D03*
Y194100D03*
X121100Y164100D03*
Y174100D03*
Y184100D03*
Y194100D03*
X121480Y98620D03*
Y101160D03*
Y121480D03*
Y124020D03*
X124020Y98620D03*
Y101160D03*
Y121480D03*
Y124020D03*
X126560Y98620D03*
Y101160D03*
Y121480D03*
Y124020D03*
X129100Y98620D03*
Y101160D03*
Y121480D03*
Y124020D03*
X131640Y98620D03*
Y101160D03*
Y121480D03*
Y124020D03*
D02*
D27*
X5275Y167200D03*
X5910Y5910D03*
X6600Y197600D03*
X7860Y87220D03*
X8600Y67600D03*
X9600Y51100D03*
X10350Y106600D03*
X10673Y25913D03*
X17350Y119600D03*
X17975Y189425D03*
X24350Y97350D03*
X27060Y136100D03*
X27100Y161350D03*
X27600Y55350D03*
X29405Y12895D03*
X29600Y136100D03*
X33100Y132850D03*
X33215Y66235D03*
X33850Y57663D03*
X34485Y41470D03*
X35120Y106875D03*
X38350Y119600D03*
X41470Y75760D03*
X46260Y58420D03*
X47185Y67505D03*
X48455Y102430D03*
X49350Y166350D03*
X55440Y66870D03*
X58310Y170100D03*
X59060Y52660D03*
X60850Y170100D03*
X63390D03*
X65100Y157600D03*
X66350Y181100D03*
X68140Y134180D03*
X68775Y13530D03*
X71850Y144600D03*
X71950Y116400D03*
X73855Y198315D03*
X75850Y85600D03*
X77665Y27818D03*
X78850Y75600D03*
X79570Y108780D03*
X81850Y160100D03*
X82600Y190100D03*
X85850Y29600D03*
X88350Y136600D03*
X90365Y116400D03*
X90850Y198850D03*
X92100Y52850D03*
X92350Y80850D03*
X92600Y169600D03*
X95100Y66600D03*
X100600Y192350D03*
X101350Y29850D03*
Y35600D03*
Y45600D03*
X103700Y107510D03*
X105100Y44100D03*
X106240Y116400D03*
X107100Y199100D03*
X109600Y168350D03*
X110100Y184100D03*
X112590Y85285D03*
X114100Y156600D03*
X114177Y61155D03*
X114495Y117670D03*
X115448Y30358D03*
X116400Y46233D03*
X122100Y198850D03*
X125600Y112350D03*
X126521Y70024D03*
X128783Y32263D03*
X131350Y173850D03*
X132275Y46550D03*
X133545Y84333D03*
Y129100D03*
X134180Y157040D03*
X134498Y59885D03*
X137355Y99573D03*
X137673Y5910D03*
X137990Y25278D03*
Y115765D03*
Y136720D03*
X138100Y182100D03*
Y198600D03*
D02*
D28*
X38930Y148150D03*
Y153230D03*
X41470Y148150D03*
Y153230D03*
X44010Y148150D03*
Y153230D03*
X46550Y148150D03*
Y153230D03*
X49090Y148150D03*
Y153230D03*
X51630Y148150D03*
Y153230D03*
X54170Y148150D03*
Y153230D03*
X56710Y148150D03*
Y153230D03*
X59250Y148150D03*
Y153230D03*
X61790Y148150D03*
Y153230D03*
X64330Y148150D03*
Y153230D03*
X66870Y148150D03*
Y153230D03*
X69410Y148150D03*
Y153230D03*
X73855Y148150D03*
Y153230D03*
X76395Y148150D03*
Y153230D03*
X78935Y148150D03*
Y153230D03*
X81475Y148150D03*
Y153230D03*
X84015Y148150D03*
Y153230D03*
X86555Y148150D03*
Y153230D03*
X89095Y148150D03*
Y153230D03*
X91635Y148150D03*
Y153230D03*
X94175Y148150D03*
Y153230D03*
X96715Y148150D03*
Y153230D03*
X99255Y148150D03*
Y153230D03*
X101795Y148150D03*
Y153230D03*
X104335Y148150D03*
Y153230D03*
X106875Y148150D03*
Y153230D03*
X109415Y148150D03*
Y153230D03*
X111955Y148150D03*
Y153230D03*
X114495Y148150D03*
Y153230D03*
X117035Y148150D03*
Y153230D03*
X119575Y148150D03*
Y153230D03*
X122115Y148150D03*
Y153230D03*
X124655Y148150D03*
Y153230D03*
X127195Y148150D03*
Y153230D03*
X129735Y148150D03*
Y153230D03*
X132275Y148150D03*
Y153230D03*
X134815Y148150D03*
Y153230D03*
X137355Y148150D03*
Y153230D03*
D02*
D73*
X17970Y66374D03*
X18287Y76530D03*
X18293Y71950D03*
Y74490D03*
Y78300D03*
X18927Y69410D03*
X31310Y199585D03*
X45350Y162100D03*
X45600Y156100D03*
X49090Y199585D03*
X50850Y156100D03*
X57100Y161850D03*
X59850Y165350D03*
X60520Y78935D03*
X65100Y173850D03*
X67100Y163100D03*
X69410Y120210D03*
X70850Y171350D03*
X71100Y161100D03*
Y165100D03*
X72850Y157350D03*
Y172850D03*
X79570Y97350D03*
Y120210D03*
X79850Y195100D03*
X82110Y97350D03*
X82600Y194350D03*
X84650Y97350D03*
X86100Y163100D03*
Y165100D03*
Y173100D03*
Y175100D03*
Y183100D03*
Y185100D03*
Y193100D03*
X87190Y97350D03*
X87850Y165350D03*
Y172850D03*
Y175350D03*
Y182850D03*
Y185350D03*
Y192850D03*
X89730Y97350D03*
X92270D03*
X94810D03*
X97350Y120210D03*
X100100Y156100D03*
X102850Y155850D03*
X105350Y156100D03*
X116100Y175100D03*
Y185100D03*
X116350Y165350D03*
X117850Y172850D03*
Y182850D03*
Y192850D03*
D02*
D88*
X3763Y5437D02*
X5437Y3763D01*
X138779*
X140437Y5422*
Y198764*
X138764Y200437*
X5437*
X3763Y198764*
Y5437*
X6096Y169554D02*
X5910Y169740D01*
Y182440*
X6096Y182626*
G75*
G02X6994Y183524I1084J-186*
G01*
X7000Y183530*
X7032*
G75*
G02X7328I148J-1090*
G01*
X9572*
G75*
G02X9868I148J-1090*
G01*
X12112*
G75*
G02X12408I148J-1090*
G01*
X14620*
X16256Y185166*
G75*
G02X17154Y186064I1084J-186*
G01*
X18796Y187706*
G75*
G02X19694Y188604I1084J-186*
G01*
X21150Y190060*
Y197680*
X21336Y197866*
G75*
G02X22234Y198764I1084J-186*
G01*
X22420Y198950*
X70680*
X70866Y198764*
G75*
G02X71764Y197866I-186J-1084*
G01*
X71950Y197680*
Y184980*
X71764Y184794*
G75*
G02X70866Y183896I-1084J186*
G01*
X70680Y183710*
X65600*
X64144Y182254*
G75*
G02X63246Y181356I-1084J186*
G01*
X61604Y179714*
G75*
G02X60706Y178816I-1084J186*
G01*
X59064Y177174*
G75*
G02X58166Y176276I-1084J186*
G01*
X56524Y174634*
G75*
G02X55626Y173736I-1084J186*
G01*
X53984Y172094*
G75*
G02X53086Y171196I-1084J186*
G01*
X51444Y169554*
G75*
G02X50546Y168656I-1084J186*
G01*
X50360Y168470*
X7180*
X6994Y168656*
G75*
G02X6096Y169554I186J1084*
G01*
X8300Y127250D02*
Y132450D01*
X11300*
Y127250*
X8300*
X8329Y148101D02*
G75*
G02X9310Y150500I981J999D01*
G01*
G75*
G02X10523Y149799J-1400*
G01*
G75*
G02X13177I1327J-699*
G01*
G75*
G02X13386Y150075I1213J-699*
G01*
X13360Y151836*
G75*
G02X13650Y152550I990J14*
G01*
X25650Y164550*
G75*
G02X26350Y164840I700J-700*
G01*
X54190*
X57360Y168010*
Y169213*
G75*
G02X57010Y170100I950J887*
G01*
G75*
G02X59580Y170378I1300*
G01*
G75*
G02X59900Y170987I1270J-278*
G01*
Y173100*
G75*
G02X60178Y173772I950J0*
G01*
X65428Y179022*
G75*
G02X66100Y179300I672J-672*
G01*
X73697*
G75*
G02X73713Y179307I402J-947*
G01*
X74400Y179994*
Y189947*
G75*
G02Y190753I950J403*
G01*
Y191697*
G75*
G02Y192503I950J403*
G01*
Y192947*
G75*
G02Y193753I950J403*
G01*
Y194850*
G75*
G02X74678Y195522I950J0*
G01*
X76428Y197272*
G75*
G02X77100Y197550I672J-672*
G01*
X88697*
G75*
G02X89503I403J-950*
G01*
X103697*
G75*
G02X104503I403J-950*
G01*
X118350*
G75*
G02X119022Y197272I0J-950*
G01*
X119772Y196522*
G75*
G02X120050Y195850I-672J-672*
G01*
Y194681*
G75*
G02X122300Y194100I1050J-581*
G01*
G75*
G02X120050Y193519I-1200*
G01*
Y184681*
G75*
G02X122300Y184100I1050J-581*
G01*
G75*
G02X120050Y183519I-1200*
G01*
Y174681*
G75*
G02X122300Y174100I1050J-581*
G01*
G75*
G02X120050Y173519I-1200*
G01*
Y164681*
G75*
G02X122300Y164100I1050J-581*
G01*
G75*
G02X120043Y163533I-1200*
G01*
G75*
G02X118100Y163642I-943J567*
G01*
G75*
G02X116100I-1000J458*
G01*
G75*
G02X115600Y163120I-1000J458*
G01*
Y158307*
X116557Y157350*
X126100*
G75*
G02X126454Y157204I0J-500*
G01*
X127454Y156204*
G75*
G02X127600Y155850I-354J-353*
G01*
Y154413*
G75*
G02X127695Y152084I-405J-1183*
G01*
Y149296*
G75*
G02Y147004I-500J-1146*
G01*
Y143070*
G75*
G02X127541Y142709I-500*
G01*
X111820Y127617*
Y125000*
G75*
G02X112420Y124020I-500J-980*
G01*
G75*
G02X110220I-1100*
G01*
G75*
G02X110820Y125000I1100*
G01*
Y127830*
G75*
G02X110974Y128191I500*
G01*
X126695Y143283*
Y147004*
G75*
G02Y149296I500J1146*
G01*
Y152084*
G75*
G02X126600Y154329I500J1146*
G01*
Y155643*
X125893Y156350*
X116350*
G75*
G02X115996Y156496I0J500*
G01*
X114746Y157746*
G75*
G02X114600Y158100I354J353*
G01*
Y163120*
G75*
G02X114590Y165075I500J980*
G01*
Y167200*
G75*
G02X114748Y167582I540J0*
G01*
X116495Y169329*
Y173181*
G75*
G02X116100Y173642I605J919*
G01*
G75*
G02X114000Y174100I-1000J458*
G01*
G75*
G02X114590Y175075I1100*
G01*
Y177360*
G75*
G02X114748Y177742I540J0*
G01*
X116495Y179489*
Y183181*
G75*
G02X116100Y183642I605J919*
G01*
G75*
G02X114000Y184100I-1000J458*
G01*
G75*
G02X114590Y185075I1100*
G01*
Y187520*
G75*
G02X114748Y187902I540J0*
G01*
X116495Y189649*
Y193181*
G75*
G02X116100Y193642I605J919*
G01*
G75*
G02X114000Y194100I-1000J458*
G01*
G75*
G02X116100Y194558I1100*
G01*
G75*
G02X118100I1000J-458*
G01*
G75*
G02X118150Y194655I999J-458*
G01*
Y195457*
X117957Y195650*
X105050*
Y174681*
G75*
G02X107300Y174100I1050J-581*
G01*
G75*
G02X105050Y173519I-1200*
G01*
Y164681*
G75*
G02X107300Y164100I1050J-581*
G01*
G75*
G02X105043Y163533I-1200*
G01*
G75*
G02X103100Y163642I-943J567*
G01*
G75*
G02X102640Y163142I-1000J458*
G01*
Y160825*
X107256Y156233*
G75*
G02X107415Y155850I-381J-383*
G01*
Y154357*
G75*
G02X107375Y152084I-540J-1127*
G01*
Y149296*
G75*
G02Y147004I-500J-1146*
G01*
Y144340*
G75*
G02X107229Y143986I-500J0*
G01*
X91500Y128258*
Y125000*
G75*
G02X92100Y124020I-500J-980*
G01*
G75*
G02X89900I-1100*
G01*
G75*
G02X90500Y125000I1100*
G01*
Y128465*
G75*
G02X90646Y128819I500J0*
G01*
X106375Y144547*
Y147004*
G75*
G02Y149296I500J1146*
G01*
Y152084*
G75*
G02X106335Y154357I500J1146*
G01*
Y155626*
X101719Y160217*
G75*
G02X101560Y160600I381J383*
G01*
Y163142*
G75*
G02X101100Y163642I540J958*
G01*
G75*
G02X100640Y163142I-1000J458*
G01*
Y160074*
X104732Y155982*
G75*
G02X104890Y155600I-382J-382*
G01*
Y154350*
G75*
G02X104835Y152084I-555J-1120*
G01*
Y149296*
G75*
G02Y147004I-500J-1146*
G01*
Y144340*
G75*
G02X104689Y143986I-500J0*
G01*
X88960Y128258*
Y125000*
G75*
G02X89560Y124020I-500J-980*
G01*
G75*
G02X87360I-1100*
G01*
G75*
G02X87960Y125000I1100*
G01*
Y128465*
G75*
G02X88106Y128819I500J0*
G01*
X103835Y144547*
Y147004*
G75*
G02Y149296I500J1146*
G01*
Y152084*
G75*
G02X103810Y154364I500J1146*
G01*
Y155376*
X99718Y159468*
G75*
G02X99560Y159850I382J382*
G01*
Y163142*
G75*
G02X99000Y164100I540J958*
G01*
G75*
G02X101100Y164558I1100*
G01*
G75*
G02X103100I1000J-458*
G01*
G75*
G02X103150Y164655I999J-458*
G01*
Y173546*
G75*
G02X103100Y173642I949J555*
G01*
G75*
G02X101100I-1000J458*
G01*
G75*
G02X99000Y174100I-1000J458*
G01*
G75*
G02X101100Y174558I1100*
G01*
G75*
G02X103100I1000J-458*
G01*
G75*
G02X103150Y174655I999J-458*
G01*
Y195650*
X90050*
Y194681*
G75*
G02X92300Y194100I1050J-581*
G01*
G75*
G02X90050Y193519I-1200*
G01*
Y184681*
G75*
G02X92300Y184100I1050J-581*
G01*
G75*
G02X90050Y183519I-1200*
G01*
Y174681*
G75*
G02X92300Y174100I1050J-581*
G01*
G75*
G02X90050Y173519I-1200*
G01*
Y164681*
G75*
G02X92300Y164100I1050J-581*
G01*
G75*
G02X90043Y163533I-1200*
G01*
G75*
G02X88100Y163642I-943J567*
G01*
G75*
G02X87600Y163120I-1000J458*
G01*
Y161557*
X88307Y160850*
X97100*
G75*
G02X97454Y160704I0J-500*
G01*
X102204Y155954*
G75*
G02X102350Y155600I-354J-353*
G01*
Y154350*
G75*
G02X102295Y152084I-555J-1120*
G01*
Y149296*
G75*
G02Y147004I-500J-1146*
G01*
Y144975*
G75*
G02X102149Y144621I-500J0*
G01*
X86420Y128893*
Y125000*
G75*
G02X87020Y124020I-500J-980*
G01*
G75*
G02X84820I-1100*
G01*
G75*
G02X85420Y125000I1100*
G01*
Y129100*
G75*
G02X85566Y129454I500J0*
G01*
X101295Y145182*
Y147004*
G75*
G02Y149296I500J1146*
G01*
Y152084*
G75*
G02X101350Y154398I500J1146*
G01*
Y155393*
X96893Y159850*
X88100*
G75*
G02X87746Y159996I0J500*
G01*
X86746Y160996*
G75*
G02X86600Y161350I354J353*
G01*
Y163120*
G75*
G02X86100Y163642I500J980*
G01*
G75*
G02X85600Y163120I-1000J458*
G01*
Y161307*
X87557Y159350*
X95850*
G75*
G02X96204Y159204I0J-500*
G01*
X99454Y155954*
G75*
G02X99599Y155633I-354J-353*
G01*
X99679Y154406*
G75*
G02X99755Y152084I-424J-1176*
G01*
Y149296*
G75*
G02Y147004I-500J-1146*
G01*
Y144975*
G75*
G02X99609Y144621I-500J0*
G01*
X83880Y128893*
Y125000*
G75*
G02X84480Y124020I-500J-980*
G01*
G75*
G02X82280I-1100*
G01*
G75*
G02X82880Y125000I1100*
G01*
Y129100*
G75*
G02X83026Y129454I500J0*
G01*
X98755Y145182*
Y147004*
G75*
G02X98036Y147873I500J1146*
G01*
G75*
G02X95445Y147692I-1321J278*
G01*
G75*
G02X92854Y147873I-1270J458*
G01*
G75*
G02X92135Y147004I-1219J278*
G01*
Y142435*
G75*
G02X91989Y142081I-500J0*
G01*
X76260Y126353*
Y125000*
G75*
G02X76860Y124020I-500J-980*
G01*
G75*
G02X74660I-1100*
G01*
G75*
G02X75260Y125000I1100*
G01*
Y126560*
G75*
G02X75406Y126914I500J0*
G01*
X91135Y142642*
Y147004*
G75*
G02X90416Y147873I500J1146*
G01*
G75*
G02X87774I-1321J278*
G01*
G75*
G02X87055Y147004I-1219J278*
G01*
Y142435*
G75*
G02X86909Y142081I-500J0*
G01*
X71180Y126353*
Y125000*
G75*
G02X71780Y124020I-500J-980*
G01*
G75*
G02X69580I-1100*
G01*
G75*
G02X70180Y125000I1100*
G01*
Y126560*
G75*
G02X70326Y126914I500J0*
G01*
X86055Y142642*
Y147004*
G75*
G02Y149296I500J1146*
G01*
Y152084*
G75*
G02X85305Y153230I500J1146*
G01*
G75*
G02X87774Y153507I1250*
G01*
G75*
G02X90416I1321J-278*
G01*
G75*
G02X92854I1219J-278*
G01*
G75*
G02X95445Y153688I1321J-278*
G01*
G75*
G02X98036Y153507I1270J-458*
G01*
G75*
G02X98681Y154341I1219J-277*
G01*
X98613Y155380*
X95643Y158350*
X87350*
G75*
G02X86996Y158496I0J500*
G01*
X84746Y160746*
G75*
G02X84600Y161100I354J353*
G01*
Y163120*
G75*
G02Y165080I500J980*
G01*
Y173120*
G75*
G02Y175080I500J980*
G01*
Y183120*
G75*
G02Y185080I500J980*
G01*
Y193120*
G75*
G02X84120Y193600I500J980*
G01*
X83807*
X81706Y191499*
X80932Y190703*
G75*
G02X79890Y189250I-1042J-353*
G01*
G75*
G02Y191450J1100*
G01*
G75*
G02X80215Y191401I0J-1100*
G01*
X80992Y192199*
G75*
G02X80996Y192204I365J-346*
G01*
X83246Y194454*
G75*
G02X83600Y194600I353J-354*
G01*
X84120*
G75*
G02X84295Y194850I980J-500*
G01*
X83398*
G75*
G02X82883Y194810I-298J500*
G01*
X82074*
X80940Y193677*
G75*
G02X79890Y192250I-1050J-327*
G01*
G75*
G02Y194450J1100*
G01*
G75*
G02X80154Y194418I0J-1100*
G01*
X81386Y195650*
X77494*
X76300Y194457*
Y194000*
X76463*
G75*
G02X77350Y194450I887J-650*
G01*
G75*
G02Y192250J-1100*
G01*
G75*
G02X76463Y192700J1100*
G01*
X76300*
Y192503*
G75*
G02Y191697I-950J-403*
G01*
Y191000*
X76463*
G75*
G02X77350Y191450I887J-650*
G01*
G75*
G02Y189250J-1100*
G01*
G75*
G02X76463Y189700J1100*
G01*
X76300*
Y179600*
G75*
G02X76022Y178928I-950J0*
G01*
X75057Y177963*
G75*
G02X75050Y177947I-954J386*
G01*
Y174681*
G75*
G02X77300Y174100I1050J-581*
G01*
G75*
G02X75050Y173519I-1200*
G01*
Y164681*
G75*
G02X77300Y164100I1050J-581*
G01*
G75*
G02X75050Y163519I-1200*
G01*
Y153600*
G75*
G02Y153597I-960J-2*
G01*
G75*
G02X75074Y153507I-1194J-366*
G01*
G75*
G02X77716I1321J-278*
G01*
G75*
G02X80185Y153230I1219J-278*
G01*
G75*
G02X79435Y152084I-1250*
G01*
Y149296*
G75*
G02X79475Y147023I-500J-1146*
G01*
Y142435*
G75*
G02X79316Y142052I-540J0*
G01*
X64929Y127740*
X63600Y126344*
Y124978*
G75*
G02X64160Y124020I-540J-958*
G01*
G75*
G02X61960I-1100*
G01*
G75*
G02X62520Y124978I1100*
G01*
Y126560*
G75*
G02X62669Y126932I540J0*
G01*
X64151Y128490*
G75*
G02X64162Y128500I390J-372*
G01*
X78395Y142660*
Y147023*
G75*
G02X77716Y147873I540J1127*
G01*
G75*
G02X75074I-1321J278*
G01*
G75*
G02X74805Y147338I-1219J277*
G01*
Y143070*
G75*
G02X74527Y142398I-950J0*
G01*
X58930Y126802*
Y124574*
G75*
G02X59080Y124020I-950J-555*
G01*
G75*
G02X56880I-1100*
G01*
G75*
G02X57030Y124574I1100*
G01*
Y127195*
G75*
G02X57308Y127867I950J0*
G01*
X72905Y143464*
Y147338*
G75*
G02Y148962I950J812*
G01*
Y152418*
G75*
G02X73150Y154262I950J812*
G01*
Y163546*
G75*
G02X73100Y163642I949J555*
G01*
G75*
G02X71100I-1000J458*
G01*
G75*
G02X69000Y164100I-1000J458*
G01*
G75*
G02X69600Y165080I1100*
G01*
Y167100*
G75*
G02X69746Y167454I500J0*
G01*
X71600Y169307*
Y173120*
G75*
G02X71100Y173642I500J980*
G01*
G75*
G02X69000Y174100I-1000J458*
G01*
G75*
G02X71100Y174558I1100*
G01*
G75*
G02X73100I1000J-458*
G01*
G75*
G02X73150Y174655I999J-458*
G01*
Y177400*
X66494*
X61800Y172707*
Y170987*
G75*
G02X62120Y170378I-950J-887*
G01*
G75*
G02X64690Y170100I1270J-278*
G01*
G75*
G02X64340Y169213I-1300*
G01*
Y166100*
G75*
G02X64050Y165400I-990J0*
G01*
X60840Y162190*
Y160800*
X66100*
G75*
G02X66772Y160522I0J-950*
G01*
X70022Y157272*
G75*
G02X70300Y156600I-672J-672*
G01*
Y154108*
G75*
G02X70360Y152418I-890J-878*
G01*
Y148962*
G75*
G02Y147338I-950J-812*
G01*
Y142435*
G75*
G02X70082Y141763I-950J0*
G01*
X56390Y128072*
Y120603*
X57103Y119890*
X108780*
G75*
G02X109452Y119612I0J-950*
G01*
X122152Y106912*
G75*
G02X122430Y106240I-672J-672*
G01*
Y105624*
G75*
G02X121480Y104655I-950J-20*
G01*
G75*
G02X120530Y105624J950*
G01*
Y105847*
X108387Y117990*
X56710*
G75*
G02X56038Y118268I0J950*
G01*
X54768Y119538*
G75*
G02X54490Y120210I672J672*
G01*
Y128465*
G75*
G02X54768Y129137I950J0*
G01*
X68460Y142829*
Y147338*
G75*
G02X68191Y147873I950J812*
G01*
G75*
G02X65549I-1321J278*
G01*
G75*
G02X64830Y147004I-1219J278*
G01*
Y141165*
G75*
G02X64684Y140811I-500J0*
G01*
X53400Y129528*
Y118512*
X56917Y114995*
X106875*
G75*
G02X107229Y114849I0J-500*
G01*
X117877Y104200*
X125290*
G75*
G02X125644Y104054I0J-500*
G01*
X126914Y102784*
G75*
G02X127060Y102430I-354J-353*
G01*
Y102140*
G75*
G02X127660Y101160I-500J-980*
G01*
G75*
G02X125460I-1100*
G01*
G75*
G02X126060Y102140I1100*
G01*
Y102223*
X125083Y103200*
X117670*
G75*
G02X117316Y103346I0J500*
G01*
X106668Y113995*
X56710*
G75*
G02X56356Y114141I0J500*
G01*
X52546Y117951*
G75*
G02X52400Y118305I354J353*
G01*
Y129735*
G75*
G02X52546Y130089I500J0*
G01*
X63830Y141372*
Y147004*
G75*
G02Y149296I500J1146*
G01*
Y152084*
G75*
G02X63080Y153230I500J1146*
G01*
G75*
G02X65549Y153507I1250*
G01*
G75*
G02X68191I1321J-278*
G01*
G75*
G02X68400Y153967I1219J-277*
G01*
Y156207*
X65707Y158900*
X60253*
G75*
G02X60030Y158834I-403J950*
G01*
G75*
G02X60850Y157850I-180J-984*
G01*
G75*
G02X58850I-1000*
G01*
G75*
G02X59670Y158834I1000*
G01*
G75*
G02X59559Y158860I180J1016*
G01*
X37760*
X30596Y151695*
X30617Y150103*
G75*
G02X29640Y147700I-977J-1003*
G01*
G75*
G02X28427Y148401J1400*
G01*
G75*
G02X25773I-1327J699*
G01*
G75*
G02X25590Y148152I-1213J699*
G01*
Y144891*
G75*
G02X25550Y144197I-990J-291*
G01*
Y141628*
G75*
G02Y139572I-950J-1028*
G01*
Y137050*
X26173*
G75*
G02X28330Y136378I887J-950*
G01*
G75*
G02X28650Y136987I1270J-278*
G01*
Y139572*
G75*
G02X28200Y140600I950J1028*
G01*
G75*
G02X31000I1400*
G01*
G75*
G02X30550Y139572I-1400*
G01*
Y136987*
G75*
G02X30900Y136100I-950J-887*
G01*
G75*
G02X28330Y135822I-1300*
G01*
G75*
G02X26173Y135150I-1270J278*
G01*
X25003*
G75*
G02X24197I-403J950*
G01*
X22800*
Y130253*
G75*
G02X22030Y128834I-950J-403*
G01*
G75*
G02X22850Y127850I-180J-984*
G01*
G75*
G02X20850I-1000*
G01*
G75*
G02X21670Y128834I1000*
G01*
G75*
G02X21447Y128900I180J1016*
G01*
X17200*
Y127050*
X14400*
Y132650*
X17200*
Y130800*
X20900*
Y135150*
X9350*
G75*
G02X8400Y136100J950*
G01*
Y139572*
G75*
G02Y141628I950J1028*
G01*
Y144197*
G75*
G02X8358Y144883I950J403*
G01*
X8329Y148101*
X11100Y14600D02*
G75*
G02Y7600J-3500D01*
G01*
G75*
G02Y14600J3500*
G01*
Y196600D02*
G75*
G02Y189600J-3500D01*
G01*
G75*
G02Y196600J3500*
G01*
X13885Y63266D02*
G75*
G02X14351Y65414I280J1064D01*
G01*
X14165Y65600*
Y65770*
G75*
G02Y67970J1100*
G01*
Y68310*
G75*
G02Y70510J1100*
G01*
G75*
G02X15085Y70013J-1100*
G01*
X16070Y70998*
X16155*
G75*
G02X16705Y73050I550J953*
G01*
G75*
G02X17255Y70998J-1100*
G01*
X17340*
X18293Y70045*
Y68775*
X17523Y68005*
X23690*
G75*
G02X24044Y67859I0J-500*
G01*
X29759Y62144*
G75*
G02X29905Y61790I-354J-353*
G01*
Y49395*
G75*
G02X29405Y47315I-500J-980*
G01*
G75*
G02X28905Y49395J1100*
G01*
Y61583*
X23483Y67005*
X17797*
G75*
G02X17308Y65950I-1092J-135*
G01*
X17658Y65600*
X19245*
X23690Y61155*
Y50995*
X24325Y50360*
Y48455*
X19880Y44010*
X15435*
X14800Y44645*
Y45915*
X15606Y46721*
G75*
G02X16090Y48500I464J829*
G01*
X17947*
X19558Y50112*
G75*
G02X19565Y50128I954J-386*
G01*
Y59492*
X17582Y61475*
X16070*
G75*
G02X15398Y61753I0J950*
G01*
X13885Y63266*
X14165Y70850D02*
G75*
G02Y73050J1100D01*
G01*
G75*
G02Y70850J-1100*
G01*
Y73390D02*
G75*
G02Y75590J1100D01*
G01*
G75*
G02Y73390J-1100*
G01*
Y75930D02*
G75*
G02Y78130J1100D01*
G01*
G75*
G02Y75930J-1100*
G01*
Y78470D02*
G75*
G02Y80670J1100D01*
G01*
G75*
G02Y78470J-1100*
G01*
X15350Y123550D02*
X10350D01*
Y126350*
X15350*
Y123550*
X15700Y61000D02*
G75*
G02Y54000J-3500D01*
G01*
G75*
G02Y61000J3500*
G01*
Y89900D02*
G75*
G02Y82900J-3500D01*
G01*
G75*
G02Y89900J3500*
G01*
X16705Y73390D02*
G75*
G02Y75590J1100D01*
G01*
G75*
G02Y73390J-1100*
G01*
Y75930D02*
G75*
G02Y78130J1100D01*
G01*
G75*
G02Y75930J-1100*
G01*
Y78470D02*
G75*
G02Y80670J1100D01*
G01*
G75*
G02Y78470J-1100*
G01*
X25913Y47503D02*
X27818D01*
X28453Y46868*
Y44963*
X27818Y44328*
X25913*
X25278Y44963*
Y46868*
X25913Y47503*
X27100Y145600D02*
G75*
G02Y143600J-1000D01*
G01*
G75*
G02Y145600J1000*
G01*
X27150Y88904D02*
Y90796D01*
G75*
G02Y91904I950J555*
G01*
Y94046*
G75*
G02X27820Y95664I950J555*
G01*
X30428Y98272*
G75*
G02X31100Y98550I672J-672*
G01*
X45046*
G75*
G02X46550Y97046I555J-950*
G01*
Y87993*
X48380Y86164*
G75*
G02X49050Y84546I-280J-1064*
G01*
Y82404*
G75*
G02Y81296I-950J-555*
G01*
Y79155*
G75*
G02X49200Y78600I-950J-555*
G01*
G75*
G02X47000I-1100*
G01*
G75*
G02X47150Y79155I1100*
G01*
Y81296*
G75*
G02Y82404I950J555*
G01*
Y84546*
G75*
G02X47036Y84820I950J555*
G01*
X44928Y86928*
G75*
G02X44650Y87600I672J672*
G01*
Y96650*
X31494*
X29164Y94320*
G75*
G02X29050Y94046I-1064J280*
G01*
Y91904*
G75*
G02Y90796I-950J-555*
G01*
Y88904*
G75*
G02X29200Y88350I-950J-555*
G01*
G75*
G02X27000I-1100*
G01*
G75*
G02X27150Y88904I1100*
G01*
X30099Y23999D02*
G75*
G02X32362Y26262I1131J1131D01*
G01*
G75*
G02X30099Y23999I-1131J-1131*
G01*
X31905Y47015D02*
G75*
G02Y44815J-1100D01*
G01*
G75*
G02Y47015J1100*
G01*
X33387Y30115D02*
G75*
G02X35085Y31813I849J849D01*
G01*
G75*
G02X33387Y30115I-849J-849*
G01*
X33706Y20535D02*
G75*
G02X35827Y22656I1061J1061D01*
G01*
G75*
G02X33706Y20535I-1061J-1061*
G01*
X35000Y145350D02*
G75*
G02X33200I-900D01*
G01*
G75*
G02X35000I900*
G01*
X35100Y143350D02*
G75*
G02X33100I-1000D01*
G01*
G75*
G02X35100I1000*
G01*
X37000Y88350D02*
G75*
G02X39200I1100D01*
G01*
G75*
G02X37000I-1100*
G01*
Y91350D02*
G75*
G02X39200I1100D01*
G01*
G75*
G02X37000I-1100*
G01*
Y94600D02*
G75*
G02X39200I1100D01*
G01*
G75*
G02X37000I-1100*
G01*
X38938Y32838D02*
G75*
G02X41201Y35101I1131J1131D01*
G01*
G75*
G02X38938Y32838I-1131J-1131*
G01*
X39200Y78600D02*
G75*
G02X37000I-1100D01*
G01*
G75*
G02X39200I1100*
G01*
Y81850D02*
G75*
G02X37000I-1100D01*
G01*
G75*
G02X39200I1100*
G01*
Y85100D02*
G75*
G02X37000I-1100D01*
G01*
G75*
G02X39200I1100*
G01*
X39751Y23751D02*
G75*
G02X41449Y25449I849J849D01*
G01*
G75*
G02X39751Y23751I-849J-849*
G01*
X40251Y147873D02*
G75*
G02X37580Y148150I-1321J278D01*
G01*
G75*
G02X40251Y148428I1350*
G01*
G75*
G02X40970Y149296I1219J-278*
G01*
Y152084*
G75*
G02X40251Y152952I500J1146*
G01*
G75*
G02X37580Y153230I-1321J278*
G01*
G75*
G02X40251Y153507I1350*
G01*
G75*
G02X42720Y153230I1219J-278*
G01*
G75*
G02X41970Y152084I-1250*
G01*
Y149296*
G75*
G02Y147004I-500J-1146*
G01*
Y112797*
X51202Y103565*
X62425*
G75*
G02X62779Y103419I0J-500*
G01*
X63414Y102784*
G75*
G02X63560Y102430I-354J-353*
G01*
Y102140*
G75*
G02X64160Y101160I-500J-980*
G01*
G75*
G02X61960I-1100*
G01*
G75*
G02X62560Y102140I1100*
G01*
Y102223*
X62218Y102565*
X50995*
G75*
G02X50641Y102711I0J500*
G01*
X41116Y112236*
G75*
G02X40970Y112590I354J353*
G01*
Y147004*
G75*
G02X40251Y147873I500J1146*
G01*
X41599Y35499D02*
G75*
G02X43862Y37762I1131J1131D01*
G01*
G75*
G02X41599Y35499I-1131J-1131*
G01*
X42544Y29373D02*
G75*
G02X44666Y31495I1061J1061D01*
G01*
G75*
G02X42544Y29373I-1061J-1061*
G01*
X43510Y147004D02*
G75*
G02Y149296I500J1146D01*
G01*
Y152084*
G75*
G02X42760Y153230I500J1146*
G01*
G75*
G02X45260I1250*
G01*
G75*
G02X44510Y152084I-1250*
G01*
Y149296*
G75*
G02Y147004I-500J-1146*
G01*
Y141165*
G75*
G02X44364Y140811I-500J0*
G01*
X43240Y139688*
Y113432*
X51837Y104835*
X63695*
G75*
G02X64049Y104689I0J-500*
G01*
X65954Y102784*
G75*
G02X66100Y102430I-354J-353*
G01*
Y102140*
G75*
G02X66700Y101160I-500J-980*
G01*
G75*
G02X64500I-1100*
G01*
G75*
G02X65100Y102140I1100*
G01*
Y102223*
X63488Y103835*
X51630*
G75*
G02X51276Y103981I0J500*
G01*
X42386Y112871*
G75*
G02X42240Y113225I354J353*
G01*
Y139895*
G75*
G02X42386Y140249I500J0*
G01*
X43510Y141372*
Y147004*
X43792Y14691D02*
G75*
G02X41670Y12569I-1061J-1061D01*
G01*
G75*
G02X43792Y14691I1061J1061*
G01*
X44887Y41615D02*
G75*
G02X46585Y43313I849J849D01*
G01*
G75*
G02X44887Y41615I-849J-849*
G01*
X45206Y32035D02*
G75*
G02X47327Y34156I1061J1061D01*
G01*
G75*
G02X45206Y32035I-1061J-1061*
G01*
X46050Y147004D02*
G75*
G02Y149296I500J1146D01*
G01*
Y152084*
G75*
G02X45300Y153230I500J1146*
G01*
G75*
G02X47800I1250*
G01*
G75*
G02X47050Y152084I-1250*
G01*
Y149296*
G75*
G02Y147004I-500J-1146*
G01*
Y141165*
G75*
G02X46904Y140811I-500J0*
G01*
X44510Y138418*
Y114067*
X52472Y106105*
X65600*
G75*
G02X65954Y105959I0J-500*
G01*
X68494Y103419*
G75*
G02X68640Y103065I-354J-353*
G01*
Y102140*
G75*
G02X69240Y101160I-500J-980*
G01*
G75*
G02X67040I-1100*
G01*
G75*
G02X67640Y102140I1100*
G01*
Y102858*
X65393Y105105*
X52265*
G75*
G02X51911Y105251I0J500*
G01*
X43656Y113506*
G75*
G02X43510Y113860I354J353*
G01*
Y138625*
G75*
G02X43656Y138979I500J0*
G01*
X46050Y141372*
Y147004*
X46585Y20313D02*
G75*
G02X44887Y18615I-849J-849D01*
G01*
G75*
G02X46585Y20313I849J849*
G01*
X47398Y11226D02*
G75*
G02X45135Y8963I-1131J-1131D01*
G01*
G75*
G02X47398Y11226I1131J1131*
G01*
X48550Y149277D02*
Y152103D01*
G75*
G02X47840Y153230I540J1127*
G01*
G75*
G02X50340I1250*
G01*
G75*
G02X49630Y152103I-1250*
G01*
Y149277*
G75*
G02X49590Y147004I-540J-1127*
G01*
Y141165*
G75*
G02X49444Y140811I-500J0*
G01*
X45780Y137148*
Y114702*
X53107Y107375*
X66870*
G75*
G02X67224Y107229I0J-500*
G01*
X71034Y103419*
G75*
G02X71180Y103065I-354J-353*
G01*
Y102140*
G75*
G02X71780Y101160I-500J-980*
G01*
G75*
G02X69580I-1100*
G01*
G75*
G02X70180Y102140I1100*
G01*
Y102858*
X66663Y106375*
X52900*
G75*
G02X52546Y106521I0J500*
G01*
X44926Y114141*
G75*
G02X44780Y114495I354J353*
G01*
Y137355*
G75*
G02X44926Y137709I500J0*
G01*
X48590Y141372*
Y147004*
G75*
G02X48550Y149277I500J1146*
G01*
X50438Y44338D02*
G75*
G02X52701Y46601I1131J1131D01*
G01*
G75*
G02X50438Y44338I-1131J-1131*
G01*
X51130Y147004D02*
G75*
G02Y149296I500J1146D01*
G01*
Y152084*
G75*
G02X50380Y153230I500J1146*
G01*
G75*
G02X52880I1250*
G01*
G75*
G02X52130Y152084I-1250*
G01*
Y149296*
G75*
G02Y147004I-500J-1146*
G01*
Y141165*
G75*
G02X51984Y140811I-500J0*
G01*
X47050Y135878*
Y115337*
X53742Y108645*
X68140*
G75*
G02X68494Y108499I0J-500*
G01*
X73574Y103419*
G75*
G02X73720Y103065I-354J-353*
G01*
Y102140*
G75*
G02X74320Y101160I-500J-980*
G01*
G75*
G02X72120I-1100*
G01*
G75*
G02X72720Y102140I1100*
G01*
Y102858*
X67933Y107645*
X53535*
G75*
G02X53181Y107791I0J500*
G01*
X46196Y114776*
G75*
G02X46050Y115130I354J353*
G01*
Y136085*
G75*
G02X46196Y136439I500J0*
G01*
X51130Y141372*
Y147004*
X51251Y35252D02*
G75*
G02X52949Y36949I849J849D01*
G01*
G75*
G02X51251Y35252I-849J-849*
G01*
X52630Y23530D02*
G75*
G02X50509Y21408I-1061J-1061D01*
G01*
G75*
G02X52630Y23530I1061J1061*
G01*
X52949Y13949D02*
G75*
G02X51251Y12251I-849J-849D01*
G01*
G75*
G02X52949Y13949I849J849*
G01*
X53670Y147004D02*
G75*
G02Y149296I500J1146D01*
G01*
Y152084*
G75*
G02X52920Y153230I500J1146*
G01*
G75*
G02X55420I1250*
G01*
G75*
G02X54670Y152084I-1250*
G01*
Y149296*
G75*
G02Y147004I-500J-1146*
G01*
Y141165*
G75*
G02X54524Y140811I-500J0*
G01*
X48320Y134608*
Y115972*
X54377Y109915*
X69410*
G75*
G02X69764Y109769I0J-500*
G01*
X76114Y103419*
G75*
G02X76260Y103065I-354J-353*
G01*
Y102140*
G75*
G02X76860Y101160I-500J-980*
G01*
G75*
G02X74660I-1100*
G01*
G75*
G02X75260Y102140I1100*
G01*
Y102858*
X69203Y108915*
X54170*
G75*
G02X53816Y109061I0J500*
G01*
X47466Y115411*
G75*
G02X47320Y115765I354J353*
G01*
Y134815*
G75*
G02X47466Y135169I500J0*
G01*
X53670Y141372*
Y147004*
X54044Y40873D02*
G75*
G02X56166Y42995I1061J1061D01*
G01*
G75*
G02X54044Y40873I-1061J-1061*
G01*
X55292Y26191D02*
G75*
G02X53170Y24069I-1061J-1061D01*
G01*
G75*
G02X55292Y26191I1061J1061*
G01*
X56210Y147004D02*
G75*
G02Y149296I500J1146D01*
G01*
Y152084*
G75*
G02X55460Y153230I500J1146*
G01*
G75*
G02X57960I1250*
G01*
G75*
G02X57210Y152084I-1250*
G01*
Y149296*
G75*
G02Y147004I-500J-1146*
G01*
Y141165*
G75*
G02X57064Y140811I-500J0*
G01*
X49590Y133338*
Y116607*
X55012Y111185*
X70680*
G75*
G02X71034Y111039I0J-500*
G01*
X78654Y103419*
G75*
G02X78800Y103065I-354J-353*
G01*
Y102140*
G75*
G02X79400Y101160I-500J-980*
G01*
G75*
G02X77200I-1100*
G01*
G75*
G02X77800Y102140I1100*
G01*
Y102858*
X70473Y110185*
X54805*
G75*
G02X54451Y110331I0J500*
G01*
X48736Y116046*
G75*
G02X48590Y116400I354J353*
G01*
Y133545*
G75*
G02X48736Y133899I500J0*
G01*
X56210Y141372*
Y147004*
X56237Y20065D02*
G75*
G02X53974Y17802I-1131J-1131D01*
G01*
G75*
G02X56237Y20065I1131J1131*
G01*
X56780Y101160D02*
G75*
G02X59180I1200D01*
G01*
G75*
G02X56780I-1200*
G01*
X56823Y98938D02*
G75*
G02X59137I1157J-318D01*
G01*
X59467*
G75*
G02X61573I1053J-318*
G01*
X62007*
G75*
G02X64151Y98481I1053J-317*
G01*
X66870Y95763*
Y85285*
X88460Y63695*
Y40200*
X85920Y37660*
X68140*
X64330Y41470*
Y67505*
X54170Y77983*
Y97668*
X55440Y98938*
X56823*
X56880Y121480D02*
G75*
G02X59080I1100D01*
G01*
G75*
G02X56880I-1100*
G01*
X57980Y117300D02*
G75*
G02Y115500J-900D01*
G01*
G75*
G02Y117300J900*
G01*
X58085Y31813D02*
G75*
G02X56387Y30115I-849J-849D01*
G01*
G75*
G02X58085Y31813I849J849*
G01*
X58750Y147004D02*
G75*
G02Y149296I500J1146D01*
G01*
Y152084*
G75*
G02X58000Y153230I500J1146*
G01*
G75*
G02X60500I1250*
G01*
G75*
G02X59750Y152084I-1250*
G01*
Y149296*
G75*
G02Y147004I-500J-1146*
G01*
Y141165*
G75*
G02X59604Y140811I-500J0*
G01*
X50860Y132068*
Y117242*
X55647Y112455*
X105605*
G75*
G02X105959Y112309I0J-500*
G01*
X111674Y106594*
G75*
G02X111820Y106240I-354J-353*
G01*
Y102140*
G75*
G02X112420Y101160I-500J-980*
G01*
G75*
G02X110220I-1100*
G01*
G75*
G02X110820Y102140I1100*
G01*
Y106033*
X105398Y111455*
X55440*
G75*
G02X55086Y111601I0J500*
G01*
X50006Y116681*
G75*
G02X49860Y117035I354J353*
G01*
Y132275*
G75*
G02X50006Y132629I500J0*
G01*
X58750Y141372*
Y147004*
X58898Y22726D02*
G75*
G02X56635Y20463I-1131J-1131D01*
G01*
G75*
G02X58898Y22726I1131J1131*
G01*
X59320Y121480D02*
G75*
G02X61720I1200D01*
G01*
G75*
G02X59320I-1200*
G01*
Y124020D02*
G75*
G02X61720I1200D01*
G01*
G75*
G02X59320I-1200*
G01*
X59420Y101160D02*
G75*
G02X61620I1100D01*
G01*
G75*
G02X59420I-1100*
G01*
X60480Y117400D02*
G75*
G02Y115400J-1000D01*
G01*
G75*
G02Y117400J1000*
G01*
X61290Y147004D02*
G75*
G02Y149296I500J1146D01*
G01*
Y152084*
G75*
G02X60540Y153230I500J1146*
G01*
G75*
G02X63040I1250*
G01*
G75*
G02X62290Y152084I-1250*
G01*
Y149296*
G75*
G02Y147004I-500J-1146*
G01*
Y141165*
G75*
G02X62144Y140811I-500J0*
G01*
X52130Y130798*
Y117877*
X56282Y113725*
X106240*
G75*
G02X106594Y113579I0J-500*
G01*
X114214Y105959*
G75*
G02X114360Y105605I-354J-353*
G01*
Y102140*
G75*
G02X114960Y101160I-500J-980*
G01*
G75*
G02X112760I-1100*
G01*
G75*
G02X113360Y102140I1100*
G01*
Y105398*
X106033Y112725*
X56075*
G75*
G02X55721Y112871I0J500*
G01*
X51276Y117316*
G75*
G02X51130Y117670I354J353*
G01*
Y131005*
G75*
G02X51276Y131359I500J0*
G01*
X61290Y141372*
Y147004*
X61960Y121480D02*
G75*
G02X64160I1100D01*
G01*
G75*
G02X61960I-1100*
G01*
X64130Y35030D02*
G75*
G02X62009Y32908I-1061J-1061D01*
G01*
G75*
G02X64130Y35030I1061J1061*
G01*
X64449Y25449D02*
G75*
G02X62751Y23751I-849J-849D01*
G01*
G75*
G02X64449Y25449I849J849*
G01*
X64500Y98620D02*
G75*
G02X66700I1100D01*
G01*
G75*
G02X64500I-1100*
G01*
Y121480D02*
G75*
G02X66700I1100D01*
G01*
G75*
G02X64500I-1100*
G01*
X65100Y125000D02*
Y126560D01*
G75*
G02X65246Y126914I500J0*
G01*
X80975Y142642*
Y147004*
G75*
G02Y149296I500J1146*
G01*
Y152084*
G75*
G02X80225Y153230I500J1146*
G01*
G75*
G02X82725I1250*
G01*
G75*
G02X81975Y152084I-1250*
G01*
Y149296*
G75*
G02Y147004I-500J-1146*
G01*
Y142435*
G75*
G02X81829Y142081I-500J0*
G01*
X66100Y126353*
Y125000*
G75*
G02X66700Y124020I-500J-980*
G01*
G75*
G02X64500I-1100*
G01*
G75*
G02X65100Y125000I1100*
G01*
X67040Y98620D02*
G75*
G02X69240I1100D01*
G01*
G75*
G02X67040I-1100*
G01*
Y121480D02*
G75*
G02X69240I1100D01*
G01*
G75*
G02X67040I-1100*
G01*
X67640Y125000D02*
Y126560D01*
G75*
G02X67786Y126914I500J0*
G01*
X83515Y142642*
Y147004*
G75*
G02Y149296I500J1146*
G01*
Y152084*
G75*
G02X82765Y153230I500J1146*
G01*
G75*
G02X85265I1250*
G01*
G75*
G02X84515Y152084I-1250*
G01*
Y149296*
G75*
G02Y147004I-500J-1146*
G01*
Y142435*
G75*
G02X84369Y142081I-500J0*
G01*
X68640Y126353*
Y125000*
G75*
G02X69240Y124020I-500J-980*
G01*
G75*
G02X67040I-1100*
G01*
G75*
G02X67640Y125000I1100*
G01*
X67737Y31565D02*
G75*
G02X65474Y29302I-1131J-1131D01*
G01*
G75*
G02X67737Y31565I1131J1131*
G01*
X69580Y98620D02*
G75*
G02X71780I1100D01*
G01*
G75*
G02X69580I-1100*
G01*
Y121480D02*
G75*
G02X71780I1100D01*
G01*
G75*
G02X69580I-1100*
G01*
X72120Y98620D02*
G75*
G02X74320I1100D01*
G01*
G75*
G02X72120I-1100*
G01*
Y121480D02*
G75*
G02X74320I1100D01*
G01*
G75*
G02X72120I-1100*
G01*
Y124020D02*
G75*
G02X74320I1100D01*
G01*
G75*
G02X72120I-1100*
G01*
X74660Y121480D02*
G75*
G02X76860I1100D01*
G01*
G75*
G02X74660I-1100*
G01*
X75260Y97640D02*
G75*
G02X74660Y98620I500J980D01*
G01*
G75*
G02X76860I1100*
G01*
G75*
G02X76260Y97640I-1100*
G01*
Y93112*
X81194Y88179*
G75*
G02X81340Y87825I-354J-353*
G01*
Y84222*
X81463Y84100*
G75*
G02X82582Y83832I341J-1046*
G01*
G75*
G02X81026Y82276I-778J-778*
G01*
G75*
G02X80757Y83391I778J778*
G01*
X80486Y83661*
G75*
G02X80340Y84015I354J353*
G01*
Y87618*
X75406Y92551*
G75*
G02X75260Y92905I354J353*
G01*
Y97640*
X77200Y121480D02*
G75*
G02X79400I1100D01*
G01*
G75*
G02X77200I-1100*
G01*
Y124020D02*
G75*
G02X79400I1100D01*
G01*
G75*
G02X77200I-1100*
G01*
X77350Y184600D02*
G75*
G02Y182600J-1000D01*
G01*
G75*
G02Y184600J1000*
G01*
X77810Y97635D02*
G75*
G02X77200Y98620I490J985D01*
G01*
G75*
G02X79400I1100*
G01*
G75*
G02X78890Y97692I-1100*
G01*
Y95324*
X83982Y90232*
G75*
G02X84140Y89850I-382J-382*
G01*
Y74735*
G75*
G02X84332Y74582I-586J-931*
G01*
G75*
G02X82776Y73026I-778J-778*
G01*
G75*
G02X83060Y74787I778J778*
G01*
Y89626*
X77968Y94718*
G75*
G02X77810Y95100I382J382*
G01*
Y97635*
X79740Y98620D02*
G75*
G02X81940I1100D01*
G01*
G75*
G02X79740I-1100*
G01*
Y101160D02*
G75*
G02X81940I1100D01*
G01*
G75*
G02X79740I-1100*
G01*
Y121480D02*
G75*
G02X81940I1100D01*
G01*
G75*
G02X79740I-1100*
G01*
Y124020D02*
G75*
G02X81940I1100D01*
G01*
G75*
G02X79740I-1100*
G01*
X82280Y98620D02*
G75*
G02X84480I1100D01*
G01*
G75*
G02X82280I-1100*
G01*
Y101160D02*
G75*
G02X84480I1100D01*
G01*
G75*
G02X82280I-1100*
G01*
Y121480D02*
G75*
G02X84480I1100D01*
G01*
G75*
G02X82280I-1100*
G01*
X84820Y98620D02*
G75*
G02X87020I1100D01*
G01*
G75*
G02X84820I-1100*
G01*
Y101160D02*
G75*
G02X87020I1100D01*
G01*
G75*
G02X84820I-1100*
G01*
Y121480D02*
G75*
G02X87020I1100D01*
G01*
G75*
G02X84820I-1100*
G01*
X86150Y21150D02*
G75*
G02X83150I-1500D01*
G01*
G75*
G02X86150I1500*
G01*
X86250Y16150D02*
G75*
G02X83050I-1600D01*
G01*
G75*
G02X86250I1600*
G01*
X87360Y98620D02*
G75*
G02X89560I1100D01*
G01*
G75*
G02X87360I-1100*
G01*
Y101160D02*
G75*
G02X89560I1100D01*
G01*
G75*
G02X87360I-1100*
G01*
Y121480D02*
G75*
G02X89560I1100D01*
G01*
G75*
G02X87360I-1100*
G01*
X89367Y74837D02*
G75*
G02X88210Y75092I-379J1033D01*
G01*
G75*
G02X89766Y76647I778J778*
G01*
G75*
G02X90069Y75663I-778J-778*
G01*
X98482Y67231*
G75*
G02X98640Y66850I-382J-381*
G01*
Y49074*
X100896Y46818*
G75*
G02X101350Y46900I454J-1218*
G01*
G75*
G02Y44300J-1300*
G01*
G75*
G02X100132Y46054J1300*
G01*
X97718Y48468*
G75*
G02X97560Y48850I382J382*
G01*
Y66627*
X89367Y74837*
X89900Y98620D02*
G75*
G02X92100I1100D01*
G01*
G75*
G02X89900I-1100*
G01*
Y101160D02*
G75*
G02X92100I1100D01*
G01*
G75*
G02X89900I-1100*
G01*
Y121480D02*
G75*
G02X92100I1100D01*
G01*
G75*
G02X89900I-1100*
G01*
X92100Y67350D02*
Y66350D01*
X96850Y61600*
Y41100*
X100600Y37350*
X102100*
X103100Y36350*
Y34850*
X102100Y33850*
X100600*
X99600Y34850*
Y36350*
X95350Y40600*
Y61100*
X91350Y65100*
X90100*
X89350Y65850*
Y67100*
X90350Y68100*
X91350*
X92100Y67350*
X92101Y14150D02*
G75*
G02X89700I-1200D01*
G01*
G75*
G02X92101I1200*
G01*
Y23150D02*
G75*
G02X89700I-1200D01*
G01*
G75*
G02X92101I1200*
G01*
X92440Y98620D02*
G75*
G02X94640I1100D01*
G01*
G75*
G02X92440I-1100*
G01*
Y101160D02*
G75*
G02X94640I1100D01*
G01*
G75*
G02X92440I-1100*
G01*
Y121480D02*
G75*
G02X94640I1100D01*
G01*
G75*
G02X92440I-1100*
G01*
X93040Y125000D02*
Y127830D01*
G75*
G02X93186Y128184I500J0*
G01*
X108915Y143912*
Y147004*
G75*
G02Y149296I500J1146*
G01*
Y152084*
G75*
G02X108165Y153230I500J1146*
G01*
G75*
G02X110665I1250*
G01*
G75*
G02X109915Y152084I-1250*
G01*
Y149296*
G75*
G02Y147004I-500J-1146*
G01*
Y143705*
G75*
G02X109769Y143351I-500J0*
G01*
X94040Y127623*
Y125000*
G75*
G02X94640Y124020I-500J-980*
G01*
G75*
G02X92440I-1100*
G01*
G75*
G02X93040Y125000I1100*
G01*
X94980Y101160D02*
G75*
G02X97180I1100D01*
G01*
G75*
G02X94980I-1100*
G01*
Y121480D02*
G75*
G02X97180I1100D01*
G01*
G75*
G02X94980I-1100*
G01*
X95580Y75238D02*
Y97640D01*
G75*
G02X94980Y98620I500J980*
G01*
G75*
G02X97180I1100*
G01*
G75*
G02X96580Y97640I-1100*
G01*
Y75238*
G75*
G02X96980Y74490I-500J-748*
G01*
G75*
G02X95180I-900*
G01*
G75*
G02X95580Y75238I900*
G01*
Y125000D02*
Y126560D01*
G75*
G02X95720Y126907I500*
G01*
X111455Y143271*
Y147004*
G75*
G02Y149296I500J1146*
G01*
Y152084*
G75*
G02X110705Y153230I500J1146*
G01*
G75*
G02X113205I1250*
G01*
G75*
G02X112455Y152084I-1250*
G01*
Y149296*
G75*
G02Y147004I-500J-1146*
G01*
Y143070*
G75*
G02X112315Y142724I-500J0*
G01*
X96580Y126359*
Y125000*
G75*
G02X97180Y124020I-500J-980*
G01*
G75*
G02X94980I-1100*
G01*
G75*
G02X95580Y125000I1100*
G01*
X97520Y101160D02*
G75*
G02X99720I1100D01*
G01*
G75*
G02X97520I-1100*
G01*
Y121480D02*
G75*
G02X99720I1100D01*
G01*
G75*
G02X97520I-1100*
G01*
X98120Y73651D02*
Y97640D01*
G75*
G02X97520Y98620I500J980*
G01*
G75*
G02X99720I1100*
G01*
G75*
G02X99120Y97640I-1100*
G01*
Y73651*
G75*
G02X99520Y72903I-500J-748*
G01*
G75*
G02X97720I-900*
G01*
G75*
G02X98120Y73651I900*
G01*
Y125000D02*
Y126560D01*
G75*
G02X98266Y126914I500J0*
G01*
X113995Y142642*
Y147004*
G75*
G02Y149296I500J1146*
G01*
Y152084*
G75*
G02X113245Y153230I500J1146*
G01*
G75*
G02X115745I1250*
G01*
G75*
G02X114995Y152084I-1250*
G01*
Y149296*
G75*
G02Y147004I-500J-1146*
G01*
Y142435*
G75*
G02X114849Y142081I-500J0*
G01*
X99120Y126353*
Y125000*
G75*
G02X99720Y124020I-500J-980*
G01*
G75*
G02X97520I-1100*
G01*
G75*
G02X98120Y125000I1100*
G01*
X98650Y21150D02*
G75*
G02X95650I-1500D01*
G01*
G75*
G02X98650I1500*
G01*
X98750Y16150D02*
G75*
G02X95550I-1600D01*
G01*
G75*
G02X98750I1600*
G01*
X100060Y101160D02*
G75*
G02X102260I1100D01*
G01*
G75*
G02X100060I-1100*
G01*
Y121480D02*
G75*
G02X102260I1100D01*
G01*
G75*
G02X100060I-1100*
G01*
X100660Y60633D02*
Y97640D01*
G75*
G02X100060Y98620I500J980*
G01*
G75*
G02X102260I1100*
G01*
G75*
G02X101660Y97640I-1100*
G01*
Y60633*
G75*
G02X102060Y59885I-500J-748*
G01*
G75*
G02X100260I-900*
G01*
G75*
G02X100660Y60633I900*
G01*
Y125000D02*
Y126560D01*
G75*
G02X100806Y126914I500J0*
G01*
X116535Y142642*
Y147004*
G75*
G02Y149296I500J1146*
G01*
Y152084*
G75*
G02X115785Y153230I500J1146*
G01*
G75*
G02X118285I1250*
G01*
G75*
G02X117535Y152084I-1250*
G01*
Y149296*
G75*
G02Y147004I-500J-1146*
G01*
Y142435*
G75*
G02X117389Y142081I-500J0*
G01*
X101660Y126353*
Y125000*
G75*
G02X102260Y124020I-500J-980*
G01*
G75*
G02X100060I-1100*
G01*
G75*
G02X100660Y125000I1100*
G01*
X102600Y101160D02*
G75*
G02X104800I1100D01*
G01*
G75*
G02X102600I-1100*
G01*
Y121480D02*
G75*
G02X104800I1100D01*
G01*
G75*
G02X102600I-1100*
G01*
X103200Y97640D02*
G75*
G02X102600Y98620I500J980D01*
G01*
G75*
G02X104800I1100*
G01*
G75*
G02X104200Y97640I-1100*
G01*
Y60727*
X104689Y60239*
G75*
G02X104835Y59885I-354J-353*
G01*
Y57141*
G75*
G02X105235Y56393I-500J-748*
G01*
G75*
G02X103435I-900*
G01*
G75*
G02X103835Y57141I900*
G01*
Y59678*
X103346Y60166*
G75*
G02X103200Y60520I354J353*
G01*
Y97640*
Y125000D02*
Y126560D01*
G75*
G02X103346Y126914I500J0*
G01*
X119075Y142642*
Y147004*
G75*
G02Y149296I500J1146*
G01*
Y152084*
G75*
G02X118325Y153230I500J1146*
G01*
G75*
G02X120825I1250*
G01*
G75*
G02X120075Y152084I-1250*
G01*
Y149296*
G75*
G02Y147004I-500J-1146*
G01*
Y142435*
G75*
G02X119929Y142081I-500J0*
G01*
X104200Y126353*
Y125000*
G75*
G02X104800Y124020I-500J-980*
G01*
G75*
G02X102600I-1100*
G01*
G75*
G02X103200Y125000I1100*
G01*
X105140Y101160D02*
G75*
G02X107340I1100D01*
G01*
G75*
G02X105140I-1100*
G01*
Y121480D02*
G75*
G02X107340I1100D01*
G01*
G75*
G02X105140I-1100*
G01*
X105740Y60633D02*
Y97640D01*
G75*
G02X105140Y98620I500J980*
G01*
G75*
G02X107340I1100*
G01*
G75*
G02X106740Y97640I-1100*
G01*
Y60633*
G75*
G02X107140Y59885I-500J-748*
G01*
G75*
G02X105340I-900*
G01*
G75*
G02X105740Y60633I900*
G01*
Y125000D02*
Y126560D01*
G75*
G02X105886Y126914I500J0*
G01*
X121615Y142642*
Y147004*
G75*
G02Y149296I500J1146*
G01*
Y152084*
G75*
G02X120865Y153230I500J1146*
G01*
G75*
G02X123365I1250*
G01*
G75*
G02X122615Y152084I-1250*
G01*
Y149296*
G75*
G02Y147004I-500J-1146*
G01*
Y142435*
G75*
G02X122469Y142081I-500J0*
G01*
X106740Y126353*
Y125000*
G75*
G02X107340Y124020I-500J-980*
G01*
G75*
G02X105140I-1100*
G01*
G75*
G02X105740Y125000I1100*
G01*
X107105Y21150D02*
G75*
G02X104105I-1500D01*
G01*
G75*
G02X107105I1500*
G01*
X107205Y16150D02*
G75*
G02X104005I-1600D01*
G01*
G75*
G02X107205I1600*
G01*
X107680Y101160D02*
G75*
G02X109880I1100D01*
G01*
G75*
G02X107680I-1100*
G01*
Y121480D02*
G75*
G02X109880I1100D01*
G01*
G75*
G02X107680I-1100*
G01*
X108280Y57141D02*
Y97640D01*
G75*
G02X107680Y98620I500J980*
G01*
G75*
G02X109880I1100*
G01*
G75*
G02X109280Y97640I-1100*
G01*
Y57141*
G75*
G02X109680Y56393I-500J-748*
G01*
G75*
G02X107880I-900*
G01*
G75*
G02X108280Y57141I900*
G01*
Y125000D02*
Y127195D01*
G75*
G02X108426Y127549I500J0*
G01*
X124155Y143277*
Y147004*
G75*
G02Y149296I500J1146*
G01*
Y152084*
G75*
G02X123405Y153230I500J1146*
G01*
G75*
G02X125905I1250*
G01*
G75*
G02X125155Y152084I-1250*
G01*
Y149296*
G75*
G02Y147004I-500J-1146*
G01*
Y143070*
G75*
G02X125009Y142716I-500J0*
G01*
X109280Y126988*
Y125000*
G75*
G02X109880Y124020I-500J-980*
G01*
G75*
G02X107680I-1100*
G01*
G75*
G02X108280Y125000I1100*
G01*
X110220Y98620D02*
G75*
G02X112420I1100D01*
G01*
G75*
G02X110220I-1100*
G01*
Y121480D02*
G75*
G02X112420I1100D01*
G01*
G75*
G02X110220I-1100*
G01*
X112760Y98620D02*
G75*
G02X114960I1100D01*
G01*
G75*
G02X112760I-1100*
G01*
Y121480D02*
G75*
G02X114960I1100D01*
G01*
G75*
G02X112760I-1100*
G01*
X113056Y14150D02*
G75*
G02X110655I-1200D01*
G01*
G75*
G02X113056I1200*
G01*
Y23150D02*
G75*
G02X110655I-1200D01*
G01*
G75*
G02X113056I1200*
G01*
X113360Y125000D02*
Y127195D01*
G75*
G02X113514Y127556I500J0*
G01*
X129235Y142648*
Y147004*
G75*
G02Y149296I500J1146*
G01*
Y152084*
G75*
G02X128485Y153230I500J1146*
G01*
G75*
G02X130985I1250*
G01*
G75*
G02X130235Y152084I-1250*
G01*
Y149296*
G75*
G02Y147004I-500J-1146*
G01*
Y142435*
G75*
G02X130081Y142074I-500*
G01*
X114360Y126982*
Y125000*
G75*
G02X114960Y124020I-500J-980*
G01*
G75*
G02X112760I-1100*
G01*
G75*
G02X113360Y125000I1100*
G01*
X115300Y98620D02*
G75*
G02X117500I1100D01*
G01*
G75*
G02X115300I-1100*
G01*
Y101160D02*
G75*
G02X117500I1100D01*
G01*
G75*
G02X115300I-1100*
G01*
Y121480D02*
G75*
G02X117500I1100D01*
G01*
G75*
G02X115300I-1100*
G01*
X115900Y125000D02*
Y126560D01*
G75*
G02X116046Y126914I500J0*
G01*
X131775Y142642*
Y147004*
G75*
G02Y149296I500J1146*
G01*
Y152084*
G75*
G02X131025Y153230I500J1146*
G01*
G75*
G02X133525I1250*
G01*
G75*
G02X132775Y152084I-1250*
G01*
Y149296*
G75*
G02Y147004I-500J-1146*
G01*
Y142435*
G75*
G02X132629Y142081I-500J0*
G01*
X116900Y126353*
Y125000*
G75*
G02X117500Y124020I-500J-980*
G01*
G75*
G02X115300I-1100*
G01*
G75*
G02X115900Y125000I1100*
G01*
X117740Y98620D02*
G75*
G02X120140I1200D01*
G01*
G75*
G02X117740I-1200*
G01*
Y101160D02*
G75*
G02X120140I1200D01*
G01*
G75*
G02X117740I-1200*
G01*
X117840Y121480D02*
G75*
G02X120040I1100D01*
G01*
G75*
G02X117840I-1100*
G01*
X118440Y125000D02*
Y126560D01*
G75*
G02X118586Y126914I500J0*
G01*
X134315Y142642*
Y147004*
G75*
G02Y149296I500J1146*
G01*
Y152084*
G75*
G02X133565Y153230I500J1146*
G01*
G75*
G02X136065I1250*
G01*
G75*
G02X135315Y152084I-1250*
G01*
Y149296*
G75*
G02Y147004I-500J-1146*
G01*
Y142435*
G75*
G02X135169Y142081I-500J0*
G01*
X119440Y126353*
Y125000*
G75*
G02X120040Y124020I-500J-980*
G01*
G75*
G02X117840I-1100*
G01*
G75*
G02X118440Y125000I1100*
G01*
X118980Y104605D02*
G75*
G02Y106605J1000D01*
G01*
G75*
G02Y104605J-1000*
G01*
X119605Y21150D02*
G75*
G02X116605I-1500D01*
G01*
G75*
G02X119605I1500*
G01*
X119705Y16150D02*
G75*
G02X116505I-1600D01*
G01*
G75*
G02X119705I1600*
G01*
X120380Y98620D02*
G75*
G02X122580I1100D01*
G01*
G75*
G02X120380I-1100*
G01*
X120980Y122460D02*
Y123040D01*
G75*
G02Y125000I500J980*
G01*
Y126560*
G75*
G02X121126Y126914I500J0*
G01*
X136855Y142642*
Y147004*
G75*
G02Y149296I500J1146*
G01*
Y152084*
G75*
G02X136105Y153230I500J1146*
G01*
G75*
G02X138605I1250*
G01*
G75*
G02X137855Y152084I-1250*
G01*
Y149296*
G75*
G02Y147004I-500J-1146*
G01*
Y142435*
G75*
G02X137709Y142081I-500J0*
G01*
X121980Y126353*
Y125000*
G75*
G02Y123040I-500J-980*
G01*
Y122460*
G75*
G02X122580Y121480I-500J-980*
G01*
G75*
G02X120380I-1100*
G01*
G75*
G02X120980Y122460I1100*
G01*
X122035Y100210D02*
G75*
G02X120380Y101160I-555J950D01*
G01*
G75*
G02X122035Y102110I1100*
G01*
X123466*
G75*
G02X124970Y100606I555J-950*
G01*
Y99174*
G75*
G02X125120Y98620I-950J-555*
G01*
G75*
G02X122920I-1100*
G01*
G75*
G02X123070Y99174I1100*
G01*
Y100210*
X122035*
X123520Y122460D02*
Y123040D01*
G75*
G02X122920Y124020I500J980*
G01*
G75*
G02X125120I1100*
G01*
G75*
G02X124520Y123040I-1100*
G01*
Y122460*
G75*
G02X125120Y121480I-500J-980*
G01*
G75*
G02X122920I-1100*
G01*
G75*
G02X123520Y122460I1100*
G01*
X123700Y60900D02*
G75*
G02Y53900J-3500D01*
G01*
G75*
G02Y60900J3500*
G01*
Y89900D02*
G75*
G02Y82900J-3500D01*
G01*
G75*
G02Y89900J3500*
G01*
X125460Y98620D02*
G75*
G02X127660I1100D01*
G01*
G75*
G02X125460I-1100*
G01*
Y121480D02*
G75*
G02X127660I1100D01*
G01*
G75*
G02X125460I-1100*
G01*
Y124020D02*
G75*
G02X127660I1100D01*
G01*
G75*
G02X125460I-1100*
G01*
X127900Y101160D02*
G75*
G02X130300I1200D01*
G01*
G75*
G02X127900I-1200*
G01*
X128000Y98620D02*
G75*
G02X130200I1100D01*
G01*
G75*
G02X128000I-1100*
G01*
Y121480D02*
G75*
G02X130200I1100D01*
G01*
G75*
G02X128000I-1100*
G01*
Y124020D02*
G75*
G02X130200I1100D01*
G01*
G75*
G02X128000I-1100*
G01*
X130440Y98620D02*
G75*
G02X132840I1200D01*
G01*
G75*
G02X130440I-1200*
G01*
Y101160D02*
G75*
G02X132840I1200D01*
G01*
G75*
G02X130440I-1200*
G01*
X130540Y121480D02*
G75*
G02X132740I1100D01*
G01*
G75*
G02X130540I-1100*
G01*
Y124020D02*
G75*
G02X132740I1100D01*
G01*
G75*
G02X130540I-1100*
G01*
X133100Y14600D02*
G75*
G02Y7600J-3500D01*
G01*
G75*
G02Y14600J3500*
G01*
Y196600D02*
G75*
G02Y189600J-3500D01*
G01*
G75*
G02Y196600J3500*
G01*
X3763Y183710D02*
G36*
Y144600D01*
X8318*
G75*
G02X8358Y144883I1032J0*
G01*
X8329Y148101*
G75*
G02X9310Y150500I981J999*
G01*
G75*
G02X10523Y149799J-1400*
G01*
G75*
G02X13177I1327J-699*
G01*
G75*
G02X13386Y150075I1213J-699*
G01*
X13360Y151836*
G75*
G02X13650Y152550I990J14*
G01*
X25650Y164550*
G75*
G02X26350Y164840I700J-700*
G01*
X54190*
X57360Y168010*
Y169213*
G75*
G02X57010Y170100I950J887*
G01*
G75*
G02X59580Y170378I1300*
G01*
G75*
G02X59900Y170987I1270J-278*
G01*
Y173100*
G75*
G02X60178Y173772I950J0*
G01*
X65428Y179022*
G75*
G02X66100Y179300I672J-672*
G01*
X73697*
G75*
G02X73713Y179307I402J-947*
G01*
X74400Y179994*
Y183710*
X70680*
X65600*
X64144Y182254*
G75*
G02X63246Y181356I-1084J186*
G01*
X61604Y179714*
G75*
G02X60706Y178816I-1084J186*
G01*
X59064Y177174*
G75*
G02X58166Y176276I-1084J186*
G01*
X56524Y174634*
G75*
G02X55626Y173736I-1084J186*
G01*
X53984Y172094*
G75*
G02X53086Y171196I-1084J186*
G01*
X51444Y169554*
G75*
G02X50546Y168656I-1084J186*
G01*
X50360Y168470*
X7180*
X6994Y168656*
G75*
G02X6096Y169554I186J1084*
G01*
X5910Y169740*
Y182440*
X6096Y182626*
G75*
G02X6994Y183524I1084J-186*
G01*
X7000Y183530*
X7032*
G75*
G02X7328I148J-1090*
G01*
X9572*
G75*
G02X9868I148J-1090*
G01*
X12112*
G75*
G02X12408I148J-1090*
G01*
X14620*
X14800Y183710*
X3763*
G37*
X14800D02*
G36*
X16256Y185166D01*
G75*
G02X17154Y186064I1084J-186*
G01*
X18796Y187706*
G75*
G02X19694Y188604I1084J-186*
G01*
X21150Y190060*
Y193100*
X14600*
G75*
G02X11100Y189600I-3500*
G01*
G75*
G02X7600Y193100J3500*
G01*
X3763*
Y183710*
X14800*
G37*
X74400D02*
G36*
Y189947D01*
G75*
G02Y190753I950J403*
G01*
Y191697*
G75*
G02Y192503I950J403*
G01*
Y192947*
G75*
G02X74349Y193100I950J403*
G01*
X71950*
Y184980*
X71764Y184794*
G75*
G02X70866Y183896I-1084J186*
G01*
X70680Y183710*
X74400*
G37*
X76300D02*
G36*
Y179600D01*
G75*
G02X76022Y178928I-950J0*
G01*
X75057Y177963*
G75*
G02X75050Y177947I-954J386*
G01*
Y174681*
G75*
G02X77300Y174100I1050J-581*
G01*
G75*
G02X75050Y173519I-1200*
G01*
Y164681*
G75*
G02X77300Y164100I1050J-581*
G01*
G75*
G02X75050Y163519I-1200*
G01*
Y153600*
G75*
G02Y153597I-960J-2*
G01*
G75*
G02X75074Y153507I-1194J-366*
G01*
G75*
G02X77716I1321J-278*
G01*
G75*
G02X80185Y153230I1219J-278*
G01*
G75*
G02X79435Y152084I-1250*
G01*
Y149296*
G75*
G02X79475Y147023I-500J-1146*
G01*
Y144600*
X80975*
Y147004*
G75*
G02Y149296I500J1146*
G01*
Y152084*
G75*
G02X80225Y153230I500J1146*
G01*
G75*
G02X82725I1250*
G01*
G75*
G02X81975Y152084I-1250*
G01*
Y149296*
G75*
G02Y147004I-500J-1146*
G01*
Y144600*
X83515*
Y147004*
G75*
G02Y149296I500J1146*
G01*
Y152084*
G75*
G02X82765Y153230I500J1146*
G01*
G75*
G02X85265I1250*
G01*
G75*
G02X84515Y152084I-1250*
G01*
Y149296*
G75*
G02Y147004I-500J-1146*
G01*
Y144600*
X86055*
Y147004*
G75*
G02Y149296I500J1146*
G01*
Y152084*
G75*
G02X85305Y153230I500J1146*
G01*
G75*
G02X87774Y153507I1250*
G01*
G75*
G02X90416I1321J-278*
G01*
G75*
G02X92854I1219J-278*
G01*
G75*
G02X95445Y153688I1321J-278*
G01*
G75*
G02X98036Y153507I1270J-458*
G01*
G75*
G02X98681Y154341I1219J-277*
G01*
X98613Y155380*
X95643Y158350*
X87350*
G75*
G02X86996Y158496I0J500*
G01*
X84746Y160746*
G75*
G02X84600Y161100I354J353*
G01*
Y163120*
G75*
G02Y165080I500J980*
G01*
Y173120*
G75*
G02Y175080I500J980*
G01*
Y183120*
G75*
G02X84072Y183710I500J980*
G01*
X78344*
G75*
G02X77350Y182600I-994J-110*
G01*
G75*
G02X76356Y183710J1000*
G01*
X76300*
G37*
X76356D02*
G36*
G75*
G02X77350Y184600I994J-110D01*
G01*
G75*
G02X78344Y183710J-1000*
G01*
X84072*
G75*
G02X84600Y185080I1029J390*
G01*
Y193120*
G75*
G02X84120Y193600I500J980*
G01*
X83807*
X81706Y191499*
X80932Y190703*
G75*
G02X79890Y189250I-1042J-353*
G01*
G75*
G02Y191450J1100*
G01*
G75*
G02X80215Y191401I0J-1100*
G01*
X80992Y192199*
G75*
G02X80996Y192204I365J-346*
G01*
X83246Y194454*
G75*
G02X83600Y194600I353J-354*
G01*
X84120*
G75*
G02X84295Y194850I980J-500*
G01*
X83398*
G75*
G02X82883Y194810I-298J500*
G01*
X82074*
X80940Y193677*
G75*
G02X79890Y192250I-1050J-327*
G01*
G75*
G02Y194450J1100*
G01*
G75*
G02X80154Y194418I0J-1100*
G01*
X81386Y195650*
X77494*
X76300Y194457*
Y194000*
X76463*
G75*
G02X77350Y194450I887J-650*
G01*
G75*
G02Y192250J-1100*
G01*
G75*
G02X76463Y192700J1100*
G01*
X76300*
Y192503*
G75*
G02Y191697I-950J-403*
G01*
Y191000*
X76463*
G75*
G02X77350Y191450I887J-650*
G01*
G75*
G02Y189250J-1100*
G01*
G75*
G02X76463Y189700J1100*
G01*
X76300*
Y183710*
X76356*
G37*
X122235D02*
G36*
G75*
G02X120050Y183519I-1135J390D01*
G01*
Y174681*
G75*
G02X122300Y174100I1050J-581*
G01*
G75*
G02X120050Y173519I-1200*
G01*
Y164681*
G75*
G02X122300Y164100I1050J-581*
G01*
G75*
G02X120043Y163533I-1200*
G01*
G75*
G02X118100Y163642I-943J567*
G01*
G75*
G02X116100I-1000J458*
G01*
G75*
G02X115600Y163120I-1000J458*
G01*
Y158307*
X116557Y157350*
X126100*
G75*
G02X126454Y157204I0J-500*
G01*
X127454Y156204*
G75*
G02X127600Y155850I-354J-353*
G01*
Y154413*
G75*
G02X127695Y152084I-405J-1183*
G01*
Y149296*
G75*
G02Y147004I-500J-1146*
G01*
Y144600*
X129235*
Y147004*
G75*
G02Y149296I500J1146*
G01*
Y152084*
G75*
G02X128485Y153230I500J1146*
G01*
G75*
G02X130985I1250*
G01*
G75*
G02X130235Y152084I-1250*
G01*
Y149296*
G75*
G02Y147004I-500J-1146*
G01*
Y144600*
X131775*
Y147004*
G75*
G02Y149296I500J1146*
G01*
Y152084*
G75*
G02X131025Y153230I500J1146*
G01*
G75*
G02X133525I1250*
G01*
G75*
G02X132775Y152084I-1250*
G01*
Y149296*
G75*
G02Y147004I-500J-1146*
G01*
Y144600*
X134315*
Y147004*
G75*
G02Y149296I500J1146*
G01*
Y152084*
G75*
G02X133565Y153230I500J1146*
G01*
G75*
G02X136065I1250*
G01*
G75*
G02X135315Y152084I-1250*
G01*
Y149296*
G75*
G02Y147004I-500J-1146*
G01*
Y144600*
X136855*
Y147004*
G75*
G02Y149296I500J1146*
G01*
Y152084*
G75*
G02X136105Y153230I500J1146*
G01*
G75*
G02X138605I1250*
G01*
G75*
G02X137855Y152084I-1250*
G01*
Y149296*
G75*
G02Y147004I-500J-1146*
G01*
Y144600*
X140437*
Y183710*
X122235*
G37*
X140437D02*
G36*
Y193100D01*
X136600*
G75*
G02X133100Y189600I-3500*
G01*
G75*
G02X129600Y193100J3500*
G01*
X121763*
G75*
G02X120050Y193519I-663J1000*
G01*
Y184681*
G75*
G02X122300Y184100I1050J-581*
G01*
G75*
G02X122235Y183710I-1200J0*
G01*
X140437*
G37*
X3763Y129850D02*
G36*
Y124950D01*
X10350*
Y126350*
X15350*
Y124950*
X40970*
Y129850*
X22882*
G75*
G02X22030Y128834I-1032*
G01*
G75*
G02X22850Y127850I-180J-984*
G01*
G75*
G02X20850I-1000*
G01*
G75*
G02X21670Y128834I1000*
G01*
G75*
G02X21447Y128900I180J1016*
G01*
X17200*
Y127050*
X14400*
Y129850*
X11300*
Y127250*
X8300*
Y129850*
X3763*
G37*
X8300D02*
G36*
Y132450D01*
X11300*
Y129850*
X14400*
Y132650*
X17200*
Y130800*
X20900*
Y135150*
X9350*
G75*
G02X8400Y136100J950*
G01*
Y139572*
G75*
G02Y141628I950J1028*
G01*
Y143350*
X3763*
Y129850*
X8300*
G37*
X40970D02*
G36*
Y143350D01*
X35100*
G75*
G02X33100I-1000*
G01*
X25550*
Y141628*
G75*
G02Y139572I-950J-1028*
G01*
Y137050*
X26173*
G75*
G02X28330Y136378I887J-950*
G01*
G75*
G02X28650Y136987I1270J-278*
G01*
Y139572*
G75*
G02X28200Y140600I950J1028*
G01*
G75*
G02X31000I1400*
G01*
G75*
G02X30550Y139572I-1400*
G01*
Y136987*
G75*
G02X30900Y136100I-950J-887*
G01*
G75*
G02X28330Y135822I-1300*
G01*
G75*
G02X26173Y135150I-1270J278*
G01*
X25003*
G75*
G02X24197I-403J950*
G01*
X22800*
Y130253*
G75*
G02X22882Y129850I-950J-403*
G01*
X40970*
G37*
X41970D02*
G36*
Y124950D01*
X42240*
Y129850*
X41970*
G37*
X42240D02*
G36*
Y139895D01*
G75*
G02X42386Y140249I500J0*
G01*
X43510Y141372*
Y143350*
X41970*
Y129850*
X42240*
G37*
X43240D02*
G36*
Y124950D01*
X43510*
Y129850*
X43240*
G37*
X43510D02*
G36*
Y138625D01*
G75*
G02X43656Y138979I500J0*
G01*
X46050Y141372*
Y143350*
X44510*
Y141165*
G75*
G02X44364Y140811I-500J0*
G01*
X43240Y139688*
Y129850*
X43510*
G37*
X44510D02*
G36*
Y124950D01*
X44780*
Y129850*
X44510*
G37*
X44780D02*
G36*
Y137355D01*
G75*
G02X44926Y137709I500J0*
G01*
X48590Y141372*
Y143350*
X47050*
Y141165*
G75*
G02X46904Y140811I-500J0*
G01*
X44510Y138418*
Y129850*
X44780*
G37*
X45780D02*
G36*
Y124950D01*
X46050*
Y129850*
X45780*
G37*
X46050D02*
G36*
Y136085D01*
G75*
G02X46196Y136439I500J0*
G01*
X51130Y141372*
Y143350*
X49590*
Y141165*
G75*
G02X49444Y140811I-500J0*
G01*
X45780Y137148*
Y129850*
X46050*
G37*
X47050D02*
G36*
Y124950D01*
X47320*
Y129850*
X47050*
G37*
X47320D02*
G36*
Y134815D01*
G75*
G02X47466Y135169I500J0*
G01*
X53670Y141372*
Y143350*
X52130*
Y141165*
G75*
G02X51984Y140811I-500J0*
G01*
X47050Y135878*
Y129850*
X47320*
G37*
X48320D02*
G36*
Y124950D01*
X48590*
Y129850*
X48320*
G37*
X48590D02*
G36*
Y133545D01*
G75*
G02X48736Y133899I500J0*
G01*
X56210Y141372*
Y143350*
X54670*
Y141165*
G75*
G02X54524Y140811I-500J0*
G01*
X48320Y134608*
Y129850*
X48590*
G37*
X49590D02*
G36*
Y124950D01*
X49860*
Y129850*
X49590*
G37*
X49860D02*
G36*
Y132275D01*
G75*
G02X50006Y132629I500J0*
G01*
X58750Y141372*
Y143350*
X57210*
Y141165*
G75*
G02X57064Y140811I-500J0*
G01*
X49590Y133338*
Y129850*
X49860*
G37*
X50860D02*
G36*
Y124950D01*
X51130*
Y129850*
X50860*
G37*
X51130D02*
G36*
Y131005D01*
G75*
G02X51276Y131359I500J0*
G01*
X61290Y141372*
Y143350*
X59750*
Y141165*
G75*
G02X59604Y140811I-500J0*
G01*
X50860Y132068*
Y129850*
X51130*
G37*
X52130D02*
G36*
Y124950D01*
X52400*
Y129735*
G75*
G02X52413Y129850I500*
G01*
X52130*
G37*
X52413D02*
G36*
G75*
G02X52546Y130089I487J-115D01*
G01*
X63830Y141372*
Y143350*
X62290*
Y141165*
G75*
G02X62144Y140811I-500J0*
G01*
X52130Y130798*
Y129850*
X52413*
G37*
X67050D02*
G36*
X64929Y127740D01*
X63600Y126344*
Y124978*
G75*
G02X63647Y124950I-540J-958*
G01*
X65013*
G75*
G02X65100Y125000I587J-930*
G01*
Y126560*
G75*
G02X65246Y126914I500J0*
G01*
X68183Y129850*
X67050*
G37*
X68183D02*
G36*
X80975Y142642D01*
Y143350*
X79475*
Y142435*
G75*
G02X79316Y142052I-540J0*
G01*
X67050Y129850*
X68183*
G37*
X69597D02*
G36*
X66100Y126353D01*
Y125000*
G75*
G02X66188Y124950I-500J-980*
G01*
X67553*
G75*
G02X67640Y125000I587J-930*
G01*
Y126560*
G75*
G02X67786Y126914I500J0*
G01*
X70723Y129850*
X69597*
G37*
X70723D02*
G36*
X83515Y142642D01*
Y143350*
X81975*
Y142435*
G75*
G02X81829Y142081I-500J0*
G01*
X69597Y129850*
X70723*
G37*
X72137D02*
G36*
X68640Y126353D01*
Y125000*
G75*
G02X68728Y124950I-500J-980*
G01*
X70093*
G75*
G02X70180Y125000I587J-930*
G01*
Y126560*
G75*
G02X70326Y126914I500J0*
G01*
X73263Y129850*
X72137*
G37*
X73263D02*
G36*
X86055Y142642D01*
Y143350*
X84515*
Y142435*
G75*
G02X84369Y142081I-500J0*
G01*
X72137Y129850*
X73263*
G37*
X93092D02*
G36*
X91500Y128258D01*
Y125000*
G75*
G02X91588Y124950I-500J-980*
G01*
X92953*
G75*
G02X93040Y125000I587J-930*
G01*
Y127830*
G75*
G02X93186Y128184I500J0*
G01*
X94853Y129850*
X93092*
G37*
X94853D02*
G36*
X108353Y143350D01*
X106592*
X93092Y129850*
X94853*
G37*
X96267D02*
G36*
X94040Y127623D01*
Y125000*
G75*
G02X94128Y124950I-500J-980*
G01*
X95493*
G75*
G02X95580Y125000I587J-930*
G01*
Y126560*
G75*
G02X95720Y126907I500*
G01*
X98550Y129850*
X96267*
G37*
X98550D02*
G36*
X111455Y143271D01*
Y143350*
X109767*
X96267Y129850*
X98550*
G37*
X99937D02*
G36*
X96580Y126359D01*
Y125000*
G75*
G02X96668Y124950I-500J-980*
G01*
X98033*
G75*
G02X98120Y125000I587J-930*
G01*
Y126560*
G75*
G02X98266Y126914I500J0*
G01*
X101203Y129850*
X99937*
G37*
X101203D02*
G36*
X113995Y142642D01*
Y143350*
X112455*
Y143070*
G75*
G02X112315Y142724I-500J0*
G01*
X99937Y129850*
X101203*
G37*
X102617D02*
G36*
X99120Y126353D01*
Y125000*
G75*
G02X99208Y124950I-500J-980*
G01*
X100573*
G75*
G02X100660Y125000I587J-930*
G01*
Y126560*
G75*
G02X100806Y126914I500J0*
G01*
X103743Y129850*
X102617*
G37*
X103743D02*
G36*
X116535Y142642D01*
Y143350*
X114995*
Y142435*
G75*
G02X114849Y142081I-500J0*
G01*
X102617Y129850*
X103743*
G37*
X105157D02*
G36*
X101660Y126353D01*
Y125000*
G75*
G02X101748Y124950I-500J-980*
G01*
X103113*
G75*
G02X103200Y125000I587J-930*
G01*
Y126560*
G75*
G02X103346Y126914I500J0*
G01*
X106283Y129850*
X105157*
G37*
X106283D02*
G36*
X119075Y142642D01*
Y143350*
X117535*
Y142435*
G75*
G02X117389Y142081I-500J0*
G01*
X105157Y129850*
X106283*
G37*
X107697D02*
G36*
X104200Y126353D01*
Y125000*
G75*
G02X104288Y124950I-500J-980*
G01*
X105653*
G75*
G02X105740Y125000I587J-930*
G01*
Y126560*
G75*
G02X105886Y126914I500J0*
G01*
X108823Y129850*
X107697*
G37*
X108823D02*
G36*
X121615Y142642D01*
Y143350*
X120075*
Y142435*
G75*
G02X119929Y142081I-500J0*
G01*
X107697Y129850*
X108823*
G37*
X110237D02*
G36*
X106740Y126353D01*
Y125000*
G75*
G02X106828Y124950I-500J-980*
G01*
X108193*
G75*
G02X108280Y125000I587J-930*
G01*
Y127195*
G75*
G02X108426Y127549I500J0*
G01*
X110728Y129850*
X110237*
G37*
X110728D02*
G36*
X124155Y143277D01*
Y143350*
X122615*
Y142435*
G75*
G02X122469Y142081I-500J0*
G01*
X110237Y129850*
X110728*
G37*
X112142D02*
G36*
X109280Y126988D01*
Y125000*
G75*
G02X109368Y124950I-500J-980*
G01*
X110733*
G75*
G02X110820Y125000I587J-930*
G01*
Y127830*
G75*
G02X110974Y128191I500*
G01*
X112702Y129850*
X112142*
G37*
X112702D02*
G36*
X126695Y143283D01*
Y143350*
X125155*
Y143070*
G75*
G02X125009Y142716I-500J0*
G01*
X112142Y129850*
X112702*
G37*
X114146D02*
G36*
X111820Y127617D01*
Y125000*
G75*
G02X111908Y124950I-500J-980*
G01*
X113273*
G75*
G02X113360Y125000I587J-930*
G01*
Y127195*
G75*
G02X113514Y127556I500J0*
G01*
X115904Y129850*
X114146*
G37*
X115904D02*
G36*
X129235Y142648D01*
Y143350*
X127695*
Y143070*
G75*
G02X127541Y142709I-500*
G01*
X114146Y129850*
X115904*
G37*
X117348D02*
G36*
X114360Y126982D01*
Y125000*
G75*
G02X114448Y124950I-500J-980*
G01*
X115813*
G75*
G02X115900Y125000I587J-930*
G01*
Y126560*
G75*
G02X116046Y126914I500J0*
G01*
X118983Y129850*
X117348*
G37*
X118983D02*
G36*
X131775Y142642D01*
Y143350*
X130235*
Y142435*
G75*
G02X130081Y142074I-500*
G01*
X117348Y129850*
X118983*
G37*
X120397D02*
G36*
X116900Y126353D01*
Y125000*
G75*
G02X116988Y124950I-500J-980*
G01*
X118353*
G75*
G02X118440Y125000I587J-930*
G01*
Y126560*
G75*
G02X118586Y126914I500J0*
G01*
X121523Y129850*
X120397*
G37*
X121523D02*
G36*
X134315Y142642D01*
Y143350*
X132775*
Y142435*
G75*
G02X132629Y142081I-500J0*
G01*
X120397Y129850*
X121523*
G37*
X122937D02*
G36*
X119440Y126353D01*
Y125000*
G75*
G02X119528Y124950I-500J-980*
G01*
X120893*
G75*
G02X120980Y125000I588J-930*
G01*
Y126560*
G75*
G02X121126Y126914I500J0*
G01*
X124063Y129850*
X122937*
G37*
X124063D02*
G36*
X136855Y142642D01*
Y143350*
X135315*
Y142435*
G75*
G02X135169Y142081I-500J0*
G01*
X122937Y129850*
X124063*
G37*
X125477D02*
G36*
X121980Y126353D01*
Y125000*
G75*
G02X122068Y124950I-500J-980*
G01*
X123433*
G75*
G02X124608I588J-930*
G01*
X125973*
G75*
G02X127148I588J-930*
G01*
X128513*
G75*
G02X129688I588J-930*
G01*
X131053*
G75*
G02X132227I588J-930*
G01*
X140437*
Y129850*
X125477*
G37*
X140437D02*
G36*
Y143350D01*
X137855*
Y142435*
G75*
G02X137709Y142081I-500J0*
G01*
X125477Y129850*
X140437*
G37*
X3763Y11100D02*
G36*
Y5437D01*
X5437Y3763*
X138779*
X140437Y5422*
Y11100*
X136600*
G75*
G02X133100Y7600I-3500*
G01*
G75*
G02X129600Y11100J3500*
G01*
X47511*
G75*
G02X45135Y8963I-1245J-1006*
G01*
G75*
G02X45022Y11100I1131J1131*
G01*
X14600*
G75*
G02X11100Y7600I-3500*
G01*
G75*
G02X7600Y11100J3500*
G01*
X3763*
G37*
X7600D02*
G36*
G75*
G02X8682Y13630I3500D01*
G01*
X3763*
Y11100*
X7600*
G37*
X45022D02*
G36*
G75*
G02X47398Y11226I1245J-1006D01*
G01*
G75*
G02X47511Y11100I-1132J-1131*
G01*
X129600*
G75*
G02X130682Y13630I3500*
G01*
X112937*
G75*
G02X110773I-1082J520*
G01*
X91982*
G75*
G02X89818I-1082J520*
G01*
X53177*
G75*
G02X51251Y12251I-1077J-530*
G01*
G75*
G02X51023Y13630I849J849*
G01*
X44231*
G75*
G02X41670Y12569I-1500*
G01*
G75*
G02X41231Y13630I1061J1061*
G01*
X13519*
G75*
G02X14600Y11100I-2419J-2530*
G01*
X45022*
G37*
X140437D02*
G36*
Y13630D01*
X135519*
G75*
G02X136600Y11100I-2419J-2530*
G01*
X140437*
G37*
X7600Y193100D02*
G36*
G75*
G02X11100Y196600I3500D01*
G01*
G75*
G02X14600Y193100J-3500*
G01*
X21150*
Y197680*
X21336Y197866*
G75*
G02X22234Y198764I1084J-186*
G01*
X22420Y198950*
X70680*
X70866Y198764*
G75*
G02X71764Y197866I-186J-1084*
G01*
X71950Y197680*
Y193100*
X74349*
G75*
G02X74400Y193753I1001J250*
G01*
Y194850*
G75*
G02X74678Y195522I950J0*
G01*
X76428Y197272*
G75*
G02X77100Y197550I672J-672*
G01*
X88697*
G75*
G02X89503I403J-950*
G01*
X103697*
G75*
G02X104503I403J-950*
G01*
X118350*
G75*
G02X119022Y197272I0J-950*
G01*
X119772Y196522*
G75*
G02X120050Y195850I-672J-672*
G01*
Y194681*
G75*
G02X122300Y194100I1050J-581*
G01*
G75*
G02X121763Y193100I-1200*
G01*
X129600*
G75*
G02X133100Y196600I3500*
G01*
G75*
G02X136600Y193100J-3500*
G01*
X140437*
Y198764*
X138764Y200437*
X5437*
X3763Y198764*
Y193100*
X7600*
G37*
X3763Y58530D02*
G36*
Y45915D01*
X14800*
X15606Y46721*
G75*
G02X16090Y48500I464J829*
G01*
X17947*
X19558Y50112*
G75*
G02X19565Y50128I954J-386*
G01*
Y58530*
X19045*
G75*
G02X15700Y54000I-3345J-1030*
G01*
G75*
G02X12355Y58530J3500*
G01*
X3763*
G37*
X12355D02*
G36*
G75*
G02X15700Y61000I3345J-1030D01*
G01*
G75*
G02X19045Y58530J-3500*
G01*
X19565*
Y59492*
X17582Y61475*
X16070*
G75*
G02X15398Y61753I0J950*
G01*
X13885Y63266*
G75*
G02X14351Y65414I280J1064*
G01*
X14165Y65600*
Y65770*
G75*
G02Y67970J1100*
G01*
Y68310*
G75*
G02Y70510J1100*
G01*
G75*
G02X15085Y70013J-1100*
G01*
X16070Y70998*
X16155*
G75*
G02X15605Y71950I550J953*
G01*
X15265*
G75*
G02X14165Y70850I-1100*
G01*
G75*
G02X13065Y71950J1100*
G01*
X3763*
Y58530*
X12355*
G37*
X29905D02*
G36*
Y49395D01*
G75*
G02X29405Y47315I-500J-980*
G01*
G75*
G02X28905Y49395J1100*
G01*
Y61583*
X23483Y67005*
X17797*
G75*
G02X17308Y65950I-1092J-135*
G01*
X17658Y65600*
X19245*
X23690Y61155*
Y50995*
X24325Y50360*
Y48455*
X21785Y45915*
X25278*
Y46868*
X25913Y47503*
X27818*
X28453Y46868*
Y45915*
X30805*
G75*
G02X31905Y47015I1100*
G01*
G75*
G02X33005Y45915J-1100*
G01*
X50033*
G75*
G02X52701Y46601I1537J-446*
G01*
G75*
G02X53106Y45915I-1131J-1131*
G01*
X64330*
Y58530*
X29905*
G37*
X64330D02*
G36*
Y67505D01*
X60020Y71950*
X17805*
G75*
G02X17255Y70998I-1100*
G01*
X17340*
X18293Y70045*
Y68775*
X17523Y68005*
X23690*
G75*
G02X24044Y67859I0J-500*
G01*
X29759Y62144*
G75*
G02X29905Y61790I-354J-353*
G01*
Y58530*
X64330*
G37*
X88460D02*
G36*
Y45915D01*
X95350*
Y58530*
X88460*
G37*
X95350D02*
G36*
Y61100D01*
X91350Y65100*
X90100*
X89350Y65850*
Y67100*
X90350Y68100*
X91350*
X92100Y67350*
Y66350*
X96850Y61600*
Y58530*
X97560*
Y66627*
X92248Y71950*
X80205*
X88460Y63695*
Y58530*
X95350*
G37*
X96850D02*
G36*
Y45915D01*
X100089*
G75*
G02X100132Y46054I1261J-315*
G01*
X97718Y48468*
G75*
G02X97560Y48850I382J382*
G01*
Y58530*
X96850*
G37*
X98640D02*
G36*
Y49074D01*
X100896Y46818*
G75*
G02X101350Y46900I454J-1218*
G01*
G75*
G02X102611Y45915J-1300*
G01*
X140437*
Y58530*
X127013*
G75*
G02X123700Y53900I-3313J-1130*
G01*
G75*
G02X120387Y58530J3500*
G01*
X109280*
Y57141*
G75*
G02X109680Y56393I-500J-748*
G01*
G75*
G02X107880I-900*
G01*
G75*
G02X108280Y57141I900*
G01*
Y58530*
X104835*
Y57141*
G75*
G02X105235Y56393I-500J-748*
G01*
G75*
G02X103435I-900*
G01*
G75*
G02X103835Y57141I900*
G01*
Y58530*
X98640*
G37*
X103835D02*
G36*
Y59678D01*
X103346Y60166*
G75*
G02X103200Y60520I354J353*
G01*
Y71950*
X101660*
Y60633*
G75*
G02X102060Y59885I-500J-748*
G01*
G75*
G02X100260I-900*
G01*
G75*
G02X100660Y60633I900*
G01*
Y71950*
X93774*
X98482Y67231*
G75*
G02X98640Y66850I-382J-381*
G01*
Y58530*
X103835*
G37*
X108280D02*
G36*
Y71950D01*
X106740*
Y60633*
G75*
G02X107140Y59885I-500J-748*
G01*
G75*
G02X105340I-900*
G01*
G75*
G02X105740Y60633I900*
G01*
Y71950*
X104200*
Y60727*
X104689Y60239*
G75*
G02X104835Y59885I-354J-353*
G01*
Y58530*
X108280*
G37*
X120387D02*
G36*
G75*
G02X123700Y60900I3313J-1130D01*
G01*
G75*
G02X127013Y58530J-3500*
G01*
X140437*
Y71950*
X109280*
Y58530*
X120387*
G37*
X13065Y71950D02*
G36*
G75*
G02X14165Y73050I1100D01*
G01*
G75*
G02X15265Y71950J-1100*
G01*
X15605*
G75*
G02X16705Y73050I1100*
G01*
G75*
G02X17805Y71950J-1100*
G01*
X60020*
X57557Y74490*
X17805*
G75*
G02X16705Y73390I-1100*
G01*
G75*
G02X15605Y74490J1100*
G01*
X15265*
G75*
G02X14165Y73390I-1100*
G01*
G75*
G02X13065Y74490J1100*
G01*
X3763*
Y71950*
X13065*
G37*
X92248D02*
G36*
X89714Y74490D01*
X84414*
G75*
G02X82776Y73026I-860J-686*
G01*
G75*
G02X82694Y74490I778J778*
G01*
X77665*
X80205Y71950*
X92248*
G37*
X100660D02*
G36*
Y74490D01*
X99120*
Y73651*
G75*
G02X99520Y72903I-500J-748*
G01*
G75*
G02X97720I-900*
G01*
G75*
G02X98120Y73651I900*
G01*
Y74490*
X96980*
G75*
G02X95180I-900*
G01*
X91240*
X93774Y71950*
X100660*
G37*
X103200D02*
G36*
Y74490D01*
X101660*
Y71950*
X103200*
G37*
X105740D02*
G36*
Y74490D01*
X104200*
Y71950*
X105740*
G37*
X108280D02*
G36*
Y74490D01*
X106740*
Y71950*
X108280*
G37*
X140437D02*
G36*
Y74490D01*
X109280*
Y71950*
X140437*
G37*
X13065Y74490D02*
G36*
G75*
G02X14165Y75590I1100D01*
G01*
G75*
G02X15265Y74490J-1100*
G01*
X15605*
G75*
G02X16705Y75590I1100*
G01*
G75*
G02X17805Y74490J-1100*
G01*
X57557*
X55094Y77030*
X17805*
G75*
G02X16705Y75930I-1100*
G01*
G75*
G02X15605Y77030J1100*
G01*
X15265*
G75*
G02X14165Y75930I-1100*
G01*
G75*
G02X13065Y77030J1100*
G01*
X3763*
Y74490*
X13065*
G37*
X82694D02*
G36*
G75*
G02X83060Y74787I860J-686D01*
G01*
Y77030*
X75125*
X77665Y74490*
X82694*
G37*
X89714D02*
G36*
X89367Y74837D01*
G75*
G02X88210Y75092I-379J1033*
G01*
G75*
G02X89766Y76647I778J778*
G01*
G75*
G02X90069Y75663I-778J-778*
G01*
X91240Y74490*
X95180*
G75*
G02X95580Y75238I900*
G01*
Y77030*
X84140*
Y74735*
G75*
G02X84332Y74582I-586J-931*
G01*
G75*
G02X84414Y74490I-778J-778*
G01*
X89714*
G37*
X98120D02*
G36*
Y77030D01*
X96580*
Y75238*
G75*
G02X96980Y74490I-500J-748*
G01*
X98120*
G37*
X100660D02*
G36*
Y77030D01*
X99120*
Y74490*
X100660*
G37*
X103200D02*
G36*
Y77030D01*
X101660*
Y74490*
X103200*
G37*
X105740D02*
G36*
Y77030D01*
X104200*
Y74490*
X105740*
G37*
X108280D02*
G36*
Y77030D01*
X106740*
Y74490*
X108280*
G37*
X140437D02*
G36*
Y77030D01*
X109280*
Y74490*
X140437*
G37*
X13065Y77030D02*
G36*
G75*
G02X14165Y78130I1100D01*
G01*
G75*
G02X15265Y77030J-1100*
G01*
X15605*
G75*
G02X16705Y78130I1100*
G01*
G75*
G02X17805Y77030J-1100*
G01*
X55094*
X54170Y77983*
Y79570*
X49050*
Y79155*
G75*
G02X49200Y78600I-950J-555*
G01*
G75*
G02X47000I-1100*
G01*
G75*
G02X47150Y79155I1100*
G01*
Y79570*
X38619*
G75*
G02X39200Y78600I-519J-970*
G01*
G75*
G02X37000I-1100*
G01*
G75*
G02X37581Y79570I1100*
G01*
X17805*
G75*
G02X16705Y78470I-1100*
G01*
G75*
G02X15605Y79570J1100*
G01*
X15265*
G75*
G02X14165Y78470I-1100*
G01*
G75*
G02X13065Y79570J1100*
G01*
X3763*
Y77030*
X13065*
G37*
X83060D02*
G36*
Y79570D01*
X72585*
X75125Y77030*
X83060*
G37*
X95580D02*
G36*
Y79570D01*
X84140*
Y77030*
X95580*
G37*
X98120D02*
G36*
Y79570D01*
X96580*
Y77030*
X98120*
G37*
X100660D02*
G36*
Y79570D01*
X99120*
Y77030*
X100660*
G37*
X103200D02*
G36*
Y79570D01*
X101660*
Y77030*
X103200*
G37*
X105740D02*
G36*
Y79570D01*
X104200*
Y77030*
X105740*
G37*
X108280D02*
G36*
Y79570D01*
X106740*
Y77030*
X108280*
G37*
X140437D02*
G36*
Y79570D01*
X109280*
Y77030*
X140437*
G37*
X13065Y79570D02*
G36*
G75*
G02X14165Y80670I1100D01*
G01*
G75*
G02X15265Y79570J-1100*
G01*
X15605*
G75*
G02X16705Y80670I1100*
G01*
G75*
G02X17805Y79570J-1100*
G01*
X37581*
G75*
G02X38619I519J-970*
G01*
X47150*
Y81296*
G75*
G02X47000Y81850I950J555*
G01*
X39200*
G75*
G02X37000I-1100*
G01*
X3763*
Y79570*
X13065*
G37*
X54170D02*
G36*
Y81850D01*
X49200*
G75*
G02X49050Y81296I-1100*
G01*
Y79570*
X54170*
G37*
X83060D02*
G36*
Y81850D01*
X70305*
X72585Y79570*
X83060*
G37*
X95580D02*
G36*
Y81850D01*
X84140*
Y79570*
X95580*
G37*
X98120D02*
G36*
Y81850D01*
X96580*
Y79570*
X98120*
G37*
X100660D02*
G36*
Y81850D01*
X99120*
Y79570*
X100660*
G37*
X103200D02*
G36*
Y81850D01*
X101660*
Y79570*
X103200*
G37*
X105740D02*
G36*
Y81850D01*
X104200*
Y79570*
X105740*
G37*
X108280D02*
G36*
Y81850D01*
X106740*
Y79570*
X108280*
G37*
X140437D02*
G36*
Y81850D01*
X109280*
Y79570*
X140437*
G37*
X3763Y124950D02*
G36*
Y121480D01*
X40970*
Y124950*
X15350*
Y123550*
X10350*
Y124950*
X3763*
G37*
X41970D02*
G36*
Y121480D01*
X42240*
Y124950*
X41970*
G37*
X43240D02*
G36*
Y121480D01*
X43510*
Y124950*
X43240*
G37*
X44510D02*
G36*
Y121480D01*
X44780*
Y124950*
X44510*
G37*
X45780D02*
G36*
Y121480D01*
X46050*
Y124950*
X45780*
G37*
X47050D02*
G36*
Y121480D01*
X47320*
Y124950*
X47050*
G37*
X48320D02*
G36*
Y121480D01*
X48590*
Y124950*
X48320*
G37*
X49590D02*
G36*
Y121480D01*
X49860*
Y124950*
X49590*
G37*
X50860D02*
G36*
Y121480D01*
X51130*
Y124950*
X50860*
G37*
X52130D02*
G36*
Y121480D01*
X52400*
Y124950*
X52130*
G37*
X58930D02*
G36*
Y124574D01*
G75*
G02X59080Y124020I-950J-555*
G01*
G75*
G02X56880I-1100*
G01*
G75*
G02X57030Y124574I1100*
G01*
Y127195*
G75*
G02X57308Y127867I950J0*
G01*
X72905Y143464*
Y147338*
G75*
G02Y148962I950J812*
G01*
Y152418*
G75*
G02X73150Y154262I950J812*
G01*
Y163546*
G75*
G02X73100Y163642I949J555*
G01*
G75*
G02X71100I-1000J458*
G01*
G75*
G02X69000Y164100I-1000J458*
G01*
G75*
G02X69600Y165080I1100*
G01*
Y167100*
G75*
G02X69746Y167454I500J0*
G01*
X71600Y169307*
Y173120*
G75*
G02X71100Y173642I500J980*
G01*
G75*
G02X69000Y174100I-1000J458*
G01*
G75*
G02X71100Y174558I1100*
G01*
G75*
G02X73100I1000J-458*
G01*
G75*
G02X73150Y174655I999J-458*
G01*
Y177400*
X66494*
X61800Y172707*
Y170987*
G75*
G02X62120Y170378I-950J-887*
G01*
G75*
G02X64690Y170100I1270J-278*
G01*
G75*
G02X64340Y169213I-1300*
G01*
Y166100*
G75*
G02X64050Y165400I-990J0*
G01*
X60840Y162190*
Y160800*
X66100*
G75*
G02X66772Y160522I0J-950*
G01*
X70022Y157272*
G75*
G02X70300Y156600I-672J-672*
G01*
Y154108*
G75*
G02X70360Y152418I-890J-878*
G01*
Y148962*
G75*
G02Y147338I-950J-812*
G01*
Y142435*
G75*
G02X70082Y141763I-950J0*
G01*
X56390Y128072*
Y121480*
X56880*
G75*
G02X59080I1100*
G01*
X59320*
G75*
G02X61720I1200*
G01*
X61960*
G75*
G02X64160I1100*
G01*
X64500*
G75*
G02X66700I1100*
G01*
X67040*
G75*
G02X69240I1100*
G01*
X69580*
G75*
G02X71780I1100*
G01*
X72120*
G75*
G02X74320I1100*
G01*
X74660*
G75*
G02X76860I1100*
G01*
X77200*
G75*
G02X79400I1100*
G01*
X79740*
G75*
G02X81940I1100*
G01*
X82280*
G75*
G02X84480I1100*
G01*
X84820*
G75*
G02X87020I1100*
G01*
X87360*
G75*
G02X89560I1100*
G01*
X89900*
G75*
G02X92100I1100*
G01*
X92440*
G75*
G02X94640I1100*
G01*
X94980*
G75*
G02X97180I1100*
G01*
X97520*
G75*
G02X99720I1100*
G01*
X100060*
G75*
G02X102260I1100*
G01*
X102600*
G75*
G02X104800I1100*
G01*
X105140*
G75*
G02X107340I1100*
G01*
X107680*
G75*
G02X109880I1100*
G01*
X110220*
G75*
G02X112420I1100*
G01*
X112760*
G75*
G02X114960I1100*
G01*
X115300*
G75*
G02X117500I1100*
G01*
X117840*
G75*
G02X120040I1100*
G01*
X120380*
G75*
G02X120980Y122460I1100*
G01*
Y123040*
G75*
G02X120893Y124950I500J980*
G01*
X119528*
G75*
G02X120040Y124020I-588J-930*
G01*
G75*
G02X117840I-1100*
G01*
G75*
G02X118353Y124950I1100*
G01*
X116988*
G75*
G02X117500Y124020I-588J-930*
G01*
G75*
G02X115300I-1100*
G01*
G75*
G02X115813Y124950I1100*
G01*
X114448*
G75*
G02X114960Y124020I-588J-930*
G01*
G75*
G02X112760I-1100*
G01*
G75*
G02X113273Y124950I1100*
G01*
X111908*
G75*
G02X112420Y124020I-588J-930*
G01*
G75*
G02X110220I-1100*
G01*
G75*
G02X110733Y124950I1100*
G01*
X109368*
G75*
G02X109880Y124020I-588J-930*
G01*
G75*
G02X107680I-1100*
G01*
G75*
G02X108193Y124950I1100*
G01*
X106828*
G75*
G02X107340Y124020I-588J-930*
G01*
G75*
G02X105140I-1100*
G01*
G75*
G02X105653Y124950I1100*
G01*
X104288*
G75*
G02X104800Y124020I-588J-930*
G01*
G75*
G02X102600I-1100*
G01*
G75*
G02X103113Y124950I1100*
G01*
X101748*
G75*
G02X102260Y124020I-588J-930*
G01*
G75*
G02X100060I-1100*
G01*
G75*
G02X100573Y124950I1100*
G01*
X99208*
G75*
G02X99720Y124020I-588J-930*
G01*
G75*
G02X97520I-1100*
G01*
G75*
G02X98033Y124950I1100*
G01*
X96668*
G75*
G02X97180Y124020I-588J-930*
G01*
G75*
G02X94980I-1100*
G01*
G75*
G02X95493Y124950I1100*
G01*
X94128*
G75*
G02X94640Y124020I-588J-930*
G01*
G75*
G02X92440I-1100*
G01*
G75*
G02X92953Y124950I1100*
G01*
X91588*
G75*
G02X92100Y124020I-588J-930*
G01*
G75*
G02X89900I-1100*
G01*
G75*
G02X90500Y125000I1100*
G01*
Y128465*
G75*
G02X90646Y128819I500J0*
G01*
X106375Y144547*
Y147004*
G75*
G02Y149296I500J1146*
G01*
Y152084*
G75*
G02X106335Y154357I500J1146*
G01*
Y155626*
X101719Y160217*
G75*
G02X101560Y160600I381J383*
G01*
Y163142*
G75*
G02X101100Y163642I540J958*
G01*
G75*
G02X100640Y163142I-1000J458*
G01*
Y160074*
X104732Y155982*
G75*
G02X104890Y155600I-382J-382*
G01*
Y154350*
G75*
G02X104835Y152084I-555J-1120*
G01*
Y149296*
G75*
G02Y147004I-500J-1146*
G01*
Y144340*
G75*
G02X104689Y143986I-500J0*
G01*
X88960Y128258*
Y125000*
G75*
G02X89560Y124020I-500J-980*
G01*
G75*
G02X87360I-1100*
G01*
G75*
G02X87960Y125000I1100*
G01*
Y128465*
G75*
G02X88106Y128819I500J0*
G01*
X103835Y144547*
Y147004*
G75*
G02Y149296I500J1146*
G01*
Y152084*
G75*
G02X103810Y154364I500J1146*
G01*
Y155376*
X99718Y159468*
G75*
G02X99560Y159850I382J382*
G01*
Y163142*
G75*
G02X99000Y164100I540J958*
G01*
G75*
G02X101100Y164558I1100*
G01*
G75*
G02X103100I1000J-458*
G01*
G75*
G02X103150Y164655I999J-458*
G01*
Y173546*
G75*
G02X103100Y173642I949J555*
G01*
G75*
G02X101100I-1000J458*
G01*
G75*
G02X99000Y174100I-1000J458*
G01*
G75*
G02X101100Y174558I1100*
G01*
G75*
G02X103100I1000J-458*
G01*
G75*
G02X103150Y174655I999J-458*
G01*
Y195650*
X90050*
Y194681*
G75*
G02X92300Y194100I1050J-581*
G01*
G75*
G02X90050Y193519I-1200*
G01*
Y184681*
G75*
G02X92300Y184100I1050J-581*
G01*
G75*
G02X90050Y183519I-1200*
G01*
Y174681*
G75*
G02X92300Y174100I1050J-581*
G01*
G75*
G02X90050Y173519I-1200*
G01*
Y164681*
G75*
G02X92300Y164100I1050J-581*
G01*
G75*
G02X90043Y163533I-1200*
G01*
G75*
G02X88100Y163642I-943J567*
G01*
G75*
G02X87600Y163120I-1000J458*
G01*
Y161557*
X88307Y160850*
X97100*
G75*
G02X97454Y160704I0J-500*
G01*
X102204Y155954*
G75*
G02X102350Y155600I-354J-353*
G01*
Y154350*
G75*
G02X102295Y152084I-555J-1120*
G01*
Y149296*
G75*
G02Y147004I-500J-1146*
G01*
Y144975*
G75*
G02X102149Y144621I-500J0*
G01*
X86420Y128893*
Y125000*
G75*
G02X87020Y124020I-500J-980*
G01*
G75*
G02X84820I-1100*
G01*
G75*
G02X85420Y125000I1100*
G01*
Y129100*
G75*
G02X85566Y129454I500J0*
G01*
X101295Y145182*
Y147004*
G75*
G02Y149296I500J1146*
G01*
Y152084*
G75*
G02X101350Y154398I500J1146*
G01*
Y155393*
X96893Y159850*
X88100*
G75*
G02X87746Y159996I0J500*
G01*
X86746Y160996*
G75*
G02X86600Y161350I354J353*
G01*
Y163120*
G75*
G02X86100Y163642I500J980*
G01*
G75*
G02X85600Y163120I-1000J458*
G01*
Y161307*
X87557Y159350*
X95850*
G75*
G02X96204Y159204I0J-500*
G01*
X99454Y155954*
G75*
G02X99599Y155633I-354J-353*
G01*
X99679Y154406*
G75*
G02X99755Y152084I-424J-1176*
G01*
Y149296*
G75*
G02Y147004I-500J-1146*
G01*
Y144975*
G75*
G02X99609Y144621I-500J0*
G01*
X83880Y128893*
Y125000*
G75*
G02X84480Y124020I-500J-980*
G01*
G75*
G02X82280I-1100*
G01*
G75*
G02X82793Y124950I1100*
G01*
X81428*
G75*
G02X81940Y124020I-588J-930*
G01*
G75*
G02X79740I-1100*
G01*
G75*
G02X80253Y124950I1100*
G01*
X78888*
G75*
G02X79400Y124020I-588J-930*
G01*
G75*
G02X77200I-1100*
G01*
G75*
G02X77713Y124950I1100*
G01*
X76347*
G75*
G02X76860Y124020I-588J-930*
G01*
G75*
G02X74660I-1100*
G01*
G75*
G02X75173Y124950I1100*
G01*
X73808*
G75*
G02X74320Y124020I-588J-930*
G01*
G75*
G02X72120I-1100*
G01*
G75*
G02X72632Y124950I1100*
G01*
X71268*
G75*
G02X71780Y124020I-588J-930*
G01*
G75*
G02X69580I-1100*
G01*
G75*
G02X70093Y124950I1100*
G01*
X68728*
G75*
G02X69240Y124020I-588J-930*
G01*
G75*
G02X67040I-1100*
G01*
G75*
G02X67553Y124950I1100*
G01*
X66188*
G75*
G02X66700Y124020I-588J-930*
G01*
G75*
G02X64500I-1100*
G01*
G75*
G02X65013Y124950I1100*
G01*
X63647*
G75*
G02X64160Y124020I-587J-930*
G01*
G75*
G02X61960I-1100*
G01*
G75*
G02X62473Y124950I1100*
G01*
X61278*
G75*
G02X61720Y124020I-758J-930*
G01*
G75*
G02X59320I-1200*
G01*
G75*
G02X59762Y124950I1200*
G01*
X58930*
G37*
X59762D02*
G36*
G75*
G02X61278I758J-930D01*
G01*
X62473*
G75*
G02X62520Y124978I587J-930*
G01*
Y126560*
G75*
G02X62669Y126932I540J0*
G01*
X64151Y128490*
G75*
G02X64162Y128500I390J-372*
G01*
X78395Y142660*
Y147023*
G75*
G02X77716Y147873I540J1127*
G01*
G75*
G02X75074I-1321J278*
G01*
G75*
G02X74805Y147338I-1219J277*
G01*
Y143070*
G75*
G02X74527Y142398I-950J0*
G01*
X58930Y126802*
Y124950*
X59762*
G37*
X72632D02*
G36*
G75*
G02X73808I588J-930D01*
G01*
X75173*
G75*
G02X75260Y125000I587J-930*
G01*
Y126560*
G75*
G02X75406Y126914I500J0*
G01*
X91135Y142642*
Y147004*
G75*
G02X90416Y147873I500J1146*
G01*
G75*
G02X87774I-1321J278*
G01*
G75*
G02X87055Y147004I-1219J278*
G01*
Y142435*
G75*
G02X86909Y142081I-500J0*
G01*
X71180Y126353*
Y125000*
G75*
G02X71268Y124950I-500J-980*
G01*
X72632*
G37*
X77713D02*
G36*
G75*
G02X78888I588J-930D01*
G01*
X80253*
G75*
G02X81428I588J-930*
G01*
X82793*
G75*
G02X82880Y125000I587J-930*
G01*
Y129100*
G75*
G02X83026Y129454I500J0*
G01*
X98755Y145182*
Y147004*
G75*
G02X98036Y147873I500J1146*
G01*
G75*
G02X95445Y147692I-1321J278*
G01*
G75*
G02X92854Y147873I-1270J458*
G01*
G75*
G02X92135Y147004I-1219J278*
G01*
Y142435*
G75*
G02X91989Y142081I-500J0*
G01*
X76260Y126353*
Y125000*
G75*
G02X76347Y124950I-500J-980*
G01*
X77713*
G37*
X122068D02*
G36*
G75*
G02X121980Y123040I-588J-930D01*
G01*
Y122460*
G75*
G02X122580Y121480I-500J-980*
G01*
X122920*
G75*
G02X123520Y122460I1100*
G01*
Y123040*
G75*
G02X122920Y124020I500J980*
G01*
G75*
G02X123433Y124950I1100*
G01*
X122068*
G37*
X124608D02*
G36*
G75*
G02X125120Y124020I-588J-930D01*
G01*
G75*
G02X124520Y123040I-1100*
G01*
Y122460*
G75*
G02X125120Y121480I-500J-980*
G01*
X125460*
G75*
G02X127660I1100*
G01*
X128000*
G75*
G02X130200I1100*
G01*
X130540*
G75*
G02X132740I1100*
G01*
X140437*
Y124950*
X132227*
G75*
G02X132740Y124020I-588J-930*
G01*
G75*
G02X130540I-1100*
G01*
G75*
G02X131053Y124950I1100*
G01*
X129688*
G75*
G02X130200Y124020I-588J-930*
G01*
G75*
G02X128000I-1100*
G01*
G75*
G02X128513Y124950I1100*
G01*
X127148*
G75*
G02X127660Y124020I-588J-930*
G01*
G75*
G02X125460I-1100*
G01*
G75*
G02X125973Y124950I1100*
G01*
X124608*
G37*
X3763Y86400D02*
G36*
Y85100D01*
X12450*
G75*
G02X12200Y86400I3250J1300*
G01*
X3763*
G37*
X12200D02*
G36*
G75*
G02X12794Y88350I3500J0D01*
G01*
X3763*
Y86400*
X12200*
G37*
X19200D02*
G36*
G75*
G02X18950Y85100I-3500J0D01*
G01*
X37000*
G75*
G02X39200I1100*
G01*
X46757*
X45456Y86400*
X19200*
G37*
X45456D02*
G36*
X44928Y86928D01*
G75*
G02X44650Y87600I672J672*
G01*
Y88350*
X39200*
G75*
G02X37000I-1100*
G01*
X29200*
G75*
G02X27000I-1100*
G01*
X18607*
G75*
G02X19200Y86400I-2907J-1950*
G01*
X45456*
G37*
X48144D02*
G36*
X48380Y86164D01*
G75*
G02X49200Y85100I-280J-1064*
G01*
X54170*
Y86400*
X48144*
G37*
X54170D02*
G36*
Y88350D01*
X46550*
Y87993*
X48144Y86400*
X54170*
G37*
X66870D02*
G36*
Y85285D01*
X67055Y85100*
X80340*
Y86400*
X66870*
G37*
X80340D02*
G36*
Y87618D01*
X79608Y88350*
X66870*
Y86400*
X80340*
G37*
X81340D02*
G36*
Y85100D01*
X83060*
Y86400*
X81340*
G37*
X83060D02*
G36*
Y88350D01*
X81022*
X81194Y88179*
G75*
G02X81340Y87825I-354J-353*
G01*
Y86400*
X83060*
G37*
X84140D02*
G36*
Y85100D01*
X95580*
Y86400*
X84140*
G37*
X95580D02*
G36*
Y88350D01*
X84140*
Y86400*
X95580*
G37*
X96580D02*
G36*
Y85100D01*
X98120*
Y86400*
X96580*
G37*
X98120D02*
G36*
Y88350D01*
X96580*
Y86400*
X98120*
G37*
X99120D02*
G36*
Y85100D01*
X100660*
Y86400*
X99120*
G37*
X100660D02*
G36*
Y88350D01*
X99120*
Y86400*
X100660*
G37*
X101660D02*
G36*
Y85100D01*
X103200*
Y86400*
X101660*
G37*
X103200D02*
G36*
Y88350D01*
X101660*
Y86400*
X103200*
G37*
X104200D02*
G36*
Y85100D01*
X105740*
Y86400*
X104200*
G37*
X105740D02*
G36*
Y88350D01*
X104200*
Y86400*
X105740*
G37*
X106740D02*
G36*
Y85100D01*
X108280*
Y86400*
X106740*
G37*
X108280D02*
G36*
Y88350D01*
X106740*
Y86400*
X108280*
G37*
X109280D02*
G36*
Y85100D01*
X120450*
G75*
G02X120200Y86400I3250J1300*
G01*
X109280*
G37*
X120200D02*
G36*
G75*
G02X120793Y88350I3500J0D01*
G01*
X109280*
Y86400*
X120200*
G37*
X127200D02*
G36*
G75*
G02X126950Y85100I-3500J0D01*
G01*
X140437*
Y86400*
X127200*
G37*
X140437D02*
G36*
Y88350D01*
X126607*
G75*
G02X127200Y86400I-2907J-1950*
G01*
X140437*
G37*
X3763Y45915D02*
G36*
Y42464D01*
X44535*
G75*
G02X46585Y43313I1200*
G01*
G75*
G02X46936Y42464I-849J-849*
G01*
X53702*
G75*
G02X56166Y42995I1403J-530*
G01*
G75*
G02X56508Y42464I-1061J-1061*
G01*
X64330*
Y45915*
X53106*
G75*
G02X50438Y44338I-1537J-446*
G01*
G75*
G02X50033Y45915I1131J1131*
G01*
X33005*
G75*
G02X31905Y44815I-1100*
G01*
G75*
G02X30805Y45915J1100*
G01*
X28453*
Y44963*
X27818Y44328*
X25913*
X25278Y44963*
Y45915*
X21785*
X19880Y44010*
X15435*
X14800Y44645*
Y45915*
X3763*
G37*
X88460D02*
G36*
Y42464D01*
X95350*
Y45915*
X88460*
G37*
X96850D02*
G36*
Y42464D01*
X140437*
Y45915*
X102611*
G75*
G02X101350Y44300I-1261J-315*
G01*
G75*
G02X100089Y45915J1300*
G01*
X96850*
G37*
X3763Y144600D02*
G36*
Y143350D01*
X8400*
Y144197*
G75*
G02X8318Y144600I950J403*
G01*
X3763*
G37*
X25632D02*
G36*
G75*
G02X25550Y144197I-1032D01*
G01*
Y143350*
X33100*
G75*
G02X35100I1000*
G01*
X40970*
Y144600*
X34597*
G75*
G02X33603I-498J750*
G01*
X28100*
G75*
G02X27100Y143600I-1000*
G01*
G75*
G02X26100Y144600J1000*
G01*
X25632*
G37*
X26100D02*
G36*
G75*
G02X27100Y145600I1000D01*
G01*
G75*
G02X28100Y144600J-1000*
G01*
X33603*
G75*
G02X33200Y145350I498J750*
G01*
G75*
G02X35000I900*
G01*
G75*
G02X34597Y144600I-900*
G01*
X40970*
Y147004*
G75*
G02X40251Y147873I500J1146*
G01*
G75*
G02X37580Y148150I-1321J278*
G01*
G75*
G02X40251Y148428I1350*
G01*
G75*
G02X40970Y149296I1219J-278*
G01*
Y152084*
G75*
G02X40251Y152952I500J1146*
G01*
G75*
G02X37580Y153230I-1321J278*
G01*
G75*
G02X40251Y153507I1350*
G01*
G75*
G02X42720Y153230I1219J-278*
G01*
G75*
G02X41970Y152084I-1250*
G01*
Y149296*
G75*
G02Y147004I-500J-1146*
G01*
Y144600*
X43510*
Y147004*
G75*
G02Y149296I500J1146*
G01*
Y152084*
G75*
G02X42760Y153230I500J1146*
G01*
G75*
G02X45260I1250*
G01*
G75*
G02X44510Y152084I-1250*
G01*
Y149296*
G75*
G02Y147004I-500J-1146*
G01*
Y144600*
X46050*
Y147004*
G75*
G02Y149296I500J1146*
G01*
Y152084*
G75*
G02X45300Y153230I500J1146*
G01*
G75*
G02X47800I1250*
G01*
G75*
G02X47050Y152084I-1250*
G01*
Y149296*
G75*
G02Y147004I-500J-1146*
G01*
Y144600*
X48590*
Y147004*
G75*
G02X48550Y149277I500J1146*
G01*
Y152103*
G75*
G02X47840Y153230I540J1127*
G01*
G75*
G02X50340I1250*
G01*
G75*
G02X49630Y152103I-1250*
G01*
Y149277*
G75*
G02X49590Y147004I-540J-1127*
G01*
Y144600*
X51130*
Y147004*
G75*
G02Y149296I500J1146*
G01*
Y152084*
G75*
G02X50380Y153230I500J1146*
G01*
G75*
G02X52880I1250*
G01*
G75*
G02X52130Y152084I-1250*
G01*
Y149296*
G75*
G02Y147004I-500J-1146*
G01*
Y144600*
X53670*
Y147004*
G75*
G02Y149296I500J1146*
G01*
Y152084*
G75*
G02X52920Y153230I500J1146*
G01*
G75*
G02X55420I1250*
G01*
G75*
G02X54670Y152084I-1250*
G01*
Y149296*
G75*
G02Y147004I-500J-1146*
G01*
Y144600*
X56210*
Y147004*
G75*
G02Y149296I500J1146*
G01*
Y152084*
G75*
G02X55460Y153230I500J1146*
G01*
G75*
G02X57960I1250*
G01*
G75*
G02X57210Y152084I-1250*
G01*
Y149296*
G75*
G02Y147004I-500J-1146*
G01*
Y144600*
X58750*
Y147004*
G75*
G02Y149296I500J1146*
G01*
Y152084*
G75*
G02X58000Y153230I500J1146*
G01*
G75*
G02X60500I1250*
G01*
G75*
G02X59750Y152084I-1250*
G01*
Y149296*
G75*
G02Y147004I-500J-1146*
G01*
Y144600*
X61290*
Y147004*
G75*
G02Y149296I500J1146*
G01*
Y152084*
G75*
G02X60540Y153230I500J1146*
G01*
G75*
G02X63040I1250*
G01*
G75*
G02X62290Y152084I-1250*
G01*
Y149296*
G75*
G02Y147004I-500J-1146*
G01*
Y144600*
X63830*
Y147004*
G75*
G02Y149296I500J1146*
G01*
Y152084*
G75*
G02X63080Y153230I500J1146*
G01*
G75*
G02X65549Y153507I1250*
G01*
G75*
G02X68191I1321J-278*
G01*
G75*
G02X68400Y153967I1219J-277*
G01*
Y156207*
X65707Y158900*
X60253*
G75*
G02X60030Y158834I-403J950*
G01*
G75*
G02X60850Y157850I-180J-984*
G01*
G75*
G02X58850I-1000*
G01*
G75*
G02X59670Y158834I1000*
G01*
G75*
G02X59559Y158860I180J1016*
G01*
X37760*
X30596Y151695*
X30617Y150103*
G75*
G02X29640Y147700I-977J-1003*
G01*
G75*
G02X28427Y148401J1400*
G01*
G75*
G02X25773I-1327J699*
G01*
G75*
G02X25590Y148152I-1213J699*
G01*
Y144891*
G75*
G02X25632Y144600I-990J-291*
G01*
X26100*
G37*
X41970D02*
G36*
Y143350D01*
X43510*
Y144600*
X41970*
G37*
X44510D02*
G36*
Y143350D01*
X46050*
Y144600*
X44510*
G37*
X47050D02*
G36*
Y143350D01*
X48590*
Y144600*
X47050*
G37*
X49590D02*
G36*
Y143350D01*
X51130*
Y144600*
X49590*
G37*
X52130D02*
G36*
Y143350D01*
X53670*
Y144600*
X52130*
G37*
X54670D02*
G36*
Y143350D01*
X56210*
Y144600*
X54670*
G37*
X57210D02*
G36*
Y143350D01*
X58750*
Y144600*
X57210*
G37*
X59750D02*
G36*
Y143350D01*
X61290*
Y144600*
X59750*
G37*
X62290D02*
G36*
Y143350D01*
X63830*
Y144600*
X62290*
G37*
X79475D02*
G36*
Y143350D01*
X80975*
Y144600*
X79475*
G37*
X81975D02*
G36*
Y143350D01*
X83515*
Y144600*
X81975*
G37*
X84515D02*
G36*
Y143350D01*
X86055*
Y144600*
X84515*
G37*
X107375D02*
G36*
Y144340D01*
G75*
G02X107229Y143986I-500J0*
G01*
X106592Y143350*
X108353*
X108915Y143912*
Y144600*
X107375*
G37*
X108915D02*
G36*
Y147004D01*
G75*
G02Y149296I500J1146*
G01*
Y152084*
G75*
G02X108165Y153230I500J1146*
G01*
G75*
G02X110665I1250*
G01*
G75*
G02X109915Y152084I-1250*
G01*
Y149296*
G75*
G02Y147004I-500J-1146*
G01*
Y144600*
X111455*
Y147004*
G75*
G02Y149296I500J1146*
G01*
Y152084*
G75*
G02X110705Y153230I500J1146*
G01*
G75*
G02X113205I1250*
G01*
G75*
G02X112455Y152084I-1250*
G01*
Y149296*
G75*
G02Y147004I-500J-1146*
G01*
Y144600*
X113995*
Y147004*
G75*
G02Y149296I500J1146*
G01*
Y152084*
G75*
G02X113245Y153230I500J1146*
G01*
G75*
G02X115745I1250*
G01*
G75*
G02X114995Y152084I-1250*
G01*
Y149296*
G75*
G02Y147004I-500J-1146*
G01*
Y144600*
X116535*
Y147004*
G75*
G02Y149296I500J1146*
G01*
Y152084*
G75*
G02X115785Y153230I500J1146*
G01*
G75*
G02X118285I1250*
G01*
G75*
G02X117535Y152084I-1250*
G01*
Y149296*
G75*
G02Y147004I-500J-1146*
G01*
Y144600*
X119075*
Y147004*
G75*
G02Y149296I500J1146*
G01*
Y152084*
G75*
G02X118325Y153230I500J1146*
G01*
G75*
G02X120825I1250*
G01*
G75*
G02X120075Y152084I-1250*
G01*
Y149296*
G75*
G02Y147004I-500J-1146*
G01*
Y144600*
X121615*
Y147004*
G75*
G02Y149296I500J1146*
G01*
Y152084*
G75*
G02X120865Y153230I500J1146*
G01*
G75*
G02X123365I1250*
G01*
G75*
G02X122615Y152084I-1250*
G01*
Y149296*
G75*
G02Y147004I-500J-1146*
G01*
Y144600*
X124155*
Y147004*
G75*
G02Y149296I500J1146*
G01*
Y152084*
G75*
G02X123405Y153230I500J1146*
G01*
G75*
G02X125905I1250*
G01*
G75*
G02X125155Y152084I-1250*
G01*
Y149296*
G75*
G02Y147004I-500J-1146*
G01*
Y144600*
X126695*
Y147004*
G75*
G02Y149296I500J1146*
G01*
Y152084*
G75*
G02X126600Y154329I500J1146*
G01*
Y155643*
X125893Y156350*
X116350*
G75*
G02X115996Y156496I0J500*
G01*
X114746Y157746*
G75*
G02X114600Y158100I354J353*
G01*
Y163120*
G75*
G02X114590Y165075I500J980*
G01*
Y167200*
G75*
G02X114748Y167582I540J0*
G01*
X116495Y169329*
Y173181*
G75*
G02X116100Y173642I605J919*
G01*
G75*
G02X114000Y174100I-1000J458*
G01*
G75*
G02X114590Y175075I1100*
G01*
Y177360*
G75*
G02X114748Y177742I540J0*
G01*
X116495Y179489*
Y183181*
G75*
G02X116100Y183642I605J919*
G01*
G75*
G02X114000Y184100I-1000J458*
G01*
G75*
G02X114590Y185075I1100*
G01*
Y187520*
G75*
G02X114748Y187902I540J0*
G01*
X116495Y189649*
Y193181*
G75*
G02X116100Y193642I605J919*
G01*
G75*
G02X114000Y194100I-1000J458*
G01*
G75*
G02X116100Y194558I1100*
G01*
G75*
G02X118100I1000J-458*
G01*
G75*
G02X118150Y194655I999J-458*
G01*
Y195457*
X117957Y195650*
X105050*
Y174681*
G75*
G02X107300Y174100I1050J-581*
G01*
G75*
G02X105050Y173519I-1200*
G01*
Y164681*
G75*
G02X107300Y164100I1050J-581*
G01*
G75*
G02X105043Y163533I-1200*
G01*
G75*
G02X103100Y163642I-943J567*
G01*
G75*
G02X102640Y163142I-1000J458*
G01*
Y160825*
X107256Y156233*
G75*
G02X107415Y155850I-381J-383*
G01*
Y154357*
G75*
G02X107375Y152084I-540J-1127*
G01*
Y149296*
G75*
G02Y147004I-500J-1146*
G01*
Y144600*
X108915*
G37*
X109915D02*
G36*
Y143705D01*
G75*
G02X109769Y143351I-500J0*
G01*
X109767Y143350*
X111455*
Y144600*
X109915*
G37*
X112455D02*
G36*
Y143350D01*
X113995*
Y144600*
X112455*
G37*
X114995D02*
G36*
Y143350D01*
X116535*
Y144600*
X114995*
G37*
X117535D02*
G36*
Y143350D01*
X119075*
Y144600*
X117535*
G37*
X120075D02*
G36*
Y143350D01*
X121615*
Y144600*
X120075*
G37*
X122615D02*
G36*
Y143350D01*
X124155*
Y144600*
X122615*
G37*
X125155D02*
G36*
Y143350D01*
X126695*
Y144600*
X125155*
G37*
X127695D02*
G36*
Y143350D01*
X129235*
Y144600*
X127695*
G37*
X130235D02*
G36*
Y143350D01*
X131775*
Y144600*
X130235*
G37*
X132775D02*
G36*
Y143350D01*
X134315*
Y144600*
X132775*
G37*
X135315D02*
G36*
Y143350D01*
X136855*
Y144600*
X135315*
G37*
X137855D02*
G36*
Y143350D01*
X140437*
Y144600*
X137855*
G37*
X3763Y25131D02*
G36*
Y23150D01*
X50233*
G75*
G02X52630Y23530I1337J-681*
G01*
G75*
G02X52906Y23150I-1061J-1061*
G01*
X57392*
G75*
G02X58141I375J-1556*
G01*
X89700*
G75*
G02X92101I1200*
G01*
X110655*
G75*
G02X113056I1200*
G01*
X140437*
Y25131*
X64677*
G75*
G02X62751Y23751I-1077J-531*
G01*
G75*
G02X62524Y25131I849J849*
G01*
X55731*
G75*
G02X53170Y24069I-1500J-1*
G01*
G75*
G02X52731Y25131I1061J1061*
G01*
X41677*
G75*
G02X39751Y23751I-1077J-530*
G01*
G75*
G02X39523Y25131I849J849*
G01*
X32831*
G75*
G02X30099Y23999I-1600*
G01*
G75*
G02X29631Y25131I1131J1131*
G01*
X3763*
G37*
X29631D02*
G36*
G75*
G02X32362Y26262I1600D01*
G01*
G75*
G02X32831Y25131I-1131J-1131*
G01*
X39523*
G75*
G02X41449Y25449I1077J-530*
G01*
G75*
G02X41677Y25131I-849J-849*
G01*
X52731*
G75*
G02X55292Y26191I1500J-1*
G01*
G75*
G02X55731Y25131I-1061J-1061*
G01*
X62524*
G75*
G02X64449Y25449I1077J-531*
G01*
G75*
G02X64677Y25131I-849J-849*
G01*
X140437*
Y30964*
X68115*
G75*
G02X65474Y29302I-1509J-531*
G01*
G75*
G02X65096Y30964I1131J1131*
G01*
X58437*
G75*
G02X56387Y30115I-1200J-1*
G01*
G75*
G02X56036Y30964I849J849*
G01*
X45008*
G75*
G02X42544Y29373I-1403J-530*
G01*
G75*
G02X42202Y30964I1061J1061*
G01*
X35436*
G75*
G02X33387Y30115I-1200*
G01*
G75*
G02X33035Y30964I849J849*
G01*
X3763*
Y25131*
X29631*
G37*
X33035Y30964D02*
G36*
G75*
G02X35085Y31813I1200D01*
G01*
G75*
G02X35436Y30964I-849J-849*
G01*
X42202*
G75*
G02X44666Y31495I1403J-530*
G01*
G75*
G02X45008Y30964I-1061J-1061*
G01*
X56036*
G75*
G02X58085Y31813I1200J-1*
G01*
G75*
G02X58437Y30964I-849J-849*
G01*
X65096*
G75*
G02X67737Y31565I1509J-531*
G01*
G75*
G02X68115Y30964I-1131J-1131*
G01*
X140437*
Y33969*
X102219*
X102100Y33850*
X100600*
X100481Y33969*
X64570*
G75*
G02X62009Y32908I-1500J-1*
G01*
G75*
G02X61570Y33969I1061J1061*
G01*
X47485*
G75*
G02X45206Y32035I-1219J-874*
G01*
G75*
G02X45047Y33969I1061J1061*
G01*
X41670*
G75*
G02X38938Y32838I-1600*
G01*
G75*
G02X38469Y33969I1131J1131*
G01*
X3763*
Y30964*
X33035*
G37*
X3763Y21595D02*
G36*
Y19464D01*
X44536*
G75*
G02X46585Y20313I1200*
G01*
G75*
G02X46937Y19464I-849J-849*
G01*
X53596*
G75*
G02X56237Y20065I1510J-530*
G01*
G75*
G02X56615Y19464I-1131J-1131*
G01*
X140437*
Y21595*
X119537*
G75*
G02X119605Y21150I-1432J-445*
G01*
G75*
G02X116605I-1500*
G01*
G75*
G02X116673Y21595I1500*
G01*
X107037*
G75*
G02X107105Y21150I-1432J-445*
G01*
G75*
G02X104105I-1500*
G01*
G75*
G02X104173Y21595I1500*
G01*
X98582*
G75*
G02X98650Y21150I-1432J-445*
G01*
G75*
G02X95650I-1500*
G01*
G75*
G02X95718Y21595I1500*
G01*
X86082*
G75*
G02X86150Y21150I-1432J-445*
G01*
G75*
G02X83150I-1500*
G01*
G75*
G02X83218Y21595I1500*
G01*
X59367*
G75*
G02X56635Y20463I-1600J-1*
G01*
G75*
G02X56167Y21595I1131J1131*
G01*
X52789*
G75*
G02X50509Y21408I-1219J874*
G01*
G75*
G02X50350Y21595I1061J1061*
G01*
X36266*
G75*
G02X33706Y20535I-1500*
G01*
G75*
G02X33266Y21595I1061J1061*
G01*
X3763*
G37*
X33266D02*
G36*
G75*
G02X35827Y22656I1500D01*
G01*
G75*
G02X36266Y21595I-1061J-1061*
G01*
X50350*
G75*
G02X50233Y23150I1219J874*
G01*
X3763*
Y21595*
X33266*
G37*
X56167D02*
G36*
G75*
G02X57392Y23150I1600J-1D01*
G01*
X52906*
G75*
G02X52789Y21595I-1337J-681*
G01*
X56167*
G37*
X83218D02*
G36*
G75*
G02X86082I1432J-445D01*
G01*
X95718*
G75*
G02X98582I1432J-445*
G01*
X104173*
G75*
G02X107037I1432J-445*
G01*
X116673*
G75*
G02X119537I1432J-445*
G01*
X140437*
Y23150*
X113056*
G75*
G02X110655I-1200*
G01*
X92101*
G75*
G02X89700I-1200*
G01*
X58141*
G75*
G02X58898Y22726I-375J-1556*
G01*
G75*
G02X59367Y21595I-1131J-1131*
G01*
X83218*
G37*
X12794Y88350D02*
G36*
G75*
G02X15700Y89900I2907J-1950D01*
G01*
G75*
G02X18607Y88350J-3500*
G01*
X27000*
G75*
G02X27150Y88904I1100*
G01*
Y90796*
G75*
G02X27000Y91350I950J555*
G01*
X3763*
Y88350*
X12794*
G37*
X37000D02*
G36*
G75*
G02X39200I1100D01*
G01*
X44650*
Y91350*
X39200*
G75*
G02X37000I-1100*
G01*
X29200*
G75*
G02X29050Y90796I-1100*
G01*
Y88904*
G75*
G02X29200Y88350I-950J-555*
G01*
X37000*
G37*
X54170D02*
G36*
Y91350D01*
X46550*
Y88350*
X54170*
G37*
X79608D02*
G36*
X76608Y91350D01*
X66870*
Y88350*
X79608*
G37*
X83060D02*
G36*
Y89626D01*
X81336Y91350*
X78022*
X81022Y88350*
X83060*
G37*
X95580D02*
G36*
Y91350D01*
X82864*
X83982Y90232*
G75*
G02X84140Y89850I-382J-382*
G01*
Y88350*
X95580*
G37*
X98120D02*
G36*
Y91350D01*
X96580*
Y88350*
X98120*
G37*
X100660D02*
G36*
Y91350D01*
X99120*
Y88350*
X100660*
G37*
X103200D02*
G36*
Y91350D01*
X101660*
Y88350*
X103200*
G37*
X105740D02*
G36*
Y91350D01*
X104200*
Y88350*
X105740*
G37*
X108280D02*
G36*
Y91350D01*
X106740*
Y88350*
X108280*
G37*
X120793D02*
G36*
G75*
G02X123700Y89900I2907J-1950D01*
G01*
G75*
G02X126607Y88350J-3500*
G01*
X140437*
Y91350*
X109280*
Y88350*
X120793*
G37*
X27000Y91350D02*
G36*
G75*
G02X27150Y91904I1100D01*
G01*
Y94046*
G75*
G02X27000Y94600I950J555*
G01*
X3763*
Y91350*
X27000*
G37*
X37000D02*
G36*
G75*
G02X39200I1100D01*
G01*
X44650*
Y94600*
X39200*
G75*
G02X37000I-1100*
G01*
X29444*
X29164Y94320*
G75*
G02X29050Y94046I-1064J280*
G01*
Y91904*
G75*
G02X29200Y91350I-950J-555*
G01*
X37000*
G37*
X54170D02*
G36*
Y94600D01*
X46550*
Y91350*
X54170*
G37*
X76608D02*
G36*
X75406Y92551D01*
G75*
G02X75260Y92905I354J353*
G01*
Y94600*
X66870*
Y91350*
X76608*
G37*
X81336D02*
G36*
X78086Y94600D01*
X76260*
Y93112*
X78022Y91350*
X81336*
G37*
X95580D02*
G36*
Y94600D01*
X79614*
X82864Y91350*
X95580*
G37*
X98120D02*
G36*
Y94600D01*
X96580*
Y91350*
X98120*
G37*
X100660D02*
G36*
Y94600D01*
X99120*
Y91350*
X100660*
G37*
X103200D02*
G36*
Y94600D01*
X101660*
Y91350*
X103200*
G37*
X105740D02*
G36*
Y94600D01*
X104200*
Y91350*
X105740*
G37*
X108280D02*
G36*
Y94600D01*
X106740*
Y91350*
X108280*
G37*
X140437D02*
G36*
Y94600D01*
X109280*
Y91350*
X140437*
G37*
X27000Y94600D02*
G36*
G75*
G02X27820Y95664I1100D01*
G01*
X30428Y98272*
G75*
G02X31100Y98550I672J-672*
G01*
X45046*
G75*
G02X45188Y98620I555J-950*
G01*
X3763*
Y94600*
X27000*
G37*
X37000D02*
G36*
G75*
G02X39200I1100D01*
G01*
X44650*
Y96650*
X31494*
X29444Y94600*
X37000*
G37*
X54170D02*
G36*
Y97668D01*
X55123Y98620*
X46012*
G75*
G02X46550Y97046I-412J-1020*
G01*
Y94600*
X54170*
G37*
X75260D02*
G36*
Y97640D01*
G75*
G02X74660Y98620I500J980*
G01*
X74320*
G75*
G02X72120I-1100*
G01*
X71780*
G75*
G02X69580I-1100*
G01*
X69240*
G75*
G02X67040I-1100*
G01*
X66700*
G75*
G02X64500I-1100*
G01*
X64160*
G75*
G02X64151Y98481I-1100J0*
G01*
X66870Y95763*
Y94600*
X75260*
G37*
X78086D02*
G36*
X77968Y94718D01*
G75*
G02X77810Y95100I382J382*
G01*
Y97635*
G75*
G02X77200Y98620I490J985*
G01*
X76860*
G75*
G02X76260Y97640I-1100*
G01*
Y94600*
X78086*
G37*
X95580D02*
G36*
Y97640D01*
G75*
G02X94980Y98620I500J980*
G01*
X94640*
G75*
G02X92440I-1100*
G01*
X92100*
G75*
G02X89900I-1100*
G01*
X89560*
G75*
G02X87360I-1100*
G01*
X87020*
G75*
G02X84820I-1100*
G01*
X84480*
G75*
G02X82280I-1100*
G01*
X81940*
G75*
G02X79740I-1100*
G01*
X79400*
G75*
G02X78890Y97692I-1100*
G01*
Y95324*
X79614Y94600*
X95580*
G37*
X98120D02*
G36*
Y97640D01*
G75*
G02X97520Y98620I500J980*
G01*
X97180*
G75*
G02X96580Y97640I-1100*
G01*
Y94600*
X98120*
G37*
X100660D02*
G36*
Y97640D01*
G75*
G02X100060Y98620I500J980*
G01*
X99720*
G75*
G02X99120Y97640I-1100*
G01*
Y94600*
X100660*
G37*
X103200D02*
G36*
Y97640D01*
G75*
G02X102600Y98620I500J980*
G01*
X102260*
G75*
G02X101660Y97640I-1100*
G01*
Y94600*
X103200*
G37*
X105740D02*
G36*
Y97640D01*
G75*
G02X105140Y98620I500J980*
G01*
X104800*
G75*
G02X104200Y97640I-1100*
G01*
Y94600*
X105740*
G37*
X108280D02*
G36*
Y97640D01*
G75*
G02X107680Y98620I500J980*
G01*
X107340*
G75*
G02X106740Y97640I-1100*
G01*
Y94600*
X108280*
G37*
X140437D02*
G36*
Y98620D01*
X132840*
G75*
G02X130440I-1200*
G01*
X130200*
G75*
G02X128000I-1100*
G01*
X127660*
G75*
G02X125460I-1100*
G01*
X125120*
G75*
G02X122920I-1100*
G01*
X122580*
G75*
G02X120380I-1100*
G01*
X120140*
G75*
G02X117740I-1200*
G01*
X117500*
G75*
G02X115300I-1100*
G01*
X114960*
G75*
G02X112760I-1100*
G01*
X112420*
G75*
G02X110220I-1100*
G01*
X109880*
G75*
G02X109280Y97640I-1100*
G01*
Y94600*
X140437*
G37*
X38469Y33969D02*
G36*
G75*
G02X41201Y35101I1600D01*
G01*
G75*
G02X41670Y33969I-1131J-1131*
G01*
X45047*
G75*
G02X47327Y34156I1219J-874*
G01*
G75*
G02X47485Y33969I-1061J-1061*
G01*
X61570*
G75*
G02X64130Y35030I1500J-1*
G01*
G75*
G02X64570Y33969I-1061J-1061*
G01*
X100481*
X99600Y34850*
Y36350*
X99319Y36631*
X53177*
G75*
G02X51251Y35252I-1077J-530*
G01*
G75*
G02X51023Y36631I849J849*
G01*
X44331*
G75*
G02X41599Y35499I-1600*
G01*
G75*
G02X41131Y36631I1131J1131*
G01*
X3763*
Y33969*
X38469*
G37*
X140437D02*
G36*
Y36631D01*
X102819*
X103100Y36350*
Y34850*
X102219Y33969*
X140437*
G37*
X37000Y81850D02*
G36*
G75*
G02X39200I1100D01*
G01*
X47000*
G75*
G02X47150Y82404I1100*
G01*
Y84546*
G75*
G02X47036Y84820I950J555*
G01*
X46757Y85100*
X39200*
G75*
G02X37000I-1100*
G01*
X18950*
G75*
G02X15700Y82900I-3250J1300*
G01*
G75*
G02X12450Y85100J3500*
G01*
X3763*
Y81850*
X37000*
G37*
X54170D02*
G36*
Y85100D01*
X49200*
G75*
G02X49050Y84546I-1100*
G01*
Y82404*
G75*
G02X49200Y81850I-950J-555*
G01*
X54170*
G37*
X83060D02*
G36*
Y85100D01*
X81340*
Y84222*
X81463Y84100*
G75*
G02X82582Y83832I341J-1046*
G01*
G75*
G02X81026Y82276I-778J-778*
G01*
G75*
G02X80757Y83391I778J778*
G01*
X80486Y83661*
G75*
G02X80340Y84015I354J353*
G01*
Y85100*
X67055*
X70305Y81850*
X83060*
G37*
X95580D02*
G36*
Y85100D01*
X84140*
Y81850*
X95580*
G37*
X98120D02*
G36*
Y85100D01*
X96580*
Y81850*
X98120*
G37*
X100660D02*
G36*
Y85100D01*
X99120*
Y81850*
X100660*
G37*
X103200D02*
G36*
Y85100D01*
X101660*
Y81850*
X103200*
G37*
X105740D02*
G36*
Y85100D01*
X104200*
Y81850*
X105740*
G37*
X108280D02*
G36*
Y85100D01*
X106740*
Y81850*
X108280*
G37*
X140437D02*
G36*
Y85100D01*
X126950*
G75*
G02X123700Y82900I-3250J1300*
G01*
G75*
G02X120450Y85100J3500*
G01*
X109280*
Y81850*
X140437*
G37*
X41131Y36631D02*
G36*
G75*
G02X43862Y37762I1600D01*
G01*
G75*
G02X44331Y36631I-1131J-1131*
G01*
X51023*
G75*
G02X52949Y36949I1077J-530*
G01*
G75*
G02X53177Y36631I-849J-849*
G01*
X99319*
X95350Y40600*
Y42464*
X88460*
Y40200*
X85920Y37660*
X68140*
X64330Y41470*
Y42464*
X56508*
G75*
G02X54044Y40873I-1403J-530*
G01*
G75*
G02X53702Y42464I1061J1061*
G01*
X46936*
G75*
G02X44887Y41615I-1200*
G01*
G75*
G02X44535Y42464I849J849*
G01*
X3763*
Y36631*
X41131*
G37*
X140437D02*
G36*
Y42464D01*
X96850*
Y41100*
X100600Y37350*
X102100*
X102819Y36631*
X140437*
G37*
X8682Y13630D02*
G36*
G75*
G02X11100Y14600I2419J-2530D01*
G01*
G75*
G02X13519Y13630J-3500*
G01*
X41231*
G75*
G02X43792Y14691I1500*
G01*
G75*
G02X44231Y13630I-1061J-1061*
G01*
X51023*
G75*
G02X52949Y13949I1077J-530*
G01*
G75*
G02X53177Y13630I-849J-849*
G01*
X89818*
G75*
G02X89700Y14150I1082J520*
G01*
G75*
G02X92101I1200*
G01*
G75*
G02X91982Y13630I-1200J0*
G01*
X110773*
G75*
G02X110655Y14150I1082J520*
G01*
G75*
G02X113056I1200*
G01*
G75*
G02X112937Y13630I-1200J0*
G01*
X130682*
G75*
G02X133100Y14600I2419J-2530*
G01*
G75*
G02X135519Y13630J-3500*
G01*
X140437*
Y16150*
X119705*
G75*
G02X116505I-1600*
G01*
X107205*
G75*
G02X104005I-1600*
G01*
X98750*
G75*
G02X95550I-1600*
G01*
X86250*
G75*
G02X83050I-1600*
G01*
X3763*
Y13630*
X8682*
G37*
X3763Y19464D02*
G36*
Y16150D01*
X83050*
G75*
G02X86250I1600*
G01*
X95550*
G75*
G02X98750I1600*
G01*
X104005*
G75*
G02X107205I1600*
G01*
X116505*
G75*
G02X119705I1600*
G01*
X140437*
Y19464*
X56615*
G75*
G02X53974Y17802I-1510J-530*
G01*
G75*
G02X53596Y19464I1131J1131*
G01*
X46937*
G75*
G02X44887Y18615I-1200*
G01*
G75*
G02X44536Y19464I849J849*
G01*
X3763*
G37*
Y101160D02*
G36*
Y98620D01*
X45188*
G75*
G02X46012I412J-1020*
G01*
X55123*
X55440Y98938*
X56823*
G75*
G02X59137I1157J-318*
G01*
X59467*
G75*
G02X61573I1053J-318*
G01*
X62007*
G75*
G02X64160Y98620I1053J-317*
G01*
X64500*
G75*
G02X66700I1100*
G01*
X67040*
G75*
G02X69240I1100*
G01*
X69580*
G75*
G02X71780I1100*
G01*
X72120*
G75*
G02X74320I1100*
G01*
X74660*
G75*
G02X76860I1100*
G01*
X77200*
G75*
G02X79400I1100*
G01*
X79740*
G75*
G02X81940I1100*
G01*
X82280*
G75*
G02X84480I1100*
G01*
X84820*
G75*
G02X87020I1100*
G01*
X87360*
G75*
G02X89560I1100*
G01*
X89900*
G75*
G02X92100I1100*
G01*
X92440*
G75*
G02X94640I1100*
G01*
X94980*
G75*
G02X97180I1100*
G01*
X97520*
G75*
G02X99720I1100*
G01*
X100060*
G75*
G02X102260I1100*
G01*
X102600*
G75*
G02X104800I1100*
G01*
X105140*
G75*
G02X107340I1100*
G01*
X107680*
G75*
G02X109880I1100*
G01*
X110220*
G75*
G02X112420I1100*
G01*
X112760*
G75*
G02X114960I1100*
G01*
X115300*
G75*
G02X117500I1100*
G01*
X117740*
G75*
G02X120140I1200*
G01*
X120380*
G75*
G02X122580I1100*
G01*
X122920*
G75*
G02X123070Y99174I1100*
G01*
Y100210*
X122035*
G75*
G02X120380Y101160I-555J950*
G01*
X120140*
G75*
G02X117740I-1200*
G01*
X117500*
G75*
G02X115300I-1100*
G01*
X114960*
G75*
G02X112760I-1100*
G01*
X112420*
G75*
G02X110220I-1100*
G01*
X109880*
G75*
G02X107680I-1100*
G01*
X107340*
G75*
G02X105140I-1100*
G01*
X104800*
G75*
G02X102600I-1100*
G01*
X102260*
G75*
G02X100060I-1100*
G01*
X99720*
G75*
G02X97520I-1100*
G01*
X97180*
G75*
G02X94980I-1100*
G01*
X94640*
G75*
G02X92440I-1100*
G01*
X92100*
G75*
G02X89900I-1100*
G01*
X89560*
G75*
G02X87360I-1100*
G01*
X87020*
G75*
G02X84820I-1100*
G01*
X84480*
G75*
G02X82280I-1100*
G01*
X81940*
G75*
G02X79740I-1100*
G01*
X79400*
G75*
G02X77200I-1100*
G01*
X76860*
G75*
G02X74660I-1100*
G01*
X74320*
G75*
G02X72120I-1100*
G01*
X71780*
G75*
G02X69580I-1100*
G01*
X69240*
G75*
G02X67040I-1100*
G01*
X66700*
G75*
G02X64500I-1100*
G01*
X64160*
G75*
G02X61960I-1100*
G01*
X61620*
G75*
G02X59420I-1100*
G01*
X59180*
G75*
G02X56780I-1200*
G01*
X3763*
G37*
X56780D02*
G36*
G75*
G02X59180I1200D01*
G01*
X59420*
G75*
G02X61620I1100*
G01*
X61960*
G75*
G02X62560Y102140I1100*
G01*
Y102223*
X62218Y102565*
X50995*
G75*
G02X50641Y102711I0J500*
G01*
X47748Y105605*
X3763*
Y101160*
X56780*
G37*
X64500D02*
G36*
G75*
G02X65100Y102140I1100D01*
G01*
Y102223*
X63488Y103835*
X51630*
G75*
G02X51276Y103981I0J500*
G01*
X49653Y105605*
X49162*
X51202Y103565*
X62425*
G75*
G02X62779Y103419I0J-500*
G01*
X63414Y102784*
G75*
G02X63560Y102430I-354J-353*
G01*
Y102140*
G75*
G02X64160Y101160I-500J-980*
G01*
X64500*
G37*
X67040D02*
G36*
G75*
G02X67640Y102140I1100D01*
G01*
Y102858*
X65393Y105105*
X52265*
G75*
G02X51911Y105251I0J500*
G01*
X51558Y105605*
X51067*
X51837Y104835*
X63695*
G75*
G02X64049Y104689I0J-500*
G01*
X65954Y102784*
G75*
G02X66100Y102430I-354J-353*
G01*
Y102140*
G75*
G02X66700Y101160I-500J-980*
G01*
X67040*
G37*
X69580D02*
G36*
G75*
G02X70180Y102140I1100D01*
G01*
Y102858*
X67433Y105605*
X66307*
X68494Y103419*
G75*
G02X68640Y103065I-354J-353*
G01*
Y102140*
G75*
G02X69240Y101160I-500J-980*
G01*
X69580*
G37*
X72120D02*
G36*
G75*
G02X72720Y102140I1100D01*
G01*
Y102858*
X69973Y105605*
X68847*
X71034Y103419*
G75*
G02X71180Y103065I-354J-353*
G01*
Y102140*
G75*
G02X71780Y101160I-500J-980*
G01*
X72120*
G37*
X74660D02*
G36*
G75*
G02X75260Y102140I1100D01*
G01*
Y102858*
X72513Y105605*
X71387*
X73574Y103419*
G75*
G02X73720Y103065I-354J-353*
G01*
Y102140*
G75*
G02X74320Y101160I-500J-980*
G01*
X74660*
G37*
X77200D02*
G36*
G75*
G02X77800Y102140I1100D01*
G01*
Y102858*
X75053Y105605*
X73927*
X76114Y103419*
G75*
G02X76260Y103065I-354J-353*
G01*
Y102140*
G75*
G02X76860Y101160I-500J-980*
G01*
X77200*
G37*
X79740D02*
G36*
G75*
G02X81940I1100D01*
G01*
X82280*
G75*
G02X84480I1100*
G01*
X84820*
G75*
G02X87020I1100*
G01*
X87360*
G75*
G02X89560I1100*
G01*
X89900*
G75*
G02X92100I1100*
G01*
X92440*
G75*
G02X94640I1100*
G01*
X94980*
G75*
G02X97180I1100*
G01*
X97520*
G75*
G02X99720I1100*
G01*
X100060*
G75*
G02X102260I1100*
G01*
X102600*
G75*
G02X104800I1100*
G01*
X105140*
G75*
G02X107340I1100*
G01*
X107680*
G75*
G02X109880I1100*
G01*
X110220*
G75*
G02X110820Y102140I1100*
G01*
Y105605*
X76467*
X78654Y103419*
G75*
G02X78800Y103065I-354J-353*
G01*
Y102140*
G75*
G02X79400Y101160I-500J-980*
G01*
X79740*
G37*
X112760D02*
G36*
G75*
G02X113360Y102140I1100D01*
G01*
Y105398*
X113153Y105605*
X111820*
Y102140*
G75*
G02X112420Y101160I-500J-980*
G01*
X112760*
G37*
X115300D02*
G36*
G75*
G02X117500I1100D01*
G01*
X117740*
G75*
G02X120140I1200*
G01*
X120380*
G75*
G02X122035Y102110I1100*
G01*
X123466*
G75*
G02X125120Y101160I555J-950*
G01*
X125460*
G75*
G02X126060Y102140I1100*
G01*
Y102223*
X125083Y103200*
X117670*
G75*
G02X117316Y103346I0J500*
G01*
X115058Y105605*
X114360*
Y102140*
G75*
G02X114960Y101160I-500J-980*
G01*
X115300*
G37*
X125120D02*
G36*
G75*
G02X124970Y100606I-1100D01*
G01*
Y99174*
G75*
G02X125120Y98620I-950J-555*
G01*
X125460*
G75*
G02X127660I1100*
G01*
X128000*
G75*
G02X130200I1100*
G01*
X130440*
G75*
G02X132840I1200*
G01*
X140437*
Y101160*
X132840*
G75*
G02X130440I-1200*
G01*
X130300*
G75*
G02X127900I-1200*
G01*
X127660*
G75*
G02X125460I-1100*
G01*
X125120*
G37*
X127900D02*
G36*
G75*
G02X130300I1200D01*
G01*
X130440*
G75*
G02X132840I1200*
G01*
X140437*
Y105605*
X122430*
G75*
G02X121480Y104655I-950*
G01*
G75*
G02X120530Y105605J950*
G01*
X119980*
G75*
G02X118980Y104605I-1000*
G01*
G75*
G02X117980Y105605J1000*
G01*
X116472*
X117877Y104200*
X125290*
G75*
G02X125644Y104054I0J-500*
G01*
X126914Y102784*
G75*
G02X127060Y102430I-354J-353*
G01*
Y102140*
G75*
G02X127660Y101160I-500J-980*
G01*
X127900*
G37*
X3763Y121480D02*
G36*
Y116400D01*
X40970*
Y121480*
X3763*
G37*
X41970D02*
G36*
Y116400D01*
X42240*
Y121480*
X41970*
G37*
X43240D02*
G36*
Y116400D01*
X43510*
Y121480*
X43240*
G37*
X44510D02*
G36*
Y116400D01*
X44780*
Y121480*
X44510*
G37*
X45780D02*
G36*
Y116400D01*
X46050*
Y121480*
X45780*
G37*
X47050D02*
G36*
Y116400D01*
X47320*
Y121480*
X47050*
G37*
X48320D02*
G36*
Y116400D01*
X48590*
Y121480*
X48320*
G37*
X49590D02*
G36*
Y116607D01*
X49797Y116400*
X50288*
X50006Y116681*
G75*
G02X49860Y117035I354J353*
G01*
Y121480*
X49590*
G37*
X50860D02*
G36*
Y117242D01*
X51702Y116400*
X52193*
X51276Y117316*
G75*
G02X51130Y117670I354J353*
G01*
Y121480*
X50860*
G37*
X52130D02*
G36*
Y117877D01*
X53607Y116400*
X54098*
X52546Y117951*
G75*
G02X52400Y118305I354J353*
G01*
Y121480*
X52130*
G37*
X56390D02*
G36*
Y120603D01*
X57103Y119890*
X108780*
G75*
G02X109452Y119612I0J-950*
G01*
X112664Y116400*
X140437*
Y121480*
X132740*
G75*
G02X130540I-1100*
G01*
X130200*
G75*
G02X128000I-1100*
G01*
X127660*
G75*
G02X125460I-1100*
G01*
X125120*
G75*
G02X122920I-1100*
G01*
X122580*
G75*
G02X120380I-1100*
G01*
X120040*
G75*
G02X117840I-1100*
G01*
X117500*
G75*
G02X115300I-1100*
G01*
X114960*
G75*
G02X112760I-1100*
G01*
X112420*
G75*
G02X110220I-1100*
G01*
X109880*
G75*
G02X107680I-1100*
G01*
X107340*
G75*
G02X105140I-1100*
G01*
X104800*
G75*
G02X102600I-1100*
G01*
X102260*
G75*
G02X100060I-1100*
G01*
X99720*
G75*
G02X97520I-1100*
G01*
X97180*
G75*
G02X94980I-1100*
G01*
X94640*
G75*
G02X92440I-1100*
G01*
X92100*
G75*
G02X89900I-1100*
G01*
X89560*
G75*
G02X87360I-1100*
G01*
X87020*
G75*
G02X84820I-1100*
G01*
X84480*
G75*
G02X82280I-1100*
G01*
X81940*
G75*
G02X79740I-1100*
G01*
X79400*
G75*
G02X77200I-1100*
G01*
X76860*
G75*
G02X74660I-1100*
G01*
X74320*
G75*
G02X72120I-1100*
G01*
X71780*
G75*
G02X69580I-1100*
G01*
X69240*
G75*
G02X67040I-1100*
G01*
X66700*
G75*
G02X64500I-1100*
G01*
X64160*
G75*
G02X61960I-1100*
G01*
X61720*
G75*
G02X59320I-1200*
G01*
X59080*
G75*
G02X56880I-1100*
G01*
X56390*
G37*
X3763Y116400D02*
G36*
Y105605D01*
X47748*
X41116Y112236*
G75*
G02X40970Y112590I354J353*
G01*
Y116400*
X3763*
G37*
X41970D02*
G36*
Y112797D01*
X49162Y105605*
X49653*
X42386Y112871*
G75*
G02X42240Y113225I354J353*
G01*
Y116400*
X41970*
G37*
X43240D02*
G36*
Y113432D01*
X51067Y105605*
X51558*
X43656Y113506*
G75*
G02X43510Y113860I354J353*
G01*
Y116400*
X43240*
G37*
X44510D02*
G36*
Y114067D01*
X52472Y106105*
X65600*
G75*
G02X65954Y105959I0J-500*
G01*
X66307Y105605*
X67433*
X66663Y106375*
X52900*
G75*
G02X52546Y106521I0J500*
G01*
X44926Y114141*
G75*
G02X44780Y114495I354J353*
G01*
Y116400*
X44510*
G37*
X45780D02*
G36*
Y114702D01*
X53107Y107375*
X66870*
G75*
G02X67224Y107229I0J-500*
G01*
X68847Y105605*
X69973*
X67933Y107645*
X53535*
G75*
G02X53181Y107791I0J500*
G01*
X46196Y114776*
G75*
G02X46050Y115130I354J353*
G01*
Y116400*
X45780*
G37*
X47050D02*
G36*
Y115337D01*
X53742Y108645*
X68140*
G75*
G02X68494Y108499I0J-500*
G01*
X71387Y105605*
X72513*
X69203Y108915*
X54170*
G75*
G02X53816Y109061I0J500*
G01*
X47466Y115411*
G75*
G02X47320Y115765I354J353*
G01*
Y116400*
X47050*
G37*
X48320D02*
G36*
Y115972D01*
X54377Y109915*
X69410*
G75*
G02X69764Y109769I0J-500*
G01*
X73927Y105605*
X75053*
X70473Y110185*
X54805*
G75*
G02X54451Y110331I0J500*
G01*
X48736Y116046*
G75*
G02X48590Y116400I354J353*
G01*
X48320*
G37*
X49797D02*
G36*
X55012Y111185D01*
X70680*
G75*
G02X71034Y111039I0J-500*
G01*
X76467Y105605*
X110820*
Y106033*
X105398Y111455*
X55440*
G75*
G02X55086Y111601I0J500*
G01*
X50288Y116400*
X49797*
G37*
X51702D02*
G36*
X55647Y112455D01*
X105605*
G75*
G02X105959Y112309I0J-500*
G01*
X111674Y106594*
G75*
G02X111820Y106240I-354J-353*
G01*
Y105605*
X113153*
X106033Y112725*
X56075*
G75*
G02X55721Y112871I0J500*
G01*
X52193Y116400*
X51702*
G37*
X53607D02*
G36*
X56282Y113725D01*
X106240*
G75*
G02X106594Y113579I0J-500*
G01*
X114214Y105959*
G75*
G02X114360Y105605I-354J-353*
G01*
X115058*
X106668Y113995*
X56710*
G75*
G02X56356Y114141I0J500*
G01*
X54098Y116400*
X53607*
G37*
X55512D02*
G36*
X56917Y114995D01*
X106875*
G75*
G02X107229Y114849I0J-500*
G01*
X116472Y105605*
X117980*
G75*
G02X118980Y106605I1000*
G01*
G75*
G02X119980Y105605J-1000*
G01*
X120530*
G75*
G02X120530Y105624I950*
G01*
Y105847*
X109977Y116400*
X61480*
G75*
G02X60480Y115400I-1000*
G01*
G75*
G02X59480Y116400J1000*
G01*
X58880*
G75*
G02X57980Y115500I-900*
G01*
G75*
G02X57080Y116400J900*
G01*
X55512*
G37*
X57080D02*
G36*
G75*
G02X57980Y117300I900D01*
G01*
G75*
G02X58880Y116400J-900*
G01*
X59480*
G75*
G02X60480Y117400I1000*
G01*
G75*
G02X61480Y116400J-1000*
G01*
X109977*
X108387Y117990*
X56710*
G75*
G02X56038Y118268I0J950*
G01*
X54768Y119538*
G75*
G02X54490Y120210I672J672*
G01*
Y128465*
G75*
G02X54768Y129137I950J0*
G01*
X68460Y142829*
Y147338*
G75*
G02X68191Y147873I950J812*
G01*
G75*
G02X65549I-1321J278*
G01*
G75*
G02X64830Y147004I-1219J278*
G01*
Y141165*
G75*
G02X64684Y140811I-500J0*
G01*
X53400Y129528*
Y118512*
X55512Y116400*
X57080*
G37*
X112664D02*
G36*
X122152Y106912D01*
G75*
G02X122430Y106240I-672J-672*
G01*
Y105624*
G75*
G02X122430Y105605I-951J-20*
G01*
X140437*
Y116400*
X112664*
G37*
X10300Y139572D02*
Y137050D01*
X21447*
G75*
G02X22253I403J-950*
G01*
X23650*
Y139572*
G75*
G02Y141628I950J1028*
G01*
Y144197*
G75*
G02X23610Y144891I950J403*
G01*
Y148072*
G75*
G02X24560Y150500I950J1028*
G01*
G75*
G02X25773Y149799J-1400*
G01*
G75*
G02X28427I1327J-699*
G01*
G75*
G02X28637Y150077I1213J-699*
G01*
X28610Y152087*
G75*
G02X28900Y152800I990J13*
G01*
X36650Y160550*
G75*
G02X37350Y160840I700J-700*
G01*
X58860*
Y162600*
G75*
G02X59150Y163300I990J0*
G01*
X62360Y166510*
Y169307*
G75*
G02X62120Y169822I1030J793*
G01*
G75*
G02X59580I-1270J278*
G01*
G75*
G02X59340Y169307I-1270J278*
G01*
Y167600*
G75*
G02X59050Y166900I-990J0*
G01*
X55300Y163150*
G75*
G02X54600Y162860I-700J700*
G01*
X26760*
X15346Y151446*
X15366Y150104*
G75*
G02X14390Y147700I-976J-1004*
G01*
G75*
G02X13177Y148401J1400*
G01*
G75*
G02X10523I-1327J699*
G01*
G75*
G02X10309Y148119I-1213J699*
G01*
X10337Y144900*
G75*
G02X10300Y144197I-987J-300*
G01*
Y141628*
G75*
G02Y139572I-950J-1028*
G01*
X11850Y145600D02*
G75*
G02Y143600J-1000D01*
G01*
G75*
G02Y145600J1000*
G01*
X12950Y140600D02*
G75*
G02X15750I1400D01*
G01*
G75*
G02X12950I-1400*
G01*
X19750Y145350D02*
G75*
G02X17950I-900D01*
G01*
G75*
G02X19750I900*
G01*
X19850Y143350D02*
G75*
G02X17850I-1000D01*
G01*
G75*
G02X19850I1000*
G01*
X10382Y144600D02*
G36*
G75*
G02X10300Y144197I-1032D01*
G01*
Y143350*
X17850*
G75*
G02X19850I1000*
G01*
X23650*
Y144197*
G75*
G02X23568Y144600I950J403*
G01*
X19348*
G75*
G02X18352I-498J750*
G01*
X12850*
G75*
G02X11850Y143600I-1000*
G01*
G75*
G02X10850Y144600J1000*
G01*
X10382*
G37*
X10850D02*
G36*
G75*
G02X11850Y145600I1000D01*
G01*
G75*
G02X12850Y144600J-1000*
G01*
X18352*
G75*
G02X17950Y145350I498J750*
G01*
G75*
G02X19750I900*
G01*
G75*
G02X19348Y144600I-900*
G01*
X23568*
G75*
G02X23610Y144891I1032*
G01*
Y148072*
G75*
G02X24560Y150500I950J1028*
G01*
G75*
G02X25773Y149799J-1400*
G01*
G75*
G02X28427I1327J-699*
G01*
G75*
G02X28637Y150077I1213J-699*
G01*
X28610Y152087*
G75*
G02X28900Y152800I990J13*
G01*
X36650Y160550*
G75*
G02X37350Y160840I700J-700*
G01*
X58860*
Y162600*
G75*
G02X59150Y163300I990J0*
G01*
X62360Y166510*
Y169307*
G75*
G02X62120Y169822I1030J793*
G01*
G75*
G02X59580I-1270J278*
G01*
G75*
G02X59340Y169307I-1270J278*
G01*
Y167600*
G75*
G02X59050Y166900I-990J0*
G01*
X55300Y163150*
G75*
G02X54600Y162860I-700J700*
G01*
X26760*
X15346Y151446*
X15366Y150104*
G75*
G02X14390Y147700I-976J-1004*
G01*
G75*
G02X13177Y148401J1400*
G01*
G75*
G02X10523I-1327J699*
G01*
G75*
G02X10309Y148119I-1213J699*
G01*
X10337Y144900*
G75*
G02X10382Y144600I-987J-300*
G01*
X10850*
G37*
X10750Y140600D02*
G36*
G75*
G02X10300Y139572I-1400D01*
G01*
Y137050*
X21447*
G75*
G02X22253I403J-950*
G01*
X23650*
Y139572*
G75*
G02X23200Y140600I950J1028*
G01*
X15750*
G75*
G02X12950I-1400*
G01*
X10750*
G37*
X12950D02*
G36*
G75*
G02X15750I1400D01*
G01*
X23200*
G75*
G02X23650Y141628I1400*
G01*
Y143350*
X19850*
G75*
G02X17850I-1000*
G01*
X10300*
Y141628*
G75*
G02X10750Y140600I-950J-1028*
G01*
X12950*
G37*
X56823Y98938D02*
X56710D01*
X55440Y97668*
Y78300*
X65600Y68140*
Y41470*
X68140Y38930*
X85920*
X87190Y40200*
Y63060*
X65600Y84650*
Y95445*
X63453Y97592*
G75*
G02X62007Y98938I-393J1028*
G01*
X61573*
G75*
G02X61020Y97640I-1053J-318*
G01*
Y82317*
X81829Y61509*
G75*
G02X81975Y61155I-354J-353*
G01*
Y46260*
G75*
G02X82575Y45280I-500J-980*
G01*
X83380*
X84650Y44010*
Y42740*
X83380Y41470*
X79570*
X78300Y42740*
X73855*
X73220Y43375*
Y44645*
X73855Y45280*
X80375*
G75*
G02X80975Y46260I1100*
G01*
Y60948*
X60166Y81756*
G75*
G02X60020Y82110I354J353*
G01*
Y97640*
G75*
G02X59467Y98938I500J980*
G01*
X59137*
G75*
G02X59180Y98620I-1157J-318*
G01*
G75*
G02X56780I-1200*
G01*
G75*
G02X56823Y98938I1200J0*
G01*
X60519Y78335D02*
G75*
G02X59920Y78935I1J600D01*
G01*
G75*
G02X61120Y78936I600*
G01*
X69711Y70346*
G75*
G02X69835Y70045I-301J-301*
G01*
Y47073*
G75*
G02X70310Y46280I-425J-793*
G01*
G75*
G02X68510I-900*
G01*
G75*
G02X68985Y47073I900*
G01*
Y69869*
X60519Y78335*
X70410Y44280D02*
G75*
G02X68410I-1000D01*
G01*
G75*
G02X70410I1000*
G01*
X75390Y46550D02*
G75*
G02X73590I-900D01*
G01*
G75*
G02X75390I900*
G01*
X65600Y62458D02*
G36*
Y46550D01*
X68552*
G75*
G02X68985Y47073I859J-270*
G01*
Y62458*
X65600*
G37*
X68985D02*
G36*
Y69869D01*
X60519Y78335*
G75*
G02X59920Y78935I1J600*
G01*
G75*
G02X61120Y78936I600*
G01*
X69711Y70346*
G75*
G02X69835Y70045I-301J-301*
G01*
Y62458*
X79465*
X60166Y81756*
G75*
G02X60020Y82110I354J353*
G01*
Y97640*
G75*
G02X59467Y98938I500J980*
G01*
X59137*
G75*
G02X59180Y98620I-1157J-318*
G01*
G75*
G02X56780I-1200*
G01*
G75*
G02X56823Y98938I1200J0*
G01*
X56710*
X55440Y97668*
Y78300*
X65600Y68140*
Y62458*
X68985*
G37*
X69835D02*
G36*
Y47073D01*
G75*
G02X70269Y46550I-425J-793*
G01*
X73590*
G75*
G02X75390I900*
G01*
X80975*
Y60948*
X79465Y62458*
X69835*
G37*
X65600Y44280D02*
G36*
Y41470D01*
X68140Y38930*
X85920*
X87190Y40200*
Y63060*
X65600Y84650*
Y95445*
X63453Y97592*
G75*
G02X62007Y98938I-393J1028*
G01*
X61573*
G75*
G02X61020Y97640I-1053J-318*
G01*
Y82317*
X81829Y61509*
G75*
G02X81975Y61155I-354J-353*
G01*
Y46260*
G75*
G02X82575Y45280I-500J-980*
G01*
X83380*
X84650Y44010*
Y42740*
X83380Y41470*
X79570*
X78300Y42740*
X73855*
X73220Y43375*
Y44280*
X70410*
G75*
G02X68410I-1000*
G01*
X65600*
G37*
X68410D02*
G36*
G75*
G02X70410I1000D01*
G01*
X73220*
Y44645*
X73855Y45280*
X80375*
G75*
G02X80975Y46260I1100*
G01*
Y46550*
X75390*
G75*
G02X73590I-900*
G01*
X70269*
G75*
G02X70310Y46280I-859J-270*
G01*
G75*
G02X68510I-900*
G01*
G75*
G02X68552Y46550I900J0*
G01*
X65600*
Y44280*
X68410*
G37*
X64830Y149296D02*
G75*
G02X65549Y148428I-500J-1146D01*
G01*
G75*
G02X68191I1321J-278*
G01*
G75*
G02X68460Y148962I1219J-277*
G01*
Y152418*
G75*
G02X68191Y152952I950J812*
G01*
G75*
G02X65549I-1321J278*
G01*
G75*
G02X64830Y152084I-1219J278*
G01*
Y149296*
G36*
G75*
G02X65549Y148428I-500J-1146*
G01*
G75*
G02X68191I1321J-278*
G01*
G75*
G02X68460Y148962I1219J-277*
G01*
Y152418*
G75*
G02X68191Y152952I950J812*
G01*
G75*
G02X65549I-1321J278*
G01*
G75*
G02X64830Y152084I-1219J278*
G01*
Y149296*
G37*
X70600Y165080D02*
G75*
G02X71100Y164558I-500J-980D01*
G01*
G75*
G02X73100I1000J-458*
G01*
G75*
G02X73150Y164655I999J-458*
G01*
Y173546*
G75*
G02X73100Y173642I949J555*
G01*
G75*
G02X72600Y173120I-1000J458*
G01*
Y169100*
G75*
G02X72454Y168746I-500J0*
G01*
X70600Y166893*
Y165080*
G36*
G75*
G02X71100Y164558I-500J-980*
G01*
G75*
G02X73100I1000J-458*
G01*
G75*
G02X73150Y164655I999J-458*
G01*
Y173546*
G75*
G02X73100Y173642I949J555*
G01*
G75*
G02X72600Y173120I-1000J458*
G01*
Y169100*
G75*
G02X72454Y168746I-500J0*
G01*
X70600Y166893*
Y165080*
G37*
X74805Y148962D02*
G75*
G02X75074Y148428I-950J-812D01*
G01*
G75*
G02X77716I1321J-278*
G01*
G75*
G02X78435Y149296I1219J-278*
G01*
Y152084*
G75*
G02X77716Y152952I500J1146*
G01*
G75*
G02X75074I-1321J278*
G01*
G75*
G02X74805Y152418I-1219J277*
G01*
Y148962*
G36*
G75*
G02X75074Y148428I-950J-812*
G01*
G75*
G02X77716I1321J-278*
G01*
G75*
G02X78435Y149296I1219J-278*
G01*
Y152084*
G75*
G02X77716Y152952I500J1146*
G01*
G75*
G02X75074I-1321J278*
G01*
G75*
G02X74805Y152418I-1219J277*
G01*
Y148962*
G37*
X85600Y165080D02*
G75*
G02X86100Y164558I-500J-980D01*
G01*
G75*
G02X86600Y165080I1000J-458*
G01*
Y173120*
G75*
G02X86100Y173642I500J980*
G01*
G75*
G02X85600Y173120I-1000J458*
G01*
Y165080*
G36*
G75*
G02X86100Y164558I-500J-980*
G01*
G75*
G02X86600Y165080I1000J-458*
G01*
Y173120*
G75*
G02X86100Y173642I500J980*
G01*
G75*
G02X85600Y173120I-1000J458*
G01*
Y165080*
G37*
Y175080D02*
G75*
G02X86100Y174558I-500J-980D01*
G01*
G75*
G02X86600Y175080I1000J-458*
G01*
Y183120*
G75*
G02X86100Y183642I500J980*
G01*
G75*
G02X85600Y183120I-1000J458*
G01*
Y175080*
G36*
G75*
G02X86100Y174558I-500J-980*
G01*
G75*
G02X86600Y175080I1000J-458*
G01*
Y183120*
G75*
G02X86100Y183642I500J980*
G01*
G75*
G02X85600Y183120I-1000J458*
G01*
Y175080*
G37*
Y185080D02*
G75*
G02X86100Y184558I-500J-980D01*
G01*
G75*
G02X86600Y185080I1000J-458*
G01*
Y193120*
G75*
G02X86100Y193642I500J980*
G01*
G75*
G02X85600Y193120I-1000J458*
G01*
Y185080*
G36*
G75*
G02X86100Y184558I-500J-980*
G01*
G75*
G02X86600Y185080I1000J-458*
G01*
Y193120*
G75*
G02X86100Y193642I500J980*
G01*
G75*
G02X85600Y193120I-1000J458*
G01*
Y185080*
G37*
X87055Y149296D02*
G75*
G02X87774Y148428I-500J-1146D01*
G01*
G75*
G02X90416I1321J-278*
G01*
G75*
G02X91135Y149296I1219J-278*
G01*
Y152084*
G75*
G02X90416Y152952I500J1146*
G01*
G75*
G02X87774I-1321J278*
G01*
G75*
G02X87055Y152084I-1219J278*
G01*
Y149296*
G36*
G75*
G02X87774Y148428I-500J-1146*
G01*
G75*
G02X90416I1321J-278*
G01*
G75*
G02X91135Y149296I1219J-278*
G01*
Y152084*
G75*
G02X90416Y152952I500J1146*
G01*
G75*
G02X87774I-1321J278*
G01*
G75*
G02X87055Y152084I-1219J278*
G01*
Y149296*
G37*
X87600Y165080D02*
G75*
G02X88100Y164558I-500J-980D01*
G01*
G75*
G02X88150Y164655I999J-458*
G01*
Y173546*
G75*
G02X88100Y173642I949J555*
G01*
G75*
G02X87600Y173120I-1000J458*
G01*
Y165080*
G36*
G75*
G02X88100Y164558I-500J-980*
G01*
G75*
G02X88150Y164655I999J-458*
G01*
Y173546*
G75*
G02X88100Y173642I949J555*
G01*
G75*
G02X87600Y173120I-1000J458*
G01*
Y165080*
G37*
Y175080D02*
G75*
G02X88100Y174558I-500J-980D01*
G01*
G75*
G02X88150Y174655I999J-458*
G01*
Y183546*
G75*
G02X88100Y183642I949J555*
G01*
G75*
G02X87600Y183120I-1000J458*
G01*
Y175080*
G36*
G75*
G02X88100Y174558I-500J-980*
G01*
G75*
G02X88150Y174655I999J-458*
G01*
Y183546*
G75*
G02X88100Y183642I949J555*
G01*
G75*
G02X87600Y183120I-1000J458*
G01*
Y175080*
G37*
Y185080D02*
G75*
G02X88100Y184558I-500J-980D01*
G01*
G75*
G02X88150Y184655I999J-458*
G01*
Y193546*
G75*
G02X88100Y193642I949J555*
G01*
G75*
G02X87600Y193120I-1000J458*
G01*
Y185080*
G36*
G75*
G02X88100Y184558I-500J-980*
G01*
G75*
G02X88150Y184655I999J-458*
G01*
Y193546*
G75*
G02X88100Y193642I949J555*
G01*
G75*
G02X87600Y193120I-1000J458*
G01*
Y185080*
G37*
X92135Y149296D02*
G75*
G02X92854Y148428I-500J-1146D01*
G01*
G75*
G02X95445Y148608I1321J-278*
G01*
G75*
G02X98036Y148428I1270J-458*
G01*
G75*
G02X98755Y149296I1219J-278*
G01*
Y152084*
G75*
G02X98036Y152952I500J1146*
G01*
G75*
G02X95445Y152772I-1321J278*
G01*
G75*
G02X92854Y152952I-1270J458*
G01*
G75*
G02X92135Y152084I-1219J278*
G01*
Y149296*
G36*
G75*
G02X92854Y148428I-500J-1146*
G01*
G75*
G02X95445Y148608I1321J-278*
G01*
G75*
G02X98036Y148428I1270J-458*
G01*
G75*
G02X98755Y149296I1219J-278*
G01*
Y152084*
G75*
G02X98036Y152952I500J1146*
G01*
G75*
G02X95445Y152772I-1321J278*
G01*
G75*
G02X92854Y152952I-1270J458*
G01*
G75*
G02X92135Y152084I-1219J278*
G01*
Y149296*
G37*
X115670Y165041D02*
G75*
G02X116100Y164558I-570J-941D01*
G01*
G75*
G02X118100I1000J-458*
G01*
G75*
G02X118150Y164655I999J-458*
G01*
Y173546*
G75*
G02X118100Y173642I949J555*
G01*
G75*
G02X117575Y173108I-1000J458*
G01*
Y169105*
G75*
G02X117417Y168723I-540J0*
G01*
X115670Y166976*
Y165041*
G36*
G75*
G02X116100Y164558I-570J-941*
G01*
G75*
G02X118100I1000J-458*
G01*
G75*
G02X118150Y164655I999J-458*
G01*
Y173546*
G75*
G02X118100Y173642I949J555*
G01*
G75*
G02X117575Y173108I-1000J458*
G01*
Y169105*
G75*
G02X117417Y168723I-540J0*
G01*
X115670Y166976*
Y165041*
G37*
Y175041D02*
G75*
G02X116100Y174558I-570J-941D01*
G01*
G75*
G02X118100I1000J-458*
G01*
G75*
G02X118150Y174655I999J-458*
G01*
Y183546*
G75*
G02X118100Y183642I949J555*
G01*
G75*
G02X117575Y183108I-1000J458*
G01*
Y179265*
G75*
G02X117417Y178883I-540J0*
G01*
X115670Y177136*
Y175041*
G36*
G75*
G02X116100Y174558I-570J-941*
G01*
G75*
G02X118100I1000J-458*
G01*
G75*
G02X118150Y174655I999J-458*
G01*
Y183546*
G75*
G02X118100Y183642I949J555*
G01*
G75*
G02X117575Y183108I-1000J458*
G01*
Y179265*
G75*
G02X117417Y178883I-540J0*
G01*
X115670Y177136*
Y175041*
G37*
Y185041D02*
G75*
G02X116100Y184558I-570J-941D01*
G01*
G75*
G02X118100I1000J-458*
G01*
G75*
G02X118150Y184655I999J-458*
G01*
Y193546*
G75*
G02X118100Y193642I949J555*
G01*
G75*
G02X117575Y193108I-1000J458*
G01*
Y189425*
G75*
G02X117417Y189043I-540J0*
G01*
X115670Y187296*
Y185041*
G36*
G75*
G02X116100Y184558I-570J-941*
G01*
G75*
G02X118100I1000J-458*
G01*
G75*
G02X118150Y184655I999J-458*
G01*
Y193546*
G75*
G02X118100Y193642I949J555*
G01*
G75*
G02X117575Y193108I-1000J458*
G01*
Y189425*
G75*
G02X117417Y189043I-540J0*
G01*
X115670Y187296*
Y185041*
G37*
D02*
D89*
X57430Y98620D02*
X56630D01*
X57980Y98070D02*
Y97270D01*
X69163Y44033D02*
X68597Y43467D01*
X69163Y44528D02*
X68597Y45093D01*
X69658Y44033D02*
X70223Y43467D01*
X69658Y44528D02*
X70223Y45093D01*
D02*
D103*
X8841Y128891D02*
X8200Y128250D01*
X8841Y130809D02*
X8200Y131450D01*
X10759Y128891D02*
X11400Y128250D01*
X10759Y130809D02*
X11400Y131450D01*
X11214Y148464D02*
X10719Y147969D01*
X11214Y149736D02*
X10719Y150231D01*
X11450Y144600D02*
X10750D01*
X11850Y144200D02*
Y143500D01*
Y145000D02*
Y145700D01*
X12250Y144600D02*
X12950D01*
X12486Y148464D02*
X12981Y147969D01*
X12486Y149736D02*
X12981Y150231D01*
X16705Y64330D02*
X15435Y65600D01*
Y68140*
X16705Y69410*
Y66870D02*
X17340Y67505D01*
X23690*
X29405Y61790*
Y48415*
X18567Y143067D02*
X18072Y142572D01*
X18567Y143633D02*
X18072Y144128D01*
X19133Y143067D02*
X19628Y142572D01*
X19133Y143633D02*
X19628Y144128D01*
X21567Y127567D02*
X21072Y127072D01*
X21567Y128133D02*
X21072Y128628D01*
X22133Y127567D02*
X22628Y127072D01*
X22133Y128133D02*
X22628Y128628D01*
X26464Y148464D02*
X25969Y147969D01*
X26464Y149736D02*
X25969Y150231D01*
X26700Y144600D02*
X26000D01*
X27100Y144200D02*
Y143500D01*
Y145000D02*
Y145700D01*
X27500Y144600D02*
X28200D01*
X27736Y148464D02*
X28231Y147969D01*
X27736Y149736D02*
X28231Y150231D01*
X30231Y25131D02*
X29531D01*
X31231Y24131D02*
Y23431D01*
Y26131D02*
Y26831D01*
X32231Y25131D02*
X32931D01*
X33817Y143067D02*
X33322Y142572D01*
X33817Y143633D02*
X33322Y144128D01*
X34383Y143067D02*
X34878Y142572D01*
X34383Y143633D02*
X34878Y144128D01*
X38400Y147620D02*
X37905Y147125D01*
X38400Y148680D02*
X37905Y149175D01*
X38400Y152700D02*
X37905Y152205D01*
X38400Y153760D02*
X37905Y154255D01*
X39070Y33969D02*
X38370D01*
X39460Y147620D02*
X39955Y147125D01*
X39460Y148680D02*
X39955Y149175D01*
X39460Y152700D02*
X39955Y152205D01*
X39460Y153760D02*
X39955Y154255D01*
X40070Y32969D02*
Y32270D01*
Y34969D02*
Y35670D01*
X41070Y33969D02*
X41770D01*
X41470Y153230D02*
Y148150D01*
X41731Y36631D02*
X41031D01*
X42731Y35631D02*
Y34931D01*
Y37631D02*
Y38331D01*
X43731Y36631D02*
X44431D01*
X44010Y148150D02*
Y141165D01*
X42740Y139895*
Y113225*
X51630Y104335*
X63695*
X65600Y102430*
Y101160*
X44010Y153230D02*
Y148150D01*
X45267Y10095D02*
X44567D01*
X46267Y9095D02*
Y8395D01*
Y11094D02*
Y11794D01*
X46550Y153230D02*
Y148150D01*
X47267Y10095D02*
X47967D01*
X49090Y148150D02*
Y141165D01*
X45280Y137355*
Y114495*
X52900Y106875*
X66870*
X70680Y103065*
Y101160*
X49090Y153230D02*
X49100Y153100D01*
X49090Y148150*
X50570Y45469D02*
X49870D01*
X51569Y44469D02*
Y43770D01*
Y46469D02*
Y47170D01*
X51630Y153230D02*
Y148150D01*
X52569Y45469D02*
X53270D01*
X54105Y18933D02*
X53405D01*
X54170Y148150D02*
Y141165D01*
X47820Y134815*
Y115765*
X54170Y109415*
X69410*
X75760Y103065*
Y101160*
X54170Y153230D02*
Y148150D01*
X55105Y17933D02*
Y17233D01*
Y19933D02*
Y20633D01*
X56105Y18933D02*
X56805D01*
X56710Y148150D02*
Y141165D01*
X49090Y133545*
Y116400*
X54805Y110685*
X70680*
X78300Y103065*
Y101160*
X56710Y153230D02*
Y148150D01*
X56767Y21595D02*
X56067D01*
X57556Y99044D02*
X57061Y99539D01*
X57556Y100736D02*
X57061Y100241D01*
X57556Y101584D02*
X57061Y102079D01*
X57767Y20595D02*
Y19895D01*
Y22595D02*
Y23295D01*
X58404Y99044D02*
X58899Y99539D01*
X58404Y100736D02*
X58899Y100241D01*
X58404Y101584D02*
X58899Y102079D01*
X58767Y21595D02*
X59467D01*
X59250Y153230D02*
Y148150D01*
X59567Y157567D02*
X59072Y157072D01*
X59567Y158133D02*
X59072Y158628D01*
X60080Y116400D02*
X59380D01*
X60096Y121056D02*
X59601Y120561D01*
X60096Y121904D02*
X59601Y122399D01*
X60096Y123596D02*
X59601Y123101D01*
X60096Y124444D02*
X59601Y124939D01*
X60133Y157567D02*
X60628Y157072D01*
X60133Y158133D02*
X60628Y158628D01*
X60480Y116000D02*
Y115300D01*
Y116800D02*
Y117500D01*
X60520Y98620D02*
Y82110D01*
X81475Y61155*
Y45280*
X60880Y116400D02*
X61580D01*
X60944Y121056D02*
X61439Y120561D01*
X60944Y121904D02*
X61439Y122399D01*
X60944Y123596D02*
X61439Y123101D01*
X60944Y124444D02*
X61439Y124939D01*
X61790Y148150D02*
Y141165D01*
X51630Y131005*
Y117670*
X56075Y113225*
X106240*
X113860Y105605*
Y101160*
X61790Y153230D02*
Y148150D01*
X63060Y101160D02*
Y102430D01*
X62425Y103065*
X50995*
X41470Y112590*
Y148150*
X64330D02*
Y141165D01*
X52900Y129735*
Y118305*
X56710Y114495*
X106875*
X117670Y103700*
X125290*
X126560Y102430*
Y101160*
X64330Y153230D02*
Y148150D01*
X65605Y30433D02*
X64905D01*
X66340Y147620D02*
X65845Y147125D01*
X66340Y148680D02*
X65845Y149175D01*
X66340Y152700D02*
X65845Y152205D01*
X66340Y153760D02*
X65845Y154255D01*
X66605Y29433D02*
Y28733D01*
Y31433D02*
Y32133D01*
X67400Y147620D02*
X67895Y147125D01*
X67400Y148680D02*
X67895Y149175D01*
X67400Y152700D02*
X67895Y152205D01*
X67400Y153760D02*
X67895Y154255D01*
X67605Y30433D02*
X68305D01*
X68140Y101160D02*
Y103065D01*
X65600Y105605*
X52265*
X44010Y113860*
Y138625*
X46550Y141165*
Y148150*
X70100Y164100D02*
Y167100D01*
X72100Y169100*
Y174100*
X73220Y101160D02*
Y103065D01*
X68140Y108145*
X53535*
X46550Y115130*
Y136085*
X51630Y141165*
Y148150*
X75676Y163676D02*
X75181Y163181D01*
X75676Y164524D02*
X75181Y165019D01*
X75676Y173676D02*
X75181Y173181D01*
X75676Y174524D02*
X75181Y175019D01*
X75760Y98620D02*
Y92905D01*
X80840Y87825*
Y84015*
X82110Y82745*
X81804Y83054*
X75865Y147620D02*
X75370Y147125D01*
X75865Y148680D02*
X75370Y149175D01*
X75865Y152700D02*
X75370Y152205D01*
X75865Y153760D02*
X75370Y154255D01*
X76524Y163676D02*
X77019Y163181D01*
X76524Y164524D02*
X77019Y165019D01*
X76524Y173676D02*
X77019Y173181D01*
X76524Y174524D02*
X77019Y175019D01*
X76925Y147620D02*
X77420Y147125D01*
X76925Y148680D02*
X77420Y149175D01*
X76925Y152700D02*
X77420Y152205D01*
X76925Y153760D02*
X77420Y154255D01*
X77067Y183317D02*
X76572Y182822D01*
X77067Y183883D02*
X76572Y184378D01*
X77633Y183317D02*
X78128Y182822D01*
X77633Y183883D02*
X78128Y184378D01*
X78300Y98620D02*
X78350Y98600D01*
Y95100*
X83600Y89850*
Y73850*
X83554Y73804*
X78935Y148150D02*
Y153230D01*
Y148150D02*
Y142435D01*
X64543Y128118*
X63060Y126560*
Y124020*
X79890Y190350D02*
X81350Y191850D01*
X83600Y194100*
X85100*
X81475Y148150D02*
Y153230D01*
Y148150D02*
Y142435D01*
X65600Y126560*
Y124020*
X83100Y195350D02*
X81850D01*
X79850Y193350*
X79890*
X83650Y16150D02*
X82950D01*
X84015Y148150D02*
Y153230D01*
Y148150D02*
Y142435D01*
X68140Y126560*
Y124020*
X84650Y15150D02*
Y14450D01*
Y17150D02*
Y17850D01*
X85100Y164100D02*
Y161100D01*
X87350Y158850*
X95850*
X99100Y155600*
X99255Y153230*
X85100Y174100D02*
Y164100D01*
Y184100D02*
Y174100D01*
Y194100D02*
Y184100D01*
X85650Y16150D02*
X86350D01*
X85920Y124020D02*
Y129100D01*
X101795Y144975*
Y148150*
X86555D02*
Y153230D01*
Y148150D02*
Y142435D01*
X70680Y126560*
Y124020*
X87100Y174100D02*
Y164100D01*
Y184100D02*
Y174100D01*
Y194100D02*
Y194850D01*
X86600Y195350*
X83100*
X87100Y194100D02*
Y184100D01*
X88565Y147620D02*
X88070Y147125D01*
X88565Y148680D02*
X88070Y149175D01*
X88565Y152700D02*
X88070Y152205D01*
X88565Y153760D02*
X88070Y154255D01*
X88988Y75870D02*
X89100Y75850D01*
X98100Y66850*
Y48850*
X101350Y45600*
X89625Y147620D02*
X90120Y147125D01*
X89625Y148680D02*
X90120Y149175D01*
X89625Y152700D02*
X90120Y152205D01*
X89625Y153760D02*
X90120Y154255D01*
X90676Y163676D02*
X90181Y163181D01*
X90676Y164524D02*
X90181Y165019D01*
X90676Y173676D02*
X90181Y173181D01*
X90676Y174524D02*
X90181Y175019D01*
X90676Y183676D02*
X90181Y183181D01*
X90676Y184524D02*
X90181Y185019D01*
X90676Y193676D02*
X90181Y193181D01*
X90676Y194524D02*
X90181Y195019D01*
X91000Y124020D02*
Y128465D01*
X106875Y144340*
Y148150*
X91524Y163676D02*
X92019Y163181D01*
X91524Y164524D02*
X92019Y165019D01*
X91524Y173676D02*
X92019Y173181D01*
X91524Y174524D02*
X92019Y175019D01*
X91524Y183676D02*
X92019Y183181D01*
X91524Y184524D02*
X92019Y185019D01*
X91524Y193676D02*
X92019Y193181D01*
X91524Y194524D02*
X92019Y195019D01*
X91635Y148150D02*
Y153230D01*
Y148150D02*
Y142435D01*
X75760Y126560*
Y124020*
X93645Y147620D02*
X93150Y147125D01*
X93645Y148680D02*
X93150Y149175D01*
X93645Y152700D02*
X93150Y152205D01*
X93645Y153760D02*
X93150Y154255D01*
X94705Y147620D02*
X95200Y147125D01*
X94705Y148680D02*
X95200Y149175D01*
X94705Y152700D02*
X95200Y152205D01*
X94705Y153760D02*
X95200Y154255D01*
X96080Y98620D02*
Y74490D01*
X96150Y16150D02*
X95450D01*
X96185Y147620D02*
X95690Y147125D01*
X96185Y148680D02*
X95690Y149175D01*
X96185Y152700D02*
X95690Y152205D01*
X96185Y153760D02*
X95690Y154255D01*
X97150Y15150D02*
Y14450D01*
Y17150D02*
Y17850D01*
X97245Y147620D02*
X97740Y147125D01*
X97245Y148680D02*
X97740Y149175D01*
X97245Y152700D02*
X97740Y152205D01*
X97245Y153760D02*
X97740Y154255D01*
X98150Y16150D02*
X98850D01*
X98620Y72903D02*
Y98620D01*
X99255Y148150D02*
Y144975D01*
X83380Y129100*
Y124020*
X99255Y153230D02*
Y148150D01*
X100100Y164100D02*
Y159850D01*
X104350Y155600*
Y153350*
X104335*
Y153230*
X101160Y59885D02*
Y98620D01*
X101350Y35600D02*
X96100Y40850D01*
Y61350*
X90850Y66600*
X90738Y66620*
X101795Y153230D02*
X101850Y153350D01*
Y155600*
X97100Y160350*
X88100*
X87100Y161350*
Y164100*
X101795Y153230D02*
Y148150D01*
X104335Y56393D02*
Y59885D01*
X103700Y60520*
Y98620*
X104335Y148150D02*
Y144340D01*
X88460Y128465*
Y124020*
X104335Y153230D02*
Y148150D01*
X104605Y16150D02*
X103905D01*
X105605Y15150D02*
Y14450D01*
Y17150D02*
Y17850D01*
X105676Y163676D02*
X105181Y163181D01*
X105676Y164524D02*
X105181Y165019D01*
X105676Y173676D02*
X105181Y173181D01*
X105676Y174524D02*
X105181Y175019D01*
X106240Y59885D02*
Y98620D01*
X106524Y163676D02*
X107019Y163181D01*
X106524Y164524D02*
X107019Y165019D01*
X106524Y173676D02*
X107019Y173181D01*
X106524Y174524D02*
X107019Y175019D01*
X106605Y16150D02*
X107305D01*
X106875Y153230D02*
Y155770D01*
X106850Y155850*
X102100Y160600*
Y164100*
X106875Y153230D02*
Y148150D01*
X108780Y56393D02*
Y98620D01*
Y124020D02*
Y127195D01*
X124655Y143070*
Y148150*
X109415D02*
Y143705D01*
X93540Y127830*
Y124020*
X109415Y153230D02*
Y148150D01*
X111320Y101160D02*
Y106240D01*
X105605Y111955*
X55440*
X50360Y117035*
Y132275*
X59250Y141165*
Y148150*
X111955D02*
Y143070D01*
X96080Y126560*
Y124020*
X111955Y153230D02*
Y148150D01*
X113860Y124020D02*
Y127195D01*
X129735Y142435*
Y148150*
X114495D02*
Y153230D01*
Y148150D02*
Y142435D01*
X98620Y126560*
Y124020*
X115100Y164100D02*
Y158100D01*
X116350Y156850*
X126100*
X127100Y155850*
Y153350*
X127195Y153230*
X117035Y148150D02*
Y153230D01*
Y148150D02*
Y142435D01*
X101160Y126560*
Y124020*
X117100Y174100D02*
X117035Y173550D01*
Y169105*
X115130Y167200*
Y164660*
X115100Y164100*
X117100Y184100D02*
X117035Y183710D01*
Y179265*
X115130Y177360*
Y174185*
X115100Y174100*
X117100Y194100D02*
X117035Y193870D01*
Y189425*
X115130Y187520*
Y184345*
X115100Y184100*
X117105Y16150D02*
X116405D01*
X118105Y15150D02*
Y14450D01*
Y17150D02*
Y17850D01*
X118516Y98196D02*
X118021Y97701D01*
X118516Y99044D02*
X118021Y99539D01*
X118516Y100736D02*
X118021Y100241D01*
X118516Y101584D02*
X118021Y102079D01*
X118580Y105605D02*
X117880D01*
X118980Y105205D02*
Y104505D01*
Y106005D02*
Y106705D01*
X119105Y16150D02*
X119805D01*
X119364Y98196D02*
X119859Y97701D01*
X119364Y99044D02*
X119859Y99539D01*
X119364Y100736D02*
X119859Y100241D01*
X119364Y101584D02*
X119859Y102079D01*
X119380Y105605D02*
X120080D01*
X119575Y148150D02*
Y153230D01*
Y148150D02*
Y142435D01*
X103700Y126560*
Y124020*
X120676Y163676D02*
X120181Y163181D01*
X120676Y164524D02*
X120181Y165019D01*
X120676Y173676D02*
X120181Y173181D01*
X120676Y174524D02*
X120181Y175019D01*
X120676Y183676D02*
X120181Y183181D01*
X120676Y184524D02*
X120181Y185019D01*
X120676Y193676D02*
X120181Y193181D01*
X120676Y194524D02*
X120181Y195019D01*
X121480Y124020D02*
Y121480D01*
X121524Y163676D02*
X122019Y163181D01*
X121524Y164524D02*
X122019Y165019D01*
X121524Y173676D02*
X122019Y173181D01*
X121524Y174524D02*
X122019Y175019D01*
X121524Y183676D02*
X122019Y183181D01*
X121524Y184524D02*
X122019Y185019D01*
X121524Y193676D02*
X122019Y193181D01*
X121524Y194524D02*
X122019Y195019D01*
X122115Y148150D02*
Y153230D01*
Y148150D02*
Y142435D01*
X106240Y126560*
Y124020*
X124020D02*
Y121480D01*
X124655Y153230D02*
Y148150D01*
X127195D02*
Y143070D01*
X111320Y127830*
Y124020*
X127195Y153230D02*
Y148150D01*
X128676Y100736D02*
X128181Y100241D01*
X128676Y101584D02*
X128181Y102079D01*
X129524Y100736D02*
X130019Y100241D01*
X129524Y101584D02*
X130019Y102079D01*
X129735Y148150D02*
Y153230D01*
X131216Y98196D02*
X130721Y97701D01*
X131216Y99044D02*
X130721Y99539D01*
X131216Y100736D02*
X130721Y100241D01*
X131216Y101584D02*
X130721Y102079D01*
X132064Y98196D02*
X132559Y97701D01*
X132064Y99044D02*
X132559Y99539D01*
X132064Y100736D02*
X132559Y100241D01*
X132064Y101584D02*
X132559Y102079D01*
X132275Y148150D02*
Y153230D01*
Y148150D02*
Y142435D01*
X116400Y126560*
Y124020*
X134815Y148150D02*
Y153230D01*
Y148150D02*
Y142435D01*
X118940Y126560*
Y124020*
X137355Y148150D02*
Y153230D01*
Y148150D02*
Y142435D01*
X121480Y126560*
Y124020*
D02*
D104*
X31231Y25131D03*
X34766Y21595D03*
X40070Y33969D03*
X42731Y36631D03*
X42731Y13630D03*
X43605Y30434D03*
X46266Y33095D03*
X46267Y10095D03*
X51569Y45469D03*
X51570Y22469D03*
X54231Y25130D03*
X55105Y41934D03*
X55105Y18933D03*
X57767Y21595D03*
X63070Y33969D03*
X66605Y30433D03*
X84650Y16150D03*
Y21150D03*
X97150Y16150D03*
Y21150D03*
X105605Y16150D03*
Y21150D03*
X118105Y16150D03*
Y21150D03*
D02*
D106*
X9350Y144600D03*
X11850D03*
X16070Y45550D03*
Y47550D03*
X18850Y143350D03*
Y145350D03*
X20515Y49725D03*
X21850Y127850D03*
Y129850D03*
X23015Y49725D03*
X24600Y144600D03*
X27100D03*
X34100Y143350D03*
Y145350D03*
X57980Y116400D03*
X59850Y157850D03*
Y159850D03*
X60480Y116400D03*
X69410Y44280D03*
Y46280D03*
X74490Y44050D03*
Y46550D03*
X75350Y183600D03*
X77350D03*
X96080Y74490D03*
X98620Y72903D03*
X101160Y59885D03*
X104335Y56393D03*
X106240Y59885D03*
X108780Y56393D03*
X118980Y105605D03*
X121480D03*
D02*
D107*
X9800Y129850D03*
D02*
D109*
X15800D03*
D02*
D110*
X12850Y124950D03*
D02*
D111*
X9310Y149100D03*
X9350Y140600D03*
X11850Y149100D03*
X14350Y140600D03*
X14390Y149100D03*
X24560D03*
X24600Y140600D03*
X27100Y149100D03*
X29600Y140600D03*
X29640Y149100D03*
D02*
D112*
X9310D02*
X9350D01*
Y144600*
Y140600*
X14165Y64330D02*
X16070Y62425D01*
X17975*
X20515Y59885*
Y49725*
X14390Y149100D02*
X14350D01*
Y151850*
X26350Y163850*
X54600*
X58350Y167600*
Y170100*
X58310*
X16070Y45550D02*
X18840D01*
X23015Y49725*
X16070Y47550D02*
X18340D01*
X20515Y49725*
X16705Y64330D02*
X18610D01*
X22420Y60520*
Y50360*
X23055Y49725*
X23015*
X21850Y129850D02*
X15800D01*
X21850Y136100D02*
Y129850D01*
Y136100D02*
X9350D01*
Y140600*
X24600Y136100D02*
X21850D01*
X24600Y140600D02*
Y136100D01*
Y140600D02*
Y144600D01*
Y149100*
X24560*
X27060Y136100D02*
X24600D01*
X28100Y91350D02*
Y88350D01*
Y94600D02*
Y91350D01*
X29600Y140600D02*
Y136100D01*
X29640Y149100D02*
X29600D01*
Y152100*
X37350Y159850*
X59850*
X38930Y148150D02*
Y153230D01*
X45600Y97600D02*
X31100D01*
X28100Y94600*
X48100Y78600D02*
Y81850D01*
Y85100*
X45600Y87600*
Y97600*
X59850Y159850D02*
Y162600D01*
X63350Y166100*
Y170100*
X63390*
X66870Y153230D02*
Y148150D01*
X69410D02*
Y142435D01*
X55440Y128465*
Y120210*
X56710Y118940*
X108780*
X121480Y106240*
Y105605*
X69410Y153230D02*
X69350Y153100D01*
Y156600*
X66100Y159850*
X59850*
X69410Y153230D02*
Y148150D01*
X73855D02*
Y143070D01*
X57980Y127195*
Y124020*
X73855Y153230D02*
Y148150D01*
X74100Y164100D02*
Y153600D01*
X73855Y153230*
X74100Y174100D02*
Y178350D01*
Y174100D02*
Y164100D01*
Y178350D02*
X66100D01*
X60850Y173100*
Y170100*
X74100Y178350D02*
X75350Y179600D01*
Y190350*
Y192100*
Y193350*
Y194850*
X77100Y196600*
X89100*
X89095Y153230D02*
Y148150D01*
X89100Y174100D02*
Y164100D01*
Y184100D02*
Y174100D01*
Y194100D02*
Y184100D01*
Y196600D02*
X104100D01*
X89100D02*
Y194100D01*
X94175Y153230D02*
Y148150D01*
X96715Y153230D02*
Y148150D01*
X104100Y174100D02*
Y164100D01*
Y196600D02*
X118350D01*
X119100Y195850*
Y194100*
X104100Y196600D02*
Y174100D01*
X119100D02*
Y164100D01*
Y184100D02*
Y174100D01*
Y194100D02*
Y184100D01*
X124020Y98620D02*
Y101160D01*
X121480*
D02*
D113*
X60520Y78935D02*
X69410Y70045D01*
Y46280*
D02*
D115*
X75350Y193350D02*
X77350D01*
Y190350D02*
X75350D01*
X0Y0D02*
M02*
