%FSLAX33Y33*%
%MOMM*%
G04 EasyPC Gerber Version 17.0 Build 3379 *
%ADD97R,2.35240X4.55240*%
%ADD100R,2.35240X5.15240*%
%ADD85C,0.75240*%
%ADD120C,1.16240*%
%ADD99C,1.16340*%
%ADD96C,1.35240*%
%ADD80C,1.75240*%
%ADD95C,1.95340*%
%ADD82C,2.05240*%
%ADD81C,2.15240*%
%ADD102C,2.35240*%
%ADD94C,2.55240*%
%ADD92C,3.35240*%
%ADD93C,3.65240*%
%ADD101R,4.55240X2.35240*%
X0Y0D02*
D02*
D80*
X7180Y169740D03*
Y172280D03*
Y174820D03*
Y177360D03*
Y179900D03*
Y182440D03*
X9720Y169740D03*
Y172280D03*
Y174820D03*
Y177360D03*
Y179900D03*
Y182440D03*
X12260Y169740D03*
Y172280D03*
Y174820D03*
Y177360D03*
Y179900D03*
Y182440D03*
X14165Y64330D03*
Y66870D03*
Y69410D03*
Y71950D03*
Y74490D03*
Y77030D03*
Y79570D03*
X14800Y169740D03*
Y172280D03*
Y174820D03*
Y177360D03*
Y179900D03*
Y182440D03*
X16705Y64330D03*
Y66870D03*
Y69410D03*
Y71950D03*
Y74490D03*
Y77030D03*
Y79570D03*
X17340Y169740D03*
Y172280D03*
Y174820D03*
Y177360D03*
Y179900D03*
Y182440D03*
Y184980D03*
X19880Y169740D03*
Y172280D03*
Y174820D03*
Y177360D03*
Y179900D03*
Y182440D03*
Y184980D03*
Y187520D03*
X22420Y169740D03*
Y172280D03*
Y174820D03*
Y177360D03*
Y179900D03*
Y182440D03*
Y184980D03*
Y187520D03*
Y190060D03*
Y192600D03*
Y195140D03*
Y197680D03*
X24960Y169740D03*
Y172280D03*
Y174820D03*
Y177360D03*
Y179900D03*
Y182440D03*
Y184980D03*
Y187520D03*
Y190060D03*
Y192600D03*
Y195140D03*
Y197680D03*
X26905Y45915D03*
X27500Y169740D03*
Y172280D03*
Y174820D03*
Y177360D03*
Y179900D03*
Y182440D03*
Y184980D03*
Y187520D03*
Y190060D03*
Y192600D03*
Y195140D03*
Y197680D03*
X28100Y88350D03*
Y91350D03*
Y94600D03*
X29405Y48415D03*
X30040Y169740D03*
Y172280D03*
Y174820D03*
Y177360D03*
Y179900D03*
Y182440D03*
Y184980D03*
Y187520D03*
Y190060D03*
Y192600D03*
Y195140D03*
Y197680D03*
X31905Y45915D03*
X32580Y169740D03*
Y172280D03*
Y174820D03*
Y177360D03*
Y179900D03*
Y182440D03*
Y184980D03*
Y187520D03*
Y190060D03*
Y192600D03*
Y195140D03*
Y197680D03*
X35120Y169740D03*
Y172280D03*
Y174820D03*
Y177360D03*
Y179900D03*
Y182440D03*
Y184980D03*
Y187520D03*
Y190060D03*
Y192600D03*
Y195140D03*
Y197680D03*
X37660Y169740D03*
Y172280D03*
Y174820D03*
Y177360D03*
Y179900D03*
Y182440D03*
Y184980D03*
Y187520D03*
Y190060D03*
Y192600D03*
Y195140D03*
Y197680D03*
X38100Y78600D03*
Y81850D03*
Y85100D03*
Y88350D03*
Y91350D03*
Y94600D03*
X40200Y169740D03*
Y172280D03*
Y174820D03*
Y177360D03*
Y179900D03*
Y182440D03*
Y184980D03*
Y187520D03*
Y190060D03*
Y192600D03*
Y195140D03*
Y197680D03*
X42740Y169740D03*
Y172280D03*
Y174820D03*
Y177360D03*
Y179900D03*
Y182440D03*
Y184980D03*
Y187520D03*
Y190060D03*
Y192600D03*
Y195140D03*
Y197680D03*
X45280Y169740D03*
Y172280D03*
Y174820D03*
Y177360D03*
Y179900D03*
Y182440D03*
Y184980D03*
Y187520D03*
Y190060D03*
Y192600D03*
Y195140D03*
Y197680D03*
X45600Y97600D03*
X47820Y169740D03*
Y172280D03*
Y174820D03*
Y177360D03*
Y179900D03*
Y182440D03*
Y184980D03*
Y187520D03*
Y190060D03*
Y192600D03*
Y195140D03*
Y197680D03*
X48100Y78600D03*
Y81850D03*
Y85100D03*
X50360Y169740D03*
Y172280D03*
Y174820D03*
Y177360D03*
Y179900D03*
Y182440D03*
Y184980D03*
Y187520D03*
Y190060D03*
Y192600D03*
Y195140D03*
Y197680D03*
X52900Y172280D03*
Y174820D03*
Y177360D03*
Y179900D03*
Y182440D03*
Y184980D03*
Y187520D03*
Y190060D03*
Y192600D03*
Y195140D03*
Y197680D03*
X55440Y174820D03*
Y177360D03*
Y179900D03*
Y182440D03*
Y184980D03*
Y187520D03*
Y190060D03*
Y192600D03*
Y195140D03*
Y197680D03*
X57980Y98620D03*
Y101160D03*
Y121480D03*
Y124020D03*
Y177360D03*
Y179900D03*
Y182440D03*
Y184980D03*
Y187520D03*
Y190060D03*
Y192600D03*
Y195140D03*
Y197680D03*
X60520Y98620D03*
Y101160D03*
Y121480D03*
Y124020D03*
Y179900D03*
Y182440D03*
Y184980D03*
Y187520D03*
Y190060D03*
Y192600D03*
Y195140D03*
Y197680D03*
X63060Y98620D03*
Y101160D03*
Y121480D03*
Y124020D03*
Y182440D03*
Y184980D03*
Y187520D03*
Y190060D03*
Y192600D03*
Y195140D03*
Y197680D03*
X65600Y98620D03*
Y101160D03*
Y121480D03*
Y124020D03*
Y184980D03*
Y187520D03*
Y190060D03*
Y192600D03*
Y195140D03*
Y197680D03*
X68140Y98620D03*
Y101160D03*
Y121480D03*
Y124020D03*
Y184980D03*
Y187520D03*
Y190060D03*
Y192600D03*
Y195140D03*
Y197680D03*
X70100Y164100D03*
Y174100D03*
X70680Y98620D03*
Y101160D03*
Y121480D03*
Y124020D03*
Y184980D03*
Y187520D03*
Y190060D03*
Y192600D03*
Y195140D03*
Y197680D03*
X72100Y164100D03*
Y174100D03*
X73220Y98620D03*
Y101160D03*
Y121480D03*
Y124020D03*
X74100Y164100D03*
Y174100D03*
X75760Y98620D03*
Y101160D03*
Y121480D03*
Y124020D03*
X76100Y164100D03*
Y174100D03*
X77350Y190350D03*
Y193350D03*
X78300Y98620D03*
Y101160D03*
Y121480D03*
Y124020D03*
X79890Y190350D03*
Y193350D03*
X80205Y43375D03*
X80840Y98620D03*
Y101160D03*
Y121480D03*
Y124020D03*
X81475Y45280D03*
X81804Y83054D03*
X82745Y43375D03*
X83380Y98620D03*
Y101160D03*
Y121480D03*
Y124020D03*
X83554Y73804D03*
X85100Y164100D03*
Y174100D03*
Y184100D03*
Y194100D03*
X85920Y98620D03*
Y101160D03*
Y121480D03*
Y124020D03*
X87100Y164100D03*
Y174100D03*
Y184100D03*
Y194100D03*
X88460Y98620D03*
Y101160D03*
Y121480D03*
Y124020D03*
X88988Y75870D03*
X89100Y164100D03*
Y174100D03*
Y184100D03*
Y194100D03*
X90738Y66620D03*
X91000Y98620D03*
Y101160D03*
Y121480D03*
Y124020D03*
X91100Y164100D03*
Y174100D03*
Y184100D03*
Y194100D03*
X93540Y98620D03*
Y101160D03*
Y121480D03*
Y124020D03*
X96080Y98620D03*
Y101160D03*
Y121480D03*
Y124020D03*
X98620Y98620D03*
Y101160D03*
Y121480D03*
Y124020D03*
X100100Y164100D03*
Y174100D03*
X101160Y98620D03*
Y101160D03*
Y121480D03*
Y124020D03*
X102100Y164100D03*
Y174100D03*
X103700Y98620D03*
Y101160D03*
Y121480D03*
Y124020D03*
X104100Y164100D03*
Y174100D03*
X106100Y164100D03*
Y174100D03*
X106240Y98620D03*
Y101160D03*
Y121480D03*
Y124020D03*
X108780Y98620D03*
Y101160D03*
Y121480D03*
Y124020D03*
X111320Y98620D03*
Y101160D03*
Y121480D03*
Y124020D03*
X113860Y98620D03*
Y101160D03*
Y121480D03*
Y124020D03*
X115100Y164100D03*
Y174100D03*
Y184100D03*
Y194100D03*
X116400Y98620D03*
Y101160D03*
Y121480D03*
Y124020D03*
X117100Y164100D03*
Y174100D03*
Y184100D03*
Y194100D03*
X118940Y98620D03*
Y101160D03*
Y121480D03*
Y124020D03*
X119100Y164100D03*
Y174100D03*
Y184100D03*
Y194100D03*
X121100Y164100D03*
Y174100D03*
Y184100D03*
Y194100D03*
X121480Y98620D03*
Y101160D03*
Y121480D03*
Y124020D03*
X124020Y98620D03*
Y101160D03*
Y121480D03*
Y124020D03*
X126560Y98620D03*
Y101160D03*
Y121480D03*
Y124020D03*
X129100Y98620D03*
Y101160D03*
Y121480D03*
Y124020D03*
X131640Y98620D03*
Y101160D03*
Y121480D03*
Y124020D03*
D02*
D81*
X5275Y167200D03*
X5910Y5910D03*
X6600Y197600D03*
X7860Y87220D03*
X8600Y67600D03*
X9600Y51100D03*
X10350Y106600D03*
X10673Y25913D03*
X17350Y119600D03*
X17975Y189425D03*
X24350Y97350D03*
X27060Y136100D03*
X27100Y161350D03*
X27600Y55350D03*
X29405Y12895D03*
X29600Y136100D03*
X33100Y132850D03*
X33215Y66235D03*
X33850Y57663D03*
X34485Y41470D03*
X35120Y106875D03*
X38350Y119600D03*
X41470Y75760D03*
X46260Y58420D03*
X47185Y67505D03*
X48455Y102430D03*
X49350Y166350D03*
X55440Y66870D03*
X58310Y170100D03*
X59060Y52660D03*
X60850Y170100D03*
X63390D03*
X65100Y157600D03*
X66350Y181100D03*
X68140Y134180D03*
X68775Y13530D03*
X71850Y144600D03*
X71950Y116400D03*
X73855Y198315D03*
X75850Y85600D03*
X77665Y27818D03*
X78850Y75600D03*
X79570Y108780D03*
X81850Y160100D03*
X82600Y190100D03*
X85850Y29600D03*
X88350Y136600D03*
X90365Y116400D03*
X90850Y198850D03*
X92100Y52850D03*
X92350Y80850D03*
X92600Y169600D03*
X95100Y66600D03*
X100600Y192350D03*
X101350Y29850D03*
Y35600D03*
Y45600D03*
X103700Y107510D03*
X105100Y44100D03*
X106240Y116400D03*
X107100Y199100D03*
X109600Y168350D03*
X110100Y184100D03*
X112590Y85285D03*
X114100Y156600D03*
X114177Y61155D03*
X114495Y117670D03*
X115448Y30358D03*
X116400Y46233D03*
X122100Y198850D03*
X125600Y112350D03*
X126521Y70024D03*
X128783Y32263D03*
X131350Y173850D03*
X132275Y46550D03*
X133545Y84333D03*
Y129100D03*
X134180Y157040D03*
X134498Y59885D03*
X137355Y99573D03*
X137673Y5910D03*
X137990Y25278D03*
Y115765D03*
Y136720D03*
X138100Y182100D03*
Y198600D03*
D02*
D82*
X38930Y148150D03*
Y153230D03*
X41470Y148150D03*
Y153230D03*
X44010Y148150D03*
Y153230D03*
X46550Y148150D03*
Y153230D03*
X49090Y148150D03*
Y153230D03*
X51630Y148150D03*
Y153230D03*
X54170Y148150D03*
Y153230D03*
X56710Y148150D03*
Y153230D03*
X59250Y148150D03*
Y153230D03*
X61790Y148150D03*
Y153230D03*
X64330Y148150D03*
Y153230D03*
X66870Y148150D03*
Y153230D03*
X69410Y148150D03*
Y153230D03*
X73855Y148150D03*
Y153230D03*
X76395Y148150D03*
Y153230D03*
X78935Y148150D03*
Y153230D03*
X81475Y148150D03*
Y153230D03*
X84015Y148150D03*
Y153230D03*
X86555Y148150D03*
Y153230D03*
X89095Y148150D03*
Y153230D03*
X91635Y148150D03*
Y153230D03*
X94175Y148150D03*
Y153230D03*
X96715Y148150D03*
Y153230D03*
X99255Y148150D03*
Y153230D03*
X101795Y148150D03*
Y153230D03*
X104335Y148150D03*
Y153230D03*
X106875Y148150D03*
Y153230D03*
X109415Y148150D03*
Y153230D03*
X111955Y148150D03*
Y153230D03*
X114495Y148150D03*
Y153230D03*
X117035Y148150D03*
Y153230D03*
X119575Y148150D03*
Y153230D03*
X122115Y148150D03*
Y153230D03*
X124655Y148150D03*
Y153230D03*
X127195Y148150D03*
Y153230D03*
X129735Y148150D03*
Y153230D03*
X132275Y148150D03*
Y153230D03*
X134815Y148150D03*
Y153230D03*
X137355Y148150D03*
Y153230D03*
D02*
D85*
X17970Y66374D03*
X18287Y76530D03*
X18293Y71950D03*
Y74490D03*
Y78300D03*
X18927Y69410D03*
X31310Y199585D03*
X45350Y162100D03*
X45600Y156100D03*
X49090Y199585D03*
X50850Y156100D03*
X57100Y161850D03*
X59850Y165350D03*
X60520Y78935D03*
X65100Y173850D03*
X67100Y163100D03*
X69410Y120210D03*
X70850Y171350D03*
X71100Y161100D03*
Y165100D03*
X72850Y157350D03*
Y172850D03*
X79570Y97350D03*
Y120210D03*
X79850Y195100D03*
X82110Y97350D03*
X82600Y194350D03*
X84650Y97350D03*
X86100Y163100D03*
Y165100D03*
Y173100D03*
Y175100D03*
Y183100D03*
Y185100D03*
Y193100D03*
X87190Y97350D03*
X87850Y165350D03*
Y172850D03*
Y175350D03*
Y182850D03*
Y185350D03*
Y192850D03*
X89730Y97350D03*
X92270D03*
X94810D03*
X97350Y120210D03*
X100100Y156100D03*
X102850Y155850D03*
X105350Y156100D03*
X116100Y175100D03*
Y185100D03*
X116350Y165350D03*
X117850Y172850D03*
Y182850D03*
Y192850D03*
D02*
D92*
X15665Y57430D03*
Y86430D03*
X123665Y57430D03*
Y86430D03*
D02*
D93*
X11100Y11100D03*
Y193100D03*
X133100Y11100D03*
Y193100D03*
D02*
D94*
X31231Y25131D03*
X34766Y21595D03*
X40070Y33969D03*
X42731Y36631D03*
X42731Y13630D03*
X43605Y30434D03*
X46266Y33095D03*
X46267Y10095D03*
X51569Y45469D03*
X51570Y22469D03*
X54231Y25130D03*
X55105Y41934D03*
X55105Y18933D03*
X57767Y21595D03*
X63070Y33969D03*
X66605Y30433D03*
X84650Y16150D03*
Y21150D03*
X97150Y16150D03*
Y21150D03*
X105605Y16150D03*
Y21150D03*
X118105Y16150D03*
Y21150D03*
D02*
D95*
X34236Y30964D03*
X40600Y24600D03*
X45736Y42464D03*
X45736Y19464D03*
X52100Y36100D03*
X52100Y13100D03*
X57236Y30964D03*
X63600Y24600D03*
X90900Y14150D03*
Y23150D03*
X111855Y14150D03*
Y23150D03*
D02*
D96*
X9350Y144600D03*
X11850D03*
X16070Y45550D03*
Y47550D03*
X18850Y143350D03*
Y145350D03*
X20515Y49725D03*
X21850Y127850D03*
Y129850D03*
X23015Y49725D03*
X24600Y144600D03*
X27100D03*
X34100Y143350D03*
Y145350D03*
X57980Y116400D03*
X59850Y157850D03*
Y159850D03*
X60480Y116400D03*
X69410Y44280D03*
Y46280D03*
X74490Y44050D03*
Y46550D03*
X75350Y183600D03*
X77350D03*
X96080Y74490D03*
X98620Y72903D03*
X101160Y59885D03*
X104335Y56393D03*
X106240Y59885D03*
X108780Y56393D03*
X118980Y105605D03*
X121480D03*
D02*
D97*
X9800Y129850D03*
D02*
D99*
X15800Y128450D03*
Y128550D03*
Y128650D03*
Y128750D03*
Y128850D03*
Y128950D03*
Y129050D03*
Y129150D03*
Y129250D03*
Y129350D03*
Y129450D03*
Y129550D03*
Y129650D03*
Y129750D03*
Y129950D03*
Y130050D03*
Y130150D03*
Y130250D03*
Y130350D03*
Y130450D03*
Y130550D03*
Y130650D03*
Y130750D03*
Y130850D03*
Y130950D03*
Y131050D03*
Y131150D03*
Y131250D03*
D02*
D100*
Y129850D03*
D02*
D101*
X12850Y124950D03*
D02*
D102*
X9310Y149100D03*
X9350Y140600D03*
X11850Y149100D03*
X14350Y140600D03*
X14390Y149100D03*
X24560D03*
X24600Y140600D03*
X27100Y149100D03*
X29600Y140600D03*
X29640Y149100D03*
D02*
D120*
X9800Y128750D03*
Y128850D03*
Y128950D03*
Y129050D03*
Y129150D03*
Y129250D03*
Y129350D03*
Y129450D03*
Y129550D03*
Y129650D03*
Y129750D03*
Y129950D03*
Y130050D03*
Y130150D03*
Y130250D03*
Y130350D03*
Y130450D03*
Y130550D03*
Y130650D03*
Y130750D03*
Y130850D03*
Y130950D03*
X11750Y124950D03*
D03*
X11850D03*
X11950D03*
X12050D03*
X12150D03*
X12250D03*
X12350D03*
X12450D03*
D03*
X12550D03*
X12650D03*
X12750D03*
X12950D03*
X13050D03*
X13150D03*
X13250D03*
X13350D03*
X13450D03*
X13550D03*
D03*
X13650D03*
X13750D03*
X13850D03*
X13950D03*
X0Y0D02*
M02*
